<?xml version="1.0" encoding="iso-8859-1"?>
<!-- Generator: Adobe Illustrator 16.0.0, SVG Export Plug-In . SVG Version: 6.00 Build 0)  -->
<!DOCTYPE svg PUBLIC "-//W3C//DTD SVG 1.1//EN" "http://www.w3.org/Graphics/SVG/1.1/DTD/svg11.dtd">
<svg version="1.1" id="Capa_1" xmlns="http://www.w3.org/2000/svg" xmlns:xlink="http://www.w3.org/1999/xlink" x="0px" y="0px"
	 width="51.506px" height="51.506px" viewBox="0 0 51.506 51.506" style="enable-background:new 0 0 51.506 51.506;"
	 xml:space="preserve">
<g>
	<path d="M25.682,28.391c-11.246,0-21.281,7.315-25.564,18.636c-0.191,0.507-0.148,1.09,0.117,1.551s0.715,0.738,1.197,0.739
		l48.639,0.068h0.002c0.479,0,0.926-0.273,1.191-0.729c0.268-0.455,0.315-1.033,0.133-1.54
		C47.261,35.741,37.167,28.391,25.682,28.391z M6.647,46.614l-2.469-0.003c-0.43-0.001-0.828-0.201-1.066-0.533
		c-0.234-0.333-0.273-0.754-0.104-1.119c0.533-1.145,1.178-2.226,1.9-3.249h1.738L6.647,46.614L6.647,46.614z M36.893,33.794
		c2.641,1.154,5.018,2.712,7.014,4.615h-7.014V33.794z M19.992,46.63l-9.785-0.012V41.71h9.785V46.63z M19.992,38.41h-9.785v-2.017
		c2.834-2.045,6.17-3.52,9.785-4.283V38.41z M33.333,46.644l-9.785-0.011v-4.924h9.785V46.644z M33.333,38.41h-9.785v-6.81
		c0.729-0.057,1.461-0.095,2.201-0.095c2.635,0,5.187,0.36,7.584,1.024V38.41z M46.677,46.66l-9.784-0.012V41.71h9.784V46.66z
		 M36.488,16.949c-1.229-1.229-1.229-3.221,0-4.451l9.457-9.455c1.229-1.229,3.221-1.229,4.451,0
		c1.229,1.229,1.229,3.222-0.002,4.451l-9.455,9.455C39.71,18.178,37.716,18.178,36.488,16.949z M50.6,19.324
		c0,2.254-1.826,4.08-4.078,4.08s-4.078-1.826-4.078-4.08c0-2.253,1.826-4.08,4.078-4.08S50.6,17.071,50.6,19.324z M1.106,7.494
		c-1.229-1.229-1.229-3.223,0-4.451s3.221-1.229,4.451,0l9.455,9.455c1.229,1.23,1.229,3.223,0,4.451s-3.223,1.229-4.451,0
		L1.106,7.494z M4.98,15.244c2.252,0,4.08,1.827,4.08,4.08c0,2.254-1.828,4.08-4.08,4.08s-4.078-1.826-4.078-4.08
		C0.901,17.071,2.729,15.244,4.98,15.244z"/>
</g>
<g>
</g>
<g>
</g>
<g>
</g>
<g>
</g>
<g>
</g>
<g>
</g>
<g>
</g>
<g>
</g>
<g>
</g>
<g>
</g>
<g>
</g>
<g>
</g>
<g>
</g>
<g>
</g>
<g>
</g>
</svg>
