<?xml version="1.0" encoding="iso-8859-1"?>
<!-- Generator: Adobe Illustrator 16.0.0, SVG Export Plug-In . SVG Version: 6.00 Build 0)  -->
<!DOCTYPE svg PUBLIC "-//W3C//DTD SVG 1.1//EN" "http://www.w3.org/Graphics/SVG/1.1/DTD/svg11.dtd">
<svg version="1.1" id="Capa_1" xmlns="http://www.w3.org/2000/svg" xmlns:xlink="http://www.w3.org/1999/xlink" x="0px" y="0px"
	 width="63.621px" height="63.621px" viewBox="0 0 63.621 63.621" style="enable-background:new 0 0 63.621 63.621;"
	 xml:space="preserve">
<g>
	<path d="M18.222,23.485c-2.258,0-4.09-2.777-4.09-6.203c0-3.424,1.832-6.201,4.09-6.201c2.258,0,4.09,2.777,4.09,6.201
		C22.312,20.707,20.479,23.485,18.222,23.485z M50.43,17.282c0,3.426-1.832,6.203-4.09,6.203s-4.09-2.777-4.09-6.203
		c0-3.424,1.832-6.201,4.09-6.201S50.43,13.858,50.43,17.282z M44.644,48.781c0,8.183-5.755,14.84-12.833,14.84
		s-12.833-6.657-12.833-14.84c0-8.182,5.755-14.835,12.833-14.835S44.644,40.6,44.644,48.781z M51.505,2.158
		c0.545,1.649-0.352,3.432-1.999,3.978l-16.681,5.52c-0.194,0.065-0.396,0.111-0.602,0.138c-0.026,0.004-0.055,0.012-0.082,0.015
		c-0.108,0.012-0.222,0.008-0.334,0.007c-0.11,0.001-0.22,0.005-0.328-0.006c-0.029-0.003-0.058-0.012-0.087-0.016
		c-0.202-0.026-0.399-0.071-0.591-0.136L14.116,6.136C12.466,5.59,11.572,3.81,12.117,2.16c0.546-1.65,2.325-2.546,3.978-1.999
		l15.717,5.2L47.526,0.16C49.178-0.386,50.959,0.509,51.505,2.158z"/>
</g>
<g>
</g>
<g>
</g>
<g>
</g>
<g>
</g>
<g>
</g>
<g>
</g>
<g>
</g>
<g>
</g>
<g>
</g>
<g>
</g>
<g>
</g>
<g>
</g>
<g>
</g>
<g>
</g>
<g>
</g>
</svg>
