<?xml version="1.0" encoding="iso-8859-1"?>
<!-- Generator: Adobe Illustrator 16.0.0, SVG Export Plug-In . SVG Version: 6.00 Build 0)  -->
<!DOCTYPE svg PUBLIC "-//W3C//DTD SVG 1.1//EN" "http://www.w3.org/Graphics/SVG/1.1/DTD/svg11.dtd">
<svg version="1.1" id="Capa_1" xmlns="http://www.w3.org/2000/svg" xmlns:xlink="http://www.w3.org/1999/xlink" x="0px" y="0px"
	 width="51.133px" height="51.132px" viewBox="0 0 51.133 51.132" style="enable-background:new 0 0 51.133 51.132;"
	 xml:space="preserve">
<g>
	<path d="M48.177,43.944c0,1.921-1.559,3.479-3.479,3.479H6.439c-1.921,0-3.479-1.558-3.479-3.479s1.558-3.478,3.479-3.478h38.259
		C46.618,40.466,48.177,42.023,48.177,43.944z M6.104,14.265L0.921,9.083c-1.229-1.229-1.229-3.222,0-4.451s3.222-1.229,4.451,0
		l9.456,9.455c0.014,0.014,0.023,0.031,0.037,0.045c1.161,1.127,1.885,2.702,1.885,4.447c0,3.426-2.777,6.203-6.2,6.203
		c-3.423,0-6.201-2.777-6.201-6.203C4.35,16.902,5.021,15.382,6.104,14.265z M50.211,4.633c1.229,1.229,1.229,3.222,0,4.451
		l-5.183,5.182c1.083,1.117,1.754,2.637,1.754,4.315c0,3.426-2.776,6.203-6.2,6.203s-6.2-2.777-6.2-6.203
		c0-1.745,0.724-3.32,1.885-4.447c0.014-0.014,0.022-0.031,0.037-0.045l9.456-9.455C46.988,3.404,48.981,3.404,50.211,4.633z"/>
</g>
<g>
</g>
<g>
</g>
<g>
</g>
<g>
</g>
<g>
</g>
<g>
</g>
<g>
</g>
<g>
</g>
<g>
</g>
<g>
</g>
<g>
</g>
<g>
</g>
<g>
</g>
<g>
</g>
<g>
</g>
</svg>
