<?xml version="1.0" encoding="iso-8859-1"?>
<!-- Generator: Adobe Illustrator 16.0.0, SVG Export Plug-In . SVG Version: 6.00 Build 0)  -->
<!DOCTYPE svg PUBLIC "-//W3C//DTD SVG 1.1//EN" "http://www.w3.org/Graphics/SVG/1.1/DTD/svg11.dtd">
<svg version="1.1" id="Capa_1" xmlns="http://www.w3.org/2000/svg" xmlns:xlink="http://www.w3.org/1999/xlink" x="0px" y="0px"
	 width="53.262px" height="53.262px" viewBox="0 0 53.262 53.262" style="enable-background:new 0 0 53.262 53.262;"
	 xml:space="preserve">
<g>
	<path d="M8.951,53.262h35.36c4.688,0,8.486-3.8,8.486-8.485v-9.752c0-4.688-3.799-8.486-8.486-8.486H8.951
		c-4.687,0-8.486,3.8-8.486,8.486v9.752C0.464,49.462,4.264,53.262,8.951,53.262z M40.706,29.841h5.321
		c1.297,0.939,2.271,2.294,2.726,3.872v4.176h-8.047V29.841z M40.706,41.911h8.047v4.175c-0.454,1.578-1.427,2.934-2.726,3.872
		h-5.321V41.911z M28.65,29.841h8.032v8.048H28.65V29.841z M28.65,41.911h8.032v8.046H28.65V41.911z M16.58,29.841h8.033v8.048
		H16.58V29.841z M16.58,41.911h8.033v8.046H16.58V41.911z M4.509,33.713c0.454-1.578,1.428-2.933,2.725-3.872h5.322v8.048H4.509
		V33.713z M4.509,41.911h8.047v8.046H7.234c-1.297-0.938-2.271-2.293-2.725-3.872V41.911z M1.986,5.373
		c-1.229-1.229-1.229-3.222,0-4.451s3.222-1.229,4.451,0l9.456,9.455c1.229,1.229,1.229,3.222,0,4.451
		c-1.229,1.229-3.222,1.229-4.451,0L1.986,5.373z M37.367,14.829c-1.229-1.229-1.228-3.223,0-4.451l9.457-9.455
		c1.229-1.229,3.222-1.229,4.451,0c1.229,1.229,1.229,3.222,0,4.451l-9.457,9.456C40.59,16.057,38.597,16.058,37.367,14.829z"/>
</g>
<g>
</g>
<g>
</g>
<g>
</g>
<g>
</g>
<g>
</g>
<g>
</g>
<g>
</g>
<g>
</g>
<g>
</g>
<g>
</g>
<g>
</g>
<g>
</g>
<g>
</g>
<g>
</g>
<g>
</g>
</svg>
