<?xml version="1.0" encoding="iso-8859-1"?>
<!-- Generator: Adobe Illustrator 16.0.0, SVG Export Plug-In . SVG Version: 6.00 Build 0)  -->
<!DOCTYPE svg PUBLIC "-//W3C//DTD SVG 1.1//EN" "http://www.w3.org/Graphics/SVG/1.1/DTD/svg11.dtd">
<svg version="1.1" id="Capa_1" xmlns="http://www.w3.org/2000/svg" xmlns:xlink="http://www.w3.org/1999/xlink" x="0px" y="0px"
	 width="51.817px" height="51.816px" viewBox="0 0 51.817 51.816" style="enable-background:new 0 0 51.817 51.816;"
	 xml:space="preserve">
<g>
	<path d="M1.432,49.603l48.639,0.068h0.002c0.479,0,0.926-0.273,1.191-0.729c0.268-0.455,0.315-1.033,0.133-1.54
		c-4.136-11.374-14.229-18.724-25.715-18.724c-11.246,0-21.281,7.314-25.564,18.635c-0.191,0.507-0.148,1.09,0.117,1.551
		S0.948,49.603,1.432,49.603z M36.893,34.081c2.641,1.154,5.018,2.713,7.014,4.615h-7.014V34.081z M36.893,41.997h9.784v4.95
		l-9.784-0.011V41.997z M23.548,31.888c0.729-0.058,1.461-0.096,2.201-0.096c2.635,0,5.187,0.36,7.584,1.024v5.88h-9.785V31.888z
		 M23.548,41.997h9.785v4.936l-9.785-0.012V41.997z M10.207,36.681c2.834-2.045,6.17-3.52,9.785-4.283v6.3h-9.785V36.681z
		 M10.207,41.997h9.785v4.92l-9.785-0.012V41.997z M3.009,45.246c0.533-1.144,1.178-2.226,1.9-3.249h1.738v4.904l-2.469-0.002
		c-0.43-0.002-0.828-0.202-1.066-0.534C2.878,46.032,2.839,45.611,3.009,45.246z M1.606,7.517c-1.229-1.229-1.229-3.221,0-4.45
		s3.221-1.229,4.451,0.001l9.455,9.455c0.014,0.014,0.023,0.031,0.037,0.045c1.16,1.127,1.885,2.701,1.885,4.446
		c0,3.427-2.777,6.203-6.199,6.203c-3.424,0-6.201-2.776-6.201-6.203c0-1.678,0.67-3.198,1.754-4.315L1.606,7.517z M35.066,17.014
		c0-1.744,0.723-3.318,1.883-4.445c0.016-0.015,0.023-0.032,0.039-0.046l9.457-9.455c1.229-1.23,3.221-1.23,4.451-0.001
		c1.229,1.229,1.229,3.222-0.002,4.45l-5.183,5.182c1.084,1.117,1.754,2.637,1.754,4.315c0,3.427-2.776,6.203-6.198,6.203
		C37.843,23.217,35.066,20.441,35.066,17.014z"/>
</g>
<g>
</g>
<g>
</g>
<g>
</g>
<g>
</g>
<g>
</g>
<g>
</g>
<g>
</g>
<g>
</g>
<g>
</g>
<g>
</g>
<g>
</g>
<g>
</g>
<g>
</g>
<g>
</g>
<g>
</g>
</svg>
