<?xml version="1.0" encoding="iso-8859-1"?>
<!-- Generator: Adobe Illustrator 16.0.0, SVG Export Plug-In . SVG Version: 6.00 Build 0)  -->
<!DOCTYPE svg PUBLIC "-//W3C//DTD SVG 1.1//EN" "http://www.w3.org/Graphics/SVG/1.1/DTD/svg11.dtd">
<svg version="1.1" id="Capa_1" xmlns="http://www.w3.org/2000/svg" xmlns:xlink="http://www.w3.org/1999/xlink" x="0px" y="0px"
	 width="51.504px" height="51.504px" viewBox="0 0 51.504 51.504" style="enable-background:new 0 0 51.504 51.504;"
	 xml:space="preserve">
<g>
	<path d="M1.106,7.137c-1.229-1.229-1.229-3.222,0-4.451s3.222-1.229,4.451,0l9.456,9.455c1.229,1.229,1.229,3.222,0,4.451
		c-1.229,1.229-3.222,1.229-4.451,0L1.106,7.137z M36.489,16.593c-1.229-1.229-1.229-3.223,0-4.451l9.456-9.455
		c1.229-1.229,3.222-1.229,4.451,0c1.229,1.229,1.229,3.222,0,4.451l-9.456,9.456C39.71,17.821,37.717,17.822,36.489,16.593z
		 M25.681,28.746c-11.245,0-21.28,7.314-25.563,18.636c-0.191,0.506-0.148,1.089,0.117,1.55s0.715,0.739,1.197,0.74L50.07,49.74
		c0,0,0.001,0,0.002,0c0.479,0,0.926-0.273,1.191-0.729c0.267-0.455,0.315-1.033,0.132-1.54
		C47.26,36.096,37.167,28.746,25.681,28.746z M6.647,46.969l-2.469-0.002c-0.43-0.001-0.828-0.202-1.065-0.534
		c-0.235-0.333-0.274-0.754-0.104-1.119c0.533-1.144,1.178-2.225,1.9-3.249h1.738V46.969z M36.893,34.148
		c2.64,1.154,5.017,2.713,7.013,4.615h-7.013V34.148z M19.992,46.984l-9.785-0.012v-4.908h9.785V46.984z M19.992,38.765h-9.785
		v-2.016c2.835-2.045,6.17-3.521,9.785-4.283V38.765z M33.334,46.999l-9.785-0.011v-4.925h9.785V46.999z M33.334,38.765h-9.785
		v-6.809c0.728-0.058,1.46-0.095,2.2-0.095c2.636,0,5.187,0.359,7.585,1.023V38.765z M46.677,47.015l-9.784-0.011v-4.939h9.784
		V47.015z"/>
</g>
<g>
</g>
<g>
</g>
<g>
</g>
<g>
</g>
<g>
</g>
<g>
</g>
<g>
</g>
<g>
</g>
<g>
</g>
<g>
</g>
<g>
</g>
<g>
</g>
<g>
</g>
<g>
</g>
<g>
</g>
</svg>
