<?xml version="1.0" encoding="iso-8859-1"?>
<!-- Generator: Adobe Illustrator 16.0.0, SVG Export Plug-In . SVG Version: 6.00 Build 0)  -->
<!DOCTYPE svg PUBLIC "-//W3C//DTD SVG 1.1//EN" "http://www.w3.org/Graphics/SVG/1.1/DTD/svg11.dtd">
<svg version="1.1" id="Capa_1" xmlns="http://www.w3.org/2000/svg" xmlns:xlink="http://www.w3.org/1999/xlink" x="0px" y="0px"
	 width="56.645px" height="56.646px" viewBox="0 0 56.645 56.646" style="enable-background:new 0 0 56.645 56.646;"
	 xml:space="preserve">
<g>
	<path d="M49.157,47.747c-22.713,20.021-43.377,0-43.377,0c0-11.55,9.711-20.913,21.688-20.913S49.157,36.197,49.157,47.747z
		 M8.013,7.868C8.013,5.18,10.194,3,12.88,3c2.688,0,4.867,2.181,4.867,4.868c0,2.689-2.18,4.87-4.867,4.87
		C10.194,12.738,8.013,10.557,8.013,7.868z M50.866,7.868c0,4.347-3.523,7.87-7.867,7.87c-4.343,0-7.869-3.523-7.869-7.87
		C35.129,3.524,38.656,0,42.999,0C47.342,0,50.866,3.524,50.866,7.868z"/>
</g>
<g>
</g>
<g>
</g>
<g>
</g>
<g>
</g>
<g>
</g>
<g>
</g>
<g>
</g>
<g>
</g>
<g>
</g>
<g>
</g>
<g>
</g>
<g>
</g>
<g>
</g>
<g>
</g>
<g>
</g>
</svg>
