<?xml version="1.0" encoding="iso-8859-1"?>
<!-- Generator: Adobe Illustrator 16.0.0, SVG Export Plug-In . SVG Version: 6.00 Build 0)  -->
<!DOCTYPE svg PUBLIC "-//W3C//DTD SVG 1.1//EN" "http://www.w3.org/Graphics/SVG/1.1/DTD/svg11.dtd">
<svg version="1.1" id="Capa_1" xmlns="http://www.w3.org/2000/svg" xmlns:xlink="http://www.w3.org/1999/xlink" x="0px" y="0px"
	 width="57.951px" height="57.952px" viewBox="0 0 57.951 57.952" style="enable-background:new 0 0 57.951 57.952;"
	 xml:space="preserve">
<g>
	<path d="M34.777,33c10.084,0,19.084,5.742,22.927,14.629c0.658,1.521-0.041,3.287-1.563,3.943c-1.52,0.66-3.284-0.041-3.942-1.562
		c-2.895-6.689-9.731-11.012-17.421-11.012c-7.868,0-14.747,4.32-17.523,11.004c-0.479,1.154-1.596,1.851-2.771,1.851
		c-0.384,0-0.773-0.073-1.15-0.229c-1.53-0.637-2.255-2.393-1.619-3.922C15.422,38.771,24.476,33,34.777,33z M13.927,12.299
		c0-3.423,2.777-6.201,6.201-6.201c3.423,0,6.199,2.777,6.199,6.201c0,3.426-2.776,6.203-6.199,6.203
		C16.704,18.502,13.927,15.725,13.927,12.299z M42.044,12.299c0-3.423,2.78-6.201,6.202-6.201c3.424,0,6.201,2.777,6.201,6.201
		c0,3.426-2.777,6.203-6.201,6.203C44.824,18.502,42.044,15.725,42.044,12.299z M1.274,21.696c2.374-2.483,8.499-2.301,8.499-2.301
		c-1.581,2.289-1.902,4.191-1.902,4.191c-0.375,2.156-1.542,3.376-1.542,3.376c-2.564,2.684-5.211,0.11-5.211,0.11
		C-1.486,24.584,1.274,21.696,1.274,21.696z M1.68,37.321c1.652-1.729,5.917-1.602,5.917-1.602
		c-1.101,1.593-1.325,2.917-1.325,2.917c-0.261,1.501-1.073,2.351-1.073,2.351c-1.785,1.869-3.628,0.076-3.628,0.076
		C-0.242,39.333,1.68,37.321,1.68,37.321z"/>
</g>
<g>
</g>
<g>
</g>
<g>
</g>
<g>
</g>
<g>
</g>
<g>
</g>
<g>
</g>
<g>
</g>
<g>
</g>
<g>
</g>
<g>
</g>
<g>
</g>
<g>
</g>
<g>
</g>
<g>
</g>
</svg>
