<?xml version="1.0" encoding="iso-8859-1"?>
<!-- Generator: Adobe Illustrator 16.0.0, SVG Export Plug-In . SVG Version: 6.00 Build 0)  -->
<!DOCTYPE svg PUBLIC "-//W3C//DTD SVG 1.1//EN" "http://www.w3.org/Graphics/SVG/1.1/DTD/svg11.dtd">
<svg version="1.1" id="Capa_1" xmlns="http://www.w3.org/2000/svg" xmlns:xlink="http://www.w3.org/1999/xlink" x="0px" y="0px"
	 width="51.505px" height="51.505px" viewBox="0 0 51.505 51.505" style="enable-background:new 0 0 51.505 51.505;"
	 xml:space="preserve">
<g>
	<path d="M51.395,45.896c0.185,0.443,0.135,0.949-0.131,1.348c-0.268,0.398-0.715,0.637-1.192,0.637c-0.001,0-0.001,0-0.002,0
		L1.432,47.82c-0.482,0-0.932-0.243-1.196-0.646c-0.264-0.402-0.31-0.912-0.118-1.355c4.285-9.903,14.318-16.303,25.563-16.303
		C37.167,29.515,47.26,35.945,51.395,45.896z M5.963,9.826c0-3.423,2.777-6.201,6.2-6.201c3.423,0,6.2,2.777,6.2,6.201
		c0,3.426-2.777,6.203-6.2,6.203C8.74,16.028,5.963,13.251,5.963,9.826z M34.08,9.826c0-3.423,2.78-6.201,6.203-6.201
		s6.2,2.777,6.2,6.201c0,3.426-2.777,6.203-6.2,6.203S34.08,13.251,34.08,9.826z"/>
</g>
<g>
</g>
<g>
</g>
<g>
</g>
<g>
</g>
<g>
</g>
<g>
</g>
<g>
</g>
<g>
</g>
<g>
</g>
<g>
</g>
<g>
</g>
<g>
</g>
<g>
</g>
<g>
</g>
<g>
</g>
</svg>
