<?xml version="1.0" encoding="iso-8859-1"?>
<!-- Generator: Adobe Illustrator 16.0.0, SVG Export Plug-In . SVG Version: 6.00 Build 0)  -->
<!DOCTYPE svg PUBLIC "-//W3C//DTD SVG 1.1//EN" "http://www.w3.org/Graphics/SVG/1.1/DTD/svg11.dtd">
<svg version="1.1" id="Capa_1" xmlns="http://www.w3.org/2000/svg" xmlns:xlink="http://www.w3.org/1999/xlink" x="0px" y="0px"
	 width="45.216px" height="45.216px" viewBox="0 0 45.216 45.216" style="enable-background:new 0 0 45.216 45.216;"
	 xml:space="preserve">
<g>
	<path d="M45.216,41.306c0-1.921-1.558-3.479-3.479-3.479H3.479C1.558,37.828,0,39.385,0,41.306s1.558,3.478,3.479,3.478h38.259
		C43.658,44.784,45.216,43.227,45.216,41.306z"/>
	<path d="M1.293,17.386c0.279,0.13,0.622,0.09,0.858-0.1l9.758-7.697c0.193-0.154,0.304-0.388,0.304-0.641s-0.11-0.486-0.308-0.645
		L2.15,0.607C2.006,0.495,1.826,0.433,1.643,0.433c-0.122,0-0.246,0.027-0.358,0.082c-0.279,0.135-0.46,0.425-0.46,0.738v3.553
		c0,0.181,0.084,0.35,0.225,0.462l4.664,3.681l-4.664,3.68c-0.141,0.112-0.225,0.282-0.225,0.463v3.554
		C0.825,16.958,0.999,17.241,1.293,17.386z"/>
	<path d="M43.007,17.286c0.144,0.113,0.323,0.175,0.506,0.175c0.122,0,0.246-0.027,0.359-0.082c0.278-0.135,0.459-0.425,0.459-0.738
		v-3.552c0-0.181-0.083-0.35-0.226-0.462l-4.664-3.681l4.664-3.68c0.143-0.112,0.226-0.282,0.226-0.463V1.249
		c0-0.313-0.175-0.596-0.468-0.741c-0.278-0.13-0.621-0.09-0.858,0.1l-9.756,7.698c-0.192,0.154-0.306,0.388-0.306,0.641
		s0.111,0.486,0.31,0.645L43.007,17.286z"/>
</g>
<g>
</g>
<g>
</g>
<g>
</g>
<g>
</g>
<g>
</g>
<g>
</g>
<g>
</g>
<g>
</g>
<g>
</g>
<g>
</g>
<g>
</g>
<g>
</g>
<g>
</g>
<g>
</g>
<g>
</g>
</svg>
