<?xml version="1.0" encoding="iso-8859-1"?>
<!-- Generator: Adobe Illustrator 16.0.0, SVG Export Plug-In . SVG Version: 6.00 Build 0)  -->
<!DOCTYPE svg PUBLIC "-//W3C//DTD SVG 1.1//EN" "http://www.w3.org/Graphics/SVG/1.1/DTD/svg11.dtd">
<svg version="1.1" id="Capa_1" xmlns="http://www.w3.org/2000/svg" xmlns:xlink="http://www.w3.org/1999/xlink" x="0px" y="0px"
	 width="87.014px" height="87.014px" viewBox="0 0 87.014 87.014" style="enable-background:new 0 0 87.014 87.014;"
	 xml:space="preserve">
<g>
	<g>
		<path d="M61.557,43.047H26.195c-4.687,0-8.486,3.798-8.486,8.486v9.752c0,4.686,3.799,8.486,8.486,8.486h35.362
			c4.687,0,8.485-3.801,8.485-8.486v-9.752C70.042,46.846,66.242,43.047,61.557,43.047z M29.8,66.467h-5.322
			c-1.297-0.938-2.271-2.293-2.725-3.871V58.42H29.8V66.467z M29.8,54.396h-8.047v-4.174c0.454-1.578,1.428-2.935,2.725-3.873H29.8
			V54.396z M41.856,66.467h-8.033V58.42h8.033V66.467z M41.856,54.396h-8.033V46.35h8.033V54.396z M53.927,66.467h-8.032V58.42
			h8.032V66.467z M53.927,54.396h-8.032V46.35h8.032V54.396z M65.997,62.596c-0.454,1.578-1.429,2.933-2.726,3.871H57.95V58.42
			h8.047V62.596z M65.997,54.396H57.95V46.35h5.321c1.297,0.938,2.271,2.295,2.726,3.873V54.396z"/>
		<circle cx="9.944" cy="43.046" r="3.884"/>
		<path d="M87.014,33.1c-0.359-2.774-1.166-7.292-2.861-10.814l-39.86-5.044L3.197,21.501C1.206,26.207,0.336,31.332,0,33.924
			L44.792,37.6L87.014,33.1z M59.057,21.627c3.422,0,6.199,2.777,6.199,6.201c0,3.426-2.777,6.203-6.199,6.203
			c-3.424,0-6.201-2.777-6.201-6.203C52.855,24.404,55.633,21.627,59.057,21.627z M29.026,34.031c-3.424,0-6.201-2.777-6.201-6.203
			c0-3.424,2.777-6.201,6.201-6.201c3.422,0,6.199,2.777,6.199,6.201C35.225,31.254,32.448,34.031,29.026,34.031z"/>
	</g>
</g>
<g>
</g>
<g>
</g>
<g>
</g>
<g>
</g>
<g>
</g>
<g>
</g>
<g>
</g>
<g>
</g>
<g>
</g>
<g>
</g>
<g>
</g>
<g>
</g>
<g>
</g>
<g>
</g>
<g>
</g>
</svg>
