<?xml version="1.0" encoding="iso-8859-1"?>
<!-- Generator: Adobe Illustrator 16.0.0, SVG Export Plug-In . SVG Version: 6.00 Build 0)  -->
<!DOCTYPE svg PUBLIC "-//W3C//DTD SVG 1.1//EN" "http://www.w3.org/Graphics/SVG/1.1/DTD/svg11.dtd">
<svg version="1.1" id="Capa_1" xmlns="http://www.w3.org/2000/svg" xmlns:xlink="http://www.w3.org/1999/xlink" x="0px" y="0px"
	 width="46.469px" height="46.469px" viewBox="0 0 46.469 46.469" style="enable-background:new 0 0 46.469 46.469;"
	 xml:space="preserve">
<g>
	<path d="M9.198,12.617c0.134,0.092,0.29,0.138,0.446,0.138c0.159,0,0.318-0.048,0.455-0.145c0.059-0.041,1.456-1.032,2.87-2.466
		c1.985-2.013,2.991-3.857,2.991-5.485c0-1.024-0.365-2.114-1.002-2.988c-0.728-1-1.683-1.551-2.688-1.551
		c-1,0-1.942,0.437-2.626,1.173C8.961,0.557,8.02,0.12,7.02,0.12c-1.008,0-1.963,0.551-2.691,1.551
		C3.691,2.545,3.327,3.634,3.327,4.659C3.327,8.549,8.958,12.452,9.198,12.617z"/>
	<path d="M23.293,46.349c10.085,0,19.085-5.742,22.928-14.629c0.657-1.521-0.042-3.287-1.563-3.945
		c-1.521-0.659-3.285,0.043-3.943,1.564c-2.894,6.688-9.73,11.01-17.421,11.01c-7.868,0-14.747-4.318-17.523-11.004
		C5.292,28.19,4.174,27.495,3,27.495c-0.384,0-0.773,0.074-1.149,0.23c-1.531,0.636-2.256,2.392-1.62,3.92
		C3.938,40.577,12.992,46.349,23.293,46.349z"/>
	<path d="M37.317,12.617c0.135,0.092,0.29,0.138,0.446,0.138c0.159,0,0.318-0.048,0.455-0.145c0.059-0.041,1.456-1.032,2.87-2.466
		c1.984-2.013,2.991-3.857,2.991-5.485c0-1.024-0.365-2.114-1.002-2.988c-0.729-1-1.684-1.551-2.688-1.551
		c-1,0-1.942,0.437-2.626,1.173c-0.683-0.736-1.625-1.173-2.625-1.173c-1.008,0-1.963,0.551-2.691,1.551
		c-0.637,0.874-1.002,1.963-1.002,2.988C31.445,8.549,37.078,12.452,37.317,12.617z"/>
</g>
<g>
</g>
<g>
</g>
<g>
</g>
<g>
</g>
<g>
</g>
<g>
</g>
<g>
</g>
<g>
</g>
<g>
</g>
<g>
</g>
<g>
</g>
<g>
</g>
<g>
</g>
<g>
</g>
<g>
</g>
</svg>
