<?xml version="1.0" encoding="iso-8859-1"?>
<!-- Generator: Adobe Illustrator 16.0.0, SVG Export Plug-In . SVG Version: 6.00 Build 0)  -->
<!DOCTYPE svg PUBLIC "-//W3C//DTD SVG 1.1//EN" "http://www.w3.org/Graphics/SVG/1.1/DTD/svg11.dtd">
<svg version="1.1" id="Capa_1" xmlns="http://www.w3.org/2000/svg" xmlns:xlink="http://www.w3.org/1999/xlink" x="0px" y="0px"
	 width="87.035px" height="87.035px" viewBox="0 0 87.035 87.035" style="enable-background:new 0 0 87.035 87.035;"
	 xml:space="preserve">
<g>
	<g>
		<path d="M43.479,47.145c-11.245,0-21.28,7.316-25.563,18.637c-0.191,0.506-0.148,1.088,0.117,1.549s0.715,0.74,1.197,0.74
			l48.637,0.068h0.002c0.479,0,0.927-0.273,1.191-0.729c0.268-0.455,0.316-1.033,0.133-1.539
			C65.059,54.496,54.966,47.145,43.479,47.145z M24.446,65.369l-2.469-0.002c-0.43-0.002-0.828-0.201-1.065-0.535
			c-0.235-0.332-0.274-0.754-0.104-1.119c0.533-1.143,1.178-2.225,1.9-3.248h1.738V65.369z M54.691,52.549
			c2.639,1.154,5.017,2.713,7.012,4.615h-7.012V52.549z M37.79,65.385l-9.785-0.012v-4.908h9.785V65.385z M37.79,57.164h-9.785
			v-2.016c2.835-2.045,6.17-3.52,9.785-4.283V57.164z M51.133,65.398l-9.785-0.01v-4.924h9.785V65.398z M51.133,57.164h-9.785
			v-6.809c0.728-0.057,1.46-0.096,2.2-0.096c2.636,0,5.187,0.359,7.585,1.022V57.164z M64.476,65.414l-9.784-0.01v-4.939h9.784
			V65.414z"/>
		<path d="M87.035,34.753c-0.245-1.644-1.073-6.53-2.75-10.798L44.3,18.896L3.182,23.157C1.198,28.038,0.317,33.258,0,35.579
			l44.8,3.676L87.035,34.753z M59.064,23.281c3.422,0,6.199,2.777,6.199,6.201c0,3.426-2.777,6.203-6.199,6.203
			c-3.424,0-6.201-2.777-6.201-6.203C52.863,26.059,55.641,23.281,59.064,23.281z M29.034,35.686c-3.424,0-6.201-2.777-6.201-6.203
			c0-3.424,2.777-6.201,6.201-6.201c3.422,0,6.199,2.777,6.199,6.201C35.233,32.909,32.456,35.686,29.034,35.686z"/>
	</g>
</g>
<g>
</g>
<g>
</g>
<g>
</g>
<g>
</g>
<g>
</g>
<g>
</g>
<g>
</g>
<g>
</g>
<g>
</g>
<g>
</g>
<g>
</g>
<g>
</g>
<g>
</g>
<g>
</g>
<g>
</g>
</svg>
