<?xml version="1.0" encoding="iso-8859-1"?>
<!-- Generator: Adobe Illustrator 16.0.0, SVG Export Plug-In . SVG Version: 6.00 Build 0)  -->
<!DOCTYPE svg PUBLIC "-//W3C//DTD SVG 1.1//EN" "http://www.w3.org/Graphics/SVG/1.1/DTD/svg11.dtd">
<svg version="1.1" id="Capa_1" xmlns="http://www.w3.org/2000/svg" xmlns:xlink="http://www.w3.org/1999/xlink" x="0px" y="0px"
	 width="78.838px" height="78.838px" viewBox="0 0 78.838 78.838" style="enable-background:new 0 0 78.838 78.838;"
	 xml:space="preserve">
<g>
	<path d="M16.443,51.331c-0.636-1.529,0.089-3.285,1.62-3.922c0.376-0.156,0.766-0.23,1.15-0.23
		c1.176,0.002,2.292,0.697,2.771,1.852c2.777,6.685,9.655,11.004,17.523,11.004c7.69,0,14.528-4.321,17.421-11.012
		c0.658-1.52,2.424-2.221,3.943-1.562c1.521,0.658,2.221,2.424,1.563,3.945c-3.843,8.887-12.843,14.629-22.928,14.629
		C29.206,66.034,20.153,60.262,16.443,51.331z"/>
	<path d="M68.732,25.97c0,7.262-5.908,13.168-13.168,13.168c-7.098,0-12.887-5.65-13.142-12.688h-6.095
		c-0.236,7.055-6.034,12.725-13.144,12.725c-7.259,0-13.166-5.906-13.166-13.168c0-0.111,0.014-0.219,0.017-0.33L0,21.148
		c0.379-0.78,1.045-2.104,1.576-2.899l8.982,4.054c1.605-5.461,6.654-9.461,12.626-9.461c6.281,0,11.541,4.424,12.847,10.316h6.677
		c1.293-5.912,6.563-10.354,12.856-10.354c5.946,0,10.979,3.965,12.607,9.389l9.098-4.106c0.014,0.053,0.031,0.105,0.063,0.153
		c0.495,0.74,1.114,1.955,1.505,2.751L68.71,25.562C68.716,25.698,68.732,25.833,68.732,25.97z"/>
</g>
<g>
</g>
<g>
</g>
<g>
</g>
<g>
</g>
<g>
</g>
<g>
</g>
<g>
</g>
<g>
</g>
<g>
</g>
<g>
</g>
<g>
</g>
<g>
</g>
<g>
</g>
<g>
</g>
<g>
</g>
</svg>
