<?xml version="1.0" encoding="iso-8859-1"?>
<!-- Generator: Adobe Illustrator 16.0.0, SVG Export Plug-In . SVG Version: 6.00 Build 0)  -->
<!DOCTYPE svg PUBLIC "-//W3C//DTD SVG 1.1//EN" "http://www.w3.org/Graphics/SVG/1.1/DTD/svg11.dtd">
<svg version="1.1" id="Capa_1" xmlns="http://www.w3.org/2000/svg" xmlns:xlink="http://www.w3.org/1999/xlink" x="0px" y="0px"
	 width="55.048px" height="55.048px" viewBox="0 0 55.048 55.048" style="enable-background:new 0 0 55.048 55.048;"
	 xml:space="preserve">
<g>
	<path d="M55.048,12.708c0,1.738-1.407,3.147-3.146,3.147H46.92c-1.079,1.826-3.062,3.055-5.334,3.055
		c-3.423,0-6.201-2.775-6.203-6.2v-0.001l0,0l0,0l0,0c0-3.423,2.779-6.201,6.203-6.201c2.271,0,4.256,1.229,5.335,3.055h4.981
		C53.641,9.561,55.048,10.97,55.048,12.708z M18.521,16.298c0.721-1.013,1.145-2.252,1.146-3.59l0,0
		C19.666,14.046,19.242,15.285,18.521,16.298z M8.13,15.854H3.147C1.409,15.854,0,14.445,0,12.707C0,10.969,1.409,9.56,3.147,9.56
		H8.13c1.079-1.826,3.063-3.055,5.335-3.055c3.424,0,6.201,2.777,6.201,6.201l0,0l0,0l0,0l-2.735,5.143
		c-0.989,0.669-2.183,1.059-3.466,1.059C11.193,18.909,9.21,17.681,8.13,15.854z M50.133,45.065c0,1.92-1.559,3.478-3.479,3.478
		H8.396c-1.921,0-3.479-1.558-3.479-3.478c0-1.922,1.558-3.479,3.479-3.479h38.258C48.576,41.587,50.133,43.144,50.133,45.065z"/>
</g>
<g>
</g>
<g>
</g>
<g>
</g>
<g>
</g>
<g>
</g>
<g>
</g>
<g>
</g>
<g>
</g>
<g>
</g>
<g>
</g>
<g>
</g>
<g>
</g>
<g>
</g>
<g>
</g>
<g>
</g>
</svg>
