<?xml version="1.0" encoding="iso-8859-1"?>
<!-- Generator: Adobe Illustrator 16.0.0, SVG Export Plug-In . SVG Version: 6.00 Build 0)  -->
<!DOCTYPE svg PUBLIC "-//W3C//DTD SVG 1.1//EN" "http://www.w3.org/Graphics/SVG/1.1/DTD/svg11.dtd">
<svg version="1.1" id="Capa_1" xmlns="http://www.w3.org/2000/svg" xmlns:xlink="http://www.w3.org/1999/xlink" x="0px" y="0px"
	 width="51.133px" height="51.132px" viewBox="0 0 51.133 51.132" style="enable-background:new 0 0 51.133 51.132;"
	 xml:space="preserve">
<g>
	<path d="M10.377,18.539L0.921,9.083c-1.229-1.229-1.229-3.222,0-4.451s3.222-1.229,4.451,0l9.456,9.455
		c1.229,1.229,1.229,3.222,0,4.451C13.6,19.769,11.606,19.769,10.377,18.539z M50.211,4.633c1.229,1.229,1.229,3.222,0,4.451
		l-9.456,9.456c-1.229,1.229-3.223,1.229-4.451,0c-1.229-1.229-1.229-3.223,0-4.451l9.456-9.455
		C46.988,3.404,48.981,3.404,50.211,4.633z M48.177,43.944c0,1.921-1.559,3.479-3.479,3.479H6.439c-1.921,0-3.479-1.558-3.479-3.479
		s1.558-3.478,3.479-3.478h38.259C46.618,40.466,48.177,42.023,48.177,43.944z"/>
</g>
<g>
</g>
<g>
</g>
<g>
</g>
<g>
</g>
<g>
</g>
<g>
</g>
<g>
</g>
<g>
</g>
<g>
</g>
<g>
</g>
<g>
</g>
<g>
</g>
<g>
</g>
<g>
</g>
<g>
</g>
</svg>
