<?xml version="1.0" encoding="iso-8859-1"?>
<!-- Generator: Adobe Illustrator 16.0.0, SVG Export Plug-In . SVG Version: 6.00 Build 0)  -->
<!DOCTYPE svg PUBLIC "-//W3C//DTD SVG 1.1//EN" "http://www.w3.org/Graphics/SVG/1.1/DTD/svg11.dtd">
<svg version="1.1" id="Capa_1" xmlns="http://www.w3.org/2000/svg" xmlns:xlink="http://www.w3.org/1999/xlink" x="0px" y="0px"
	 width="65.168px" height="65.169px" viewBox="0 0 65.168 65.169" style="enable-background:new 0 0 65.168 65.169;"
	 xml:space="preserve">
<g>
	<path d="M24.214,53.164c-0.032-0.22-0.046-0.454-0.072-0.68c-0.103-0.903-0.168-1.838-0.167-2.812c0-0.218,0.006-0.428,0.012-0.64
		c0.055-2.208,0.359-4.061,0.583-5.141c0.324-0.062,0.69-0.094,1.092-0.094c3.049,0,6.922,1.734,6.956,1.751
		c0.008,0.003,0.079,0.034,0.087,0.036c0.375,0.146,0.786,0.137,1.164-0.036c0.038-0.018,3.901-1.751,6.955-1.751
		c0.401,0,0.769,0.031,1.095,0.094c0.225,1.076,0.532,2.929,0.59,5.141c0.006,0.21,0.013,0.418,0.013,0.634
		c0.003,0.972-0.062,1.908-0.165,2.815c-0.025,0.224-0.039,0.455-0.07,0.673c-0.854,5.879-3.895,9.92-9.042,12.014
		C28.11,63.084,25.073,59.045,24.214,53.164z M22.546,40.561c-0.467,0.219-0.819,0.658-0.969,1.205
		c-0.008,0.028-0.748,2.822-0.89,6.617c-0.005,0.137,0,0.271-0.003,0.405c-3.126-0.567-5.354-2.233-5.354-5.979
		c0-4.86,3.741-8.815,8.338-8.815c4.279,0,5.887,0.467,6.88,1.998c0.609,0.938,1.616,1.498,2.691,1.498s2.083-0.562,2.691-1.498
		c0.992-1.531,2.601-1.998,6.879-1.998c4.599,0,8.339,3.955,8.339,8.815c0,3.746-2.229,5.412-5.354,5.979
		c-0.004-0.138,0.002-0.272-0.004-0.41c-0.145-3.848-0.884-6.592-0.889-6.61c-0.148-0.549-0.501-0.987-0.969-1.207
		c-0.863-0.405-1.912-0.611-3.113-0.611c-2.904,0-6.168,1.184-7.581,1.758c-1.41-0.574-4.667-1.758-7.581-1.758
		C24.457,39.949,23.409,40.155,22.546,40.561z M21.911,7.87c0.197,0.158,0.308,0.392,0.308,0.645s-0.11,0.486-0.304,0.641
		l-9.758,7.697c-0.236,0.189-0.579,0.229-0.858,0.1c-0.294-0.146-0.468-0.428-0.468-0.741v-3.554c0-0.181,0.084-0.351,0.225-0.463
		l4.664-3.68l-4.664-3.681c-0.141-0.112-0.225-0.281-0.225-0.462V0.82c0-0.313,0.181-0.604,0.46-0.738
		C11.403,0.027,11.527,0,11.649,0c0.183,0,0.363,0.062,0.507,0.175L21.911,7.87z M54.338,0.816V4.37
		c0,0.181-0.084,0.351-0.226,0.463l-4.664,3.68l4.664,3.681c0.142,0.112,0.226,0.281,0.226,0.462v3.552
		c0,0.313-0.181,0.604-0.459,0.738c-0.113,0.055-0.238,0.082-0.359,0.082c-0.184,0-0.363-0.062-0.506-0.175l-9.756-7.695
		C43.061,9,42.95,8.766,42.95,8.513s0.111-0.487,0.305-0.641l9.758-7.697c0.236-0.188,0.58-0.229,0.858-0.1
		C54.164,0.221,54.338,0.503,54.338,0.816z"/>
</g>
<g>
</g>
<g>
</g>
<g>
</g>
<g>
</g>
<g>
</g>
<g>
</g>
<g>
</g>
<g>
</g>
<g>
</g>
<g>
</g>
<g>
</g>
<g>
</g>
<g>
</g>
<g>
</g>
<g>
</g>
</svg>
