<?xml version="1.0" encoding="iso-8859-1"?>
<!-- Generator: Adobe Illustrator 16.0.0, SVG Export Plug-In . SVG Version: 6.00 Build 0)  -->
<!DOCTYPE svg PUBLIC "-//W3C//DTD SVG 1.1//EN" "http://www.w3.org/Graphics/SVG/1.1/DTD/svg11.dtd">
<svg version="1.1" id="Capa_1" xmlns="http://www.w3.org/2000/svg" xmlns:xlink="http://www.w3.org/1999/xlink" x="0px" y="0px"
	 width="55.048px" height="55.048px" viewBox="0 0 55.048 55.048" style="enable-background:new 0 0 55.048 55.048;"
	 xml:space="preserve">
<g>
	<path d="M55.048,9.766c0,1.738-1.407,3.146-3.146,3.146H46.92c-1.079,1.826-3.062,3.055-5.334,3.055
		c-3.423,0-6.201-2.774-6.203-6.199c0-0.001,0-0.001,0-0.002c0,0,0,0,0-0.001V9.764c0-3.423,2.779-6.2,6.203-6.2
		c2.273,0,4.256,1.229,5.335,3.056h4.981C53.641,6.619,55.048,8.026,55.048,9.766z M8.13,12.912H3.147
		C1.409,12.912,0,11.502,0,9.766c0-1.738,1.409-3.147,3.147-3.147H8.13c1.079-1.826,3.063-3.055,5.335-3.055
		c3.424,0,6.201,2.777,6.201,6.2v0.001c0,0.001,0,0.001,0,0.001c0,0.001,0,0.001,0,0.002c-0.003,3.425-2.778,6.199-6.201,6.199
		C11.193,15.966,9.211,14.738,8.13,12.912z M50.861,42.98c-0.381,0.815-3.932,7.99-10.652,8.478
		c-0.234,0.019-0.473,0.026-0.708,0.026c-4.216,0-8.31-2.741-12.177-8.159c-1.956-2.74-4.956-5.979-8.213-5.979
		c-0.049,0-0.097,0-0.145,0.001c-3.674,0.108-6.985,4.249-7.951,5.835c-0.682,1.117-2.288,1.557-3.589,0.971
		c-1.3-0.586-1.808-1.967-1.131-3.089c0.198-0.329,4.942-8.065,12.468-8.301c4.725-0.144,9.124,2.596,13.093,8.155
		c2.862,4.011,5.67,6.147,7.906,5.969c2.762-0.201,5.346-3.876,6.164-5.625c0.553-1.174,2.1-1.744,3.465-1.27
		C50.754,40.47,51.412,41.807,50.861,42.98z"/>
</g>
<g>
</g>
<g>
</g>
<g>
</g>
<g>
</g>
<g>
</g>
<g>
</g>
<g>
</g>
<g>
</g>
<g>
</g>
<g>
</g>
<g>
</g>
<g>
</g>
<g>
</g>
<g>
</g>
<g>
</g>
</svg>
