<?xml version="1.0" encoding="iso-8859-1"?>
<!-- Generator: Adobe Illustrator 16.0.0, SVG Export Plug-In . SVG Version: 6.00 Build 0)  -->
<!DOCTYPE svg PUBLIC "-//W3C//DTD SVG 1.1//EN" "http://www.w3.org/Graphics/SVG/1.1/DTD/svg11.dtd">
<svg version="1.1" id="Capa_1" xmlns="http://www.w3.org/2000/svg" xmlns:xlink="http://www.w3.org/1999/xlink" x="0px" y="0px"
	 width="54.307px" height="54.307px" viewBox="0 0 54.307 54.307" style="enable-background:new 0 0 54.307 54.307;"
	 xml:space="preserve">
<g>
	<path d="M22.229,49.811c0-2.482,1.305-4.496,2.912-4.496h24.27c1.607,0,2.911,2.014,2.911,4.496c0,2.481-1.304,4.496-2.911,4.496
		h-24.27C23.534,54.307,22.229,52.292,22.229,49.811z M1.985,7.451C1.985,3.338,5.105,0,8.95,0c3.846,0,6.966,3.338,6.966,7.451
		c0,4.117-3.12,7.453-6.966,7.453C5.105,14.904,1.985,11.568,1.985,7.451z M31.571,7.451C31.571,3.338,34.694,0,38.54,0
		s6.965,3.338,6.965,7.451c0,4.117-3.119,7.453-6.965,7.453S31.571,11.568,31.571,7.451z"/>
</g>
<g>
</g>
<g>
</g>
<g>
</g>
<g>
</g>
<g>
</g>
<g>
</g>
<g>
</g>
<g>
</g>
<g>
</g>
<g>
</g>
<g>
</g>
<g>
</g>
<g>
</g>
<g>
</g>
<g>
</g>
</svg>
