<?xml version="1.0" encoding="iso-8859-1"?>
<!-- Generator: Adobe Illustrator 16.0.0, SVG Export Plug-In . SVG Version: 6.00 Build 0)  -->
<!DOCTYPE svg PUBLIC "-//W3C//DTD SVG 1.1//EN" "http://www.w3.org/Graphics/SVG/1.1/DTD/svg11.dtd">
<svg version="1.1" id="Capa_1" xmlns="http://www.w3.org/2000/svg" xmlns:xlink="http://www.w3.org/1999/xlink" x="0px" y="0px"
	 width="51.505px" height="51.505px" viewBox="0 0 51.505 51.505" style="enable-background:new 0 0 51.505 51.505;"
	 xml:space="preserve">
<g>
	<path d="M50.072,29.977L1.435,29.91c0,0-0.001,0-0.002,0c-0.479,0-0.926,0.272-1.191,0.729c-0.267,0.455-0.316,1.033-0.132,1.54
		c4.134,11.375,14.228,18.726,25.714,18.726c11.245,0,21.28-7.316,25.563-18.637c0.191-0.506,0.148-1.089-0.117-1.55
		C51.005,30.255,50.556,29.978,50.072,29.977z M14.612,45.5c-2.64-1.154-5.017-2.713-7.013-4.615h7.013V45.5z M14.612,37.583H4.827
		v-4.95l9.785,0.011V37.583z M27.956,47.693c-0.729,0.057-1.46,0.096-2.2,0.096c-2.636,0-5.186-0.36-7.585-1.024v-5.88h9.785V47.693
		z M27.956,37.583h-9.785v-4.936l9.785,0.012V37.583z M41.299,42.899c-2.835,2.046-6.17,3.521-9.785,4.283v-6.299h9.785V42.899z
		 M41.299,37.583h-9.785v-4.92l9.785,0.012V37.583z M48.496,34.333c-0.533,1.145-1.179,2.226-1.9,3.25h-1.738v-4.904l2.47,0.002
		c0.43,0.001,0.827,0.202,1.064,0.534C48.627,33.549,48.666,33.969,48.496,34.333z M5.964,6.802c0-3.423,2.777-6.201,6.2-6.201
		c3.424,0,6.2,2.777,6.2,6.201c0,3.426-2.776,6.203-6.2,6.203C8.741,13.005,5.964,10.228,5.964,6.802z M34.08,6.802
		c0-3.423,2.78-6.201,6.202-6.201c3.425,0,6.201,2.777,6.201,6.201c0,3.426-2.776,6.203-6.201,6.203
		C36.86,13.005,34.08,10.228,34.08,6.802z"/>
</g>
<g>
</g>
<g>
</g>
<g>
</g>
<g>
</g>
<g>
</g>
<g>
</g>
<g>
</g>
<g>
</g>
<g>
</g>
<g>
</g>
<g>
</g>
<g>
</g>
<g>
</g>
<g>
</g>
<g>
</g>
</svg>
