<?xml version="1.0" encoding="iso-8859-1"?>
<!-- Generator: Adobe Illustrator 16.0.0, SVG Export Plug-In . SVG Version: 6.00 Build 0)  -->
<!DOCTYPE svg PUBLIC "-//W3C//DTD SVG 1.1//EN" "http://www.w3.org/Graphics/SVG/1.1/DTD/svg11.dtd">
<svg version="1.1" id="Capa_1" xmlns="http://www.w3.org/2000/svg" xmlns:xlink="http://www.w3.org/1999/xlink" x="0px" y="0px"
	 width="51.505px" height="51.505px" viewBox="0 0 51.505 51.505" style="enable-background:new 0 0 51.505 51.505;"
	 xml:space="preserve">
<g>
	<path d="M50.072,29.977L1.435,29.91c0,0-0.001,0-0.002,0c-0.479,0-0.926,0.272-1.191,0.729c-0.267,0.455-0.316,1.033-0.132,1.54
		c4.134,11.375,14.228,18.726,25.714,18.726c11.245,0,21.28-7.316,25.563-18.637c0.191-0.506,0.148-1.089-0.117-1.55
		C51.005,30.255,50.555,29.978,50.072,29.977z M14.612,45.5c-2.64-1.154-5.017-2.713-7.013-4.615h7.013V45.5z M14.612,37.583H4.827
		v-4.95l9.785,0.011V37.583z M27.956,47.693c-0.729,0.057-1.46,0.096-2.2,0.096c-2.636,0-5.186-0.36-7.585-1.024v-5.88h9.785V47.693
		z M27.956,37.583h-9.785v-4.936l9.785,0.012V37.583z M41.298,42.899c-2.835,2.046-6.17,3.521-9.785,4.283v-6.299h9.785V42.899z
		 M41.298,37.583h-9.785v-4.92l9.785,0.012V37.583z M48.496,34.333c-0.533,1.145-1.179,2.226-1.9,3.25h-1.738v-4.904l2.47,0.002
		c0.43,0.001,0.827,0.202,1.064,0.534C48.627,33.549,48.666,33.969,48.496,34.333z M5.407,5.14c0-1.025,0.365-2.114,1.002-2.988
		c0.729-1,1.684-1.551,2.691-1.551c1,0,1.942,0.437,2.625,1.173c0.684-0.736,1.626-1.173,2.626-1.173
		c1.006,0,1.961,0.551,2.688,1.551c0.637,0.874,1.002,1.963,1.002,2.988c0,1.628-1.006,3.473-2.991,5.485
		c-1.414,1.434-2.812,2.425-2.87,2.466c-0.137,0.097-0.296,0.145-0.455,0.145c-0.156,0-0.313-0.046-0.446-0.138
		C11.039,12.933,5.407,9.03,5.407,5.14z M33.525,5.14c0-1.025,0.365-2.114,1.002-2.988c0.729-1,1.685-1.551,2.691-1.551
		c1,0,1.942,0.437,2.625,1.173c0.684-0.736,1.626-1.173,2.626-1.173c1.006,0,1.961,0.551,2.688,1.551
		c0.637,0.874,1.002,1.963,1.002,2.988c0,1.628-1.007,3.473-2.991,5.485c-1.414,1.434-2.812,2.425-2.87,2.466
		c-0.137,0.097-0.296,0.145-0.455,0.145c-0.156,0-0.313-0.046-0.446-0.138C39.157,12.933,33.525,9.03,33.525,5.14z"/>
</g>
<g>
</g>
<g>
</g>
<g>
</g>
<g>
</g>
<g>
</g>
<g>
</g>
<g>
</g>
<g>
</g>
<g>
</g>
<g>
</g>
<g>
</g>
<g>
</g>
<g>
</g>
<g>
</g>
<g>
</g>
</svg>
