<?xml version="1.0" encoding="iso-8859-1"?>
<!-- Generator: Adobe Illustrator 16.0.0, SVG Export Plug-In . SVG Version: 6.00 Build 0)  -->
<!DOCTYPE svg PUBLIC "-//W3C//DTD SVG 1.1//EN" "http://www.w3.org/Graphics/SVG/1.1/DTD/svg11.dtd">
<svg version="1.1" id="Capa_1" xmlns="http://www.w3.org/2000/svg" xmlns:xlink="http://www.w3.org/1999/xlink" x="0px" y="0px"
	 width="66.363px" height="66.363px" viewBox="0 0 66.363 66.363" style="enable-background:new 0 0 66.363 66.363;"
	 xml:space="preserve">
<g>
	<path d="M33.103,66.363c-5.986-2.165-9.529-6.355-10.531-12.457c-0.188-1.143-0.281-2.36-0.279-3.621
		c0.004-2.584,0.406-4.771,0.693-5.997c0.377-0.064,0.805-0.097,1.273-0.097c3.557,0,8.074,1.8,8.113,1.815
		c0.01,0.004,0.092,0.035,0.104,0.038c0.438,0.151,0.916,0.142,1.357-0.038c0.043-0.018,4.551-1.815,8.113-1.815
		c0.469,0,0.896,0.031,1.275,0.098c0.289,1.223,0.694,3.402,0.705,5.989c0.004,1.256-0.089,2.474-0.275,3.62
		C42.658,59.998,39.109,64.191,33.103,66.363z M20.624,40.83c-0.543,0.227-0.955,0.683-1.129,1.251
		c-0.008,0.026-0.75,2.521-0.99,6.021c-3.48-2.146-5.908-5.183-7.186-9.028c-0.369-1.54-0.41-3.828,0.088-4.468
		c0.068-0.086,0.338-0.122,0.547-0.127c0.326,0.007,0.871,0.054,1.361,0.164c2.055,1.013,9.283,4.167,19.539,4.167
		c6.785,0,13.502-1.399,19.887-4.136c0.996-0.244,1.912-0.244,2.047-0.07c0.5,0.643,0.459,2.929,0.103,4.427
		c-1.287,3.884-3.715,6.922-7.191,9.065c-0.242-3.542-0.983-5.994-0.99-6.014c-0.174-0.569-0.584-1.025-1.129-1.253
		c-1.008-0.421-2.229-0.635-3.633-0.635c-3.389,0-7.195,1.228-8.844,1.823c-1.645-0.597-5.445-1.823-8.844-1.823
		C22.855,40.195,21.632,40.409,20.624,40.83z M22.898,7.871c0.197,0.158,0.309,0.392,0.309,0.645c0,0.253-0.111,0.486-0.305,0.641
		l-9.758,7.697c-0.236,0.189-0.578,0.229-0.857,0.1c-0.295-0.146-0.469-0.428-0.469-0.741v-3.554c0-0.181,0.084-0.351,0.225-0.463
		l4.664-3.68l-4.664-3.681c-0.141-0.112-0.225-0.281-0.225-0.462V0.821c0-0.313,0.182-0.604,0.461-0.738
		c0.111-0.055,0.236-0.082,0.357-0.082c0.184,0,0.363,0.062,0.508,0.175L22.898,7.871z M44.245,9.158
		C44.048,9,43.936,8.766,43.936,8.513s0.111-0.486,0.305-0.641l9.758-7.697c0.236-0.189,0.58-0.229,0.859-0.1
		c0.293,0.146,0.467,0.428,0.467,0.741V4.37c0,0.181-0.084,0.351-0.225,0.463l-4.664,3.68l4.664,3.681
		c0.141,0.112,0.225,0.281,0.225,0.462v3.552c0,0.313-0.18,0.604-0.459,0.738c-0.113,0.055-0.238,0.082-0.358,0.082
		c-0.185,0-0.363-0.062-0.507-0.175L44.245,9.158z"/>
</g>
<g>
</g>
<g>
</g>
<g>
</g>
<g>
</g>
<g>
</g>
<g>
</g>
<g>
</g>
<g>
</g>
<g>
</g>
<g>
</g>
<g>
</g>
<g>
</g>
<g>
</g>
<g>
</g>
<g>
</g>
</svg>
