<?xml version="1.0" encoding="iso-8859-1"?>
<!-- Generator: Adobe Illustrator 16.0.0, SVG Export Plug-In . SVG Version: 6.00 Build 0)  -->
<!DOCTYPE svg PUBLIC "-//W3C//DTD SVG 1.1//EN" "http://www.w3.org/Graphics/SVG/1.1/DTD/svg11.dtd">
<svg version="1.1" id="Capa_1" xmlns="http://www.w3.org/2000/svg" xmlns:xlink="http://www.w3.org/1999/xlink" x="0px" y="0px"
	 width="61.724px" height="61.723px" viewBox="0 0 61.724 61.723" style="enable-background:new 0 0 61.724 61.723;"
	 xml:space="preserve">
<g>
	<path d="M0,15.084c0-1.738,1.408-3.146,3.146-3.146l13.373-0.002c0.029,0,0.055,0.008,0.082,0.009
		c1.609-0.018,3.225,0.581,4.453,1.81c2.422,2.422,2.422,6.35,0.002,8.77c-2.42,2.421-6.348,2.421-8.771-0.002
		c-1.186-1.187-1.783-2.735-1.805-4.291H3.146C1.408,18.231,0,16.823,0,15.084z M40.668,22.618c-2.42-2.42-2.42-6.348,0.002-8.77
		c1.229-1.229,2.842-1.827,4.453-1.81c0.027-0.001,0.053-0.009,0.082-0.009l13.373,0.002c1.738,0,3.146,1.408,3.146,3.146
		c0,1.738-1.407,3.146-3.146,3.146h-7.334c-0.023,1.556-0.619,3.104-1.805,4.291C47.016,25.038,43.088,25.038,40.668,22.618z
		 M11.133,42.831h38.26c1.92,0,3.479,1.558,3.479,3.479s-1.559,3.479-3.479,3.479h-38.26c-1.92,0-3.479-1.558-3.479-3.479
		S9.213,42.831,11.133,42.831z"/>
</g>
<g>
</g>
<g>
</g>
<g>
</g>
<g>
</g>
<g>
</g>
<g>
</g>
<g>
</g>
<g>
</g>
<g>
</g>
<g>
</g>
<g>
</g>
<g>
</g>
<g>
</g>
<g>
</g>
<g>
</g>
</svg>
