<?xml version="1.0" encoding="iso-8859-1"?>
<!-- Generator: Adobe Illustrator 16.0.0, SVG Export Plug-In . SVG Version: 6.00 Build 0)  -->
<!DOCTYPE svg PUBLIC "-//W3C//DTD SVG 1.1//EN" "http://www.w3.org/Graphics/SVG/1.1/DTD/svg11.dtd">
<svg version="1.1" id="Capa_1" xmlns="http://www.w3.org/2000/svg" xmlns:xlink="http://www.w3.org/1999/xlink" x="0px" y="0px"
	 width="51.504px" height="51.504px" viewBox="0 0 51.504 51.504" style="enable-background:new 0 0 51.504 51.504;"
	 xml:space="preserve">
<g>
	<path d="M51.269,31.22c0.266,0.403,0.31,0.914,0.118,1.356C47.103,42.479,37.068,48.88,25.824,48.88
		c-11.486,0-21.58-6.431-25.714-16.382c-0.184-0.442-0.135-0.948,0.132-1.347c0.266-0.398,0.713-0.637,1.192-0.637
		c0,0,0.001,0,0.002,0l48.637,0.06C50.555,30.574,51.004,30.817,51.269,31.22z M5.963,8.825c0-3.423,2.777-6.201,6.201-6.201
		c3.423,0,6.2,2.777,6.2,6.201c0,3.426-2.777,6.203-6.2,6.203C8.74,15.028,5.963,12.251,5.963,8.825z M34.08,8.825
		c0-3.423,2.779-6.201,6.203-6.201c3.423,0,6.2,2.777,6.2,6.201c0,3.426-2.776,6.203-6.2,6.203S34.08,12.251,34.08,8.825z"/>
</g>
<g>
</g>
<g>
</g>
<g>
</g>
<g>
</g>
<g>
</g>
<g>
</g>
<g>
</g>
<g>
</g>
<g>
</g>
<g>
</g>
<g>
</g>
<g>
</g>
<g>
</g>
<g>
</g>
<g>
</g>
</svg>
