<?xml version="1.0" encoding="iso-8859-1"?>
<!-- Generator: Adobe Illustrator 16.0.0, SVG Export Plug-In . SVG Version: 6.00 Build 0)  -->
<!DOCTYPE svg PUBLIC "-//W3C//DTD SVG 1.1//EN" "http://www.w3.org/Graphics/SVG/1.1/DTD/svg11.dtd">
<svg version="1.1" id="Capa_1" xmlns="http://www.w3.org/2000/svg" xmlns:xlink="http://www.w3.org/1999/xlink" x="0px" y="0px"
	 width="52.487px" height="52.486px" viewBox="0 0 52.487 52.486" style="enable-background:new 0 0 52.487 52.486;"
	 xml:space="preserve">
<g>
	<path d="M5.778,16.853c-0.236,0.189-0.579,0.229-0.858,0.1c-0.294-0.146-0.468-0.428-0.468-0.741v-3.554
		c0-0.181,0.084-0.351,0.225-0.463l4.664-3.68L4.677,4.834C4.536,4.722,4.452,4.553,4.452,4.372V0.82
		c0-0.313,0.181-0.604,0.46-0.738C5.024,0.027,5.148,0,5.27,0c0.183,0,0.363,0.062,0.507,0.175l9.755,7.695
		c0.197,0.158,0.308,0.392,0.308,0.645s-0.11,0.486-0.304,0.641L5.778,16.853z M36.879,9.158C36.682,9,36.571,8.766,36.571,8.513
		s0.111-0.486,0.305-0.64l9.758-7.697c0.236-0.188,0.58-0.229,0.858-0.1c0.293,0.146,0.468,0.428,0.468,0.741v3.554
		c0,0.181-0.084,0.351-0.226,0.463l-4.664,3.68l4.664,3.681c0.142,0.112,0.226,0.281,0.226,0.462v3.552
		c0,0.313-0.181,0.604-0.459,0.738c-0.113,0.055-0.238,0.082-0.359,0.082c-0.184,0-0.363-0.062-0.506-0.175L36.879,9.158z
		 M36.432,30.545c-3.975,0-7.48,0.273-9.571,3.495c-2.091-3.222-5.597-3.495-9.572-3.495c-6.408,0-11.602,5.49-11.602,12.266
		c0,6.771,5.194,9.676,11.602,9.676h19.143c6.408,0,11.603-2.904,11.603-9.676C48.035,36.035,42.84,30.545,36.432,30.545z
		 M36.432,49.035H17.289c-4.598,0-8.338-1.366-8.338-6.227c0-4.859,3.741-8.814,8.338-8.814c4.279,0,5.887,0.467,6.88,1.998
		c0.609,0.938,1.616,1.498,2.691,1.498s2.083-0.561,2.691-1.498c0.992-1.531,2.601-1.998,6.879-1.998
		c4.599,0,8.339,3.955,8.339,8.814C44.771,47.669,41.03,49.035,36.432,49.035z M36.672,44.275c0,1.729-4.256,3.131-9.505,3.131
		c-5.25,0-9.504-1.402-9.504-3.131c0-1.729,4.255-3.133,9.504-3.133C32.417,41.145,36.672,42.546,36.672,44.275z"/>
</g>
<g>
</g>
<g>
</g>
<g>
</g>
<g>
</g>
<g>
</g>
<g>
</g>
<g>
</g>
<g>
</g>
<g>
</g>
<g>
</g>
<g>
</g>
<g>
</g>
<g>
</g>
<g>
</g>
<g>
</g>
</svg>
