<?xml version="1.0" encoding="iso-8859-1"?>
<!-- Generator: Adobe Illustrator 16.0.0, SVG Export Plug-In . SVG Version: 6.00 Build 0)  -->
<!DOCTYPE svg PUBLIC "-//W3C//DTD SVG 1.1//EN" "http://www.w3.org/Graphics/SVG/1.1/DTD/svg11.dtd">
<svg version="1.1" id="Capa_1" xmlns="http://www.w3.org/2000/svg" xmlns:xlink="http://www.w3.org/1999/xlink" x="0px" y="0px"
	 width="47.451px" height="47.451px" viewBox="0 0 47.451 47.451" style="enable-background:new 0 0 47.451 47.451;"
	 xml:space="preserve">
<g>
	<path d="M5.188,6.201C5.188,2.777,7.965,0,11.389,0c3.423,0,6.2,2.777,6.2,6.201c0,3.426-2.777,6.203-6.2,6.203
		C7.965,12.404,5.188,9.626,5.188,6.201z M45.708,6.201c0,3.426-2.777,6.203-6.201,6.203c-3.423,0-6.203-2.777-6.203-6.203
		c0-3.424,2.78-6.201,6.203-6.201C42.931-0.001,45.708,2.777,45.708,6.201z M25.038,46.229c-9.081,4.867-19.354-5.771-23.064-14.703
		c-0.636-1.529,0.089-3.285,1.62-3.922c0.376-0.156,0.766-0.23,1.15-0.23c1.176,0.002,2.292,0.697,2.771,1.852
		c2.777,6.685,7.463,7.92,18.523,10.004C26.038,39.229,35.227,40.768,25.038,46.229z"/>
</g>
<g>
</g>
<g>
</g>
<g>
</g>
<g>
</g>
<g>
</g>
<g>
</g>
<g>
</g>
<g>
</g>
<g>
</g>
<g>
</g>
<g>
</g>
<g>
</g>
<g>
</g>
<g>
</g>
<g>
</g>
</svg>
