<?xml version="1.0" encoding="iso-8859-1"?>
<!-- Generator: Adobe Illustrator 16.0.0, SVG Export Plug-In . SVG Version: 6.00 Build 0)  -->
<!DOCTYPE svg PUBLIC "-//W3C//DTD SVG 1.1//EN" "http://www.w3.org/Graphics/SVG/1.1/DTD/svg11.dtd">
<svg version="1.1" id="Capa_1" xmlns="http://www.w3.org/2000/svg" xmlns:xlink="http://www.w3.org/1999/xlink" x="0px" y="0px"
	 width="52.254px" height="52.255px" viewBox="0 0 52.254 52.255" style="enable-background:new 0 0 52.254 52.255;"
	 xml:space="preserve">
<g>
	<path d="M6.339,6.201C6.339,2.777,9.116,0,12.54,0c3.423,0,6.2,2.777,6.2,6.201c0,3.426-2.777,6.203-6.2,6.203
		C9.116,12.404,6.339,9.626,6.339,6.201z M34.456,6.201C34.456,2.777,37.235,0,40.659,0c3.423,0,6.199,2.777,6.199,6.201
		c0,3.426-2.776,6.203-6.199,6.203C37.235,12.404,34.456,9.626,34.456,6.201z M26.199,52.255c11.245,0,21.278-6.399,25.563-16.304
		c0.191-0.441,0.146-0.952-0.117-1.355c-0.266-0.402-0.715-0.646-1.197-0.646L1.811,33.889c-0.001,0-0.002,0-0.002,0
		c-0.479,0-0.926,0.239-1.192,0.639c-0.266,0.398-0.315,0.902-0.131,1.347C4.62,45.825,14.713,52.255,26.199,52.255z M36.944,45.822
		h0.006v-4.574h-0.006v-5.152l4.029,0.006v8.389c-1.22,1.126-2.568,2.109-4.029,2.925V45.822z M28.55,36.084l3.82,0.006v13.23
		c-1.233,0.354-2.515,0.594-3.82,0.73V36.084z M19.697,36.074l4.348,0.006v14.001c-1.495-0.138-2.952-0.407-4.348-0.819V36.074z
		 M11.549,41.09h0.004v-5.025l3.569,0.004V47.32c-1.255-0.711-2.429-1.536-3.5-2.477v-0.035h-0.073V41.09z"/>
</g>
<g>
</g>
<g>
</g>
<g>
</g>
<g>
</g>
<g>
</g>
<g>
</g>
<g>
</g>
<g>
</g>
<g>
</g>
<g>
</g>
<g>
</g>
<g>
</g>
<g>
</g>
<g>
</g>
<g>
</g>
</svg>
