<?xml version="1.0" encoding="iso-8859-1"?>
<!-- Generator: Adobe Illustrator 16.0.0, SVG Export Plug-In . SVG Version: 6.00 Build 0)  -->
<!DOCTYPE svg PUBLIC "-//W3C//DTD SVG 1.1//EN" "http://www.w3.org/Graphics/SVG/1.1/DTD/svg11.dtd">
<svg version="1.1" id="Capa_1" xmlns="http://www.w3.org/2000/svg" xmlns:xlink="http://www.w3.org/1999/xlink" x="0px" y="0px"
	 width="62.156px" height="62.155px" viewBox="0 0 62.156 62.155" style="enable-background:new 0 0 62.156 62.155;"
	 xml:space="preserve">
<g>
	<path d="M12.978,7.095c-3.46-1.343-2.093-4.774-2.093-4.774c1.303-3.354,5.027-1.909,5.027-1.909
		c3.202,1.243,5.376,6.973,5.376,6.973c-2.719-0.586-4.6-0.154-4.6-0.154C14.551,7.706,12.978,7.095,12.978,7.095z M16.954,19.958
		c-1.818,0-3.292-2.091-3.292-4.671c0-2.578,1.475-4.67,3.292-4.67s3.292,2.092,3.292,4.67
		C20.245,17.867,18.771,19.958,16.954,19.958z M51.271,2.221c0,0,1.367,3.43-2.093,4.773c0,0-1.574,0.61-3.71,0.133
		c0,0-1.88-0.431-4.6,0.156c0,0,2.174-5.729,5.376-6.975C46.245,0.31,49.968-1.137,51.271,2.221z M48.496,15.186
		c0,2.58-1.476,4.672-3.292,4.672c-1.817,0-3.292-2.092-3.292-4.672c0-2.578,1.475-4.67,3.292-4.67
		C47.02,10.516,48.496,12.607,48.496,15.186z M47.904,45.785c0,9.026-7.34,16.37-16.362,16.37c-9.023,0-16.364-7.344-16.364-16.37
		c0-9.023,7.34-16.365,16.363-16.365C40.563,29.42,47.904,36.761,47.904,45.785z"/>
</g>
<g>
</g>
<g>
</g>
<g>
</g>
<g>
</g>
<g>
</g>
<g>
</g>
<g>
</g>
<g>
</g>
<g>
</g>
<g>
</g>
<g>
</g>
<g>
</g>
<g>
</g>
<g>
</g>
<g>
</g>
</svg>
