<?xml version="1.0" encoding="iso-8859-1"?>
<!-- Generator: Adobe Illustrator 16.0.0, SVG Export Plug-In . SVG Version: 6.00 Build 0)  -->
<!DOCTYPE svg PUBLIC "-//W3C//DTD SVG 1.1//EN" "http://www.w3.org/Graphics/SVG/1.1/DTD/svg11.dtd">
<svg version="1.1" id="Capa_1" xmlns="http://www.w3.org/2000/svg" xmlns:xlink="http://www.w3.org/1999/xlink" x="0px" y="0px"
	 width="46.47px" height="46.469px" viewBox="0 0 46.47 46.469" style="enable-background:new 0 0 46.47 46.469;"
	 xml:space="preserve">
<g>
	<path d="M29.062,9.086c0-4.797,3.904-8.701,8.703-8.701c4.797,0,8.701,3.903,8.701,8.701c0,1.381-1.119,2.5-2.5,2.5
		s-2.5-1.119-2.5-2.5c0-2.041-1.66-3.701-3.701-3.701c-2.042,0-3.703,1.66-3.703,3.701c0,1.381-1.119,2.5-2.5,2.5
		S29.062,10.466,29.062,9.086z M1.339,9.059c0-4.797,3.904-8.701,8.703-8.701c4.797,0,8.701,3.903,8.701,8.701
		c0,1.381-1.119,2.5-2.5,2.5c-1.381,0-2.5-1.119-2.5-2.5c0-2.041-1.66-3.701-3.701-3.701c-2.042,0-3.703,1.66-3.703,3.701
		c0,1.381-1.119,2.5-2.5,2.5S1.339,10.44,1.339,9.059z M0.23,31.41c-0.636-1.53,0.089-3.286,1.62-3.921
		c0.376-0.156,0.766-0.23,1.15-0.23c1.176,0,2.292,0.696,2.771,1.851c2.777,6.685,9.655,11.004,17.523,11.004
		c7.69,0,14.528-4.321,17.421-11.011c0.658-1.521,2.424-2.223,3.943-1.563c1.521,0.658,2.221,2.423,1.563,3.944
		C42.38,40.37,33.38,46.112,23.294,46.112C12.993,46.113,3.94,40.342,0.23,31.41z"/>
</g>
<g>
</g>
<g>
</g>
<g>
</g>
<g>
</g>
<g>
</g>
<g>
</g>
<g>
</g>
<g>
</g>
<g>
</g>
<g>
</g>
<g>
</g>
<g>
</g>
<g>
</g>
<g>
</g>
<g>
</g>
</svg>
