<?xml version="1.0" encoding="iso-8859-1"?>
<!-- Generator: Adobe Illustrator 16.0.0, SVG Export Plug-In . SVG Version: 6.00 Build 0)  -->
<!DOCTYPE svg PUBLIC "-//W3C//DTD SVG 1.1//EN" "http://www.w3.org/Graphics/SVG/1.1/DTD/svg11.dtd">
<svg version="1.1" id="Capa_1" xmlns="http://www.w3.org/2000/svg" xmlns:xlink="http://www.w3.org/1999/xlink" x="0px" y="0px"
	 width="52.2px" height="52.2px" viewBox="0 0 52.2 52.2" style="enable-background:new 0 0 52.2 52.2;" xml:space="preserve">
<g>
	<path d="M10.911,14.829L1.456,5.373c-1.229-1.229-1.229-3.222,0-4.451s3.221-1.229,4.451,0l9.455,9.455
		c1.229,1.229,1.229,3.222,0,4.451C14.133,16.058,12.139,16.058,10.911,14.829z M50.745,0.923c1.229,1.229,1.229,3.222-0.002,4.451
		l-9.455,9.456c-1.229,1.229-3.224,1.229-4.451,0c-1.229-1.229-1.228-3.223,0-4.451l9.457-9.455
		C47.521-0.306,49.514-0.306,50.745,0.923z M43.225,39.402c0,7.058-7.905,12.798-17.625,12.798S7.975,46.46,7.975,39.402
		c0-7.055,7.906-12.794,17.625-12.794S43.225,32.348,43.225,39.402z"/>
</g>
<g>
</g>
<g>
</g>
<g>
</g>
<g>
</g>
<g>
</g>
<g>
</g>
<g>
</g>
<g>
</g>
<g>
</g>
<g>
</g>
<g>
</g>
<g>
</g>
<g>
</g>
<g>
</g>
<g>
</g>
</svg>
