<?xml version="1.0" encoding="iso-8859-1"?>
<!-- Generator: Adobe Illustrator 16.0.0, SVG Export Plug-In . SVG Version: 6.00 Build 0)  -->
<!DOCTYPE svg PUBLIC "-//W3C//DTD SVG 1.1//EN" "http://www.w3.org/Graphics/SVG/1.1/DTD/svg11.dtd">
<svg version="1.1" id="Capa_1" xmlns="http://www.w3.org/2000/svg" xmlns:xlink="http://www.w3.org/1999/xlink" x="0px" y="0px"
	 width="64.994px" height="64.993px" viewBox="0 0 64.994 64.993" style="enable-background:new 0 0 64.994 64.993;"
	 xml:space="preserve">
<g>
	<path d="M23.657,38.725c-1.404,0-2.627,0.215-3.635,0.635c-0.543,0.228-0.955,0.684-1.129,1.252
		c-0.008,0.023-0.617,2.078-0.91,5.068c-3.523-2.146-5.979-5.201-7.266-9.076c-0.369-1.541-0.41-3.828,0.088-4.469
		c0.068-0.086,0.338-0.121,0.547-0.127c0.326,0.008,0.871,0.055,1.361,0.164c2.055,1.014,9.283,4.168,19.539,4.168
		c6.785,0,13.502-1.4,19.887-4.136c0.996-0.244,1.912-0.244,2.047-0.071c0.5,0.643,0.459,2.93,0.103,4.428
		c-1.297,3.912-3.75,6.969-7.271,9.115c-0.293-3.021-0.903-5.047-0.91-5.062c-0.174-0.569-0.584-1.025-1.129-1.254
		c-1.008-0.42-2.229-0.635-3.633-0.635c-3.389,0-7.195,1.229-8.844,1.824C30.855,39.953,27.056,38.725,23.657,38.725z M12.708,6.201
		C12.708,2.777,15.484,0,18.909,0c3.422,0,6.199,2.777,6.199,6.201c0,3.426-2.777,6.203-6.199,6.203
		C15.484,12.404,12.708,9.626,12.708,6.201z M40.825,6.201C40.825,2.777,43.603,0,47.028,0c3.422,0,6.198,2.777,6.198,6.201
		c0,3.426-2.776,6.203-6.198,6.203C43.603,12.404,40.825,9.626,40.825,6.201z M32.589,64.993
		c-5.986-2.165-9.529-6.354-10.531-12.457c-0.188-1.142-0.281-2.36-0.279-3.621c0.004-2.584,0.406-4.771,0.693-5.997
		c0.377-0.064,0.805-0.098,1.273-0.098c3.557,0,8.074,1.801,8.113,1.816c0.01,0.004,0.092,0.035,0.104,0.039
		c0.438,0.15,0.916,0.141,1.357-0.039c0.043-0.018,4.551-1.816,8.113-1.816c0.469,0,0.896,0.033,1.275,0.099
		c0.289,1.224,0.694,3.401,0.705,5.989c0.004,1.256-0.088,2.475-0.275,3.619C42.143,58.627,38.595,62.821,32.589,64.993z"/>
</g>
<g>
</g>
<g>
</g>
<g>
</g>
<g>
</g>
<g>
</g>
<g>
</g>
<g>
</g>
<g>
</g>
<g>
</g>
<g>
</g>
<g>
</g>
<g>
</g>
<g>
</g>
<g>
</g>
<g>
</g>
</svg>
