<?xml version="1.0" encoding="iso-8859-1"?>
<!-- Generator: Adobe Illustrator 16.0.0, SVG Export Plug-In . SVG Version: 6.00 Build 0)  -->
<!DOCTYPE svg PUBLIC "-//W3C//DTD SVG 1.1//EN" "http://www.w3.org/Graphics/SVG/1.1/DTD/svg11.dtd">
<svg version="1.1" id="Capa_1" xmlns="http://www.w3.org/2000/svg" xmlns:xlink="http://www.w3.org/1999/xlink" x="0px" y="0px"
	 width="51.504px" height="51.504px" viewBox="0 0 51.504 51.504" style="enable-background:new 0 0 51.504 51.504;"
	 xml:space="preserve">
<g>
	<path d="M25.824,49.88c11.245,0,21.278-6.4,25.563-16.304c0.191-0.442,0.146-0.953-0.117-1.356
		c-0.265-0.402-0.715-0.646-1.197-0.646L1.435,31.513c-0.001,0-0.002,0-0.002,0c-0.479,0-0.926,0.239-1.192,0.637
		c-0.266,0.398-0.315,0.904-0.131,1.348C4.244,43.449,14.338,49.88,25.824,49.88z M45.758,35.567
		c-4.288,6.369-11.729,10.314-19.934,10.314c-8.401,0-15.917-3.963-20.132-10.361L45.758,35.567z M5.964,7.825
		c0-3.423,2.777-6.201,6.2-6.201c3.423,0,6.2,2.777,6.2,6.201c0,3.426-2.777,6.203-6.2,6.203C8.741,14.028,5.964,11.251,5.964,7.825
		z M34.08,7.825c0-3.423,2.779-6.201,6.203-6.201c3.423,0,6.199,2.777,6.199,6.201c0,3.426-2.776,6.203-6.199,6.203
		C36.859,14.028,34.08,11.251,34.08,7.825z"/>
</g>
<g>
</g>
<g>
</g>
<g>
</g>
<g>
</g>
<g>
</g>
<g>
</g>
<g>
</g>
<g>
</g>
<g>
</g>
<g>
</g>
<g>
</g>
<g>
</g>
<g>
</g>
<g>
</g>
<g>
</g>
</svg>
