<?xml version="1.0" encoding="iso-8859-1"?>
<!-- Generator: Adobe Illustrator 16.0.0, SVG Export Plug-In . SVG Version: 6.00 Build 0)  -->
<!DOCTYPE svg PUBLIC "-//W3C//DTD SVG 1.1//EN" "http://www.w3.org/Graphics/SVG/1.1/DTD/svg11.dtd">
<svg version="1.1" id="Capa_1" xmlns="http://www.w3.org/2000/svg" xmlns:xlink="http://www.w3.org/1999/xlink" x="0px" y="0px"
	 width="86.639px" height="86.639px" viewBox="0 0 86.639 86.639" style="enable-background:new 0 0 86.639 86.639;"
	 xml:space="preserve">
<g>
	<g>
		<path d="M40.473,53.603c-7.49,0-13.996-0.879-19.372-2.069C11.676,49.447,4.551,46.228,0,43.721
			c1.989,7.255,5.816,14.105,11.506,19.796c17.493,17.493,45.961,17.49,63.455-0.002c5.855-5.856,9.742-12.945,11.678-20.438
			C68.891,51.024,53.249,53.603,40.473,53.603z M64.712,64.685c-11.828,8.736-31.075,8.738-42.902,0.001
			c-3.847-2.843-6.434-6.267-7.779-9.891c3.077,1.252,7.894,2.86,14.266,3.902c3.636,0.595,8.033,1.034,13.097,1.034
			c8.637,0,19.213-1.288,31.213-5.258C71.299,58.219,68.671,61.759,64.712,64.685z"/>
		<path d="M58.748,31.076c3.422,0,6.199-2.777,6.199-6.203c0-1.679-0.67-3.199-1.754-4.315l5.182-5.183
			c1.23-1.229,1.23-3.221,0.002-4.449c-1.23-1.23-3.223-1.23-4.451,0l-9.457,9.455c-0.015,0.015-0.023,0.032-0.038,0.047
			c-1.159,1.127-1.884,2.701-1.884,4.445C52.547,28.298,55.324,31.076,58.748,31.076z"/>
		<path d="M24.27,20.558c-1.084,1.117-1.754,2.637-1.754,4.315c0,3.426,2.777,6.203,6.201,6.203c3.422,0,6.199-2.777,6.199-6.203
			c0-1.745-0.724-3.319-1.884-4.446c-0.014-0.015-0.023-0.031-0.038-0.046l-9.455-9.455c-1.23-1.23-3.223-1.23-4.451,0
			c-1.229,1.229-1.229,3.221,0,4.449L24.27,20.558z"/>
	</g>
</g>
<g>
</g>
<g>
</g>
<g>
</g>
<g>
</g>
<g>
</g>
<g>
</g>
<g>
</g>
<g>
</g>
<g>
</g>
<g>
</g>
<g>
</g>
<g>
</g>
<g>
</g>
<g>
</g>
<g>
</g>
</svg>
