<?xml version="1.0" encoding="iso-8859-1"?>
<!-- Generator: Adobe Illustrator 16.0.0, SVG Export Plug-In . SVG Version: 6.00 Build 0)  -->
<!DOCTYPE svg PUBLIC "-//W3C//DTD SVG 1.1//EN" "http://www.w3.org/Graphics/SVG/1.1/DTD/svg11.dtd">
<svg version="1.1" id="Capa_1" xmlns="http://www.w3.org/2000/svg" xmlns:xlink="http://www.w3.org/1999/xlink" x="0px" y="0px"
	 width="53.261px" height="53.261px" viewBox="0 0 53.261 53.261" style="enable-background:new 0 0 53.261 53.261;"
	 xml:space="preserve">
<g>
	<path d="M37.364,14.829c-1.229-1.229-1.229-3.222,0-4.451l9.457-9.455c1.229-1.229,3.222-1.229,4.451,0
		c1.229,1.229,1.229,3.222-0.002,4.451l-9.455,9.456C40.587,16.057,38.593,16.057,37.364,14.829z M51.478,17.203
		c0,2.254-1.828,4.081-4.08,4.081s-4.078-1.827-4.078-4.081c0-2.252,1.826-4.08,4.078-4.08S51.478,14.95,51.478,17.203z
		 M1.984,5.373C0.755,4.144,0.755,2.151,1.983,0.922c1.229-1.229,3.222-1.229,4.451,0l9.456,9.455c1.229,1.229,1.229,3.222,0,4.451
		c-1.229,1.229-3.223,1.229-4.451,0L1.984,5.373z M5.857,13.123c2.252,0,4.079,1.827,4.079,4.08c0,2.254-1.827,4.081-4.079,4.081
		c-2.251,0-4.079-1.827-4.079-4.081C1.778,14.95,3.606,13.123,5.857,13.123z M44.312,26.537H8.95c-4.687,0-8.486,3.8-8.486,8.486
		v9.752c0,4.687,3.799,8.485,8.486,8.485h35.362c4.687,0,8.485-3.8,8.485-8.485v-9.752C52.797,30.337,48.997,26.537,44.312,26.537z
		 M12.555,49.958H7.233c-1.297-0.938-2.271-2.294-2.725-3.872v-4.175h8.047V49.958z M12.555,37.889H4.508v-4.175
		c0.454-1.578,1.428-2.934,2.725-3.873h5.322V37.889z M24.611,49.958h-8.033v-8.047h8.033V49.958z M24.611,37.889h-8.033v-8.048
		h8.033V37.889z M36.683,49.958h-8.033v-8.047h8.033V49.958z M36.683,37.889h-8.033v-8.048h8.033V37.889z M48.752,46.086
		c-0.454,1.578-1.429,2.934-2.726,3.872h-5.321v-8.047h8.047V46.086z M48.752,37.889h-8.047v-8.048h5.321
		c1.297,0.939,2.271,2.295,2.726,3.873V37.889z"/>
</g>
<g>
</g>
<g>
</g>
<g>
</g>
<g>
</g>
<g>
</g>
<g>
</g>
<g>
</g>
<g>
</g>
<g>
</g>
<g>
</g>
<g>
</g>
<g>
</g>
<g>
</g>
<g>
</g>
<g>
</g>
</svg>
