<?xml version="1.0" encoding="iso-8859-1"?>
<!-- Generator: Adobe Illustrator 16.0.0, SVG Export Plug-In . SVG Version: 6.00 Build 0)  -->
<!DOCTYPE svg PUBLIC "-//W3C//DTD SVG 1.1//EN" "http://www.w3.org/Graphics/SVG/1.1/DTD/svg11.dtd">
<svg version="1.1" id="Capa_1" xmlns="http://www.w3.org/2000/svg" xmlns:xlink="http://www.w3.org/1999/xlink" x="0px" y="0px"
	 width="53.002px" height="53.002px" viewBox="0 0 53.002 53.002" style="enable-background:new 0 0 53.002 53.002;"
	 xml:space="preserve">
<g>
	<path d="M0.471,37.395c0,0-2.958-11.438,6.705-8.873c0,0,17.144,9.295,38.651,0c9.663-2.563,6.705,8.873,6.705,8.873
		C47.009,54.354,26.5,52.975,26.5,52.975S5.992,54.354,0.471,37.395z M6.711,6.201C6.711,2.777,9.488,0,12.913,0
		c3.423,0,6.2,2.777,6.2,6.201c0,3.426-2.777,6.203-6.2,6.203C9.488,12.404,6.711,9.626,6.711,6.201z M34.828,6.201
		c0-3.424,2.78-6.201,6.203-6.201s6.201,2.777,6.201,6.201c0,3.426-2.777,6.203-6.201,6.203
		C37.608,12.404,34.828,9.626,34.828,6.201z"/>
</g>
<g>
</g>
<g>
</g>
<g>
</g>
<g>
</g>
<g>
</g>
<g>
</g>
<g>
</g>
<g>
</g>
<g>
</g>
<g>
</g>
<g>
</g>
<g>
</g>
<g>
</g>
<g>
</g>
<g>
</g>
</svg>
