<?xml version="1.0" encoding="iso-8859-1"?>
<!-- Generator: Adobe Illustrator 16.0.0, SVG Export Plug-In . SVG Version: 6.00 Build 0)  -->
<!DOCTYPE svg PUBLIC "-//W3C//DTD SVG 1.1//EN" "http://www.w3.org/Graphics/SVG/1.1/DTD/svg11.dtd">
<svg version="1.1" id="Capa_1" xmlns="http://www.w3.org/2000/svg" xmlns:xlink="http://www.w3.org/1999/xlink" x="0px" y="0px"
	 width="51.505px" height="51.505px" viewBox="0 0 51.505 51.505" style="enable-background:new 0 0 51.505 51.505;"
	 xml:space="preserve">
<g>
	<path d="M5.963,8.826c0-3.423,2.777-6.201,6.2-6.201c3.423,0,6.2,2.777,6.2,6.201c0,3.426-2.777,6.203-6.2,6.203
		C8.74,15.028,5.963,12.251,5.963,8.826z M34.079,8.826c0-3.423,2.78-6.201,6.203-6.201s6.2,2.777,6.2,6.201
		c0,3.426-2.777,6.203-6.2,6.203S34.079,12.251,34.079,8.826z M51.27,31.22c0.265,0.403,0.31,0.914,0.117,1.356
		C47.103,42.48,37.069,48.88,25.824,48.88c-11.486,0-21.58-6.431-25.714-16.382c-0.185-0.442-0.135-0.948,0.131-1.347
		c0.267-0.398,0.714-0.637,1.192-0.637c0.001,0,0.001,0,0.002,0l31.054,0.037v6.672h6.752l0.008-6.664l10.824,0.014
		C50.556,30.575,51.004,30.818,51.27,31.22z"/>
</g>
<g>
</g>
<g>
</g>
<g>
</g>
<g>
</g>
<g>
</g>
<g>
</g>
<g>
</g>
<g>
</g>
<g>
</g>
<g>
</g>
<g>
</g>
<g>
</g>
<g>
</g>
<g>
</g>
<g>
</g>
</svg>
