<?xml version="1.0" encoding="iso-8859-1"?>
<!-- Generator: Adobe Illustrator 16.0.0, SVG Export Plug-In . SVG Version: 6.00 Build 0)  -->
<!DOCTYPE svg PUBLIC "-//W3C//DTD SVG 1.1//EN" "http://www.w3.org/Graphics/SVG/1.1/DTD/svg11.dtd">
<svg version="1.1" id="Capa_1" xmlns="http://www.w3.org/2000/svg" xmlns:xlink="http://www.w3.org/1999/xlink" x="0px" y="0px"
	 width="51.505px" height="51.505px" viewBox="0 0 51.505 51.505" style="enable-background:new 0 0 51.505 51.505;"
	 xml:space="preserve">
<g>
	<path d="M51.27,31.22c0.265,0.403,0.31,0.914,0.117,1.356C47.103,42.48,37.069,48.88,25.824,48.88
		c-11.486,0-21.58-6.431-25.714-16.382c-0.185-0.442-0.135-0.948,0.131-1.347c0.267-0.398,0.714-0.637,1.192-0.637
		c0.001,0,0.001,0,0.002,0l48.638,0.06C50.556,30.575,51.004,30.818,51.27,31.22z M5.845,7.164c0-1.025,0.365-2.114,1.002-2.988
		c0.729-1,1.684-1.551,2.691-1.551c1,0,1.942,0.437,2.625,1.173c0.684-0.736,1.626-1.173,2.626-1.173
		c1.006,0,1.961,0.551,2.688,1.551c0.637,0.874,1.002,1.963,1.002,2.988c0,1.628-1.006,3.473-2.991,5.485
		c-1.414,1.434-2.812,2.425-2.87,2.466c-0.137,0.097-0.296,0.145-0.455,0.145c-0.156,0-0.313-0.046-0.446-0.138
		C11.478,14.957,5.845,11.054,5.845,7.164z M33.964,7.164c0-1.025,0.365-2.114,1.002-2.988c0.729-1,1.685-1.551,2.691-1.551
		c1,0,1.942,0.437,2.625,1.173c0.684-0.736,1.626-1.173,2.626-1.173c1.006,0,1.961,0.551,2.688,1.551
		c0.637,0.874,1.002,1.963,1.002,2.988c0,1.628-1.007,3.473-2.991,5.485c-1.414,1.434-2.812,2.425-2.87,2.466
		c-0.137,0.097-0.296,0.145-0.455,0.145c-0.156,0-0.313-0.046-0.446-0.138C39.597,14.957,33.964,11.054,33.964,7.164z"/>
</g>
<g>
</g>
<g>
</g>
<g>
</g>
<g>
</g>
<g>
</g>
<g>
</g>
<g>
</g>
<g>
</g>
<g>
</g>
<g>
</g>
<g>
</g>
<g>
</g>
<g>
</g>
<g>
</g>
<g>
</g>
</svg>
