<?xml version="1.0" encoding="iso-8859-1"?>
<!-- Generator: Adobe Illustrator 16.0.0, SVG Export Plug-In . SVG Version: 6.00 Build 0)  -->
<!DOCTYPE svg PUBLIC "-//W3C//DTD SVG 1.1//EN" "http://www.w3.org/Graphics/SVG/1.1/DTD/svg11.dtd">
<svg version="1.1" id="Capa_1" xmlns="http://www.w3.org/2000/svg" xmlns:xlink="http://www.w3.org/1999/xlink" x="0px" y="0px"
	 width="53px" height="53.001px" viewBox="0 0 53 53.001" style="enable-background:new 0 0 53 53.001;" xml:space="preserve">
<g>
	<path d="M48.375,28.146c-0.732,0-1.579,0.115-2.553,0.375c-7.17,3.099-13.853,4.131-19.58,4.131
		c-11.451,0-19.072-4.131-19.072-4.131c-0.898-0.239-1.834-0.353-2.551-0.367v-0.008H4.619c-0.019,0-0.033,0.006-0.052,0.006
		c-0.042-0.002-0.092-0.006-0.132-0.006l0.001,0.018c-6.297,0.186-3.969,9.23-3.969,9.23C5.215,51.98,21.049,53.001,25.389,53.001
		c0.706,0,1.108-0.026,1.108-0.026s0.401,0.026,1.108,0.026c4.34,0,20.174-1.022,24.923-15.606
		C52.529,37.395,54.92,28.146,48.375,28.146z M6.248,40.9c-0.803-1.219-1.491-2.602-2.015-4.182
		c-0.356-1.486-0.494-4.025,0.182-4.894c0.072-0.093,0.242-0.302,0.95-0.317c0.246,0.006,0.561,0.032,0.883,0.076V40.9z
		 M15.581,47.963c-1.813-0.658-3.647-1.574-5.333-2.834V33.104c1.421,0.514,3.218,1.067,5.333,1.547V47.963z M25.165,49.641
		c-1.265-0.013-3.274-0.121-5.583-0.574V35.374c1.728,0.239,3.595,0.397,5.583,0.442V49.641z M34.165,48.908
		c-1.908,0.428-3.649,0.613-5,0.688V35.744c1.673-0.1,3.341-0.286,5-0.559V48.908z M43.081,44.872
		c-1.547,1.214-3.229,2.126-4.917,2.806V34.355c1.651-0.412,3.291-0.908,4.917-1.492V44.872z M48.764,36.717
		c-0.449,1.356-1.022,2.564-1.684,3.652V31.54c0.158-0.017,0.322-0.035,0.463-0.035c0.787,0,0.962,0.226,1.037,0.32
		C49.259,32.693,49.119,35.24,48.764,36.717z M6.708,6.201C6.708,2.777,9.485,0,12.91,0c3.423,0,6.2,2.777,6.2,6.201
		c0,3.426-2.777,6.203-6.2,6.203C9.485,12.404,6.708,9.626,6.708,6.201z M34.826,6.201c0-3.424,2.78-6.201,6.203-6.201
		s6.201,2.777,6.201,6.201c0,3.426-2.777,6.203-6.201,6.203C37.606,12.404,34.826,9.626,34.826,6.201z"/>
</g>
<g>
</g>
<g>
</g>
<g>
</g>
<g>
</g>
<g>
</g>
<g>
</g>
<g>
</g>
<g>
</g>
<g>
</g>
<g>
</g>
<g>
</g>
<g>
</g>
<g>
</g>
<g>
</g>
<g>
</g>
</svg>
