<?xml version="1.0" encoding="iso-8859-1"?>
<!-- Generator: Adobe Illustrator 16.0.0, SVG Export Plug-In . SVG Version: 6.00 Build 0)  -->
<!DOCTYPE svg PUBLIC "-//W3C//DTD SVG 1.1//EN" "http://www.w3.org/Graphics/SVG/1.1/DTD/svg11.dtd">
<svg version="1.1" id="Capa_1" xmlns="http://www.w3.org/2000/svg" xmlns:xlink="http://www.w3.org/1999/xlink" x="0px" y="0px"
	 width="53.255px" height="53.256px" viewBox="0 0 53.255 53.256" style="enable-background:new 0 0 53.255 53.256;"
	 xml:space="preserve">
<g>
	<path d="M18.462,51.797c1.339,0.479,2.721,0.848,4.132,1.096c1.343,0.234,2.713,0.363,4.105,0.363c1.34,0,2.663-0.127,3.96-0.354
		c1.41-0.248,2.792-0.615,4.134-1.102c7.785-2.818,14.249-9.408,17.469-16.85c0.191-0.443,0.146-0.953-0.117-1.355
		c-0.265-0.404-0.714-0.646-1.196-0.647L2.312,32.891c-0.001,0-0.002,0-0.002,0c-0.479,0-0.926,0.237-1.192,0.637
		c-0.266,0.398-0.315,0.904-0.131,1.348C4.092,42.352,10.564,48.969,18.462,51.797z M30.575,48.807
		c-1.266,0.282-2.559,0.449-3.875,0.449c-1.366,0-2.705-0.172-4.014-0.464c-0.688-0.153-1.366-0.347-2.034-0.567
		c1.146-2.469,3.649-4.045,5.977-4.045c2.33,0,4.836,1.58,5.98,4.053C31.941,48.457,31.262,48.652,30.575,48.807z M46.633,36.943
		c-2.203,3.271-5.242,6.422-8.787,8.719c-2.231-3.271-6.41-5.482-11.218-5.482c-4.813,0-8.998,2.217-11.229,5.496
		c-3.6-2.308-6.658-5.48-8.832-8.781L46.633,36.943z M6.839,6.201C6.839,2.777,9.616,0,13.04,0c3.423,0,6.2,2.777,6.2,6.201
		c0,3.426-2.777,6.203-6.2,6.203C9.616,12.404,6.839,9.626,6.839,6.201z M34.957,6.201C34.957,2.777,37.737,0,41.16,0
		s6.2,2.777,6.2,6.201c0,3.426-2.777,6.203-6.2,6.203S34.957,9.626,34.957,6.201z"/>
</g>
<g>
</g>
<g>
</g>
<g>
</g>
<g>
</g>
<g>
</g>
<g>
</g>
<g>
</g>
<g>
</g>
<g>
</g>
<g>
</g>
<g>
</g>
<g>
</g>
<g>
</g>
<g>
</g>
<g>
</g>
</svg>
