<?xml version="1.0" encoding="iso-8859-1"?>
<!-- Generator: Adobe Illustrator 16.0.0, SVG Export Plug-In . SVG Version: 6.00 Build 0)  -->
<!DOCTYPE svg PUBLIC "-//W3C//DTD SVG 1.1//EN" "http://www.w3.org/Graphics/SVG/1.1/DTD/svg11.dtd">
<svg version="1.1" id="Capa_1" xmlns="http://www.w3.org/2000/svg" xmlns:xlink="http://www.w3.org/1999/xlink" x="0px" y="0px"
	 width="58.529px" height="58.529px" viewBox="0 0 58.529 58.529" style="enable-background:new 0 0 58.529 58.529;"
	 xml:space="preserve">
<g>
	<path d="M5.058,14.61c-1.23,1.148-3.115,1.07-4.248-0.143c-1.133-1.212-1.07-3.113,0.143-4.246c5.863-5.483,12.408-2.385,15.072,0
		c1.236,1.107,1.342,3.007,0.234,4.243c-0.117,0.13-0.242,0.249-0.375,0.354c-1.127,0.892-2.762,0.871-3.867-0.119
		C11.646,14.369,8.308,11.558,5.058,14.61z M57.528,10.257c1.236,1.107,1.342,3.007,0.236,4.243
		c-0.117,0.13-0.244,0.249-0.377,0.354c-1.125,0.892-2.763,0.871-3.867-0.119c-0.369-0.33-3.707-3.141-6.959-0.089
		c-1.229,1.148-3.115,1.07-4.246-0.143c-1.133-1.212-1.07-3.113,0.141-4.246C48.321,4.773,54.864,7.872,57.528,10.257z
		 M53.471,30.439l-48.64-0.067c0,0,0,0-0.002,0c-0.479,0-0.926,0.273-1.191,0.729c-0.265,0.456-0.316,1.033-0.131,1.54
		C7.64,44.015,17.734,51.366,29.22,51.366c11.246,0,21.281-7.313,25.564-18.636c0.191-0.507,0.148-1.089-0.117-1.55
		C54.402,30.719,53.952,30.44,53.471,30.439z M18.009,45.96c-2.641-1.153-5.018-2.712-7.014-4.614h7.014V45.96z M18.009,38.046
		H8.224v-4.95l9.785,0.012V38.046z M31.354,48.155c-0.729,0.059-1.461,0.095-2.202,0.095c-2.635,0-5.186-0.358-7.584-1.022v-5.881
		h9.786V48.155z M31.354,38.046h-9.786v-4.936l9.786,0.011V38.046z M44.694,43.361c-2.834,2.046-6.17,3.521-9.785,4.283v-6.299
		h9.785V43.361z M44.694,38.046h-9.785v-4.921l9.785,0.013V38.046z M51.893,34.797c-0.533,1.145-1.179,2.225-1.9,3.249h-1.738
		v-4.904l2.47,0.002c0.43,0.001,0.827,0.202,1.065,0.534C52.022,34.012,52.062,34.431,51.893,34.797z"/>
</g>
<g>
</g>
<g>
</g>
<g>
</g>
<g>
</g>
<g>
</g>
<g>
</g>
<g>
</g>
<g>
</g>
<g>
</g>
<g>
</g>
<g>
</g>
<g>
</g>
<g>
</g>
<g>
</g>
<g>
</g>
</svg>
