<?xml version="1.0" encoding="iso-8859-1"?>
<!-- Generator: Adobe Illustrator 16.0.0, SVG Export Plug-In . SVG Version: 6.00 Build 0)  -->
<!DOCTYPE svg PUBLIC "-//W3C//DTD SVG 1.1//EN" "http://www.w3.org/Graphics/SVG/1.1/DTD/svg11.dtd">
<svg version="1.1" id="Capa_1" xmlns="http://www.w3.org/2000/svg" xmlns:xlink="http://www.w3.org/1999/xlink" x="0px" y="0px"
	 width="81.98px" height="81.98px" viewBox="0 0 81.98 81.98" style="enable-background:new 0 0 81.98 81.98;" xml:space="preserve"
	>
<g>
	<g>
		<path d="M41.913,47.775c-10.301,0-19.354,5.771-23.064,14.703c-0.635,1.529,0.09,3.285,1.619,3.922
			c0.377,0.156,0.768,0.23,1.15,0.23c1.176-0.001,2.291-0.697,2.771-1.852c2.777-6.684,9.654-11.004,17.523-11.004
			c7.689,0,14.527,4.322,17.42,11.012c0.658,1.521,2.424,2.222,3.945,1.562c1.52-0.658,2.221-2.424,1.562-3.945
			C60.997,53.518,51.997,47.775,41.913,47.775z"/>
		<circle cx="42.3" cy="63.536" r="6.693"/>
		<path d="M79.951,19.471c-0.047-0.114-0.059-0.238-0.057-0.36h-9.85c-2.148-4.354-6.631-7.359-11.807-7.359
			c-6.293,0-11.564,4.441-12.857,10.354h-6.676c-1.307-5.893-6.568-10.316-12.848-10.316c-5.16,0-9.635,2.986-11.793,7.322H2.067
			c-0.002,0.112-0.018,0.226-0.062,0.33C1.456,20.743,0.451,23.049,0,24.089h12.801l-0.098,0.614
			c-0.002,0.084-0.012,0.168-0.012,0.252c0,7.262,5.906,13.168,13.166,13.168c7.109,0,12.908-5.67,13.145-12.725h6.094
			c0.256,7.037,6.045,12.688,13.143,12.688c7.261,0,13.166-5.906,13.166-13.168c0-0.137-0.016-0.271-0.02-0.408l-0.066-0.421H81.98
			C81.553,23.134,80.497,20.792,79.951,19.471z M25.858,34.044c-5.012,0-9.09-4.078-9.09-9.09c0-5.012,4.078-9.088,9.09-9.088
			c5.01,0,9.088,4.076,9.088,9.088C34.946,29.966,30.868,34.044,25.858,34.044z M58.238,34.007c-5.012,0-9.09-4.078-9.09-9.09
			s4.078-9.088,9.09-9.088c5.011,0,9.089,4.076,9.089,9.088S63.249,34.007,58.238,34.007z"/>
		<circle cx="58.068" cy="24.956" r="3.204"/>
		<circle cx="25.858" cy="24.956" r="3.204"/>
	</g>
</g>
<g>
</g>
<g>
</g>
<g>
</g>
<g>
</g>
<g>
</g>
<g>
</g>
<g>
</g>
<g>
</g>
<g>
</g>
<g>
</g>
<g>
</g>
<g>
</g>
<g>
</g>
<g>
</g>
<g>
</g>
</svg>
