<?xml version="1.0" encoding="iso-8859-1"?>
<!-- Generator: Adobe Illustrator 16.0.0, SVG Export Plug-In . SVG Version: 6.00 Build 0)  -->
<!DOCTYPE svg PUBLIC "-//W3C//DTD SVG 1.1//EN" "http://www.w3.org/Graphics/SVG/1.1/DTD/svg11.dtd">
<svg version="1.1" id="Capa_1" xmlns="http://www.w3.org/2000/svg" xmlns:xlink="http://www.w3.org/1999/xlink" x="0px" y="0px"
	 width="81.719px" height="81.719px" viewBox="0 0 81.719 81.719" style="enable-background:new 0 0 81.719 81.719;"
	 xml:space="preserve">
<g>
	<g>
		<path d="M59.277,50.924c-0.119,0-0.23,0.029-0.346,0.039c-0.127-0.016-0.25-0.039-0.379-0.039H23.906
			c-0.213,0-0.42,0.023-0.621,0.064c-0.188-0.025-0.371-0.064-0.566-0.064c-2.559,0-4.643,2.281-4.643,5.084v5.609
			c0,2.803,2.084,5.082,4.643,5.082c2.182,0,4.002-1.66,4.498-3.882c0.494,2.222,2.316,3.882,4.496,3.882
			c2.561,0,4.643-2.279,4.643-5.082c0,2.803,2.082,5.082,4.643,5.082c2.183,0,4.002-1.66,4.498-3.882
			c0.494,2.222,2.315,3.882,4.496,3.882c2.562,0,4.644-2.279,4.644-5.082c0,2.803,2.082,5.082,4.643,5.082
			c2.559,0,4.643-2.279,4.643-5.082v-5.609C63.92,53.205,61.836,50.924,59.277,50.924z"/>
		<path d="M81.719,22.55c-0.148-0.389-0.744-1.911-1.3-3.026L69.6,24.409c-1.627-5.424-6.662-9.389-12.606-9.389
			c-6.293,0-11.563,4.441-12.856,10.354H37.46c-1.307-5.894-6.568-10.316-12.848-10.316c-5.92,0-10.938,3.928-12.59,9.314
			L1.418,19.416C0.833,20.539,0.176,22.17,0,22.618l11.458,5.354c-0.002,0.084-0.012,0.167-0.012,0.252
			c0,7.261,5.906,13.167,13.166,13.167c7.109,0,12.908-5.67,13.145-12.725h6.095c0.256,7.038,6.045,12.688,13.143,12.688
			c7.26,0,13.166-5.906,13.166-13.167c0-0.138-0.016-0.271-0.02-0.408L81.719,22.55z M24.611,37.311c-5.012,0-9.09-4.077-9.09-9.089
			c0-5.012,4.078-9.089,9.09-9.089c5.01,0,9.088,4.077,9.088,9.089C33.699,33.233,29.621,37.311,24.611,37.311z M56.992,37.273
			c-5.012,0-9.09-4.077-9.09-9.089s4.078-9.089,9.09-9.089c5.01,0,9.088,4.077,9.088,9.089S62.002,37.273,56.992,37.273z"/>
		<circle cx="24.611" cy="28.224" r="3.204"/>
		<circle cx="56.822" cy="28.224" r="3.204"/>
	</g>
</g>
<g>
</g>
<g>
</g>
<g>
</g>
<g>
</g>
<g>
</g>
<g>
</g>
<g>
</g>
<g>
</g>
<g>
</g>
<g>
</g>
<g>
</g>
<g>
</g>
<g>
</g>
<g>
</g>
<g>
</g>
</svg>
