<?xml version="1.0" encoding="iso-8859-1"?>
<!-- Generator: Adobe Illustrator 16.0.0, SVG Export Plug-In . SVG Version: 6.00 Build 0)  -->
<!DOCTYPE svg PUBLIC "-//W3C//DTD SVG 1.1//EN" "http://www.w3.org/Graphics/SVG/1.1/DTD/svg11.dtd">
<svg version="1.1" id="Capa_1" xmlns="http://www.w3.org/2000/svg" xmlns:xlink="http://www.w3.org/1999/xlink" x="0px" y="0px"
	 width="55.417px" height="55.417px" viewBox="0 0 55.417 55.417" style="enable-background:new 0 0 55.417 55.417;"
	 xml:space="preserve">
<g>
	<path d="M18.717,39.681v2.649h6.043v-2.649c0-1.922,1.557-3.479,3.479-3.479c1.919,0,3.479,1.558,3.479,3.479v2.649h5.543v-2.649
		c0-1.922,1.557-3.479,3.479-3.479c1.92,0,3.479,1.558,3.479,3.479v2.649h3.149c1.923,0,3.479,1.559,3.479,3.479
		s-1.557,3.479-3.479,3.479h-3.151v2.65c0,1.922-1.558,3.479-3.479,3.479c-1.92,0-3.479-1.557-3.479-3.479v-2.65h-5.543v2.65
		c0,1.922-1.558,3.479-3.479,3.479c-1.92,0-3.479-1.557-3.479-3.479v-2.65h-6.043v2.65c0,1.922-1.557,3.479-3.479,3.479
		c-1.92,0-3.479-1.557-3.479-3.479v-2.65H9.109c-1.922,0-3.479-1.558-3.479-3.479s1.557-3.479,3.479-3.479h2.65v-2.649
		c0-1.922,1.557-3.479,3.479-3.479C17.158,36.202,18.717,37.759,18.717,39.681z M17.74,15.451c0,3.426-1.832,6.203-4.09,6.203
		c-2.258,0-4.09-2.777-4.09-6.203c0-3.424,1.832-6.201,4.09-6.201C15.908,9.25,17.74,12.026,17.74,15.451z M4.025,7.826
		c0.506-2.932,3.172-8.333,9.83-7.787c1.375,0.113,2.398,1.32,2.285,2.697c-0.111,1.375-1.301,2.4-2.695,2.287
		C9.748,4.71,9.023,8.269,8.953,8.675C8.742,9.892,7.685,10.75,6.492,10.75c-0.141,0-0.285-0.013-0.428-0.036
		C4.703,10.479,3.791,9.186,4.025,7.826z M37.677,15.451c0-3.424,1.832-6.201,4.09-6.201s4.09,2.777,4.09,6.201
		c0,3.426-1.832,6.203-4.09,6.203S37.677,18.875,37.677,15.451z M39.276,2.735c-0.113-1.377,0.91-2.584,2.285-2.697
		c6.658-0.546,9.324,4.855,9.83,7.787c0.234,1.36-0.678,2.653-2.039,2.889c-0.143,0.022-0.287,0.036-0.428,0.036
		c-1.193,0-2.25-0.858-2.461-2.075c-0.07-0.406-0.795-3.964-4.492-3.652C40.577,5.136,39.388,4.11,39.276,2.735z"/>
</g>
<g>
</g>
<g>
</g>
<g>
</g>
<g>
</g>
<g>
</g>
<g>
</g>
<g>
</g>
<g>
</g>
<g>
</g>
<g>
</g>
<g>
</g>
<g>
</g>
<g>
</g>
<g>
</g>
<g>
</g>
</svg>
