<?xml version="1.0" encoding="iso-8859-1"?>
<!-- Generator: Adobe Illustrator 16.0.0, SVG Export Plug-In . SVG Version: 6.00 Build 0)  -->
<!DOCTYPE svg PUBLIC "-//W3C//DTD SVG 1.1//EN" "http://www.w3.org/Graphics/SVG/1.1/DTD/svg11.dtd">
<svg version="1.1" id="Capa_1" xmlns="http://www.w3.org/2000/svg" xmlns:xlink="http://www.w3.org/1999/xlink" x="0px" y="0px"
	 width="47.978px" height="47.978px" viewBox="0 0 47.978 47.978" style="enable-background:new 0 0 47.978 47.978;"
	 xml:space="preserve">
<g>
	<path d="M12.183,10.587c-2.42,2.421-6.348,2.421-8.771-0.002c-2.42-2.42-2.42-6.348,0-8.77c2.422-2.421,6.35-2.421,8.77,0.001
		C14.603,4.239,14.603,8.167,12.183,10.587z M44.566,1.91c2.42,2.421,2.42,6.349,0,8.769c-2.424,2.423-6.352,2.423-8.771,0.002
		c-2.421-2.42-2.421-6.348,0.002-8.77C38.216-0.511,42.144-0.511,44.566,1.91z M33.236,33.96l-2.678,2.681l2.678,2.676
		c0.957,0.959,1.486,2.233,1.486,3.587c0,1.354-0.527,2.63-1.486,3.588c-1.916,1.918-5.254,1.92-7.174,0l-2.678-2.676l-2.676,2.676
		c-0.959,0.961-2.232,1.486-3.588,1.486c-1.354,0-2.627-0.527-3.586-1.486c-1.977-1.976-1.977-5.193,0-7.17l2.678-2.681l-2.68-2.679
		c-1.877-1.878-1.973-4.916-0.219-6.919c0.039-0.052,0.119-0.147,0.209-0.237c1.945-1.946,5.268-1.935,7.184-0.019l2.678,2.68
		l2.68-2.68c1.824-1.825,4.973-1.921,6.918-0.221c0.063,0.048,0.162,0.132,0.254,0.225c0.957,0.957,1.486,2.229,1.486,3.582
		C34.724,31.729,34.195,33.001,33.236,33.96z"/>
</g>
<g>
</g>
<g>
</g>
<g>
</g>
<g>
</g>
<g>
</g>
<g>
</g>
<g>
</g>
<g>
</g>
<g>
</g>
<g>
</g>
<g>
</g>
<g>
</g>
<g>
</g>
<g>
</g>
<g>
</g>
</svg>
