<?xml version="1.0" encoding="iso-8859-1"?>
<!-- Generator: Adobe Illustrator 16.0.0, SVG Export Plug-In . SVG Version: 6.00 Build 0)  -->
<!DOCTYPE svg PUBLIC "-//W3C//DTD SVG 1.1//EN" "http://www.w3.org/Graphics/SVG/1.1/DTD/svg11.dtd">
<svg version="1.1" id="Capa_1" xmlns="http://www.w3.org/2000/svg" xmlns:xlink="http://www.w3.org/1999/xlink" x="0px" y="0px"
	 width="81.691px" height="81.692px" viewBox="0 0 81.691 81.692" style="enable-background:new 0 0 81.691 81.692;"
	 xml:space="preserve">
<g>
	<g>
		<path d="M41.912,47.711c-10.301,0-19.354,5.771-23.065,14.703c-0.636,1.529,0.089,3.285,1.62,3.922
			c0.376,0.156,0.766,0.23,1.15,0.23c1.176-0.001,2.292-0.697,2.772-1.851c1.382-3.328,3.782-6.069,6.814-7.983v4.536
			c0,3.097,2.3,5.613,5.127,5.613c2.395,0,4.405-1.81,4.966-4.244c0.562,2.435,2.571,4.244,4.966,4.244
			c2.827,0,5.127-2.519,5.127-5.613v-5.162c3.512,1.921,6.338,4.9,7.943,8.616c0.658,1.521,2.424,2.223,3.945,1.562
			c1.52-0.658,2.22-2.424,1.562-3.944C60.996,53.454,51.996,47.711,41.912,47.711z M38.361,61.269c0,1.228-0.912,2.226-2.031,2.226
			c-1.12,0-2.031-0.998-2.031-2.226v-6.103c1.218-0.487,2.499-0.858,3.83-1.104c0.144,0.305,0.232,0.646,0.232,1.012V61.269z
			 M48.293,61.269c0,1.228-0.911,2.226-2.031,2.226c-1.119,0-2.031-0.998-2.031-2.226v-6.192c0-0.438,0.121-0.842,0.32-1.188
			c1.279,0.168,2.521,0.461,3.713,0.859c0.014,0.107,0.029,0.215,0.029,0.326V61.269z"/>
		<path d="M81.691,22.342c-0.172-0.45-0.758-1.942-1.301-3.025l-10.812,4.881c-1.628-5.424-6.661-9.389-12.607-9.389
			c-6.293,0-11.563,4.441-12.856,10.354h-6.677c-1.307-5.894-6.566-10.316-12.847-10.316c-5.919,0-10.937,3.928-12.588,9.314
			L1.42,19.218C0.842,20.321,0.191,21.932,0,22.416l11.438,5.345c-0.001,0.084-0.013,0.167-0.013,0.252
			c0,7.261,5.907,13.167,13.166,13.167c7.11,0,12.908-5.67,13.144-12.725h6.095c0.255,7.038,6.044,12.688,13.143,12.688
			c7.26,0,13.166-5.906,13.166-13.167c0-0.138-0.017-0.271-0.021-0.408L81.691,22.342z M24.59,37.1
			c-5.011,0-9.088-4.077-9.088-9.089c0-5.012,4.078-9.089,9.088-9.089c5.011,0,9.089,4.077,9.089,9.089
			C33.679,33.023,29.601,37.1,24.59,37.1z M56.971,37.063c-5.011,0-9.088-4.077-9.088-9.089s4.078-9.089,9.088-9.089
			c5.012,0,9.09,4.077,9.09,9.089S61.982,37.063,56.971,37.063z"/>
		<circle cx="24.59" cy="28.013" r="3.204"/>
		<circle cx="56.801" cy="28.013" r="3.204"/>
	</g>
</g>
<g>
</g>
<g>
</g>
<g>
</g>
<g>
</g>
<g>
</g>
<g>
</g>
<g>
</g>
<g>
</g>
<g>
</g>
<g>
</g>
<g>
</g>
<g>
</g>
<g>
</g>
<g>
</g>
<g>
</g>
</svg>
