<?xml version="1.0" encoding="iso-8859-1"?>
<!-- Generator: Adobe Illustrator 16.0.0, SVG Export Plug-In . SVG Version: 6.00 Build 0)  -->
<!DOCTYPE svg PUBLIC "-//W3C//DTD SVG 1.1//EN" "http://www.w3.org/Graphics/SVG/1.1/DTD/svg11.dtd">
<svg version="1.1" id="Capa_1" xmlns="http://www.w3.org/2000/svg" xmlns:xlink="http://www.w3.org/1999/xlink" x="0px" y="0px"
	 width="78.829px" height="78.829px" viewBox="0 0 78.829 78.829" style="enable-background:new 0 0 78.829 78.829;"
	 xml:space="preserve">
<g>
	<g>
		<path d="M60.91,47.456c-1.521-0.658-3.286,0.043-3.944,1.564c-2.894,6.688-9.729,11.012-17.421,11.012
			c-7.868,0-14.747-4.32-17.523-11.006c-0.479-1.152-1.596-1.85-2.771-1.851c-0.384,0-0.773,0.074-1.15,0.229
			c-1.53,0.638-2.255,2.394-1.62,3.922c3.71,8.933,12.764,14.703,23.064,14.703c10.085,0,19.085-5.742,22.928-14.629
			C63.13,49.88,62.431,48.114,60.91,47.456z"/>
		<circle cx="23.223" cy="26.004" r="3.204"/>
		<path d="M78.829,21.007c-0.327-0.68-0.994-2.025-1.554-2.91l-9.064,4.091c-1.628-5.424-6.661-9.389-12.607-9.389
			c-6.293,0-11.563,4.441-12.856,10.354h-6.678c-1.307-5.894-6.566-10.316-12.847-10.316c-5.972,0-11.021,4-12.626,9.46L1.54,18.209
			c-0.584,0.95-1.257,2.324-1.54,2.918l10.073,4.546c-0.002,0.11-0.017,0.219-0.017,0.33c0,7.261,5.907,13.167,13.166,13.167
			c7.11,0,12.908-5.67,13.144-12.725h6.095c0.255,7.038,6.044,12.688,13.143,12.688c7.26,0,13.166-5.906,13.166-13.167
			c0-0.138-0.017-0.271-0.021-0.408L78.829,21.007z M23.223,35.091c-5.011,0-9.088-4.077-9.088-9.089
			c0-5.012,4.078-9.089,9.088-9.089c5.011,0,9.089,4.077,9.089,9.089C32.312,31.014,28.234,35.091,23.223,35.091z M55.604,35.054
			c-5.011,0-9.088-4.077-9.088-9.089s4.078-9.089,9.088-9.089c5.012,0,9.09,4.077,9.09,9.089S60.615,35.054,55.604,35.054z"/>
		<circle cx="55.434" cy="26.004" r="3.204"/>
	</g>
</g>
<g>
</g>
<g>
</g>
<g>
</g>
<g>
</g>
<g>
</g>
<g>
</g>
<g>
</g>
<g>
</g>
<g>
</g>
<g>
</g>
<g>
</g>
<g>
</g>
<g>
</g>
<g>
</g>
<g>
</g>
</svg>
