<?xml version="1.0" encoding="iso-8859-1"?>
<!-- Generator: Adobe Illustrator 16.0.0, SVG Export Plug-In . SVG Version: 6.00 Build 0)  -->
<!DOCTYPE svg PUBLIC "-//W3C//DTD SVG 1.1//EN" "http://www.w3.org/Graphics/SVG/1.1/DTD/svg11.dtd">
<svg version="1.1" id="Capa_1" xmlns="http://www.w3.org/2000/svg" xmlns:xlink="http://www.w3.org/1999/xlink" x="0px" y="0px"
	 width="72.963px" height="72.963px" viewBox="0 0 72.963 72.963" style="enable-background:new 0 0 72.963 72.963;"
	 xml:space="preserve">
<g>
	<g>
		<path d="M45.463,46.239H10.101c-4.687,0-8.486,3.799-8.486,8.485v9.752c0,4.687,3.799,8.486,8.486,8.486h35.362
			c4.687,0,8.485-3.801,8.485-8.486v-9.752C53.948,50.038,50.148,46.239,45.463,46.239z M13.706,69.659H8.384
			c-1.297-0.938-2.271-2.293-2.725-3.871v-4.177h8.047V69.659z M13.706,57.588H5.659v-4.174c0.454-1.578,1.428-2.934,2.725-3.873
			h5.322V57.588z M25.762,69.659h-8.033v-8.048h8.033V69.659z M25.762,57.588h-8.033v-8.047h8.033V57.588z M37.833,69.659H29.8
			v-8.048h8.033V69.659z M37.833,57.588H29.8v-8.047h8.033V57.588z M49.903,65.788c-0.454,1.578-1.429,2.933-2.726,3.871h-5.321
			v-8.048h8.047V65.788z M49.903,57.588h-8.047v-8.047h5.321c1.297,0.939,2.271,2.295,2.726,3.873V57.588z"/>
		<path d="M12.764,35.221c3.423,0,6.2-2.775,6.2-6.203c0-3.422-2.777-6.199-6.2-6.199s-6.201,2.777-6.201,6.199
			C6.564,32.446,9.341,35.221,12.764,35.221z"/>
		<path d="M55.69,33.922c0.873-1.758,1.376-3.73,1.376-5.824c0-7.262-5.907-13.166-13.167-13.166c-3.009,0-5.776,1.025-7.996,2.73
			L15.059,0c-1.298,0.287-2.771,0.854-3.653,1.221l22.146,18.762c-1.759,2.24-2.818,5.053-2.818,8.115
			c0,7.26,5.907,13.166,13.166,13.166c3.979,0,7.542-1.779,9.958-4.578l16.853,14.279c0.432-1.791,0.607-3.752,0.609-3.777
			l0.027,0.002L55.69,33.922z"/>
	</g>
</g>
<g>
</g>
<g>
</g>
<g>
</g>
<g>
</g>
<g>
</g>
<g>
</g>
<g>
</g>
<g>
</g>
<g>
</g>
<g>
</g>
<g>
</g>
<g>
</g>
<g>
</g>
<g>
</g>
<g>
</g>
</svg>
