<?xml version="1.0" encoding="iso-8859-1"?>
<!-- Generator: Adobe Illustrator 16.0.0, SVG Export Plug-In . SVG Version: 6.00 Build 0)  -->
<!DOCTYPE svg PUBLIC "-//W3C//DTD SVG 1.1//EN" "http://www.w3.org/Graphics/SVG/1.1/DTD/svg11.dtd">
<svg version="1.1" id="Capa_1" xmlns="http://www.w3.org/2000/svg" xmlns:xlink="http://www.w3.org/1999/xlink" x="0px" y="0px"
	 width="49.719px" height="49.719px" viewBox="0 0 49.719 49.719" style="enable-background:new 0 0 49.719 49.719;"
	 xml:space="preserve">
<g>
	<path d="M0,6.177c0-0.418,0.043-0.825,0.107-1.226c0.588,3.619,3.719,6.385,7.5,6.385c3.783,0,6.914-2.766,7.5-6.385
		c0.064,0.4,0.107,0.808,0.107,1.226c0,4.204-3.406,7.611-7.607,7.611C3.408,13.788,0,10.381,0,6.177z M34.502,6.177
		c0-0.418,0.045-0.825,0.109-1.226c0.588,3.619,3.719,6.385,7.5,6.385c3.783,0,6.912-2.766,7.5-6.385
		c0.064,0.4,0.107,0.808,0.107,1.226c0,4.204-3.406,7.611-7.607,7.611S34.502,10.381,34.502,6.177z M14.563,37.486h19.648
		c1.303,0,2.357,1.631,2.357,3.642c0,2.009-1.055,3.64-2.357,3.64H14.563c-1.301,0-2.357-1.631-2.357-3.64
		C12.205,39.117,13.262,37.486,14.563,37.486z"/>
</g>
<g>
</g>
<g>
</g>
<g>
</g>
<g>
</g>
<g>
</g>
<g>
</g>
<g>
</g>
<g>
</g>
<g>
</g>
<g>
</g>
<g>
</g>
<g>
</g>
<g>
</g>
<g>
</g>
<g>
</g>
</svg>
