<?xml version="1.0" encoding="iso-8859-1"?>
<!-- Generator: Adobe Illustrator 16.0.0, SVG Export Plug-In . SVG Version: 6.00 Build 0)  -->
<!DOCTYPE svg PUBLIC "-//W3C//DTD SVG 1.1//EN" "http://www.w3.org/Graphics/SVG/1.1/DTD/svg11.dtd">
<svg version="1.1" id="Capa_1" xmlns="http://www.w3.org/2000/svg" xmlns:xlink="http://www.w3.org/1999/xlink" x="0px" y="0px"
	 width="53.564px" height="53.564px" viewBox="0 0 53.564 53.564" style="enable-background:new 0 0 53.564 53.564;"
	 xml:space="preserve">
<g>
	<path d="M27.364,34.709c10.084,0,19.084,5.742,22.928,14.629c0.658,1.521-0.042,3.287-1.563,3.945
		c-1.521,0.659-3.285-0.042-3.943-1.563c-2.894-6.688-9.731-11.012-17.421-11.012c-7.868,0-14.747,4.32-17.523,11.005
		c-0.479,1.153-1.596,1.85-2.771,1.852c-0.384,0-0.773-0.074-1.15-0.23c-1.53-0.637-2.255-2.393-1.62-3.922
		C8.01,40.479,17.062,34.709,27.364,34.709z M3.32,8.811C2.218,8.738,1.384,7.785,1.457,6.683C1.53,5.582,2.467,4.745,3.582,4.82
		c0.087,0.006,8.679,0.498,11.91-3.958c0.648-0.896,1.9-1.092,2.793-0.445c0.894,0.648,1.093,1.899,0.445,2.793
		C15.013,8.335,7.329,8.842,4.438,8.842C3.803,8.842,3.4,8.817,3.32,8.811z M18.917,16.007c0,1.315-0.412,2.533-1.11,3.537
		c-1.127-1.549-2.949-2.561-5.011-2.561c-2.108,0-3.97,1.057-5.09,2.666c-0.744-1.023-1.189-2.279-1.189-3.643
		c0-3.424,2.777-6.201,6.2-6.201S18.917,12.583,18.917,16.007z M34.834,3.173c-0.648-0.894-0.449-2.145,0.445-2.793
		c0.894-0.646,2.145-0.45,2.793,0.445c3.23,4.456,11.822,3.964,11.91,3.958c1.115-0.074,2.052,0.763,2.125,1.863
		c0.072,1.102-0.762,2.055-1.863,2.128c-0.08,0.006-0.483,0.03-1.119,0.03C46.235,8.805,38.551,8.298,34.834,3.173z M40.847,9.768
		c3.423,0,6.2,2.777,6.2,6.201c0,1.363-0.445,2.619-1.188,3.643c-1.12-1.609-2.981-2.666-5.091-2.666
		c-2.062,0-3.884,1.012-5.011,2.561c-0.698-1.004-1.11-2.222-1.11-3.537C34.646,12.546,37.424,9.768,40.847,9.768z M6.471,35.131
		c-3.6,0-3.6-3.994-3.6-3.994c0.001-3.436,4.555-7.535,4.555-7.535c0.438,2.747,1.52,4.344,1.52,4.344
		c1.218,1.817,1.218,3.508,1.218,3.508C10.164,35.164,6.471,35.131,6.471,35.131z"/>
</g>
<g>
</g>
<g>
</g>
<g>
</g>
<g>
</g>
<g>
</g>
<g>
</g>
<g>
</g>
<g>
</g>
<g>
</g>
<g>
</g>
<g>
</g>
<g>
</g>
<g>
</g>
<g>
</g>
<g>
</g>
</svg>
