<?xml version="1.0" encoding="iso-8859-1"?>
<!-- Generator: Adobe Illustrator 16.0.0, SVG Export Plug-In . SVG Version: 6.00 Build 0)  -->
<!DOCTYPE svg PUBLIC "-//W3C//DTD SVG 1.1//EN" "http://www.w3.org/Graphics/SVG/1.1/DTD/svg11.dtd">
<svg version="1.1" id="Capa_1" xmlns="http://www.w3.org/2000/svg" xmlns:xlink="http://www.w3.org/1999/xlink" x="0px" y="0px"
	 width="46.47px" height="46.469px" viewBox="0 0 46.47 46.469" style="enable-background:new 0 0 46.47 46.469;"
	 xml:space="preserve">
<g>
	<path d="M28.062,9.322c0-4.797,3.904-8.701,8.703-8.701c4.797,0,8.701,3.903,8.701,8.701c0,1.381-1.119,2.5-2.5,2.5
		s-2.5-1.119-2.5-2.5c0-2.041-1.66-3.701-3.701-3.701c-2.042,0-3.703,1.66-3.703,3.701c0,1.381-1.119,2.5-2.5,2.5
		S28.062,10.702,28.062,9.322z M0.339,9.295c0-4.797,3.904-8.701,8.703-8.701c4.797,0,8.701,3.903,8.701,8.701
		c0,1.381-1.119,2.5-2.5,2.5c-1.381,0-2.5-1.119-2.5-2.5c0-2.041-1.66-3.701-3.701-3.701c-2.042,0-3.703,1.66-3.703,3.701
		c0,1.381-1.119,2.5-2.5,2.5S0.339,10.676,0.339,9.295z M0.23,41.726c3.71-8.933,12.764-14.703,23.064-14.703
		c10.084,0,19.084,5.742,22.927,14.63c0.658,1.521-0.041,3.286-1.563,3.943c-1.52,0.66-3.284-0.042-3.942-1.562
		c-2.895-6.689-9.731-11.012-17.421-11.012c-7.868,0-14.747,4.319-17.523,11.004C5.292,45.18,4.175,45.875,3,45.875
		c-0.384,0-0.773-0.073-1.15-0.229C0.319,45.012-0.406,43.256,0.23,41.726z"/>
</g>
<g>
</g>
<g>
</g>
<g>
</g>
<g>
</g>
<g>
</g>
<g>
</g>
<g>
</g>
<g>
</g>
<g>
</g>
<g>
</g>
<g>
</g>
<g>
</g>
<g>
</g>
<g>
</g>
<g>
</g>
</svg>
