<?xml version="1.0" encoding="iso-8859-1"?>
<!-- Generator: Adobe Illustrator 16.0.0, SVG Export Plug-In . SVG Version: 6.00 Build 0)  -->
<!DOCTYPE svg PUBLIC "-//W3C//DTD SVG 1.1//EN" "http://www.w3.org/Graphics/SVG/1.1/DTD/svg11.dtd">
<svg version="1.1" id="Capa_1" xmlns="http://www.w3.org/2000/svg" xmlns:xlink="http://www.w3.org/1999/xlink" x="0px" y="0px"
	 width="58.53px" height="58.53px" viewBox="0 0 58.53 58.53" style="enable-background:new 0 0 58.53 58.53;" xml:space="preserve"
	>
<g>
	<path d="M0.952,16.282c-1.212-1.133-1.274-3.033-0.142-4.246c1.132-1.213,3.018-1.291,4.247-0.143
		c3.251,3.053,6.589,0.242,6.959-0.088c1.105-0.99,2.741-1.012,3.867-0.119c0.133,0.104,0.259,0.223,0.376,0.354
		c1.106,1.236,1.001,3.135-0.235,4.242C13.36,18.667,6.816,21.767,0.952,16.282z M57.765,12.004
		c1.106,1.236,1.001,3.135-0.235,4.242c-2.663,2.385-9.208,5.484-15.071,0c-1.212-1.133-1.274-3.033-0.143-4.246
		s3.019-1.291,4.247-0.143c3.251,3.053,6.589,0.242,6.959-0.088c1.105-0.99,2.741-1.012,3.867-0.119
		C57.521,11.754,57.646,11.874,57.765,12.004z M53.279,43.301c0.658,1.521-0.041,3.287-1.562,3.945
		c-1.521,0.66-3.285-0.041-3.943-1.562c-2.894-6.689-9.73-11.013-17.422-11.013c-7.867,0-14.746,4.32-17.522,11.007
		c-0.479,1.151-1.596,1.85-2.771,1.85c-0.383,0-0.773-0.074-1.149-0.23c-1.53-0.637-2.255-2.393-1.62-3.922
		C11,34.443,20.053,28.672,30.353,28.672C40.438,28.672,49.438,34.414,53.279,43.301z"/>
</g>
<g>
</g>
<g>
</g>
<g>
</g>
<g>
</g>
<g>
</g>
<g>
</g>
<g>
</g>
<g>
</g>
<g>
</g>
<g>
</g>
<g>
</g>
<g>
</g>
<g>
</g>
<g>
</g>
<g>
</g>
</svg>
