<?xml version="1.0" encoding="iso-8859-1"?>
<!-- Generator: Adobe Illustrator 16.0.0, SVG Export Plug-In . SVG Version: 6.00 Build 0)  -->
<!DOCTYPE svg PUBLIC "-//W3C//DTD SVG 1.1//EN" "http://www.w3.org/Graphics/SVG/1.1/DTD/svg11.dtd">
<svg version="1.1" id="Capa_1" xmlns="http://www.w3.org/2000/svg" xmlns:xlink="http://www.w3.org/1999/xlink" x="0px" y="0px"
	 width="54.026px" height="54.026px" viewBox="0 0 54.026 54.026" style="enable-background:new 0 0 54.026 54.026;"
	 xml:space="preserve">
<g>
	<path d="M50.523,46.671c0.658,1.521-0.042,3.287-1.563,3.945c-1.521,0.659-3.285-0.042-3.943-1.563
		c-2.894-6.688-9.731-11.012-17.421-11.012c-7.868,0-14.747,4.32-17.523,11.005c-0.479,1.153-1.596,1.85-2.771,1.852
		c-0.384,0-0.773-0.074-1.15-0.23c-1.53-0.637-2.255-2.393-1.62-3.922c3.71-8.933,12.764-14.703,23.064-14.703
		C37.681,32.042,46.681,37.784,50.523,46.671z M6.698,12.73l-2.585,0.833c-1.654,0.533-3.428-0.375-3.961-2.029
		c-0.533-1.654,0.376-3.427,2.03-3.96L14.91,3.47c1.654-0.531,3.427,0.377,3.96,2.031c0.48,1.488-0.215,3.065-1.564,3.756
		c2.316,2.43,2.286,6.274-0.098,8.658c-2.421,2.421-6.349,2.421-8.771-0.002C7.022,16.499,6.459,14.572,6.698,12.73z M53.873,11.345
		c-0.532,1.654-2.307,2.563-3.961,2.029l-2.585-0.833c0.239,1.842-0.324,3.769-1.737,5.183c-2.424,2.423-6.352,2.423-8.771,0.002
		c-2.384-2.384-2.414-6.229-0.098-8.658c-1.35-0.69-2.044-2.268-1.564-3.756c0.533-1.654,2.306-2.563,3.96-2.031l12.729,4.104
		C53.497,7.917,54.407,9.69,53.873,11.345z"/>
</g>
<g>
</g>
<g>
</g>
<g>
</g>
<g>
</g>
<g>
</g>
<g>
</g>
<g>
</g>
<g>
</g>
<g>
</g>
<g>
</g>
<g>
</g>
<g>
</g>
<g>
</g>
<g>
</g>
<g>
</g>
</svg>
