<?xml version="1.0" encoding="iso-8859-1"?>
<!-- Generator: Adobe Illustrator 16.0.0, SVG Export Plug-In . SVG Version: 6.00 Build 0)  -->
<!DOCTYPE svg PUBLIC "-//W3C//DTD SVG 1.1//EN" "http://www.w3.org/Graphics/SVG/1.1/DTD/svg11.dtd">
<svg version="1.1" id="Capa_1" xmlns="http://www.w3.org/2000/svg" xmlns:xlink="http://www.w3.org/1999/xlink" x="0px" y="0px"
	 width="57.373px" height="57.373px" viewBox="0 0 57.373 57.373" style="enable-background:new 0 0 57.373 57.373;"
	 xml:space="preserve">
<g>
	<path d="M52.419,53.147c0.656,1.521-0.043,3.286-1.563,3.944c-1.521,0.659-3.286-0.042-3.944-1.562
		c-2.894-6.689-9.73-11.013-17.42-11.013c-7.869,0-14.748,4.32-17.523,11.006c-0.48,1.152-1.596,1.85-2.771,1.851
		c-0.385,0-0.773-0.074-1.15-0.23c-1.531-0.637-2.256-2.393-1.619-3.922c3.709-8.932,12.764-14.703,23.064-14.703
		C39.576,38.518,48.576,44.26,52.419,53.147z M5.035,16.813c-0.676-1.176-0.27-2.676,0.906-3.351l9.045-5.196
		c1.176-0.674,2.676-0.268,3.352,0.907c0.676,1.176,0.27,2.676-0.906,3.351l-9.045,5.194C7.209,18.394,5.709,17.989,5.035,16.813z
		 M19.07,16.919c1.688,1.689,1.688,4.429,0,6.115c-1.688,1.688-4.426,1.688-6.117-0.002c-1.688-1.688-1.688-4.426,0-6.113
		C14.642,15.23,17.38,15.23,19.07,16.919z M33.771,2.236c0.121-1.35,1.313-2.347,2.662-2.226l10.392,0.934
		c1.35,0.121,2.348,1.313,2.225,2.664c-0.121,1.351-1.312,2.347-2.664,2.225L35.996,4.9C34.646,4.779,33.647,3.585,33.771,2.236z
		 M44.863,16.848c1.688,1.688,1.688,4.426,0,6.113c-1.691,1.69-4.431,1.69-6.117,0.002c-1.688-1.687-1.688-4.426,0-6.115
		C40.435,15.158,43.173,15.158,44.863,16.848z"/>
</g>
<g>
</g>
<g>
</g>
<g>
</g>
<g>
</g>
<g>
</g>
<g>
</g>
<g>
</g>
<g>
</g>
<g>
</g>
<g>
</g>
<g>
</g>
<g>
</g>
<g>
</g>
<g>
</g>
<g>
</g>
</svg>
