<?xml version="1.0" encoding="iso-8859-1"?>
<!-- Generator: Adobe Illustrator 16.0.0, SVG Export Plug-In . SVG Version: 6.00 Build 0)  -->
<!DOCTYPE svg PUBLIC "-//W3C//DTD SVG 1.1//EN" "http://www.w3.org/Graphics/SVG/1.1/DTD/svg11.dtd">
<svg version="1.1" id="Capa_1" xmlns="http://www.w3.org/2000/svg" xmlns:xlink="http://www.w3.org/1999/xlink" x="0px" y="0px"
	 width="51.505px" height="51.506px" viewBox="0 0 51.505 51.506" style="enable-background:new 0 0 51.505 51.506;"
	 xml:space="preserve">
<g>
	<path d="M1.432,49.964l48.638,0.068h0.002c0.479,0,0.926-0.273,1.191-0.729c0.268-0.455,0.315-1.033,0.133-1.539
		C47.26,36.39,37.167,29.038,25.681,29.038c-11.245,0-21.28,7.315-25.563,18.637c-0.191,0.506-0.148,1.088,0.117,1.549
		S0.95,49.964,1.432,49.964z M36.893,34.441c2.64,1.154,5.017,2.714,7.013,4.615h-7.013V34.441z M36.893,42.357h9.784v4.949
		l-9.784-0.011V42.357z M23.548,32.249c0.728-0.058,1.46-0.097,2.2-0.097c2.636,0,5.187,0.359,7.585,1.022v5.882h-9.785V32.249z
		 M23.548,42.357h9.785v4.935l-9.785-0.01V42.357z M10.207,37.042c2.835-2.045,6.17-3.521,9.785-4.283v6.299h-9.785V37.042z
		 M10.207,42.357h9.785v4.92l-9.785-0.012V42.357z M3.008,45.605c0.533-1.144,1.178-2.226,1.9-3.248h1.738v4.904l-2.469-0.003
		c-0.43-0.002-0.828-0.2-1.065-0.534C2.877,46.394,2.838,45.972,3.008,45.605z M11.218,7.674c0-3.424,2.777-6.201,6.201-6.201
		c3.422,0,6.199,2.777,6.199,6.201c0,3.426-2.777,6.203-6.199,6.203C13.997,13.877,11.218,11.101,11.218,7.674z M27.25,7.674
		c0-3.424,2.777-6.201,6.201-6.201c3.422,0,6.199,2.777,6.199,6.201c0,3.426-2.777,6.203-6.199,6.203
		C30.028,13.877,27.25,11.101,27.25,7.674z"/>
</g>
<g>
</g>
<g>
</g>
<g>
</g>
<g>
</g>
<g>
</g>
<g>
</g>
<g>
</g>
<g>
</g>
<g>
</g>
<g>
</g>
<g>
</g>
<g>
</g>
<g>
</g>
<g>
</g>
<g>
</g>
</svg>
