<?xml version="1.0" encoding="iso-8859-1"?>
<!-- Generator: Adobe Illustrator 16.0.0, SVG Export Plug-In . SVG Version: 6.00 Build 0)  -->
<!DOCTYPE svg PUBLIC "-//W3C//DTD SVG 1.1//EN" "http://www.w3.org/Graphics/SVG/1.1/DTD/svg11.dtd">
<svg version="1.1" id="Capa_1" xmlns="http://www.w3.org/2000/svg" xmlns:xlink="http://www.w3.org/1999/xlink" x="0px" y="0px"
	 width="55.495px" height="55.495px" viewBox="0 0 55.495 55.495" style="enable-background:new 0 0 55.495 55.495;"
	 xml:space="preserve">
<g>
	<path d="M38.997,37.354c0,10.019-2.822,18.142-9.998,18.142c-7.178,0-8.001-8.123-8.001-18.142c0-10.015,0.823-18.139,8.001-18.139
		C36.176,19.215,38.997,27.339,38.997,37.354z M19.89,3.147c0,1.737-1.409,3.147-3.147,3.147H3.371c-1.738,0-3.147-1.41-3.147-3.147
		S1.632,0,3.371,0h13.372C18.48-0.001,19.89,1.409,19.89,3.147z M55.271,3.148c0,1.737-1.409,3.146-3.147,3.146H38.751
		c-1.736,0-3.146-1.409-3.146-3.146c0-1.738,1.41-3.147,3.146-3.147h13.373C53.862,0,55.271,1.409,55.271,3.148z"/>
</g>
<g>
</g>
<g>
</g>
<g>
</g>
<g>
</g>
<g>
</g>
<g>
</g>
<g>
</g>
<g>
</g>
<g>
</g>
<g>
</g>
<g>
</g>
<g>
</g>
<g>
</g>
<g>
</g>
<g>
</g>
</svg>
