<?xml version="1.0" encoding="iso-8859-1"?>
<!-- Generator: Adobe Illustrator 16.0.0, SVG Export Plug-In . SVG Version: 6.00 Build 0)  -->
<!DOCTYPE svg PUBLIC "-//W3C//DTD SVG 1.1//EN" "http://www.w3.org/Graphics/SVG/1.1/DTD/svg11.dtd">
<svg version="1.1" id="Capa_1" xmlns="http://www.w3.org/2000/svg" xmlns:xlink="http://www.w3.org/1999/xlink" x="0px" y="0px"
	 width="55.048px" height="55.048px" viewBox="0 0 55.048 55.048" style="enable-background:new 0 0 55.048 55.048;"
	 xml:space="preserve">
<g>
	<path d="M0,4.664c0-1.738,1.409-3.147,3.147-3.147h13.372c1.738,0,3.147,1.409,3.147,3.147c0,1.738-1.409,3.147-3.147,3.147H3.148
		C1.409,7.811,0,6.401,0,4.664z M35.382,4.665c0-1.738,1.41-3.147,3.147-3.147H51.9c1.738,0,3.147,1.409,3.147,3.147
		S53.639,7.812,51.9,7.812H38.529C36.792,7.812,35.382,6.401,35.382,4.665z M27.525,20.795c9.023,0,16.363,7.341,16.363,16.366
		c0,9.026-7.34,16.37-16.363,16.37s-16.363-7.344-16.363-16.37C11.161,28.137,18.501,20.795,27.525,20.795z"/>
</g>
<g>
</g>
<g>
</g>
<g>
</g>
<g>
</g>
<g>
</g>
<g>
</g>
<g>
</g>
<g>
</g>
<g>
</g>
<g>
</g>
<g>
</g>
<g>
</g>
<g>
</g>
<g>
</g>
<g>
</g>
</svg>
