<?xml version="1.0" encoding="iso-8859-1"?>
<!-- Generator: Adobe Illustrator 16.0.0, SVG Export Plug-In . SVG Version: 6.00 Build 0)  -->
<!DOCTYPE svg PUBLIC "-//W3C//DTD SVG 1.1//EN" "http://www.w3.org/Graphics/SVG/1.1/DTD/svg11.dtd">
<svg version="1.1" id="Capa_1" xmlns="http://www.w3.org/2000/svg" xmlns:xlink="http://www.w3.org/1999/xlink" x="0px" y="0px"
	 width="57.383px" height="57.383px" viewBox="0 0 57.383 57.383" style="enable-background:new 0 0 57.383 57.383;"
	 xml:space="preserve">
<g>
	<path d="M28.222,24.647c9.023,0,16.363,7.341,16.363,16.366c0,9.026-7.34,16.37-16.363,16.37c-9.023,0-16.363-7.344-16.363-16.37
		C11.859,31.988,19.199,24.647,28.222,24.647z M6.938,16.212v-3.554c0-0.181,0.084-0.351,0.225-0.463l4.664-3.68L7.164,4.834
		C7.022,4.722,6.938,4.553,6.938,4.372V0.82c0-0.313,0.18-0.604,0.459-0.738C7.511,0.027,7.634,0,7.757,0
		C7.938,0,8.12,0.062,8.263,0.175l9.756,7.695c0.197,0.158,0.307,0.392,0.307,0.645s-0.109,0.486-0.303,0.641l-9.758,7.697
		c-0.236,0.189-0.58,0.229-0.859,0.1C7.113,16.808,6.938,16.525,6.938,16.212z M39.366,9.158C39.17,9,39.058,8.766,39.058,8.513
		s0.111-0.486,0.305-0.641l9.756-7.697c0.238-0.189,0.58-0.229,0.859-0.1c0.293,0.146,0.467,0.428,0.467,0.741V4.37
		c0,0.181-0.082,0.351-0.225,0.463l-4.664,3.68l4.664,3.681c0.143,0.112,0.225,0.281,0.225,0.462v3.552
		c0,0.313-0.18,0.604-0.459,0.738c-0.113,0.055-0.236,0.082-0.359,0.082c-0.182,0-0.362-0.062-0.506-0.175L39.366,9.158z"/>
</g>
<g>
</g>
<g>
</g>
<g>
</g>
<g>
</g>
<g>
</g>
<g>
</g>
<g>
</g>
<g>
</g>
<g>
</g>
<g>
</g>
<g>
</g>
<g>
</g>
<g>
</g>
<g>
</g>
<g>
</g>
</svg>
