<?xml version="1.0" encoding="iso-8859-1"?>
<!-- Generator: Adobe Illustrator 16.0.0, SVG Export Plug-In . SVG Version: 6.00 Build 0)  -->
<!DOCTYPE svg PUBLIC "-//W3C//DTD SVG 1.1//EN" "http://www.w3.org/Graphics/SVG/1.1/DTD/svg11.dtd">
<svg version="1.1" id="Capa_1" xmlns="http://www.w3.org/2000/svg" xmlns:xlink="http://www.w3.org/1999/xlink" x="0px" y="0px"
	 width="53.258px" height="53.258px" viewBox="0 0 53.258 53.258" style="enable-background:new 0 0 53.258 53.258;"
	 xml:space="preserve">
<g>
	<path d="M50.95,32.949L2.312,32.891c-0.001,0-0.002,0-0.002,0c-0.479,0-0.926,0.237-1.192,0.637
		c-0.266,0.398-0.315,0.904-0.131,1.348c4.134,9.951,14.228,18.383,25.714,18.383c11.246,0,21.279-8.4,25.563-18.305
		c0.191-0.443,0.146-0.953-0.117-1.355C51.882,33.193,51.433,32.95,50.95,32.949z M26.701,49.256
		c-8.401,0-15.917-5.962-20.132-12.361l40.065,0.049C42.346,43.312,34.905,49.256,26.701,49.256z M6.84,6.201
		C6.84,2.777,9.617,0,13.04,0c3.423,0,6.2,2.777,6.2,6.201c0,3.426-2.777,6.203-6.2,6.203C9.617,12.404,6.84,9.626,6.84,6.201z
		 M34.957,6.201C34.957,2.777,37.737,0,41.16,0s6.2,2.777,6.2,6.201c0,3.426-2.777,6.203-6.2,6.203S34.957,9.626,34.957,6.201z
		 M15.008,42.719c-0.083-0.121-0.061-0.258,0.06-0.365c0.121-0.108,0.324-0.174,0.54-0.174c0,0,0,0,0.001,0l22.042,0.016
		c0.219,0,0.422,0.066,0.542,0.177c0.121,0.108,0.141,0.248,0.054,0.369c-1.941,2.688-6.489,4.968-11.585,4.968
		C21.457,47.708,16.882,45.42,15.008,42.719z"/>
</g>
<g>
</g>
<g>
</g>
<g>
</g>
<g>
</g>
<g>
</g>
<g>
</g>
<g>
</g>
<g>
</g>
<g>
</g>
<g>
</g>
<g>
</g>
<g>
</g>
<g>
</g>
<g>
</g>
<g>
</g>
</svg>
