<?xml version="1.0" encoding="iso-8859-1"?>
<!-- Generator: Adobe Illustrator 16.0.0, SVG Export Plug-In . SVG Version: 6.00 Build 0)  -->
<!DOCTYPE svg PUBLIC "-//W3C//DTD SVG 1.1//EN" "http://www.w3.org/Graphics/SVG/1.1/DTD/svg11.dtd">
<svg version="1.1" id="Capa_1" xmlns="http://www.w3.org/2000/svg" xmlns:xlink="http://www.w3.org/1999/xlink" x="0px" y="0px"
	 width="55.048px" height="55.048px" viewBox="0 0 55.048 55.048" style="enable-background:new 0 0 55.048 55.048;"
	 xml:space="preserve">
<g>
	<path d="M16.519,12.231H3.148C1.41,12.231,0,10.822,0,9.084c0-1.738,1.41-3.147,3.148-3.147h13.371
		c1.738,0,3.148,1.409,3.148,3.147C19.667,10.822,18.257,12.231,16.519,12.231z M55.048,9.085c0,1.738-1.407,3.147-3.146,3.147
		H38.529c-1.736,0-3.146-1.409-3.146-3.147s1.41-3.147,3.146-3.147h13.373C53.641,5.938,55.048,7.348,55.048,9.085z M50.513,34.481
		C46.669,43.368,37.669,49.11,27.585,49.11c-10.301,0-19.355-5.771-23.064-14.703c-0.637-1.53,0.088-3.286,1.619-3.921
		c0.377-0.156,0.766-0.23,1.15-0.23c1.176,0,2.291,0.696,2.771,1.851c2.775,6.685,9.654,11.004,17.523,11.004
		c7.689,0,14.527-4.321,17.42-11.011c0.658-1.521,2.424-2.223,3.945-1.563C50.47,31.194,51.17,32.961,50.513,34.481z"/>
</g>
<g>
</g>
<g>
</g>
<g>
</g>
<g>
</g>
<g>
</g>
<g>
</g>
<g>
</g>
<g>
</g>
<g>
</g>
<g>
</g>
<g>
</g>
<g>
</g>
<g>
</g>
<g>
</g>
<g>
</g>
</svg>
