<?xml version="1.0" encoding="iso-8859-1"?>
<!-- Generator: Adobe Illustrator 16.0.0, SVG Export Plug-In . SVG Version: 6.00 Build 0)  -->
<!DOCTYPE svg PUBLIC "-//W3C//DTD SVG 1.1//EN" "http://www.w3.org/Graphics/SVG/1.1/DTD/svg11.dtd">
<svg version="1.1" id="Capa_1" xmlns="http://www.w3.org/2000/svg" xmlns:xlink="http://www.w3.org/1999/xlink" x="0px" y="0px"
	 width="53.912px" height="53.913px" viewBox="0 0 53.912 53.913" style="enable-background:new 0 0 53.912 53.913;"
	 xml:space="preserve">
<g>
	<path d="M48.83,27.852c-0.804,0-1.706,0.133-2.751,0.416c-6.279,2.713-12.8,4.09-19.38,4.09c-11.178,0-18.758-4.03-18.833-4.07
		c-0.035-0.02-0.072-0.033-0.109-0.044c-0.847-0.226-1.82-0.364-2.669-0.384v0.005c-0.032-0.007-0.064-0.009-0.096-0.009
		c-0.008,0-0.092-0.004-0.101-0.004c-0.047,0-0.093,0.009-0.138,0.021c-1.547,0.073-2.743,0.658-3.555,1.738
		c-2.098,2.789-0.815,7.896-0.751,8.143c4.819,14.803,20.658,15.952,25.398,15.952c0.672,0,1.077-0.024,1.081-0.028
		c0.058,0.004,0.462,0.028,1.135,0.028c4.74,0,20.579-1.149,25.407-15.981c0.057-0.219,1.363-5.399-0.789-8.18
		C51.809,28.422,50.515,27.852,48.83,27.852z M48.744,36.766c-3.869,11.676-16.842,12.582-20.726,12.582
		c-0.519,0-0.825-0.018-0.833-0.018c-0.076-0.006-0.153-0.009-0.231-0.009c-0.077,0-0.153,0.003-0.222,0.008
		c-0.044,0.002-0.347,0.019-0.846,0.019c-3.884,0-16.856-0.906-20.712-12.539c-0.369-1.541-0.41-3.83,0.088-4.469
		c0.067-0.086,0.338-0.121,0.546-0.127c0.326,0.008,0.871,0.055,1.361,0.164c2.055,1.014,9.283,4.168,19.538,4.168
		c6.786,0,13.502-1.4,19.888-4.136c0.538-0.132,1.01-0.199,1.402-0.199c0.264,0,0.569,0.033,0.644,0.128
		C49.143,32.981,49.102,35.268,48.744,36.766z M7.164,6.407c0-3.424,2.777-6.201,6.201-6.201c3.423,0,6.2,2.777,6.2,6.201
		c0,3.426-2.777,6.203-6.2,6.203C9.94,12.609,7.164,9.832,7.164,6.407z M35.28,6.407c0-3.424,2.78-6.201,6.203-6.201
		s6.201,2.777,6.201,6.201c0,3.426-2.777,6.203-6.201,6.203C38.061,12.609,35.28,9.832,35.28,6.407z"/>
</g>
<g>
</g>
<g>
</g>
<g>
</g>
<g>
</g>
<g>
</g>
<g>
</g>
<g>
</g>
<g>
</g>
<g>
</g>
<g>
</g>
<g>
</g>
<g>
</g>
<g>
</g>
<g>
</g>
<g>
</g>
</svg>
