<?xml version="1.0" encoding="iso-8859-1"?>
<!-- Generator: Adobe Illustrator 16.0.0, SVG Export Plug-In . SVG Version: 6.00 Build 0)  -->
<!DOCTYPE svg PUBLIC "-//W3C//DTD SVG 1.1//EN" "http://www.w3.org/Graphics/SVG/1.1/DTD/svg11.dtd">
<svg version="1.1" id="Capa_1" xmlns="http://www.w3.org/2000/svg" xmlns:xlink="http://www.w3.org/1999/xlink" x="0px" y="0px"
	 width="53px" height="53.001px" viewBox="0 0 53 53.001" style="enable-background:new 0 0 53 53.001;" xml:space="preserve">
<g>
	<path d="M25.389,53.001c0.706,0,1.108-0.026,1.108-0.026s0.401,0.026,1.108,0.026c4.34,0,20.174-1.022,24.923-15.606
		c0,0,2.392-9.248-4.152-9.248c-0.732,0-1.579,0.115-2.553,0.375c-7.17,3.099-13.853,4.131-19.58,4.131
		c-11.451,0-19.072-4.131-19.072-4.131c-0.898-0.239-1.834-0.353-2.551-0.367v-0.008H4.619c-0.019,0-0.033,0.006-0.052,0.006
		c-0.042-0.002-0.092-0.006-0.132-0.006l0.001,0.018c-6.297,0.186-3.969,9.23-3.969,9.23C5.215,51.98,21.05,53.001,25.389,53.001z
		 M47.08,31.54c0.159-0.017,0.322-0.035,0.463-0.035c0.787,0,0.962,0.226,1.037,0.32c0.677,0.868,0.537,3.414,0.183,4.892
		c-0.344,1.034-0.759,1.98-1.228,2.856h-0.456L47.08,31.54L47.08,31.54z M38.164,34.355c1.651-0.412,3.291-0.908,4.917-1.492v6.711
		h-4.917V34.355z M38.164,42.959h4.917v1.913c-1.547,1.214-3.229,2.126-4.917,2.806V42.959z M29.164,35.744
		c1.674-0.1,3.341-0.286,5-0.559v4.389h-5V35.744z M29.164,42.959h5v5.948c-1.908,0.428-3.649,0.612-5,0.688V42.959z M19.58,35.374
		c1.728,0.239,3.595,0.397,5.583,0.442v3.757H19.58V35.374z M19.58,42.959h5.583v6.682c-1.265-0.013-3.274-0.121-5.583-0.574V42.959
		z M10.247,33.104c1.421,0.514,3.218,1.067,5.333,1.547v4.924h-5.333V33.104z M10.247,42.959h5.333v5.004
		c-1.813-0.658-3.647-1.574-5.333-2.834V42.959z M4.414,31.826c0.072-0.092,0.242-0.301,0.95-0.316
		c0.246,0.004,0.561,0.031,0.883,0.075v7.989H5.458c-0.468-0.876-0.884-1.821-1.226-2.854C3.876,35.232,3.739,32.693,4.414,31.826z
		 M6.708,6.201C6.708,2.777,9.485,0,12.909,0c3.423,0,6.2,2.777,6.2,6.201c0,3.426-2.777,6.203-6.2,6.203
		C9.485,12.404,6.708,9.626,6.708,6.201z M34.825,6.201c0-3.424,2.78-6.201,6.203-6.201s6.201,2.777,6.201,6.201
		c0,3.426-2.777,6.203-6.201,6.203C37.605,12.404,34.825,9.626,34.825,6.201z"/>
</g>
<g>
</g>
<g>
</g>
<g>
</g>
<g>
</g>
<g>
</g>
<g>
</g>
<g>
</g>
<g>
</g>
<g>
</g>
<g>
</g>
<g>
</g>
<g>
</g>
<g>
</g>
<g>
</g>
<g>
</g>
</svg>
