<?xml version="1.0" encoding="iso-8859-1"?>
<!-- Generator: Adobe Illustrator 16.0.0, SVG Export Plug-In . SVG Version: 6.00 Build 0)  -->
<!DOCTYPE svg PUBLIC "-//W3C//DTD SVG 1.1//EN" "http://www.w3.org/Graphics/SVG/1.1/DTD/svg11.dtd">
<svg version="1.1" id="Capa_1" xmlns="http://www.w3.org/2000/svg" xmlns:xlink="http://www.w3.org/1999/xlink" x="0px" y="0px"
	 width="54.869px" height="54.869px" viewBox="0 0 54.869 54.869" style="enable-background:new 0 0 54.869 54.869;"
	 xml:space="preserve">
<g>
	<path d="M49.952,40.24c-3.843,8.887-12.843,14.629-22.927,14.629c-10.301,0-19.354-5.771-23.064-14.703
		c-0.636-1.529,0.089-3.285,1.62-3.922c0.376-0.156,0.766-0.23,1.149-0.23c1.176,0.001,2.292,0.697,2.771,1.852
		c2.776,6.685,9.655,11.005,17.523,11.005c7.69,0,14.528-4.322,17.42-11.012c0.658-1.521,2.424-2.223,3.944-1.563
		C49.91,36.953,50.61,38.719,49.952,40.24z M2.505,6.644C2.3,6.702,2.098,6.581,2.044,6.382c-0.055-0.2,0.063-0.406,0.262-0.461
		c2.304-0.633,5.31,2.141,7.121,4.142c0.837-0.693,1.862-1.164,2.983-1.34c-0.633-2.564-1.779-5.603-3.502-5.986
		C8.706,2.692,8.579,2.491,8.624,2.289c0.045-0.2,0.232-0.331,0.448-0.284c2.22,0.495,3.467,4.047,4.093,6.646
		c0.071-0.002,0.141-0.011,0.212-0.011c0.629,0,1.234,0.096,1.807,0.27c-0.452-2.587-0.92-7.245,1.218-8.71
		c0.17-0.115,0.403-0.074,0.521,0.098c0.117,0.171,0.073,0.404-0.098,0.521C15.054,2.032,15.488,6.536,16,9.229
		c2.111,0.989,3.577,3.128,3.577,5.612c0,3.426-2.777,6.203-6.2,6.203c-3.423,0-6.2-2.777-6.2-6.203
		c0-1.652,0.651-3.151,1.706-4.263C7.042,8.556,4.322,6.148,2.505,6.644z M52.825,6.246c-0.054,0.198-0.256,0.319-0.461,0.262
		c-1.816-0.496-4.537,1.912-6.378,3.935c1.056,1.111,1.706,2.61,1.706,4.263c0,3.426-2.776,6.203-6.2,6.203
		c-3.423,0-6.199-2.777-6.199-6.203c0-2.484,1.466-4.623,3.576-5.612c0.513-2.693,0.945-7.197-0.824-8.41
		c-0.171-0.117-0.215-0.351-0.099-0.521c0.118-0.172,0.353-0.213,0.521-0.098c2.138,1.465,1.67,6.123,1.218,8.71
		c0.572-0.174,1.178-0.27,1.807-0.27c0.071,0,0.143,0.009,0.213,0.011c0.626-2.6,1.872-6.151,4.093-6.646
		c0.216-0.047,0.402,0.084,0.447,0.284c0.046,0.202-0.081,0.403-0.283,0.448c-1.725,0.384-2.869,3.422-3.503,5.986
		c1.123,0.176,2.146,0.646,2.983,1.34c1.812-2.001,4.817-4.774,7.121-4.142C52.764,5.84,52.881,6.046,52.825,6.246z"/>
</g>
<g>
</g>
<g>
</g>
<g>
</g>
<g>
</g>
<g>
</g>
<g>
</g>
<g>
</g>
<g>
</g>
<g>
</g>
<g>
</g>
<g>
</g>
<g>
</g>
<g>
</g>
<g>
</g>
<g>
</g>
</svg>
