<?xml version="1.0" encoding="iso-8859-1"?>
<!-- Generator: Adobe Illustrator 16.0.0, SVG Export Plug-In . SVG Version: 6.00 Build 0)  -->
<!DOCTYPE svg PUBLIC "-//W3C//DTD SVG 1.1//EN" "http://www.w3.org/Graphics/SVG/1.1/DTD/svg11.dtd">
<svg version="1.1" id="Capa_1" xmlns="http://www.w3.org/2000/svg" xmlns:xlink="http://www.w3.org/1999/xlink" x="0px" y="0px"
	 width="51.505px" height="51.505px" viewBox="0 0 51.505 51.505" style="enable-background:new 0 0 51.505 51.505;"
	 xml:space="preserve">
<g>
	<path d="M25.824,50.904c11.245,0,21.28-7.314,25.563-18.636c0.191-0.506,0.148-1.089-0.117-1.55
		c-0.265-0.461-0.715-0.739-1.197-0.74L1.435,29.91c0,0-0.001,0-0.002,0c-0.479,0-0.926,0.273-1.191,0.729
		c-0.267,0.455-0.316,1.032-0.132,1.54C4.244,43.553,14.338,50.904,25.824,50.904z M44.856,32.68l2.47,0.002
		c0.43,0.001,0.827,0.202,1.064,0.534c0.235,0.332,0.274,0.754,0.104,1.119c-0.533,1.144-1.179,2.225-1.9,3.248h-1.738V32.68z
		 M14.612,45.5c-2.64-1.153-5.017-2.711-7.013-4.614h7.013V45.5z M31.514,32.664l9.785,0.013v4.907h-9.785V32.664z M31.514,40.885
		h9.785v2.017c-2.835,2.045-6.17,3.52-9.785,4.282V40.885z M18.171,32.65l9.785,0.012v4.924h-9.785V32.65z M18.171,40.885h9.785
		v6.81c-0.729,0.057-1.46,0.094-2.2,0.094c-2.636,0-5.186-0.359-7.585-1.023V40.885z M4.827,32.634l9.785,0.011v4.938H4.827V32.634z
		 M7.153,10.445c-0.744-1.023-1.189-2.28-1.189-3.643c0-3.423,2.777-6.201,6.2-6.201c3.424,0,6.2,2.777,6.2,6.201
		c0,1.315-0.412,2.533-1.11,3.537c-1.127-1.549-2.949-2.56-5.011-2.56C10.135,7.779,8.274,8.835,7.153,10.445z M35.271,10.445
		c-0.744-1.023-1.188-2.28-1.188-3.643c0-3.423,2.776-6.201,6.199-6.201c3.425,0,6.2,2.777,6.2,6.201
		c0,1.315-0.412,2.533-1.109,3.537c-1.127-1.549-2.949-2.56-5.012-2.56C38.253,7.779,36.392,8.835,35.271,10.445z"/>
</g>
<g>
</g>
<g>
</g>
<g>
</g>
<g>
</g>
<g>
</g>
<g>
</g>
<g>
</g>
<g>
</g>
<g>
</g>
<g>
</g>
<g>
</g>
<g>
</g>
<g>
</g>
<g>
</g>
<g>
</g>
</svg>
