<?xml version="1.0" encoding="iso-8859-1"?>
<!-- Generator: Adobe Illustrator 16.0.0, SVG Export Plug-In . SVG Version: 6.00 Build 0)  -->
<!DOCTYPE svg PUBLIC "-//W3C//DTD SVG 1.1//EN" "http://www.w3.org/Graphics/SVG/1.1/DTD/svg11.dtd">
<svg version="1.1" id="Capa_1" xmlns="http://www.w3.org/2000/svg" xmlns:xlink="http://www.w3.org/1999/xlink" x="0px" y="0px"
	 width="52.731px" height="52.73px" viewBox="0 0 52.731 52.73" style="enable-background:new 0 0 52.731 52.73;"
	 xml:space="preserve">
<g>
	<path d="M50.685,31.805L2.048,31.736c-0.001,0-0.002,0-0.002,0c-0.479,0-0.926,0.273-1.191,0.73
		c-0.268,0.454-0.316,1.032-0.133,1.539C4.857,45.379,14.951,52.73,26.437,52.73c11.244,0,21.279-7.315,25.562-18.637
		c0.191-0.506,0.148-1.089-0.116-1.55C51.618,32.083,51.167,31.805,50.685,31.805z M15.224,47.326
		c-2.64-1.154-5.017-2.712-7.012-4.615h7.012V47.326z M15.224,39.411H5.439V34.46l9.785,0.011V39.411z M28.568,49.52
		c-0.727,0.058-1.459,0.096-2.199,0.096c-2.637,0-5.186-0.36-7.586-1.023v-5.881h9.785V49.52z M28.568,39.411h-9.785v-4.935
		l9.785,0.01V39.411z M41.912,44.727c-2.836,2.045-6.17,3.521-9.784,4.283v-6.299h9.784V44.727z M49.108,36.162
		c-0.533,1.145-1.177,2.225-1.899,3.249h-1.737v-4.903l2.469,0.002c0.429,0,0.828,0.201,1.064,0.533
		C49.24,35.376,49.279,35.796,49.108,36.162z M6.577,6.201C6.577,2.778,9.354,0,12.777,0c3.424,0,6.2,2.777,6.2,6.201
		c0,3.426-2.776,6.203-6.2,6.203C9.354,12.404,6.577,9.627,6.577,6.201z M34.693,6.201C34.693,2.778,37.474,0,40.896,0
		c3.424,0,6.201,2.777,6.201,6.201c0,3.426-2.777,6.203-6.201,6.203C37.474,12.404,34.693,9.627,34.693,6.201z"/>
</g>
<g>
</g>
<g>
</g>
<g>
</g>
<g>
</g>
<g>
</g>
<g>
</g>
<g>
</g>
<g>
</g>
<g>
</g>
<g>
</g>
<g>
</g>
<g>
</g>
<g>
</g>
<g>
</g>
<g>
</g>
</svg>
