<?xml version="1.0" encoding="iso-8859-1"?>
<!-- Generator: Adobe Illustrator 16.0.0, SVG Export Plug-In . SVG Version: 6.00 Build 0)  -->
<!DOCTYPE svg PUBLIC "-//W3C//DTD SVG 1.1//EN" "http://www.w3.org/Graphics/SVG/1.1/DTD/svg11.dtd">
<svg version="1.1" id="Capa_1" xmlns="http://www.w3.org/2000/svg" xmlns:xlink="http://www.w3.org/1999/xlink" x="0px" y="0px"
	 width="51.506px" height="51.506px" viewBox="0 0 51.506 51.506" style="enable-background:new 0 0 51.506 51.506;"
	 xml:space="preserve">
<g>
	<path d="M51.27,30.967c0.266,0.402,0.311,0.913,0.118,1.355c-4.285,9.904-14.318,16.305-25.563,16.305
		c-11.486,0-21.58-6.432-25.714-16.383c-0.185-0.442-0.135-0.948,0.131-1.347c0.267-0.397,0.714-0.637,1.192-0.637
		c0.001,0,0.001,0,0.002,0l48.638,0.06C50.556,30.32,51.005,30.563,51.27,30.967z M1.23,13.807
		c-0.055-0.113-0.082-0.237-0.082-0.359c0-0.183,0.062-0.363,0.175-0.506l7.695-9.755C9.176,2.99,9.411,2.879,9.664,2.879
		s0.486,0.111,0.641,0.304l7.697,9.757c0.189,0.237,0.229,0.58,0.1,0.859c-0.146,0.293-0.428,0.467-0.741,0.467h-3.554
		c-0.181,0-0.351-0.083-0.463-0.225l-3.68-4.664l-3.681,4.664c-0.112,0.141-0.281,0.225-0.462,0.225H1.968
		C1.654,14.266,1.364,14.086,1.23,13.807z M33.35,13.807c-0.055-0.113-0.082-0.237-0.082-0.359c0-0.183,0.062-0.363,0.175-0.506
		l7.695-9.755c0.158-0.197,0.392-0.308,0.645-0.308c0.254,0,0.486,0.111,0.642,0.304l7.697,9.757c0.188,0.237,0.229,0.58,0.1,0.859
		c-0.146,0.293-0.428,0.467-0.741,0.467h-3.554c-0.181,0-0.351-0.083-0.463-0.225l-3.681-4.664l-3.681,4.664
		c-0.112,0.141-0.281,0.225-0.462,0.225h-3.552C33.773,14.266,33.483,14.086,33.35,13.807z"/>
</g>
<g>
</g>
<g>
</g>
<g>
</g>
<g>
</g>
<g>
</g>
<g>
</g>
<g>
</g>
<g>
</g>
<g>
</g>
<g>
</g>
<g>
</g>
<g>
</g>
<g>
</g>
<g>
</g>
<g>
</g>
</svg>
