<?xml version="1.0" encoding="iso-8859-1"?>
<!-- Generator: Adobe Illustrator 16.0.0, SVG Export Plug-In . SVG Version: 6.00 Build 0)  -->
<!DOCTYPE svg PUBLIC "-//W3C//DTD SVG 1.1//EN" "http://www.w3.org/Graphics/SVG/1.1/DTD/svg11.dtd">
<svg version="1.1" id="Capa_1" xmlns="http://www.w3.org/2000/svg" xmlns:xlink="http://www.w3.org/1999/xlink" x="0px" y="0px"
	 width="51.505px" height="51.504px" viewBox="0 0 51.505 51.504" style="enable-background:new 0 0 51.505 51.504;"
	 xml:space="preserve">
<g>
	<path d="M4.461,8.468C4.276,8.279,4.213,8.002,4.297,7.752s0.301-0.432,0.561-0.472l4.604-0.703l2.065-4.4
		c0.116-0.247,0.364-0.404,0.637-0.404s0.521,0.157,0.637,0.404l2.065,4.4l4.604,0.703c0.26,0.04,0.477,0.222,0.561,0.472
		s0.021,0.525-0.164,0.714l-3.352,3.437l0.794,4.857c0.043,0.266-0.068,0.533-0.289,0.688c-0.121,0.085-0.263,0.128-0.405,0.128
		c-0.117,0-0.234-0.029-0.34-0.087l-4.11-2.271L8.058,17.49c-0.234,0.131-0.524,0.115-0.745-0.041
		c-0.22-0.155-0.332-0.422-0.289-0.688l0.791-4.857L4.461,8.468z M32.579,8.468c-0.185-0.189-0.248-0.465-0.164-0.715
		s0.301-0.432,0.562-0.472l4.604-0.703l2.065-4.4c0.115-0.247,0.363-0.404,0.637-0.404s0.521,0.157,0.637,0.404l2.065,4.4
		l4.604,0.703c0.261,0.04,0.478,0.222,0.562,0.472s0.021,0.525-0.164,0.714l-3.354,3.438l0.794,4.857
		c0.043,0.266-0.067,0.533-0.289,0.688c-0.12,0.085-0.263,0.128-0.404,0.128c-0.117,0-0.234-0.029-0.34-0.087l-4.11-2.271
		l-4.108,2.271c-0.233,0.131-0.523,0.115-0.745-0.041c-0.22-0.155-0.331-0.422-0.288-0.688l0.791-4.857L32.579,8.468z M51.27,32.071
		c0.265,0.402,0.31,0.913,0.117,1.355c-4.284,9.904-14.317,16.305-25.562,16.305c-11.486,0-21.58-6.432-25.714-16.383
		c-0.185-0.442-0.135-0.948,0.131-1.347c0.267-0.397,0.714-0.637,1.192-0.637c0.001,0,0.001,0,0.002,0l48.638,0.06
		C50.556,31.424,51.004,31.667,51.27,32.071z"/>
</g>
<g>
</g>
<g>
</g>
<g>
</g>
<g>
</g>
<g>
</g>
<g>
</g>
<g>
</g>
<g>
</g>
<g>
</g>
<g>
</g>
<g>
</g>
<g>
</g>
<g>
</g>
<g>
</g>
<g>
</g>
</svg>
