<?xml version="1.0" encoding="iso-8859-1"?>
<!-- Generator: Adobe Illustrator 16.0.0, SVG Export Plug-In . SVG Version: 6.00 Build 0)  -->
<!DOCTYPE svg PUBLIC "-//W3C//DTD SVG 1.1//EN" "http://www.w3.org/Graphics/SVG/1.1/DTD/svg11.dtd">
<svg version="1.1" id="Capa_1" xmlns="http://www.w3.org/2000/svg" xmlns:xlink="http://www.w3.org/1999/xlink" x="0px" y="0px"
	 width="54.034px" height="54.034px" viewBox="0 0 54.034 54.034" style="enable-background:new 0 0 54.034 54.034;"
	 xml:space="preserve">
<g>
	<path d="M26.601,48.035c7.69,0,14.528-4.322,17.421-11.012c0.658-1.521,2.424-2.223,3.943-1.563
		c1.521,0.658,2.221,2.424,1.563,3.945c-3.843,8.887-12.843,14.629-22.928,14.629c-10.301,0-19.354-5.771-23.064-14.703
		c-0.636-1.529,0.089-3.285,1.62-3.922c0.376-0.156,0.766-0.23,1.15-0.23c1.176,0.001,2.292,0.697,2.771,1.852
		C11.854,43.715,18.733,48.035,26.601,48.035z M1.692,6.683c0.073-1.101,1.01-1.938,2.125-1.863
		c0.087,0.006,8.679,0.498,11.91-3.958c0.648-0.896,1.9-1.092,2.793-0.445c0.894,0.648,1.093,1.899,0.445,2.793
		C15.248,8.335,7.564,8.842,4.673,8.842c-0.636,0-1.039-0.024-1.119-0.03C2.453,8.738,1.619,7.785,1.692,6.683z M7.942,19.649
		c-0.744-1.023-1.189-2.279-1.189-3.643c0-3.424,2.777-6.201,6.2-6.201c3.424,0,6.2,2.777,6.2,6.201c0,1.315-0.412,2.533-1.11,3.537
		c-1.127-1.549-2.949-2.561-5.011-2.561C10.923,16.983,9.062,18.04,7.942,19.649z M35.069,3.173
		c-0.648-0.894-0.449-2.145,0.445-2.793c0.894-0.646,2.145-0.45,2.793,0.445c3.23,4.456,11.822,3.964,11.909,3.958
		c1.116-0.074,2.053,0.763,2.125,1.863c0.073,1.102-0.761,2.055-1.862,2.128c-0.08,0.006-0.483,0.03-1.119,0.03
		C46.471,8.804,38.786,8.298,35.069,3.173z M41.083,9.768c3.423,0,6.2,2.777,6.2,6.201c0,1.363-0.445,2.619-1.188,3.643
		c-1.12-1.609-2.981-2.666-5.091-2.666c-2.062,0-3.884,1.012-5.011,2.561c-0.698-1.004-1.11-2.222-1.11-3.537
		C34.882,12.546,37.659,9.768,41.083,9.768z"/>
</g>
<g>
</g>
<g>
</g>
<g>
</g>
<g>
</g>
<g>
</g>
<g>
</g>
<g>
</g>
<g>
</g>
<g>
</g>
<g>
</g>
<g>
</g>
<g>
</g>
<g>
</g>
<g>
</g>
<g>
</g>
</svg>
