<?xml version="1.0" encoding="iso-8859-1"?>
<!-- Generator: Adobe Illustrator 16.0.0, SVG Export Plug-In . SVG Version: 6.00 Build 0)  -->
<!DOCTYPE svg PUBLIC "-//W3C//DTD SVG 1.1//EN" "http://www.w3.org/Graphics/SVG/1.1/DTD/svg11.dtd">
<svg version="1.1" id="Capa_1" xmlns="http://www.w3.org/2000/svg" xmlns:xlink="http://www.w3.org/1999/xlink" x="0px" y="0px"
	 width="53.312px" height="53.312px" viewBox="0 0 53.312 53.312" style="enable-background:new 0 0 53.312 53.312;"
	 xml:space="preserve">
<g>
	<path d="M6.999,2.32c1.303-3.356,5.027-1.911,5.027-1.911c3.202,1.244,5.376,6.973,5.376,6.973c-2.719-0.586-4.6-0.155-4.6-0.155
		c-2.136,0.478-3.71-0.133-3.71-0.133C5.632,5.75,6.999,2.32,6.999,2.32z M13.068,10.616c1.817,0,3.292,2.092,3.292,4.67
		c0,2.58-1.475,4.671-3.292,4.671c-1.818,0-3.292-2.091-3.292-4.671C9.775,12.708,11.25,10.616,13.068,10.616z M49.644,38.684
		c-3.843,8.887-12.843,14.629-22.928,14.629c-10.301,0-19.354-5.771-23.064-14.703c-0.636-1.529,0.089-3.285,1.62-3.921
		c0.376-0.155,0.766-0.229,1.15-0.229c1.176,0,2.292,0.695,2.771,1.85c2.777,6.686,9.655,11.004,17.523,11.004
		c7.69,0,14.528-4.321,17.421-11.011c0.658-1.521,2.424-2.222,3.943-1.563C49.602,35.396,50.302,37.163,49.644,38.684z
		 M34.983,7.283c0,0,2.174-5.729,5.376-6.973c0,0,3.724-1.446,5.027,1.911c0,0,1.367,3.431-2.093,4.774c0,0-1.574,0.611-3.711,0.133
		C39.583,7.126,37.702,6.696,34.983,7.283z M39.317,10.516c1.818,0,3.292,2.092,3.292,4.67c0,2.58-1.475,4.671-3.292,4.671
		c-1.816,0-3.292-2.091-3.292-4.671C36.026,12.606,37.5,10.516,39.317,10.516z"/>
</g>
<g>
</g>
<g>
</g>
<g>
</g>
<g>
</g>
<g>
</g>
<g>
</g>
<g>
</g>
<g>
</g>
<g>
</g>
<g>
</g>
<g>
</g>
<g>
</g>
<g>
</g>
<g>
</g>
<g>
</g>
</svg>
