<?xml version="1.0" encoding="iso-8859-1"?>
<!-- Generator: Adobe Illustrator 16.0.0, SVG Export Plug-In . SVG Version: 6.00 Build 0)  -->
<!DOCTYPE svg PUBLIC "-//W3C//DTD SVG 1.1//EN" "http://www.w3.org/Graphics/SVG/1.1/DTD/svg11.dtd">
<svg version="1.1" id="Capa_1" xmlns="http://www.w3.org/2000/svg" xmlns:xlink="http://www.w3.org/1999/xlink" x="0px" y="0px"
	 width="55.779px" height="55.779px" viewBox="0 0 55.779 55.779" style="enable-background:new 0 0 55.779 55.779;"
	 xml:space="preserve">
<g>
	<path d="M8.1,6.201C8.1,2.778,10.877,0,14.301,0C17.723,0,20.5,2.777,20.5,6.201c0,3.426-2.777,6.203-6.199,6.203
		C10.877,12.404,8.1,9.627,8.1,6.201z M36.217,6.201C36.217,2.778,38.996,0,42.42,0s6.201,2.777,6.201,6.201
		c0,3.426-2.777,6.203-6.201,6.203S36.217,9.627,36.217,6.201z M50.877,29.6c-2.512,5.805-7.23,10.254-13.006,12.651v3.94
		c0,5.295-4.471,9.588-9.982,9.588s-9.98-4.293-9.98-9.588V42.26c-5.863-2.404-10.594-6.885-13.023-12.734
		c-0.637-1.529,0.09-3.285,1.619-3.92c0.377-0.156,0.766-0.23,1.15-0.23c1.176,0,2.291,0.696,2.771,1.85
		c2.777,6.685,9.654,11.003,17.523,11.003c7.688,0,14.526-4.321,17.42-11.01c0.658-1.521,2.424-2.222,3.944-1.563
		C50.834,26.312,51.535,28.078,50.877,29.6z"/>
</g>
<g>
</g>
<g>
</g>
<g>
</g>
<g>
</g>
<g>
</g>
<g>
</g>
<g>
</g>
<g>
</g>
<g>
</g>
<g>
</g>
<g>
</g>
<g>
</g>
<g>
</g>
<g>
</g>
<g>
</g>
</svg>
