<?xml version="1.0" encoding="iso-8859-1"?>
<!-- Generator: Adobe Illustrator 16.0.0, SVG Export Plug-In . SVG Version: 6.00 Build 0)  -->
<!DOCTYPE svg PUBLIC "-//W3C//DTD SVG 1.1//EN" "http://www.w3.org/Graphics/SVG/1.1/DTD/svg11.dtd">
<svg version="1.1" id="Capa_1" xmlns="http://www.w3.org/2000/svg" xmlns:xlink="http://www.w3.org/1999/xlink" x="0px" y="0px"
	 width="60.526px" height="60.526px" viewBox="0 0 60.526 60.526" style="enable-background:new 0 0 60.526 60.526;"
	 xml:space="preserve">
<g>
	<path d="M15.681,10.423c1.16,1.127,1.885,2.701,1.885,4.446c0,3.426-2.777,6.203-6.199,6.203c-3.424,0-6.201-2.777-6.201-6.203
		c0-1.679,0.67-3.199,1.754-4.315L1.738,5.371c-1.229-1.229-1.229-3.221,0-4.449c1.229-1.23,3.221-1.23,4.451,0l9.455,9.455
		C15.657,10.39,15.667,10.408,15.681,10.423z M36.196,14.869c0-1.744,0.723-3.318,1.883-4.445c0.014-0.015,0.023-0.032,0.039-0.047
		l9.457-9.455c1.229-1.23,3.221-1.23,4.451,0c1.229,1.229,1.229,3.221-0.002,4.449l-5.183,5.183
		c1.084,1.116,1.754,2.637,1.754,4.315c0,3.426-2.776,6.203-6.198,6.203C38.974,21.072,36.196,18.295,36.196,14.869z M32.79,38.054
		l26.92-1.053C54.503,54.414,36.095,64.35,18.681,59.142L32.79,38.054z"/>
</g>
<g>
</g>
<g>
</g>
<g>
</g>
<g>
</g>
<g>
</g>
<g>
</g>
<g>
</g>
<g>
</g>
<g>
</g>
<g>
</g>
<g>
</g>
<g>
</g>
<g>
</g>
<g>
</g>
<g>
</g>
</svg>
