<?xml version="1.0" encoding="iso-8859-1"?>
<!-- Generator: Adobe Illustrator 16.0.0, SVG Export Plug-In . SVG Version: 6.00 Build 0)  -->
<!DOCTYPE svg PUBLIC "-//W3C//DTD SVG 1.1//EN" "http://www.w3.org/Graphics/SVG/1.1/DTD/svg11.dtd">
<svg version="1.1" id="Capa_1" xmlns="http://www.w3.org/2000/svg" xmlns:xlink="http://www.w3.org/1999/xlink" x="0px" y="0px"
	 width="64.08px" height="64.08px" viewBox="0 0 64.08 64.08" style="enable-background:new 0 0 64.08 64.08;" xml:space="preserve"
	>
<g>
	<path d="M55.027,41.912C51.186,50.799,42.186,56.541,32.1,56.541c-10.301,0-19.354-5.771-23.064-14.703
		c-0.636-1.529,0.089-3.285,1.62-3.921c0.376-0.155,0.766-0.229,1.15-0.229c1.176,0,2.292,0.695,2.771,1.85
		c2.777,6.686,9.655,11.004,17.523,11.004c7.69,0,14.528-4.322,17.421-11.011c0.658-1.521,2.424-2.222,3.943-1.563
		C54.986,38.625,55.686,40.391,55.027,41.912z M7.6,25.49h12.982c4.127,0,7.479-3.8,7.589-8.533h7.737
		c0.109,4.733,3.462,8.533,7.589,8.533H56.48c4.197,0,7.6-3.926,7.6-8.771V16.31c0-4.844-3.402-8.771-7.6-8.771H43.498
		c-3.396,0-6.273,2.574-7.246,6.125h-8.423c-0.973-3.55-3.849-6.125-7.246-6.125H7.6c-4.197,0-7.6,3.926-7.6,8.771v0.409
		C0,21.563,3.403,25.49,7.6,25.49z M38.898,16.311c0-3.182,2.062-5.771,4.6-5.771H56.48c2.535,0,4.6,2.589,4.6,5.771v0.409
		c0,3.182-2.062,5.771-4.6,5.771H43.498c-2.536,0-4.6-2.589-4.6-5.771V16.311z M3,16.311c0-3.182,2.063-5.771,4.6-5.771h12.982
		c2.536,0,4.6,2.589,4.6,5.771v0.409c0,3.182-2.063,5.771-4.6,5.771H7.6c-2.536,0-4.6-2.589-4.6-5.771V16.311z M10.575,16.514
		c0-1.769,1.435-3.204,3.203-3.204c1.768,0,3.204,1.435,3.204,3.204c0,1.771-1.435,3.205-3.204,3.205
		C12.009,19.719,10.575,18.285,10.575,16.514z M46.786,16.514c0-1.769,1.435-3.204,3.203-3.204c1.768,0,3.204,1.435,3.204,3.204
		c0,1.771-1.436,3.205-3.204,3.205S46.786,18.285,46.786,16.514z"/>
</g>
<g>
</g>
<g>
</g>
<g>
</g>
<g>
</g>
<g>
</g>
<g>
</g>
<g>
</g>
<g>
</g>
<g>
</g>
<g>
</g>
<g>
</g>
<g>
</g>
<g>
</g>
<g>
</g>
<g>
</g>
</svg>
