<?xml version="1.0" encoding="iso-8859-1"?>
<!-- Generator: Adobe Illustrator 16.0.0, SVG Export Plug-In . SVG Version: 6.00 Build 0)  -->
<!DOCTYPE svg PUBLIC "-//W3C//DTD SVG 1.1//EN" "http://www.w3.org/Graphics/SVG/1.1/DTD/svg11.dtd">
<svg version="1.1" id="Capa_1" xmlns="http://www.w3.org/2000/svg" xmlns:xlink="http://www.w3.org/1999/xlink" x="0px" y="0px"
	 width="59.235px" height="59.235px" viewBox="0 0 59.235 59.235" style="enable-background:new 0 0 59.235 59.235;"
	 xml:space="preserve">
<g>
	<path d="M50.836,50.337c-22.713,20.021-43.377,0-43.377,0c0-11.55,9.711-20.913,21.688-20.913
		C41.124,29.424,50.836,38.787,50.836,50.337z M25.018,10.459C25.018,4.686,20.33,0,14.559,0C8.786,0,4.1,4.686,4.1,10.459
		c0,5.772,4.686,10.459,10.459,10.459C20.33,20.918,25.018,16.231,25.018,10.459z M6.255,10.459c0-4.579,3.724-8.305,8.304-8.305
		c4.577,0,8.304,3.726,8.304,8.305s-3.727,8.305-8.304,8.305C9.979,18.763,6.255,15.038,6.255,10.459z M21.059,10.459
		c0-3.588-2.914-6.5-6.5-6.5c-3.588,0-6.5,2.912-6.5,6.5c0,3.587,2.912,6.5,6.5,6.5C18.145,16.959,21.059,14.045,21.059,10.459z
		 M10.059,10.459c0-2.481,2.018-4.5,4.5-4.5c2.48,0,4.5,2.019,4.5,4.5s-2.02,4.5-4.5,4.5C12.077,14.959,10.059,12.94,10.059,10.459z
		 M14.559,12.459c-1.104,0-2-0.896-2-2s0.896-2,2-2s2,0.896,2,2S15.663,12.459,14.559,12.459z M44.676,0
		c-5.772,0-10.459,4.686-10.459,10.459c0,5.772,4.687,10.459,10.459,10.459c5.771,0,10.459-4.687,10.459-10.459
		C55.135,4.685,50.447,0,44.676,0z M44.676,18.763c-4.58,0-8.303-3.726-8.303-8.305s3.723-8.305,8.303-8.305
		c4.578,0,8.305,3.726,8.305,8.305S49.254,18.763,44.676,18.763z M44.676,3.959c-3.588,0-6.5,2.912-6.5,6.5
		c0,3.587,2.912,6.5,6.5,6.5c3.587,0,6.5-2.913,6.5-6.5C51.176,6.871,48.263,3.959,44.676,3.959z M44.676,14.959
		c-2.481,0-4.5-2.019-4.5-4.5s2.019-4.5,4.5-4.5c2.48,0,4.5,2.019,4.5,4.5S47.158,14.959,44.676,14.959z M46.676,10.459
		c0,1.104-0.896,2-2,2c-1.104,0-2-0.896-2-2s0.896-2,2-2C45.781,8.459,46.676,9.355,46.676,10.459z"/>
</g>
<g>
</g>
<g>
</g>
<g>
</g>
<g>
</g>
<g>
</g>
<g>
</g>
<g>
</g>
<g>
</g>
<g>
</g>
<g>
</g>
<g>
</g>
<g>
</g>
<g>
</g>
<g>
</g>
<g>
</g>
</svg>
