<?xml version="1.0" encoding="iso-8859-1"?>
<!-- Generator: Adobe Illustrator 16.0.0, SVG Export Plug-In . SVG Version: 6.00 Build 0)  -->
<!DOCTYPE svg PUBLIC "-//W3C//DTD SVG 1.1//EN" "http://www.w3.org/Graphics/SVG/1.1/DTD/svg11.dtd">
<svg version="1.1" id="Capa_1" xmlns="http://www.w3.org/2000/svg" xmlns:xlink="http://www.w3.org/1999/xlink" x="0px" y="0px"
	 width="55.275px" height="55.275px" viewBox="0 0 55.275 55.275" style="enable-background:new 0 0 55.275 55.275;"
	 xml:space="preserve">
<g>
	<path d="M13.049,13c3.586,0,6.5-2.913,6.5-6.5c0-3.588-2.914-6.5-6.5-6.5c-3.588,0-6.5,2.912-6.5,6.5
		C6.549,10.086,9.461,13,13.049,13z M13.049,2c2.48,0,4.5,2.019,4.5,4.5s-2.02,4.5-4.5,4.5c-2.482,0-4.5-2.019-4.5-4.5
		S10.566,2,13.049,2z M11.049,6.5c0-1.104,0.896-2,2-2s2,0.896,2,2s-0.896,2-2,2S11.049,7.603,11.049,6.5z M40.887,13
		c3.586,0,6.5-2.913,6.5-6.5c0-3.588-2.914-6.5-6.5-6.5c-3.588,0-6.5,2.912-6.5,6.5C34.387,10.086,37.299,13,40.887,13z M40.887,2
		c2.48,0,4.5,2.019,4.5,4.5s-2.02,4.5-4.5,4.5c-2.481,0-4.5-2.019-4.5-4.5S38.405,2,40.887,2z M38.887,6.5c0-1.104,0.896-2,2-2
		c1.104,0,2,0.896,2,2s-0.896,2-2,2C39.783,8.5,38.887,7.603,38.887,6.5z M49.326,46.378c-22.713,20.021-43.377,0-43.377,0
		c0-11.55,9.711-20.913,21.688-20.913S49.326,34.828,49.326,46.378z"/>
</g>
<g>
</g>
<g>
</g>
<g>
</g>
<g>
</g>
<g>
</g>
<g>
</g>
<g>
</g>
<g>
</g>
<g>
</g>
<g>
</g>
<g>
</g>
<g>
</g>
<g>
</g>
<g>
</g>
<g>
</g>
</svg>
