<?xml version="1.0" encoding="iso-8859-1"?>
<!-- Generator: Adobe Illustrator 16.0.0, SVG Export Plug-In . SVG Version: 6.00 Build 0)  -->
<!DOCTYPE svg PUBLIC "-//W3C//DTD SVG 1.1//EN" "http://www.w3.org/Graphics/SVG/1.1/DTD/svg11.dtd">
<svg version="1.1" id="Capa_1" xmlns="http://www.w3.org/2000/svg" xmlns:xlink="http://www.w3.org/1999/xlink" x="0px" y="0px"
	 width="61.789px" height="61.789px" viewBox="0 0 61.789 61.789" style="enable-background:new 0 0 61.789 61.789;"
	 xml:space="preserve">
<g>
	<path d="M16.835,21.653c-2.258,0-4.09-2.777-4.09-6.203c0-3.423,1.832-6.201,4.09-6.201c2.258,0,4.09,2.777,4.09,6.201
		C20.925,18.876,19.093,21.653,16.835,21.653z M12.138,8.675c-0.21,1.217-1.267,2.076-2.461,2.076c-0.141,0-0.284-0.012-0.428-0.037
		c-1.36-0.235-2.273-1.528-2.039-2.889c0.506-2.931,3.173-8.333,9.83-7.786c1.376,0.113,2.399,1.32,2.286,2.696
		c-0.112,1.376-1.301,2.4-2.696,2.287C12.934,4.71,12.208,8.269,12.138,8.675z M49.043,15.451c0,3.426-1.832,6.203-4.09,6.203
		s-4.09-2.777-4.09-6.203c0-3.423,1.832-6.201,4.09-6.201S49.043,12.026,49.043,15.451z M54.578,7.825
		c0.234,1.361-0.679,2.654-2.039,2.889c-0.144,0.024-0.287,0.037-0.428,0.037c-1.193,0-2.251-0.859-2.461-2.076
		c-0.07-0.406-0.796-3.963-4.492-3.652c-1.396,0.113-2.584-0.911-2.695-2.287c-0.113-1.376,0.91-2.583,2.285-2.696
		C51.405-0.507,54.072,4.894,54.578,7.825z M43.258,46.949c0,8.184-5.756,14.84-12.833,14.84c-7.078,0-12.833-6.656-12.833-14.84
		c0-8.181,5.755-14.834,12.833-14.834C37.502,32.115,43.258,38.769,43.258,46.949z"/>
</g>
<g>
</g>
<g>
</g>
<g>
</g>
<g>
</g>
<g>
</g>
<g>
</g>
<g>
</g>
<g>
</g>
<g>
</g>
<g>
</g>
<g>
</g>
<g>
</g>
<g>
</g>
<g>
</g>
<g>
</g>
</svg>
