<?xml version="1.0" encoding="iso-8859-1"?>
<!-- Generator: Adobe Illustrator 16.0.0, SVG Export Plug-In . SVG Version: 6.00 Build 0)  -->
<!DOCTYPE svg PUBLIC "-//W3C//DTD SVG 1.1//EN" "http://www.w3.org/Graphics/SVG/1.1/DTD/svg11.dtd">
<svg version="1.1" id="Capa_1" xmlns="http://www.w3.org/2000/svg" xmlns:xlink="http://www.w3.org/1999/xlink" x="0px" y="0px"
	 width="45.837px" height="45.837px" viewBox="0 0 45.837 45.837" style="enable-background:new 0 0 45.837 45.837;"
	 xml:space="preserve">
<g>
	<path d="M28.436,10.864c0-4.797,3.903-8.701,8.703-8.701c4.797,0,8.698,3.903,8.698,8.701c0,1.381-1.119,2.5-2.5,2.5
		s-2.5-1.119-2.5-2.5c0-2.041-1.66-3.701-3.698-3.701c-2.044,0-3.703,1.66-3.703,3.701c0,1.381-1.119,2.5-2.5,2.5
		C29.554,13.364,28.436,12.244,28.436,10.864z M0.712,10.837c0-4.797,3.904-8.701,8.703-8.701c4.797,0,8.701,3.903,8.701,8.701
		c0,1.381-1.119,2.5-2.5,2.5c-1.381,0-2.5-1.119-2.5-2.5c0-2.041-1.66-3.701-3.701-3.701c-2.043,0-3.703,1.66-3.703,3.701
		c0,1.381-1.119,2.5-2.5,2.5S0.712,12.218,0.712,10.837z M41.214,18.142c0,2.254-1.825,4.081-4.078,4.081
		c-2.252,0-4.079-1.827-4.079-4.081c0-2.252,1.827-4.08,4.079-4.08S41.214,15.89,41.214,18.142z M13.492,18.142
		c0,2.254-1.826,4.081-4.078,4.081s-4.078-1.827-4.078-4.081c0-2.252,1.826-4.08,4.078-4.08S13.492,15.89,13.492,18.142z M0,40.223
		c0-1.921,1.559-3.478,3.479-3.478h38.259c1.92,0,3.479,1.557,3.479,3.478s-1.559,3.478-3.479,3.478H3.479
		C1.558,43.701,0,42.144,0,40.223z"/>
</g>
<g>
</g>
<g>
</g>
<g>
</g>
<g>
</g>
<g>
</g>
<g>
</g>
<g>
</g>
<g>
</g>
<g>
</g>
<g>
</g>
<g>
</g>
<g>
</g>
<g>
</g>
<g>
</g>
<g>
</g>
</svg>
