<?xml version="1.0" encoding="iso-8859-1"?>
<!-- Generator: Adobe Illustrator 16.0.0, SVG Export Plug-In . SVG Version: 6.00 Build 0)  -->
<!DOCTYPE svg PUBLIC "-//W3C//DTD SVG 1.1//EN" "http://www.w3.org/Graphics/SVG/1.1/DTD/svg11.dtd">
<svg version="1.1" id="Capa_1" xmlns="http://www.w3.org/2000/svg" xmlns:xlink="http://www.w3.org/1999/xlink" x="0px" y="0px"
	 width="75.5px" height="75.5px" viewBox="0 0 75.5 75.5" style="enable-background:new 0 0 75.5 75.5;" xml:space="preserve">
<g>
	<path d="M60.729,33.092c0,1.381-1.119,2.5-2.5,2.5s-2.5-1.119-2.5-2.5c0-2.041-1.66-3.701-3.698-3.701
		c-2.044,0-3.703,1.66-3.703,3.701c0,1.381-1.119,2.5-2.5,2.5c-1.382,0-2.5-1.119-2.5-2.5c0-4.797,3.903-8.701,8.703-8.701
		C56.828,24.39,60.729,28.295,60.729,33.092z M15.605,33.065c0-4.798,3.904-8.7,8.703-8.7c4.797,0,8.701,3.902,8.701,8.7
		c0,1.381-1.119,2.5-2.5,2.5c-1.381,0-2.5-1.119-2.5-2.5c0-2.04-1.66-3.7-3.701-3.7c-2.043,0-3.703,1.66-3.703,3.7
		c0,1.381-1.119,2.5-2.5,2.5S15.605,34.446,15.605,33.065z M52.028,44.451c-2.252,0-4.079-1.827-4.079-4.081
		c0-2.253,1.827-4.079,4.079-4.079s4.078,1.826,4.078,4.079C56.106,42.624,54.28,44.451,52.028,44.451z M28.385,40.37
		c0,2.254-1.826,4.081-4.078,4.081s-4.078-1.827-4.078-4.081c0-2.253,1.826-4.079,4.078-4.079S28.385,38.117,28.385,40.37z
		 M60.108,62.451c0,1.921-1.559,3.479-3.479,3.479H18.37c-1.92,0-3.479-1.558-3.479-3.479s1.559-3.479,3.479-3.479h38.26
		C58.551,58.973,60.108,60.53,60.108,62.451z M7.207,40.378c0,0,0.541,3.958-3.027,4.444c0,0-3.654,0.531-4.156-3.145
		c0,0-0.229-1.675,0.732-3.641c0,0,0.857-1.729,0.918-4.51C1.674,33.528,6.742,36.974,7.207,40.378z M59.553,13.913
		c1.219,1.818,1.219,3.508,1.219,3.508c0,3.711-3.692,3.678-3.692,3.678c-3.601,0-3.601-3.994-3.601-3.994
		c0-3.436,4.556-7.535,4.556-7.535C58.471,12.316,59.553,13.913,59.553,13.913z M75.5,49.396c0,3.712-3.693,3.679-3.693,3.679
		c-3.6,0-3.6-3.994-3.6-3.994c0-3.437,4.555-7.535,4.555-7.535c0.438,2.747,1.521,4.345,1.521,4.345
		C75.5,47.708,75.5,49.396,75.5,49.396z"/>
</g>
<g>
</g>
<g>
</g>
<g>
</g>
<g>
</g>
<g>
</g>
<g>
</g>
<g>
</g>
<g>
</g>
<g>
</g>
<g>
</g>
<g>
</g>
<g>
</g>
<g>
</g>
<g>
</g>
<g>
</g>
</svg>
