<?xml version="1.0" encoding="iso-8859-1"?>
<!-- Generator: Adobe Illustrator 16.0.0, SVG Export Plug-In . SVG Version: 6.00 Build 0)  -->
<!DOCTYPE svg PUBLIC "-//W3C//DTD SVG 1.1//EN" "http://www.w3.org/Graphics/SVG/1.1/DTD/svg11.dtd">
<svg version="1.1" id="Capa_1" xmlns="http://www.w3.org/2000/svg" xmlns:xlink="http://www.w3.org/1999/xlink" x="0px" y="0px"
	 width="52.061px" height="52.061px" viewBox="0 0 52.061 52.061" style="enable-background:new 0 0 52.061 52.061;"
	 xml:space="preserve">
<g>
	<path d="M33.653,12.118c0-4.797,3.903-8.701,8.703-8.701c4.797,0,8.7,3.903,8.7,8.701c0,1.381-1.119,2.5-2.5,2.5
		s-2.5-1.119-2.5-2.5c0-2.041-1.66-3.701-3.7-3.701c-2.044,0-3.703,1.66-3.703,3.701c0,1.381-1.119,2.5-2.5,2.5
		C34.771,14.618,33.653,13.498,33.653,12.118z M5.93,12.091c0-4.797,3.904-8.701,8.703-8.701c4.797,0,8.701,3.903,8.701,8.701
		c0,1.381-1.119,2.5-2.5,2.5c-1.381,0-2.5-1.119-2.5-2.5c0-2.041-1.66-3.701-3.701-3.701c-2.042,0-3.703,1.66-3.703,3.701
		c0,1.381-1.119,2.5-2.5,2.5S5.93,13.472,5.93,12.091z M28.885,29.818c10.084,0,19.084,5.742,22.928,14.63
		c0.658,1.521-0.041,3.286-1.563,3.943c-1.521,0.66-3.284-0.042-3.942-1.562c-2.895-6.689-9.731-11.012-17.422-11.012
		c-7.869,0-14.747,4.319-17.522,11.004c-0.48,1.154-1.596,1.85-2.771,1.85c-0.385,0-0.773-0.073-1.15-0.229
		c-1.53-0.636-2.256-2.392-1.619-3.921C9.531,35.589,18.584,29.818,28.885,29.818z M0,27.247c0.001-3.435,4.556-7.535,4.556-7.535
		c0.438,2.747,1.52,4.344,1.52,4.344c1.218,1.818,1.218,3.507,1.218,3.507c0,3.712-3.692,3.68-3.692,3.68
		C0,31.241,0,27.247,0,27.247z"/>
</g>
<g>
</g>
<g>
</g>
<g>
</g>
<g>
</g>
<g>
</g>
<g>
</g>
<g>
</g>
<g>
</g>
<g>
</g>
<g>
</g>
<g>
</g>
<g>
</g>
<g>
</g>
<g>
</g>
<g>
</g>
</svg>
