<?xml version="1.0" encoding="iso-8859-1"?>
<!-- Generator: Adobe Illustrator 16.0.0, SVG Export Plug-In . SVG Version: 6.00 Build 0)  -->
<!DOCTYPE svg PUBLIC "-//W3C//DTD SVG 1.1//EN" "http://www.w3.org/Graphics/SVG/1.1/DTD/svg11.dtd">
<svg version="1.1" id="Capa_1" xmlns="http://www.w3.org/2000/svg" xmlns:xlink="http://www.w3.org/1999/xlink" x="0px" y="0px"
	 width="52.812px" height="52.812px" viewBox="0 0 52.812 52.812" style="enable-background:new 0 0 52.812 52.812;"
	 xml:space="preserve">
<g>
	<path d="M44.087,26.089H8.726c-4.687,0-8.486,3.8-8.486,8.485v9.752c0,4.688,3.799,8.486,8.486,8.486h35.362
		c4.687,0,8.485-3.8,8.485-8.486v-9.752C52.573,29.889,48.774,26.089,44.087,26.089z M12.331,49.51H7.009
		c-1.297-0.938-2.271-2.293-2.725-3.872v-4.176h8.047V49.51z M12.331,37.439H4.284v-4.175c0.454-1.578,1.428-2.934,2.725-3.872
		h5.322V37.439z M24.388,49.51h-8.033v-8.046h8.033V49.51z M24.388,37.439h-8.033v-8.047h8.033V37.439z M36.458,49.51h-8.032v-8.046
		h8.032V49.51z M36.458,37.439h-8.032v-8.047h8.032V37.439z M48.529,45.638c-0.454,1.578-1.428,2.933-2.725,3.872h-5.322v-8.046
		h8.047V45.638z M48.529,37.439h-8.047v-8.047h5.322c1.297,0.938,2.271,2.294,2.725,3.872V37.439z M1.761,5.373
		c-1.229-1.229-1.229-3.222,0-4.451s3.222-1.229,4.451,0l9.456,9.455c0.014,0.014,0.023,0.031,0.038,0.046
		c1.16,1.127,1.884,2.701,1.884,4.446c0,3.426-2.777,6.203-6.2,6.203c-3.423,0-6.201-2.777-6.201-6.203
		c0-1.678,0.67-3.198,1.754-4.315L1.761,5.373z M35.22,14.87c0-1.745,0.725-3.319,1.885-4.446c0.014-0.015,0.023-0.032,0.037-0.046
		l9.457-9.455c1.229-1.229,3.222-1.229,4.451,0c1.229,1.229,1.229,3.222-0.002,4.451l-5.181,5.182
		c1.083,1.117,1.753,2.637,1.753,4.315c0,3.426-2.777,6.203-6.199,6.203C37.998,21.074,35.22,18.295,35.22,14.87z"/>
</g>
<g>
</g>
<g>
</g>
<g>
</g>
<g>
</g>
<g>
</g>
<g>
</g>
<g>
</g>
<g>
</g>
<g>
</g>
<g>
</g>
<g>
</g>
<g>
</g>
<g>
</g>
<g>
</g>
<g>
</g>
</svg>
