<?xml version="1.0" encoding="iso-8859-1"?>
<!-- Generator: Adobe Illustrator 16.0.0, SVG Export Plug-In . SVG Version: 6.00 Build 0)  -->
<!DOCTYPE svg PUBLIC "-//W3C//DTD SVG 1.1//EN" "http://www.w3.org/Graphics/SVG/1.1/DTD/svg11.dtd">
<svg version="1.1" id="Capa_1" xmlns="http://www.w3.org/2000/svg" xmlns:xlink="http://www.w3.org/1999/xlink" x="0px" y="0px"
	 width="46.469px" height="46.469px" viewBox="0 0 46.469 46.469" style="enable-background:new 0 0 46.469 46.469;"
	 xml:space="preserve">
<g>
	<path d="M31.562,6.321c0-3.424,2.78-6.201,6.203-6.201s6.2,2.777,6.2,6.201c0,3.426-2.777,6.203-6.2,6.203
		S31.562,9.746,31.562,6.321z M0.23,31.646c-0.636-1.529,0.089-3.285,1.62-3.922c0.376-0.156,0.766-0.23,1.149-0.23
		c1.176,0.002,2.292,0.697,2.771,1.852c2.776,6.685,9.655,11.004,17.523,11.004c7.689,0,14.527-4.321,17.421-11.012
		c0.658-1.52,2.424-2.221,3.943-1.562c1.521,0.658,2.221,2.424,1.563,3.945c-3.843,8.887-12.843,14.629-22.928,14.629
		C12.994,46.349,3.94,40.576,0.23,31.646z M3.492,6.368c0-0.338,0.036-0.668,0.089-0.992c0.476,2.93,3.008,5.166,6.065,5.166
		c3.062,0,5.593-2.236,6.067-5.166c0.052,0.324,0.087,0.654,0.087,0.992c0,3.4-2.756,6.156-6.154,6.156
		C6.25,12.524,3.492,9.768,3.492,6.368z"/>
</g>
<g>
</g>
<g>
</g>
<g>
</g>
<g>
</g>
<g>
</g>
<g>
</g>
<g>
</g>
<g>
</g>
<g>
</g>
<g>
</g>
<g>
</g>
<g>
</g>
<g>
</g>
<g>
</g>
<g>
</g>
</svg>
