<?xml version="1.0" encoding="iso-8859-1"?>
<!-- Generator: Adobe Illustrator 16.0.0, SVG Export Plug-In . SVG Version: 6.00 Build 0)  -->
<!DOCTYPE svg PUBLIC "-//W3C//DTD SVG 1.1//EN" "http://www.w3.org/Graphics/SVG/1.1/DTD/svg11.dtd">
<svg version="1.1" id="Capa_1" xmlns="http://www.w3.org/2000/svg" xmlns:xlink="http://www.w3.org/1999/xlink" x="0px" y="0px"
	 width="46.47px" height="46.47px" viewBox="0 0 46.47 46.47" style="enable-background:new 0 0 46.47 46.47;" xml:space="preserve"
	>
<g>
	<path d="M31.562,6.323c0-1.198,2.78-2.17,6.203-2.17s6.201,0.972,6.201,2.17c0,1.199-2.777,2.171-6.201,2.171
		C34.343,8.494,31.562,7.521,31.562,6.323z M46.223,31.72C42.38,40.607,33.38,46.349,23.294,46.349
		c-10.301,0-19.354-5.771-23.064-14.703c-0.636-1.53,0.089-3.286,1.62-3.922c0.376-0.155,0.766-0.229,1.15-0.229
		c1.176,0,2.292,0.696,2.771,1.851c2.777,6.685,9.655,11.004,17.523,11.004c7.69,0,14.528-4.322,17.421-11.012
		c0.658-1.521,2.424-2.222,3.943-1.562C46.181,28.433,46.881,30.199,46.223,31.72z M3.445,6.322c0-3.423,2.777-6.201,6.201-6.201
		c3.423,0,6.2,2.777,6.2,6.201c0,3.426-2.777,6.203-6.2,6.203C6.222,12.524,3.445,9.748,3.445,6.322z"/>
</g>
<g>
</g>
<g>
</g>
<g>
</g>
<g>
</g>
<g>
</g>
<g>
</g>
<g>
</g>
<g>
</g>
<g>
</g>
<g>
</g>
<g>
</g>
<g>
</g>
<g>
</g>
<g>
</g>
<g>
</g>
</svg>
