<?xml version="1.0" encoding="iso-8859-1"?>
<!-- Generator: Adobe Illustrator 16.0.0, SVG Export Plug-In . SVG Version: 6.00 Build 0)  -->
<!DOCTYPE svg PUBLIC "-//W3C//DTD SVG 1.1//EN" "http://www.w3.org/Graphics/SVG/1.1/DTD/svg11.dtd">
<svg version="1.1" id="Capa_1" xmlns="http://www.w3.org/2000/svg" xmlns:xlink="http://www.w3.org/1999/xlink" x="0px" y="0px"
	 width="63.893px" height="63.893px" viewBox="0 0 63.893 63.893" style="enable-background:new 0 0 63.893 63.893;"
	 xml:space="preserve">
<g>
	<path d="M31.95,63.893c-5.986-2.164-9.529-6.354-10.531-12.457c-0.188-1.142-0.281-2.359-0.279-3.621
		c0.004-2.584,0.406-4.77,0.693-5.996c0.377-0.064,0.805-0.098,1.273-0.098c3.557,0,8.074,1.801,8.113,1.816
		c0.01,0.004,0.092,0.035,0.104,0.038c0.438,0.151,0.916,0.142,1.357-0.038c0.043-0.018,4.551-1.816,8.113-1.816
		c0.469,0,0.896,0.032,1.275,0.098c0.289,1.224,0.694,3.402,0.705,5.99c0.004,1.256-0.089,2.474-0.275,3.619
		C41.505,57.527,37.956,61.721,31.95,63.893z M19.471,38.359c-0.543,0.228-0.955,0.684-1.129,1.252
		c-0.008,0.025-0.75,2.521-0.99,6.021c-3.48-2.146-5.908-5.183-7.186-9.029c-0.369-1.539-0.41-3.828,0.088-4.467
		c0.068-0.086,0.338-0.123,0.547-0.127c0.326,0.006,0.871,0.053,1.361,0.164c2.055,1.012,9.283,4.166,19.539,4.166
		c6.785,0,13.502-1.398,19.887-4.135c0.996-0.244,1.912-0.244,2.047-0.07c0.5,0.643,0.459,2.928,0.103,4.426
		c-1.287,3.885-3.715,6.922-7.191,9.066c-0.242-3.542-0.983-5.994-0.99-6.014c-0.174-0.569-0.584-1.025-1.129-1.254
		c-1.008-0.42-2.229-0.635-3.633-0.635c-3.389,0-7.195,1.229-8.844,1.824c-1.645-0.597-5.445-1.824-8.844-1.824
		C21.702,37.725,20.479,37.939,19.471,38.359z M12.157,6.201C12.157,2.777,14.934,0,18.358,0c3.422,0,6.199,2.777,6.199,6.201
		c0,3.426-2.777,6.203-6.199,6.203C14.934,12.404,12.157,9.626,12.157,6.201z M40.272,6.044c0-1.197,2.778-2.17,6.202-2.17
		c3.425,0,6.201,0.973,6.201,2.17c0,1.199-2.776,2.172-6.201,2.172C43.051,8.216,40.272,7.244,40.272,6.044z"/>
</g>
<g>
</g>
<g>
</g>
<g>
</g>
<g>
</g>
<g>
</g>
<g>
</g>
<g>
</g>
<g>
</g>
<g>
</g>
<g>
</g>
<g>
</g>
<g>
</g>
<g>
</g>
<g>
</g>
<g>
</g>
</svg>
