<?xml version="1.0" encoding="iso-8859-1"?>
<!-- Generator: Adobe Illustrator 16.0.0, SVG Export Plug-In . SVG Version: 6.00 Build 0)  -->
<!DOCTYPE svg PUBLIC "-//W3C//DTD SVG 1.1//EN" "http://www.w3.org/Graphics/SVG/1.1/DTD/svg11.dtd">
<svg version="1.1" id="Capa_1" xmlns="http://www.w3.org/2000/svg" xmlns:xlink="http://www.w3.org/1999/xlink" x="0px" y="0px"
	 width="64.532px" height="64.532px" viewBox="0 0 64.532 64.532" style="enable-background:new 0 0 64.532 64.532;"
	 xml:space="preserve">
<g>
	<path d="M55.254,60.306c0.656,1.521-0.043,3.287-1.562,3.945c-1.521,0.659-3.287-0.042-3.945-1.563
		c-2.893-6.688-9.729-11.012-17.42-11.012c-7.869,0-14.748,4.32-17.522,11.005c-0.48,1.153-1.597,1.85-2.771,1.852
		c-0.385,0-0.772-0.074-1.149-0.23c-1.531-0.637-2.257-2.393-1.619-3.922c3.709-8.933,12.764-14.703,23.063-14.703
		C42.411,45.677,51.411,51.419,55.254,60.306z M15.787,30.19c-1.688-1.688-1.688-4.426,0-6.113c1.689-1.689,4.429-1.689,6.117,0
		s1.688,4.429,0,6.115C20.218,31.881,17.479,31.881,15.787,30.19z M31.284,5.708c0.541-1.596,2.271-2.452,3.869-1.911l4.117,1.394
		l2.248-3.72c0.873-1.44,2.748-1.903,4.188-1.031c1.441,0.871,1.904,2.748,1.031,4.188l-1.551,2.566l2.246,0.761
		c1.596,0.542,2.451,2.272,1.91,3.869c-0.539,1.596-2.271,2.452-3.869,1.91l-3.521-1.192l-1.924,3.181
		c-0.871,1.443-2.746,1.906-4.188,1.033c-1.441-0.871-1.904-2.747-1.031-4.189l1.227-2.028l-2.842-0.962
		C31.599,9.036,30.743,7.303,31.284,5.708z M47.698,24.006c1.688,1.688,1.688,4.426,0,6.113c-1.69,1.69-4.43,1.69-6.117,0.002
		c-1.688-1.687-1.688-4.426,0-6.115C43.271,22.316,46.009,22.316,47.698,24.006z"/>
</g>
<g>
</g>
<g>
</g>
<g>
</g>
<g>
</g>
<g>
</g>
<g>
</g>
<g>
</g>
<g>
</g>
<g>
</g>
<g>
</g>
<g>
</g>
<g>
</g>
<g>
</g>
<g>
</g>
<g>
</g>
</svg>
