<?xml version="1.0" encoding="iso-8859-1"?>
<!-- Generator: Adobe Illustrator 16.0.0, SVG Export Plug-In . SVG Version: 6.00 Build 0)  -->
<!DOCTYPE svg PUBLIC "-//W3C//DTD SVG 1.1//EN" "http://www.w3.org/Graphics/SVG/1.1/DTD/svg11.dtd">
<svg version="1.1" id="Capa_1" xmlns="http://www.w3.org/2000/svg" xmlns:xlink="http://www.w3.org/1999/xlink" x="0px" y="0px"
	 width="54.562px" height="54.562px" viewBox="0 0 54.562 54.562" style="enable-background:new 0 0 54.562 54.562;"
	 xml:space="preserve">
<g>
	<path d="M26.81,21.826c9.023,0,16.363,7.341,16.363,16.366c0,9.026-7.34,16.37-16.363,16.37s-16.363-7.344-16.363-16.37
		C10.446,29.167,17.786,21.826,26.81,21.826z M2.789,10.928c-0.055-0.113-0.082-0.237-0.082-0.359c0-0.183,0.062-0.363,0.175-0.506
		l7.695-9.755C10.735,0.111,10.969,0,11.222,0s0.486,0.111,0.641,0.304l7.697,9.757c0.189,0.237,0.229,0.58,0.1,0.859
		c-0.146,0.293-0.428,0.467-0.741,0.467h-3.554c-0.181,0-0.351-0.083-0.463-0.225l-3.68-4.664l-3.681,4.664
		c-0.112,0.141-0.281,0.225-0.462,0.225H3.527C3.213,11.387,2.923,11.207,2.789,10.928z M34.908,10.928
		c-0.055-0.113-0.082-0.237-0.082-0.359c0-0.183,0.062-0.363,0.175-0.506l7.695-9.755C42.854,0.111,43.088,0,43.341,0
		s0.486,0.111,0.642,0.304l7.697,9.757c0.188,0.237,0.229,0.58,0.1,0.859c-0.146,0.293-0.428,0.467-0.741,0.467h-3.554
		c-0.182,0-0.352-0.083-0.463-0.225l-3.681-4.664l-3.681,4.664c-0.112,0.141-0.281,0.225-0.462,0.225h-3.552
		C35.332,11.387,35.042,11.207,34.908,10.928z"/>
</g>
<g>
</g>
<g>
</g>
<g>
</g>
<g>
</g>
<g>
</g>
<g>
</g>
<g>
</g>
<g>
</g>
<g>
</g>
<g>
</g>
<g>
</g>
<g>
</g>
<g>
</g>
<g>
</g>
<g>
</g>
</svg>
