<?xml version="1.0" encoding="iso-8859-1"?>
<!-- Generator: Adobe Illustrator 16.0.0, SVG Export Plug-In . SVG Version: 6.00 Build 0)  -->
<!DOCTYPE svg PUBLIC "-//W3C//DTD SVG 1.1//EN" "http://www.w3.org/Graphics/SVG/1.1/DTD/svg11.dtd">
<svg version="1.1" id="Capa_1" xmlns="http://www.w3.org/2000/svg" xmlns:xlink="http://www.w3.org/1999/xlink" x="0px" y="0px"
	 width="57.551px" height="57.551px" viewBox="0 0 57.551 57.551" style="enable-background:new 0 0 57.551 57.551;"
	 xml:space="preserve">
<g>
	<path d="M22.029,39.409c0-10.015,0.823-18.138,8.001-18.138c7.177,0,9.998,8.124,9.998,18.138c0,10.019-2.821,18.142-9.998,18.142
		C22.852,57.551,22.029,49.428,22.029,39.409z M8.517,3.643C8.517,2.28,8.962,1.024,9.706,0c1.12,1.609,2.981,2.666,5.09,2.666
		c2.062,0,3.884-1.012,5.011-2.561c0.698,1.004,1.11,2.222,1.11,3.537c0,3.424-2.776,6.201-6.2,6.201
		C11.295,9.844,8.517,7.067,8.517,3.643z M36.635,3.643c0-1.363,0.444-2.619,1.188-3.643c1.121,1.609,2.981,2.666,5.091,2.666
		c2.062,0,3.884-1.012,5.011-2.561c0.698,1.004,1.109,2.222,1.109,3.537c0,3.424-2.775,6.201-6.199,6.201
		C39.413,9.844,36.635,7.067,36.635,3.643z"/>
</g>
<g>
</g>
<g>
</g>
<g>
</g>
<g>
</g>
<g>
</g>
<g>
</g>
<g>
</g>
<g>
</g>
<g>
</g>
<g>
</g>
<g>
</g>
<g>
</g>
<g>
</g>
<g>
</g>
<g>
</g>
</svg>
