<?xml version="1.0" encoding="iso-8859-1"?>
<!-- Generator: Adobe Illustrator 16.0.0, SVG Export Plug-In . SVG Version: 6.00 Build 0)  -->
<!DOCTYPE svg PUBLIC "-//W3C//DTD SVG 1.1//EN" "http://www.w3.org/Graphics/SVG/1.1/DTD/svg11.dtd">
<svg version="1.1" id="Capa_1" xmlns="http://www.w3.org/2000/svg" xmlns:xlink="http://www.w3.org/1999/xlink" x="0px" y="0px"
	 width="103.696px" height="103.696px" viewBox="0 0 103.696 103.696" style="enable-background:new 0 0 103.696 103.696;"
	 xml:space="preserve">
<g>
	<path d="M51.778,56.598c-11.246,0-21.281,7.314-25.564,18.635c-0.191,0.507-0.148,1.09,0.117,1.551s0.715,0.738,1.197,0.74
		l48.639,0.068h0.002c0.479,0,0.926-0.273,1.191-0.729c0.268-0.455,0.316-1.033,0.133-1.54
		C73.358,63.947,63.265,56.598,51.778,56.598z M32.744,74.82l-2.469-0.002c-0.43-0.002-0.828-0.202-1.066-0.534
		c-0.234-0.333-0.273-0.754-0.104-1.119c0.533-1.144,1.178-2.226,1.9-3.249h1.738L32.744,74.82L32.744,74.82z M62.989,62
		c2.641,1.154,5.018,2.713,7.014,4.615h-7.014V62z M46.088,74.836l-9.785-0.012v-4.908h9.785V74.836z M46.088,66.616h-9.785V64.6
		c2.834-2.045,6.17-3.52,9.785-4.283V66.616z M59.431,74.85l-9.786-0.01v-4.925h9.786V74.85z M59.431,66.616h-9.786v-6.81
		c0.729-0.057,1.461-0.094,2.201-0.094c2.635,0,5.186,0.359,7.584,1.023V66.616z M72.774,74.866l-9.785-0.011v-4.939h9.785V74.866z
		 M62.584,45.155c-1.229-1.229-1.229-3.221,0-4.451l9.457-9.455c1.229-1.229,3.222-1.229,4.451,0s1.229,3.222-0.002,4.451
		l-9.455,9.455C65.808,46.384,63.813,46.384,62.584,45.155z M76.696,47.53c0,2.254-1.826,4.08-4.078,4.08s-4.078-1.826-4.078-4.08
		c0-2.253,1.826-4.08,4.078-4.08S76.696,45.277,76.696,47.53z M27.203,35.7c-1.229-1.229-1.229-3.223,0-4.451s3.221-1.229,4.451,0
		l9.455,9.455c1.229,1.23,1.229,3.223,0,4.451s-3.223,1.229-4.451,0L27.203,35.7z M31.077,43.45c2.252,0,4.08,1.827,4.08,4.08
		c0,2.254-1.828,4.08-4.08,4.08s-4.078-1.826-4.078-4.08C26.998,45.277,28.825,43.45,31.077,43.45z M85.466,103.696H18.231
		c-10.053,0-18.23-8.179-18.23-18.229V18.23C0.001,8.178,8.179,0,18.231,0h67.235c10.053,0,18.229,8.178,18.229,18.23v67.235
		C103.696,95.518,95.519,103.696,85.466,103.696z M18.231,8.579c-5.322,0-9.652,4.33-9.652,9.651v67.235
		c0,5.321,4.33,9.651,9.652,9.651h67.235c5.321,0,9.651-4.33,9.651-9.651V18.23c0-5.321-4.33-9.651-9.651-9.651H18.231z"/>
</g>
<g>
</g>
<g>
</g>
<g>
</g>
<g>
</g>
<g>
</g>
<g>
</g>
<g>
</g>
<g>
</g>
<g>
</g>
<g>
</g>
<g>
</g>
<g>
</g>
<g>
</g>
<g>
</g>
<g>
</g>
</svg>
