<?xml version="1.0" encoding="iso-8859-1"?>
<!-- Generator: Adobe Illustrator 16.0.0, SVG Export Plug-In . SVG Version: 6.00 Build 0)  -->
<!DOCTYPE svg PUBLIC "-//W3C//DTD SVG 1.1//EN" "http://www.w3.org/Graphics/SVG/1.1/DTD/svg11.dtd">
<svg version="1.1" id="Capa_1" xmlns="http://www.w3.org/2000/svg" xmlns:xlink="http://www.w3.org/1999/xlink" x="0px" y="0px"
	 width="103.696px" height="103.695px" viewBox="0 0 103.696 103.695" style="enable-background:new 0 0 103.696 103.695;"
	 xml:space="preserve">
<g>
	<path d="M44.648,89.396c3.139,0.939,6.307,1.385,9.426,1.385c14.191,0,27.332-9.25,31.604-23.523l-26.922,1.051L44.648,89.396z
		 M55.344,86.736c-0.422,0.02-0.845,0.045-1.271,0.045c-0.927,0-1.853-0.045-2.773-0.135l4.043-6.045V86.736z M76.01,71.639
		l3.602-0.142c-1.01,1.867-2.227,3.599-3.602,5.183V71.639z M67.178,71.982l5.832-0.227v7.911c-1.779,1.537-3.734,2.867-5.832,3.938
		V71.982z M64.178,72.1v12.824c-1.873,0.705-3.826,1.223-5.834,1.526V76.117l2.604-3.891L64.178,72.1z M62.583,45.154
		c-1.229-1.229-1.229-3.221,0-4.451l9.457-9.455c1.229-1.229,3.222-1.229,4.451,0s1.229,3.223-0.002,4.451l-9.455,9.455
		C65.807,46.382,63.813,46.382,62.583,45.154z M76.696,47.529c0,2.254-1.826,4.08-4.078,4.08s-4.078-1.826-4.078-4.08
		c0-2.252,1.826-4.08,4.078-4.08S76.696,45.277,76.696,47.529z M41.11,40.702c1.229,1.23,1.229,3.223,0,4.451s-3.223,1.229-4.451,0
		l-9.455-9.455c-1.229-1.229-1.229-3.223,0-4.451s3.221-1.229,4.451,0L41.11,40.702z M35.157,47.529c0,2.254-1.828,4.08-4.08,4.08
		s-4.078-1.826-4.078-4.08c0-2.252,1.826-4.08,4.078-4.08S35.157,45.277,35.157,47.529z M85.465,103.695H18.23
		C8.178,103.695,0,95.518,0,85.465V18.23C0,8.177,8.179,0,18.23,0h67.235c10.053,0,18.229,8.178,18.229,18.23v67.235
		C103.696,95.518,95.518,103.695,85.465,103.695z M18.23,8.577c-5.322,0-9.652,4.33-9.652,9.652v67.234
		c0,5.322,4.33,9.652,9.652,9.652h67.235c5.321,0,9.651-4.33,9.651-9.652V18.23c0-5.322-4.33-9.652-9.651-9.652L18.23,8.577
		L18.23,8.577z"/>
</g>
<g>
</g>
<g>
</g>
<g>
</g>
<g>
</g>
<g>
</g>
<g>
</g>
<g>
</g>
<g>
</g>
<g>
</g>
<g>
</g>
<g>
</g>
<g>
</g>
<g>
</g>
<g>
</g>
<g>
</g>
</svg>
