<?xml version="1.0" encoding="iso-8859-1"?>
<!-- Generator: Adobe Illustrator 16.0.0, SVG Export Plug-In . SVG Version: 6.00 Build 0)  -->
<!DOCTYPE svg PUBLIC "-//W3C//DTD SVG 1.1//EN" "http://www.w3.org/Graphics/SVG/1.1/DTD/svg11.dtd">
<svg version="1.1" id="Capa_1" xmlns="http://www.w3.org/2000/svg" xmlns:xlink="http://www.w3.org/1999/xlink" x="0px" y="0px"
	 width="103.696px" height="103.696px" viewBox="0 0 103.696 103.696" style="enable-background:new 0 0 103.696 103.696;"
	 xml:space="preserve">
<g>
	<path d="M74.458,69.848c0,1.922-1.558,3.479-3.479,3.479H32.722c-1.921,0-3.479-1.557-3.479-3.479c0-1.92,1.558-3.478,3.479-3.478
		h38.259C72.901,66.37,74.458,67.928,74.458,69.848z M32.386,40.169l-5.182-5.182c-1.229-1.229-1.229-3.222,0-4.451
		s3.222-1.229,4.451,0l9.456,9.455c0.014,0.014,0.023,0.031,0.037,0.045c1.161,1.127,1.885,2.702,1.885,4.447
		c0,3.426-2.777,6.203-6.2,6.203c-3.423,0-6.201-2.777-6.201-6.203C30.632,42.806,31.303,41.286,32.386,40.169z M76.493,30.537
		c1.229,1.229,1.229,3.222,0,4.451l-5.182,5.182c1.082,1.117,1.754,2.637,1.754,4.315c0,3.426-2.777,6.203-6.201,6.203
		s-6.2-2.777-6.2-6.203c0-1.745,0.724-3.32,1.886-4.447c0.014-0.014,0.021-0.031,0.036-0.045l9.456-9.455
		C73.27,29.308,75.264,29.308,76.493,30.537z M85.467,103.696H18.23C8.179,103.696,0,95.518,0,85.467V18.23C0,8.178,8.179,0,18.23,0
		h67.235c10.053,0,18.23,8.178,18.23,18.23v67.235C103.697,95.518,95.518,103.696,85.467,103.696z M18.23,8.579
		c-5.321,0-9.651,4.33-9.651,9.651v67.235c0,5.321,4.33,9.651,9.651,9.651h67.235c5.321,0,9.651-4.33,9.651-9.651V18.23
		c0-5.321-4.33-9.651-9.651-9.651H18.23z"/>
</g>
<g>
</g>
<g>
</g>
<g>
</g>
<g>
</g>
<g>
</g>
<g>
</g>
<g>
</g>
<g>
</g>
<g>
</g>
<g>
</g>
<g>
</g>
<g>
</g>
<g>
</g>
<g>
</g>
<g>
</g>
</svg>
