<?xml version="1.0" encoding="iso-8859-1"?>
<!-- Generator: Adobe Illustrator 16.0.0, SVG Export Plug-In . SVG Version: 6.00 Build 0)  -->
<!DOCTYPE svg PUBLIC "-//W3C//DTD SVG 1.1//EN" "http://www.w3.org/Graphics/SVG/1.1/DTD/svg11.dtd">
<svg version="1.1" id="Capa_1" xmlns="http://www.w3.org/2000/svg" xmlns:xlink="http://www.w3.org/1999/xlink" x="0px" y="0px"
	 width="103.696px" height="103.696px" viewBox="0 0 103.696 103.696" style="enable-background:new 0 0 103.696 103.696;"
	 xml:space="preserve">
<g>
	<path d="M34.168,82.877h35.36c4.687,0,8.485-3.8,8.485-8.486v-9.752c0-4.687-3.799-8.485-8.485-8.485h-35.36
		c-4.687,0-8.486,3.8-8.486,8.485v9.752C25.682,79.077,29.481,82.877,34.168,82.877z M65.924,59.456h5.321
		c1.297,0.938,2.271,2.294,2.726,3.872v4.176h-8.047V59.456z M65.924,71.525h8.047v4.176c-0.455,1.578-1.428,2.934-2.726,3.872
		h-5.321V71.525z M53.868,59.456h8.033v8.048h-8.033V59.456z M53.868,71.525h8.033v8.047h-8.033V71.525z M41.798,59.456h8.033v8.048
		h-8.033V59.456z M41.798,71.525h8.033v8.047h-8.033V71.525z M29.727,63.328c0.454-1.578,1.428-2.934,2.725-3.872h5.322v8.048
		h-8.047V63.328z M29.727,71.525h8.047v8.047h-5.322c-1.297-0.938-2.271-2.293-2.725-3.872V71.525z M27.204,34.988
		c-1.229-1.229-1.229-3.222,0-4.451s3.222-1.229,4.451,0l9.456,9.455c1.229,1.229,1.229,3.222,0,4.451
		c-1.229,1.229-3.222,1.229-4.451,0L27.204,34.988z M62.585,44.444c-1.229-1.229-1.228-3.223,0-4.451l9.456-9.455
		c1.229-1.229,3.223-1.229,4.451,0s1.229,3.222,0,4.451l-9.456,9.456C65.807,45.672,63.815,45.673,62.585,44.444z"/>
	<g>
		<path d="M85.467,103.696H18.23C8.179,103.696,0,95.518,0,85.467V18.23C0,8.178,8.179,0,18.23,0h67.235
			c10.053,0,18.23,8.178,18.23,18.23v67.235C103.697,95.518,95.518,103.696,85.467,103.696z M18.23,8.579
			c-5.321,0-9.651,4.33-9.651,9.651v67.235c0,5.321,4.33,9.651,9.651,9.651h67.235c5.321,0,9.651-4.33,9.651-9.651V18.23
			c0-5.321-4.33-9.651-9.651-9.651H18.23z"/>
	</g>
</g>
<g>
</g>
<g>
</g>
<g>
</g>
<g>
</g>
<g>
</g>
<g>
</g>
<g>
</g>
<g>
</g>
<g>
</g>
<g>
</g>
<g>
</g>
<g>
</g>
<g>
</g>
<g>
</g>
<g>
</g>
</svg>
