<?xml version="1.0" encoding="iso-8859-1"?>
<!-- Generator: Adobe Illustrator 16.0.0, SVG Export Plug-In . SVG Version: 6.00 Build 0)  -->
<!DOCTYPE svg PUBLIC "-//W3C//DTD SVG 1.1//EN" "http://www.w3.org/Graphics/SVG/1.1/DTD/svg11.dtd">
<svg version="1.1" id="Capa_1" xmlns="http://www.w3.org/2000/svg" xmlns:xlink="http://www.w3.org/1999/xlink" x="0px" y="0px"
	 width="103.696px" height="103.696px" viewBox="0 0 103.696 103.696" style="enable-background:new 0 0 103.696 103.696;"
	 xml:space="preserve">
<g>
	<path d="M27.528,77.521l48.639,0.068h0.002c0.479,0,0.926-0.273,1.191-0.729c0.268-0.455,0.316-1.033,0.133-1.54
		c-4.135-11.374-14.229-18.724-25.715-18.724c-11.246,0-21.281,7.314-25.564,18.635c-0.191,0.507-0.148,1.09,0.117,1.551
		S27.045,77.521,27.528,77.521z M62.989,62c2.641,1.154,5.018,2.713,7.014,4.615h-7.014V62z M62.989,69.916h9.785v4.95l-9.785-0.011
		V69.916z M49.645,59.807c0.729-0.058,1.461-0.096,2.201-0.096c2.635,0,5.186,0.36,7.584,1.024v5.88h-9.786V59.807z M49.645,69.916
		h9.786v4.936l-9.786-0.012V69.916z M36.303,64.6c2.834-2.045,6.17-3.52,9.785-4.283v6.3h-9.785V64.6z M36.303,69.916h9.785v4.92
		l-9.785-0.012V69.916z M29.106,73.165c0.533-1.144,1.178-2.226,1.9-3.249h1.738v4.904l-2.469-0.002
		c-0.43-0.002-0.828-0.202-1.066-0.534C28.975,73.951,28.936,73.53,29.106,73.165z M27.703,35.436c-1.229-1.229-1.229-3.221,0-4.45
		s3.221-1.229,4.451,0.001l9.455,9.455c0.014,0.014,0.023,0.031,0.037,0.045c1.16,1.127,1.885,2.701,1.885,4.446
		c0,3.427-2.777,6.204-6.199,6.204c-3.424,0-6.201-2.776-6.201-6.204c0-1.678,0.67-3.198,1.754-4.315L27.703,35.436z M61.162,44.933
		c0-1.744,0.724-3.318,1.883-4.445c0.017-0.015,0.023-0.032,0.039-0.046l9.457-9.455c1.229-1.23,3.222-1.23,4.451-0.001
		s1.229,3.222-0.002,4.45l-5.183,5.182c1.084,1.117,1.754,2.637,1.754,4.315c0,3.427-2.776,6.204-6.198,6.204
		C63.94,51.137,61.162,48.36,61.162,44.933z M85.466,103.696H18.231c-10.053,0-18.23-8.179-18.23-18.229V18.23
		C0.001,8.178,8.179,0,18.231,0h67.235c10.053,0,18.229,8.178,18.229,18.23v67.235C103.696,95.518,95.519,103.696,85.466,103.696z
		 M18.231,8.579c-5.322,0-9.652,4.33-9.652,9.651v67.235c0,5.321,4.33,9.651,9.652,9.651h67.235c5.321,0,9.651-4.33,9.651-9.651
		V18.23c0-5.321-4.33-9.651-9.651-9.651H18.231z"/>
</g>
<g>
</g>
<g>
</g>
<g>
</g>
<g>
</g>
<g>
</g>
<g>
</g>
<g>
</g>
<g>
</g>
<g>
</g>
<g>
</g>
<g>
</g>
<g>
</g>
<g>
</g>
<g>
</g>
<g>
</g>
</svg>
