<?xml version="1.0" encoding="iso-8859-1"?>
<!-- Generator: Adobe Illustrator 16.0.0, SVG Export Plug-In . SVG Version: 6.00 Build 0)  -->
<!DOCTYPE svg PUBLIC "-//W3C//DTD SVG 1.1//EN" "http://www.w3.org/Graphics/SVG/1.1/DTD/svg11.dtd">
<svg version="1.1" id="Capa_1" xmlns="http://www.w3.org/2000/svg" xmlns:xlink="http://www.w3.org/1999/xlink" x="0px" y="0px"
	 width="103.696px" height="103.696px" viewBox="0 0 103.696 103.696" style="enable-background:new 0 0 103.696 103.696;"
	 xml:space="preserve">
<g>
	<path d="M27.204,34.988c-1.229-1.229-1.229-3.222,0-4.451s3.222-1.229,4.451,0l9.456,9.455c1.229,1.229,1.229,3.222,0,4.451
		c-1.229,1.229-3.222,1.229-4.451,0L27.204,34.988z M62.585,44.444c-1.229-1.229-1.228-3.223,0-4.451l9.456-9.455
		c1.229-1.229,3.223-1.229,4.451,0s1.229,3.222,0,4.451l-9.456,9.456C65.807,45.672,63.815,45.673,62.585,44.444z M51.778,56.598
		c-11.245,0-21.28,7.314-25.563,18.635c-0.191,0.507-0.148,1.09,0.117,1.551s0.715,0.738,1.197,0.74l48.638,0.068
		c0,0,0.001,0,0.002,0c0.479,0,0.926-0.273,1.191-0.729c0.267-0.455,0.316-1.033,0.132-1.54
		C73.358,63.947,63.264,56.598,51.778,56.598z M32.745,74.82l-2.469-0.002c-0.43-0.002-0.828-0.202-1.065-0.534
		c-0.235-0.333-0.274-0.754-0.104-1.119c0.533-1.144,1.178-2.226,1.9-3.249h1.738V74.82z M62.99,62
		c2.64,1.154,5.017,2.713,7.013,4.615H62.99V62z M46.089,74.836l-9.785-0.012v-4.908h9.785V74.836z M46.089,66.616h-9.785V64.6
		c2.835-2.045,6.17-3.52,9.785-4.283V66.616z M59.432,74.85l-9.786-0.01v-4.925h9.786V74.85z M59.432,66.616h-9.786v-6.81
		c0.728-0.057,1.46-0.094,2.2-0.094c2.636,0,5.186,0.359,7.585,1.023V66.616z M72.774,74.866l-9.784-0.011v-4.939h9.784V74.866z"/>
	<g>
		<path d="M85.467,103.696H18.23C8.179,103.696,0,95.518,0,85.467V18.23C0,8.178,8.179,0,18.23,0h67.235
			c10.053,0,18.23,8.178,18.23,18.23v67.235C103.697,95.518,95.518,103.696,85.467,103.696z M18.23,8.579
			c-5.321,0-9.651,4.33-9.651,9.651v67.235c0,5.321,4.33,9.651,9.651,9.651h67.235c5.321,0,9.651-4.33,9.651-9.651V18.23
			c0-5.321-4.33-9.651-9.651-9.651H18.23z"/>
	</g>
</g>
<g>
</g>
<g>
</g>
<g>
</g>
<g>
</g>
<g>
</g>
<g>
</g>
<g>
</g>
<g>
</g>
<g>
</g>
<g>
</g>
<g>
</g>
<g>
</g>
<g>
</g>
<g>
</g>
<g>
</g>
</svg>
