<?xml version="1.0" encoding="iso-8859-1"?>
<!-- Generator: Adobe Illustrator 16.0.0, SVG Export Plug-In . SVG Version: 6.00 Build 0)  -->
<!DOCTYPE svg PUBLIC "-//W3C//DTD SVG 1.1//EN" "http://www.w3.org/Graphics/SVG/1.1/DTD/svg11.dtd">
<svg version="1.1" id="Capa_1" xmlns="http://www.w3.org/2000/svg" xmlns:xlink="http://www.w3.org/1999/xlink" x="0px" y="0px"
	 width="103.696px" height="103.695px" viewBox="0 0 103.696 103.695" style="enable-background:new 0 0 103.696 103.695;"
	 xml:space="preserve">
<g>
	<path d="M38.259,44.691c-2.258,0-4.09-2.777-4.09-6.203c0-3.424,1.832-6.201,4.09-6.201c2.258,0,4.09,2.777,4.09,6.201
		C42.349,41.913,40.517,44.691,38.259,44.691z M70.467,38.488c0,3.426-1.832,6.203-4.091,6.203c-2.258,0-4.09-2.777-4.09-6.203
		c0-3.424,1.832-6.201,4.09-6.201C68.635,32.287,70.467,35.064,70.467,38.488z M64.68,69.987c0,8.183-5.754,14.84-12.833,14.84
		c-7.078,0-12.833-6.657-12.833-14.84c0-8.181,5.755-14.835,12.833-14.835C58.926,55.152,64.68,61.807,64.68,69.987z M71.542,23.364
		c0.545,1.649-0.352,3.432-1.999,3.978l-16.681,5.52c-0.194,0.065-0.395,0.111-0.602,0.138c-0.026,0.004-0.055,0.012-0.082,0.015
		c-0.108,0.012-0.222,0.008-0.333,0.007c-0.11,0.001-0.22,0.005-0.328-0.006c-0.029-0.003-0.058-0.012-0.087-0.016
		c-0.202-0.026-0.399-0.071-0.591-0.136l-16.686-5.522c-1.649-0.546-2.544-2.326-1.999-3.976c0.546-1.65,2.325-2.546,3.978-1.999
		l15.717,5.2l15.714-5.201C69.215,20.82,70.996,21.715,71.542,23.364z M85.465,103.695H18.23C8.178,103.695,0,95.518,0,85.465V18.23
		C0,8.177,8.179,0,18.23,0h67.235c10.053,0,18.229,8.178,18.229,18.23v67.235C103.696,95.518,95.518,103.695,85.465,103.695z
		 M18.23,8.577c-5.322,0-9.652,4.33-9.652,9.652v67.234c0,5.322,4.33,9.652,9.652,9.652h67.235c5.321,0,9.651-4.33,9.651-9.652
		V18.23c0-5.322-4.33-9.652-9.651-9.652L18.23,8.577L18.23,8.577z"/>
</g>
<g>
</g>
<g>
</g>
<g>
</g>
<g>
</g>
<g>
</g>
<g>
</g>
<g>
</g>
<g>
</g>
<g>
</g>
<g>
</g>
<g>
</g>
<g>
</g>
<g>
</g>
<g>
</g>
<g>
</g>
</svg>
