<?xml version="1.0" encoding="iso-8859-1"?>
<!-- Generator: Adobe Illustrator 16.0.0, SVG Export Plug-In . SVG Version: 6.00 Build 0)  -->
<!DOCTYPE svg PUBLIC "-//W3C//DTD SVG 1.1//EN" "http://www.w3.org/Graphics/SVG/1.1/DTD/svg11.dtd">
<svg version="1.1" id="Capa_1" xmlns="http://www.w3.org/2000/svg" xmlns:xlink="http://www.w3.org/1999/xlink" x="0px" y="0px"
	 width="103.696px" height="103.695px" viewBox="0 0 103.696 103.695" style="enable-background:new 0 0 103.696 103.695;"
	 xml:space="preserve">
<g>
	<path d="M73.536,76.368c-22.713,20.021-43.377,0-43.377,0c0-11.55,9.711-20.913,21.688-20.913S73.536,64.818,73.536,76.368z
		 M32.392,36.489c0-2.688,2.181-4.868,4.867-4.868c2.688,0,4.867,2.181,4.867,4.868c0,2.689-2.18,4.87-4.867,4.87
		C34.573,41.359,32.392,39.178,32.392,36.489z M75.245,36.489c0,4.347-3.523,7.87-7.867,7.87c-4.343,0-7.869-3.523-7.869-7.87
		c0-4.344,3.526-7.868,7.869-7.868C71.721,28.621,75.245,32.145,75.245,36.489z M85.465,103.695H18.23
		C8.178,103.695,0,95.518,0,85.465V18.23C0,8.177,8.179,0,18.23,0h67.235c10.053,0,18.229,8.178,18.229,18.23v67.235
		C103.696,95.518,95.518,103.695,85.465,103.695z M18.23,8.577c-5.322,0-9.652,4.33-9.652,9.652v67.234
		c0,5.322,4.33,9.652,9.652,9.652h67.235c5.321,0,9.651-4.33,9.651-9.652V18.23c0-5.322-4.33-9.652-9.651-9.652L18.23,8.577
		L18.23,8.577z"/>
</g>
<g>
</g>
<g>
</g>
<g>
</g>
<g>
</g>
<g>
</g>
<g>
</g>
<g>
</g>
<g>
</g>
<g>
</g>
<g>
</g>
<g>
</g>
<g>
</g>
<g>
</g>
<g>
</g>
<g>
</g>
</svg>
