<?xml version="1.0" encoding="iso-8859-1"?>
<!-- Generator: Adobe Illustrator 16.0.0, SVG Export Plug-In . SVG Version: 6.00 Build 0)  -->
<!DOCTYPE svg PUBLIC "-//W3C//DTD SVG 1.1//EN" "http://www.w3.org/Graphics/SVG/1.1/DTD/svg11.dtd">
<svg version="1.1" id="Capa_1" xmlns="http://www.w3.org/2000/svg" xmlns:xlink="http://www.w3.org/1999/xlink" x="0px" y="0px"
	 width="103.696px" height="103.696px" viewBox="0 0 103.696 103.696" style="enable-background:new 0 0 103.696 103.696;"
	 xml:space="preserve">
<g>
	<path d="M52.91,58.189c10.084,0,19.084,5.742,22.927,14.63c0.658,1.521-0.041,3.286-1.562,3.944
		c-1.521,0.66-3.285-0.043-3.943-1.563c-2.895-6.688-9.73-11.011-17.421-11.011c-7.868,0-14.747,4.318-17.523,11.004
		c-0.479,1.154-1.596,1.85-2.771,1.85c-0.384,0-0.773-0.074-1.15-0.23c-1.53-0.635-2.255-2.391-1.619-3.92
		C33.555,63.961,42.608,58.189,52.91,58.189z M32.06,37.489c0-3.423,2.777-6.201,6.201-6.201c3.423,0,6.199,2.777,6.199,6.201
		c0,3.426-2.776,6.203-6.199,6.203C34.836,43.692,32.06,40.915,32.06,37.489z M60.176,37.489c0-3.423,2.78-6.201,6.202-6.201
		c3.425,0,6.201,2.777,6.201,6.201c0,3.426-2.776,6.203-6.201,6.203C62.957,43.692,60.176,40.915,60.176,37.489z M19.407,46.886
		c2.374-2.483,8.499-2.301,8.499-2.301c-1.581,2.289-1.902,4.191-1.902,4.191c-0.375,2.156-1.542,3.376-1.542,3.376
		c-2.564,2.684-5.211,0.109-5.211,0.109C16.646,49.774,19.407,46.886,19.407,46.886z M19.812,62.512
		c1.652-1.729,5.917-1.603,5.917-1.603c-1.101,1.593-1.325,2.917-1.325,2.917c-0.261,1.501-1.073,2.352-1.073,2.352
		c-1.785,1.869-3.628,0.076-3.628,0.076C17.891,64.521,19.812,62.512,19.812,62.512z M85.467,103.696H18.23
		C8.179,103.696,0,95.518,0,85.467V18.23C0,8.178,8.179,0,18.23,0h67.235c10.053,0,18.23,8.178,18.23,18.23v67.235
		C103.697,95.518,95.518,103.696,85.467,103.696z M18.23,8.579c-5.321,0-9.651,4.33-9.651,9.651v67.235
		c0,5.321,4.33,9.651,9.651,9.651h67.235c5.321,0,9.651-4.33,9.651-9.651V18.23c0-5.321-4.33-9.651-9.651-9.651H18.23z"/>
</g>
<g>
</g>
<g>
</g>
<g>
</g>
<g>
</g>
<g>
</g>
<g>
</g>
<g>
</g>
<g>
</g>
<g>
</g>
<g>
</g>
<g>
</g>
<g>
</g>
<g>
</g>
<g>
</g>
<g>
</g>
</svg>
