<?xml version="1.0" encoding="iso-8859-1"?>
<!-- Generator: Adobe Illustrator 16.0.0, SVG Export Plug-In . SVG Version: 6.00 Build 0)  -->
<!DOCTYPE svg PUBLIC "-//W3C//DTD SVG 1.1//EN" "http://www.w3.org/Graphics/SVG/1.1/DTD/svg11.dtd">
<svg version="1.1" id="Capa_1" xmlns="http://www.w3.org/2000/svg" xmlns:xlink="http://www.w3.org/1999/xlink" x="0px" y="0px"
	 width="103.696px" height="103.696px" viewBox="0 0 103.696 103.696" style="enable-background:new 0 0 103.696 103.696;"
	 xml:space="preserve">
<g>
	<path d="M77.491,73.561c0.186,0.443,0.135,0.949-0.131,1.347c-0.268,0.397-0.715,0.637-1.192,0.637c-0.001,0-0.001,0-0.002,0
		l-48.638-0.06c-0.482,0-0.932-0.244-1.196-0.646c-0.264-0.404-0.31-0.914-0.118-1.357c4.285-9.902,14.318-16.303,25.563-16.303
		C63.264,57.178,73.356,63.609,77.491,73.561z M32.06,37.489c0-3.423,2.777-6.201,6.2-6.201c3.423,0,6.2,2.777,6.2,6.201
		c0,3.426-2.777,6.203-6.2,6.203C34.836,43.692,32.06,40.915,32.06,37.489z M60.176,37.489c0-3.423,2.78-6.201,6.203-6.201
		c3.424,0,6.2,2.777,6.2,6.201c0,3.426-2.776,6.203-6.2,6.203C62.957,43.692,60.176,40.915,60.176,37.489z M85.467,103.696H18.23
		C8.179,103.696,0,95.518,0,85.467V18.23C0,8.178,8.179,0,18.23,0h67.235c10.053,0,18.23,8.178,18.23,18.23v67.235
		C103.697,95.518,95.518,103.696,85.467,103.696z M18.23,8.579c-5.321,0-9.651,4.33-9.651,9.651v67.235
		c0,5.321,4.33,9.651,9.651,9.651h67.235c5.321,0,9.651-4.33,9.651-9.651V18.23c0-5.321-4.33-9.651-9.651-9.651H18.23z"/>
</g>
<g>
</g>
<g>
</g>
<g>
</g>
<g>
</g>
<g>
</g>
<g>
</g>
<g>
</g>
<g>
</g>
<g>
</g>
<g>
</g>
<g>
</g>
<g>
</g>
<g>
</g>
<g>
</g>
<g>
</g>
</svg>
