<?xml version="1.0" encoding="iso-8859-1"?>
<!-- Generator: Adobe Illustrator 16.0.0, SVG Export Plug-In . SVG Version: 6.00 Build 0)  -->
<!DOCTYPE svg PUBLIC "-//W3C//DTD SVG 1.1//EN" "http://www.w3.org/Graphics/SVG/1.1/DTD/svg11.dtd">
<svg version="1.1" id="Capa_1" xmlns="http://www.w3.org/2000/svg" xmlns:xlink="http://www.w3.org/1999/xlink" x="0px" y="0px"
	 width="103.695px" height="103.695px" viewBox="0 0 103.695 103.695" style="enable-background:new 0 0 103.695 103.695;"
	 xml:space="preserve">
<g>
	<path d="M31.89,45.827c-0.236,0.189-0.579,0.229-0.858,0.1c-0.294-0.146-0.468-0.428-0.468-0.741v-3.554
		c0-0.181,0.084-0.351,0.225-0.463l4.664-3.68l-4.664-3.681c-0.141-0.112-0.225-0.281-0.225-0.462v-3.552
		c0-0.313,0.181-0.604,0.46-0.738c0.112-0.055,0.236-0.082,0.358-0.082c0.183,0,0.363,0.062,0.507,0.175l9.755,7.695
		c0.197,0.158,0.308,0.392,0.308,0.645s-0.11,0.486-0.304,0.641L31.89,45.827z M62.992,38.132c-0.197-0.158-0.309-0.392-0.309-0.645
		s0.111-0.486,0.305-0.64l9.757-7.697c0.237-0.188,0.58-0.229,0.858-0.1c0.293,0.146,0.468,0.428,0.468,0.741v3.554
		c0,0.181-0.083,0.351-0.226,0.463l-4.664,3.68l4.664,3.681c0.143,0.112,0.226,0.281,0.226,0.462v3.552
		c0,0.313-0.181,0.604-0.459,0.738c-0.113,0.055-0.237,0.082-0.359,0.082c-0.183,0-0.362-0.062-0.506-0.175L62.992,38.132z
		 M62.545,59.52c-3.975,0-7.48,0.273-9.572,3.494c-2.09-3.221-5.597-3.494-9.571-3.494c-6.408,0-11.602,5.49-11.602,12.265
		c0,6.771,5.194,9.676,11.602,9.676h19.144c6.408,0,11.602-2.903,11.602-9.676C74.146,65.01,68.952,59.52,62.545,59.52z
		 M62.545,78.01H43.401c-4.598,0-8.338-1.367-8.338-6.227s3.741-8.814,8.338-8.814c4.279,0,5.887,0.467,6.88,1.998
		c0.609,0.938,1.616,1.498,2.691,1.498c1.074,0,2.082-0.562,2.69-1.498c0.993-1.531,2.601-1.998,6.88-1.998
		c4.598,0,8.338,3.955,8.338,8.814C70.883,76.643,67.143,78.01,62.545,78.01z M85.467,103.695H18.23
		C8.178,103.695,0,95.518,0,85.465V18.23C0,8.177,8.178,0,18.23,0h67.235c10.053,0,18.23,8.178,18.23,18.23v67.235
		C103.696,95.518,95.518,103.695,85.467,103.695z M18.23,8.577c-5.321,0-9.651,4.33-9.651,9.652v67.234
		c0,5.322,4.33,9.652,9.651,9.652h67.235c5.321,0,9.651-4.33,9.651-9.652V18.23c0-5.322-4.33-9.652-9.651-9.652L18.23,8.577
		L18.23,8.577z"/>
</g>
<g>
</g>
<g>
</g>
<g>
</g>
<g>
</g>
<g>
</g>
<g>
</g>
<g>
</g>
<g>
</g>
<g>
</g>
<g>
</g>
<g>
</g>
<g>
</g>
<g>
</g>
<g>
</g>
<g>
</g>
</svg>
