<?xml version="1.0" encoding="iso-8859-1"?>
<!-- Generator: Adobe Illustrator 16.0.0, SVG Export Plug-In . SVG Version: 6.00 Build 0)  -->
<!DOCTYPE svg PUBLIC "-//W3C//DTD SVG 1.1//EN" "http://www.w3.org/Graphics/SVG/1.1/DTD/svg11.dtd">
<svg version="1.1" id="Capa_1" xmlns="http://www.w3.org/2000/svg" xmlns:xlink="http://www.w3.org/1999/xlink" x="0px" y="0px"
	 width="103.696px" height="103.696px" viewBox="0 0 103.696 103.696" style="enable-background:new 0 0 103.696 103.696;"
	 xml:space="preserve">
<g>
	<path d="M24.857,38.623c0-1.738,1.409-3.147,3.147-3.147l13.373-0.001c0.027,0,0.054,0.007,0.081,0.008
		c1.61-0.018,3.226,0.581,4.453,1.809c2.423,2.423,2.423,6.35,0.003,8.771c-2.421,2.42-6.349,2.42-8.771-0.002
		c-1.186-1.187-1.782-2.736-1.806-4.292h-7.333C26.266,41.77,24.857,40.361,24.857,38.623z M63.709,38.717
		c0-1.738,1.409-3.147,3.147-3.147l13.373-0.001c0.027,0,0.054,0.007,0.08,0.008c1.61-0.018,3.227,0.581,4.453,1.809
		c2.424,2.423,2.424,6.35,0.004,8.771c-2.422,2.42-6.35,2.42-8.771-0.002c-1.188-1.187-1.781-2.736-1.807-4.292h-7.332
		C65.119,41.864,63.709,40.455,63.709,38.717z M34.533,64.379c9.86,0.311,32.958,1.909,34.469,10.012
		c0.253,1.356-0.643,2.662-2,2.916c-0.153,0.028-0.309,0.043-0.461,0.043c-1.181,0-2.229-0.84-2.455-2.043
		c-0.005-0.025-1.085-2.695-14.428-4.592c-7.636-1.086-15.207-1.334-15.283-1.338c-1.38-0.043-2.463-1.197-2.42-2.576
		c0.043-1.354,1.153-2.422,2.498-2.422C34.479,64.377,34.505,64.379,34.533,64.379z M85.466,103.696H18.231
		c-10.053,0-18.23-8.179-18.23-18.229V18.23C0.001,8.178,8.179,0,18.231,0h67.235c10.053,0,18.229,8.178,18.229,18.23v67.235
		C103.696,95.518,95.519,103.696,85.466,103.696z M18.231,8.579c-5.322,0-9.652,4.33-9.652,9.651v67.235
		c0,5.321,4.33,9.651,9.652,9.651h67.235c5.321,0,9.651-4.33,9.651-9.651V18.23c0-5.321-4.33-9.651-9.651-9.651H18.231z"/>
</g>
<g>
</g>
<g>
</g>
<g>
</g>
<g>
</g>
<g>
</g>
<g>
</g>
<g>
</g>
<g>
</g>
<g>
</g>
<g>
</g>
<g>
</g>
<g>
</g>
<g>
</g>
<g>
</g>
<g>
</g>
</svg>
