<?xml version="1.0" encoding="iso-8859-1"?>
<!-- Generator: Adobe Illustrator 16.0.0, SVG Export Plug-In . SVG Version: 6.00 Build 0)  -->
<!DOCTYPE svg PUBLIC "-//W3C//DTD SVG 1.1//EN" "http://www.w3.org/Graphics/SVG/1.1/DTD/svg11.dtd">
<svg version="1.1" id="Capa_1" xmlns="http://www.w3.org/2000/svg" xmlns:xlink="http://www.w3.org/1999/xlink" x="0px" y="0px"
	 width="103.696px" height="103.696px" viewBox="0 0 103.696 103.696" style="enable-background:new 0 0 103.696 103.696;"
	 xml:space="preserve">
<g>
	<path d="M76.169,60.664l-48.638-0.068c0,0-0.001,0-0.002,0c-0.479,0-0.926,0.273-1.191,0.729c-0.267,0.455-0.316,1.032-0.132,1.54
		C30.341,74.24,40.435,81.59,51.92,81.59c11.245,0,21.28-7.314,25.562-18.636c0.191-0.506,0.148-1.089-0.116-1.55
		S76.652,60.665,76.169,60.664z M40.708,76.186c-2.64-1.153-5.017-2.711-7.013-4.614h7.013V76.186z M40.708,68.27h-9.785V63.32
		l9.785,0.011V68.27z M54.053,78.381c-0.729,0.057-1.461,0.094-2.201,0.094c-2.636,0-5.186-0.359-7.585-1.023v-5.88h9.786V78.381z
		 M54.053,68.27h-9.786v-4.935l9.786,0.011V68.27z M67.395,73.586c-2.836,2.045-6.17,3.52-9.785,4.283V71.57h9.785V73.586z
		 M67.395,68.27H57.61v-4.92l9.785,0.013V68.27z M74.592,65.021c-0.533,1.144-1.178,2.225-1.899,3.248h-1.738v-4.903l2.47,0.002
		c0.43,0.001,0.827,0.202,1.064,0.534C74.723,64.236,74.762,64.656,74.592,65.021z M31.503,35.827c0-1.025,0.365-2.114,1.002-2.988
		c0.729-1,1.684-1.551,2.691-1.551c1,0,1.942,0.437,2.625,1.173c0.684-0.736,1.626-1.173,2.626-1.173
		c1.006,0,1.961,0.551,2.688,1.551c0.637,0.874,1.002,1.963,1.002,2.988c0,1.628-1.006,3.473-2.991,5.485
		c-1.414,1.434-2.812,2.425-2.87,2.466c-0.137,0.097-0.296,0.145-0.455,0.145c-0.156,0-0.313-0.046-0.446-0.138
		C37.136,43.62,31.503,39.717,31.503,35.827z M59.623,35.827c0-1.025,0.365-2.114,1.002-2.988c0.729-1,1.685-1.551,2.69-1.551
		c1,0,1.943,0.437,2.625,1.173c0.685-0.736,1.627-1.173,2.627-1.173c1.006,0,1.961,0.551,2.688,1.551
		c0.637,0.874,1.002,1.963,1.002,2.988c0,1.628-1.006,3.473-2.99,5.485c-1.414,1.434-2.812,2.425-2.871,2.466
		c-0.137,0.097-0.295,0.145-0.455,0.145c-0.155,0-0.312-0.046-0.445-0.138C65.254,43.62,59.623,39.717,59.623,35.827z
		 M85.467,103.696H18.23C8.179,103.696,0,95.518,0,85.467V18.23C0,8.178,8.179,0,18.23,0h67.235c10.053,0,18.23,8.178,18.23,18.23
		v67.235C103.697,95.518,95.518,103.696,85.467,103.696z M18.23,8.579c-5.321,0-9.651,4.33-9.651,9.651v67.235
		c0,5.321,4.33,9.651,9.651,9.651h67.235c5.321,0,9.651-4.33,9.651-9.651V18.23c0-5.321-4.33-9.651-9.651-9.651H18.23z"/>
</g>
<g>
</g>
<g>
</g>
<g>
</g>
<g>
</g>
<g>
</g>
<g>
</g>
<g>
</g>
<g>
</g>
<g>
</g>
<g>
</g>
<g>
</g>
<g>
</g>
<g>
</g>
<g>
</g>
<g>
</g>
</svg>
