<?xml version="1.0" encoding="iso-8859-1"?>
<!-- Generator: Adobe Illustrator 16.0.0, SVG Export Plug-In . SVG Version: 6.00 Build 0)  -->
<!DOCTYPE svg PUBLIC "-//W3C//DTD SVG 1.1//EN" "http://www.w3.org/Graphics/SVG/1.1/DTD/svg11.dtd">
<svg version="1.1" id="Capa_1" xmlns="http://www.w3.org/2000/svg" xmlns:xlink="http://www.w3.org/1999/xlink" x="0px" y="0px"
	 width="103.695px" height="103.695px" viewBox="0 0 103.695 103.695" style="enable-background:new 0 0 103.695 103.695;"
	 xml:space="preserve">
<g>
	<path d="M33.284,31.297c-3.46-1.343-2.093-4.774-2.093-4.774c1.303-3.355,5.027-1.91,5.027-1.91
		c3.202,1.244,5.376,6.973,5.376,6.973c-2.719-0.586-4.6-0.154-4.6-0.154C34.858,31.908,33.284,31.297,33.284,31.297z M37.26,44.16
		c-1.818,0-3.292-2.091-3.292-4.671c0-2.578,1.475-4.67,3.292-4.67s3.292,2.092,3.292,4.67C40.551,42.069,39.077,44.16,37.26,44.16z
		 M71.578,26.423c0,0,1.367,3.43-2.093,4.773c0,0-1.574,0.611-3.71,0.133c0,0-1.881-0.43-4.6,0.156c0,0,2.174-5.729,5.375-6.974
		C66.551,24.512,70.275,23.066,71.578,26.423z M68.803,39.388c0,2.58-1.476,4.672-3.293,4.672c-1.816,0-3.291-2.092-3.291-4.672
		c0-2.578,1.475-4.67,3.291-4.67C67.327,34.718,68.803,36.81,68.803,39.388z M68.211,69.987c0,9.026-7.34,16.37-16.363,16.37
		s-16.364-7.344-16.364-16.37c0-9.022,7.34-16.365,16.363-16.365S68.211,60.963,68.211,69.987z M85.467,103.695H18.23
		C8.178,103.695,0,95.518,0,85.465V18.23C0,8.177,8.178,0,18.23,0h67.235c10.053,0,18.23,8.178,18.23,18.23v67.235
		C103.696,95.518,95.518,103.695,85.467,103.695z M18.23,8.577c-5.321,0-9.651,4.33-9.651,9.652v67.234
		c0,5.322,4.33,9.652,9.651,9.652h67.235c5.321,0,9.651-4.33,9.651-9.652V18.23c0-5.322-4.33-9.652-9.651-9.652L18.23,8.577
		L18.23,8.577z"/>
</g>
<g>
</g>
<g>
</g>
<g>
</g>
<g>
</g>
<g>
</g>
<g>
</g>
<g>
</g>
<g>
</g>
<g>
</g>
<g>
</g>
<g>
</g>
<g>
</g>
<g>
</g>
<g>
</g>
<g>
</g>
</svg>
