<?xml version="1.0" encoding="iso-8859-1"?>
<!-- Generator: Adobe Illustrator 16.0.0, SVG Export Plug-In . SVG Version: 6.00 Build 0)  -->
<!DOCTYPE svg PUBLIC "-//W3C//DTD SVG 1.1//EN" "http://www.w3.org/Graphics/SVG/1.1/DTD/svg11.dtd">
<svg version="1.1" id="Capa_1" xmlns="http://www.w3.org/2000/svg" xmlns:xlink="http://www.w3.org/1999/xlink" x="0px" y="0px"
	 width="103.695px" height="103.695px" viewBox="0 0 103.695 103.695" style="enable-background:new 0 0 103.695 103.695;"
	 xml:space="preserve">
<g>
	<path d="M70.979,73.326H32.719c-1.921,0-3.479-1.557-3.479-3.479c0-1.92,1.558-3.478,3.479-3.478h38.259
		c1.92,0,3.479,1.558,3.479,3.478C74.457,71.77,72.898,73.326,70.979,73.326z M30.533,45.928c0.279,0.13,0.622,0.09,0.858-0.1
		l9.758-7.697c0.193-0.154,0.304-0.388,0.304-0.641s-0.11-0.486-0.308-0.645L31.39,29.15c-0.144-0.113-0.324-0.175-0.507-0.175
		c-0.122,0-0.246,0.027-0.358,0.082c-0.279,0.135-0.46,0.425-0.46,0.738v3.553c0,0.181,0.084,0.35,0.225,0.462l4.664,3.681
		l-4.664,3.68c-0.141,0.112-0.225,0.282-0.225,0.463v3.554C30.065,45.5,30.239,45.783,30.533,45.928z M72.247,45.828
		c0.144,0.113,0.323,0.175,0.506,0.175c0.122,0,0.246-0.027,0.359-0.082c0.278-0.135,0.459-0.425,0.459-0.738v-3.552
		c0-0.181-0.083-0.35-0.226-0.462l-4.664-3.681l4.664-3.68c0.143-0.112,0.226-0.282,0.226-0.463v-3.554
		c0-0.313-0.175-0.596-0.468-0.741c-0.278-0.13-0.621-0.09-0.858,0.1l-9.756,7.698c-0.192,0.154-0.306,0.388-0.306,0.641
		s0.111,0.486,0.31,0.645L72.247,45.828z M103.695,85.467V18.23C103.695,8.178,95.518,0,85.465,0H18.23C8.177,0,0,8.178,0,18.23
		v67.235c0,10.053,8.178,18.23,18.23,18.23h67.235C95.518,103.696,103.695,95.518,103.695,85.467z M85.465,8.579
		c5.321,0,9.651,4.33,9.651,9.651v67.235c0,5.321-4.33,9.651-9.651,9.651H18.23c-5.322,0-9.652-4.33-9.652-9.651V18.23
		c0-5.321,4.33-9.651,9.652-9.651H85.465z"/>
</g>
<g>
</g>
<g>
</g>
<g>
</g>
<g>
</g>
<g>
</g>
<g>
</g>
<g>
</g>
<g>
</g>
<g>
</g>
<g>
</g>
<g>
</g>
<g>
</g>
<g>
</g>
<g>
</g>
<g>
</g>
</svg>
