<?xml version="1.0" encoding="iso-8859-1"?>
<!-- Generator: Adobe Illustrator 16.0.0, SVG Export Plug-In . SVG Version: 6.00 Build 0)  -->
<!DOCTYPE svg PUBLIC "-//W3C//DTD SVG 1.1//EN" "http://www.w3.org/Graphics/SVG/1.1/DTD/svg11.dtd">
<svg version="1.1" id="Capa_1" xmlns="http://www.w3.org/2000/svg" xmlns:xlink="http://www.w3.org/1999/xlink" x="0px" y="0px"
	 width="103.695px" height="103.696px" viewBox="0 0 103.695 103.696" style="enable-background:new 0 0 103.695 103.696;"
	 xml:space="preserve">
<g>
	<path d="M69.862,56.154H34.501c-4.687,0-8.486,3.799-8.486,8.485v9.752c0,4.687,3.799,8.486,8.486,8.486h35.361
		c4.687,0,8.485-3.801,8.485-8.486v-9.752C78.348,59.953,74.549,56.154,69.862,56.154z M38.106,79.574h-5.322
		c-1.297-0.938-2.271-2.293-2.725-3.871v-4.177h8.047V79.574z M38.106,67.502h-8.047v-4.174c0.454-1.578,1.428-2.934,2.725-3.873
		h5.322V67.502z M50.162,79.574h-8.033v-8.048h8.033V79.574z M50.162,67.502h-8.033v-8.047h8.033V67.502z M62.232,79.574H54.2
		v-8.048h8.032V79.574z M62.232,67.502H54.2v-8.047h8.032V67.502z M74.303,75.703c-0.453,1.578-1.428,2.933-2.725,3.871h-5.322
		v-8.048h8.047V75.703z M74.303,67.502h-8.047v-8.047h5.322c1.297,0.939,2.271,2.295,2.725,3.873V67.502z M22.132,56.151
		c0,2.146-1.739,3.886-3.882,3.886c-2.145,0-3.884-1.737-3.884-3.886c0-2.143,1.739-3.883,3.884-3.883
		C20.392,52.268,22.132,54.008,22.132,56.151z M85.467,0H18.23C8.178,0,0,8.179,0,18.23v67.235c0,10.053,8.178,18.229,18.23,18.229
		h67.235c10.053,0,18.23-8.179,18.23-18.229V18.231C103.696,8.179,95.518,0,85.467,0z M18.23,8.579h67.235
		c5.321,0,9.651,4.33,9.651,9.652v17.392l-42.519-5.274L8.579,34.887V18.231C8.579,12.91,12.909,8.579,18.23,8.579z M73.562,40.935
		c0,3.426-2.777,6.203-6.199,6.203c-3.424,0-6.201-2.777-6.201-6.203c0-3.424,2.777-6.201,6.201-6.201
		C70.785,34.733,73.562,37.511,73.562,40.935z M43.531,40.935c0,3.426-2.777,6.203-6.199,6.203c-3.424,0-6.201-2.777-6.201-6.203
		c0-3.424,2.777-6.201,6.201-6.201C40.754,34.733,43.531,37.511,43.531,40.935z M85.467,95.119H18.23
		c-5.321,0-9.651-4.33-9.651-9.651V47.053l44.519,3.653l42.021-4.478v39.238C95.117,90.788,90.787,95.119,85.467,95.119z"/>
</g>
<g>
</g>
<g>
</g>
<g>
</g>
<g>
</g>
<g>
</g>
<g>
</g>
<g>
</g>
<g>
</g>
<g>
</g>
<g>
</g>
<g>
</g>
<g>
</g>
<g>
</g>
<g>
</g>
<g>
</g>
</svg>
