<?xml version="1.0" encoding="iso-8859-1"?>
<!-- Generator: Adobe Illustrator 16.0.0, SVG Export Plug-In . SVG Version: 6.00 Build 0)  -->
<!DOCTYPE svg PUBLIC "-//W3C//DTD SVG 1.1//EN" "http://www.w3.org/Graphics/SVG/1.1/DTD/svg11.dtd">
<svg version="1.1" id="Capa_1" xmlns="http://www.w3.org/2000/svg" xmlns:xlink="http://www.w3.org/1999/xlink" x="0px" y="0px"
	 width="103.695px" height="103.695px" viewBox="0 0 103.695 103.695" style="enable-background:new 0 0 103.695 103.695;"
	 xml:space="preserve">
<g>
	<path d="M43.947,82.139c-0.032-0.219-0.046-0.453-0.072-0.68c-0.103-0.902-0.168-1.838-0.167-2.811
		c0-0.219,0.006-0.428,0.012-0.641c0.055-2.207,0.359-4.061,0.583-5.141c0.324-0.062,0.69-0.094,1.092-0.094
		c3.049,0,6.922,1.734,6.957,1.752c0.008,0.003,0.078,0.033,0.086,0.035c0.375,0.146,0.787,0.137,1.164-0.035
		c0.039-0.018,3.901-1.752,6.955-1.752c0.402,0,0.77,0.031,1.095,0.095c0.226,1.076,0.532,2.929,0.591,5.14
		c0.005,0.211,0.012,0.418,0.012,0.635c0.004,0.972-0.062,1.908-0.164,2.815c-0.025,0.224-0.039,0.454-0.07,0.673
		c-0.854,5.879-3.896,9.92-9.043,12.014C47.843,92.059,44.806,88.02,43.947,82.139z M42.279,69.536
		c-0.467,0.218-0.819,0.657-0.969,1.205c-0.008,0.028-0.748,2.821-0.89,6.616c-0.005,0.138,0,0.271-0.003,0.406
		c-3.126-0.568-5.354-2.233-5.354-5.98c0-4.859,3.741-8.814,8.338-8.814c4.279,0,5.887,0.467,6.88,1.998
		c0.609,0.938,1.616,1.498,2.691,1.498c1.074,0,2.082-0.562,2.69-1.498c0.993-1.531,2.601-1.998,6.88-1.998
		c4.598,0,8.338,3.955,8.338,8.814c0,3.747-2.229,5.412-5.354,5.98c-0.003-0.139,0.002-0.272-0.003-0.41
		c-0.146-3.848-0.885-6.592-0.889-6.61c-0.149-0.549-0.502-0.987-0.969-1.207c-0.863-0.405-1.912-0.612-3.113-0.612
		c-2.904,0-6.168,1.184-7.582,1.758c-1.41-0.574-4.667-1.758-7.581-1.758C44.19,68.924,43.142,69.131,42.279,69.536z M41.644,36.845
		c0.197,0.158,0.308,0.392,0.308,0.645s-0.11,0.486-0.304,0.641l-9.758,7.697c-0.236,0.189-0.579,0.229-0.858,0.1
		c-0.294-0.146-0.468-0.428-0.468-0.741v-3.554c0-0.181,0.084-0.351,0.225-0.463l4.664-3.68l-4.664-3.681
		c-0.141-0.112-0.225-0.281-0.225-0.462v-3.552c0-0.313,0.181-0.604,0.46-0.738c0.112-0.055,0.236-0.082,0.358-0.082
		c0.183,0,0.363,0.062,0.507,0.175L41.644,36.845z M74.071,29.791v3.554c0,0.181-0.083,0.351-0.226,0.463l-4.664,3.68l4.664,3.681
		c0.143,0.112,0.226,0.281,0.226,0.462v3.552c0,0.313-0.181,0.604-0.459,0.738c-0.113,0.055-0.237,0.082-0.359,0.082
		c-0.183,0-0.362-0.062-0.506-0.175l-9.755-7.695c-0.197-0.158-0.309-0.392-0.309-0.645s0.111-0.487,0.305-0.641l9.757-7.697
		c0.237-0.188,0.58-0.229,0.858-0.1C73.896,29.196,74.071,29.478,74.071,29.791z M85.467,103.695H18.23
		C8.178,103.695,0,95.518,0,85.465V18.23C0,8.177,8.178,0,18.23,0h67.235c10.053,0,18.23,8.178,18.23,18.23v67.235
		C103.696,95.518,95.518,103.695,85.467,103.695z M18.23,8.577c-5.321,0-9.651,4.33-9.651,9.652v67.234
		c0,5.322,4.33,9.652,9.651,9.652h67.235c5.321,0,9.651-4.33,9.651-9.652V18.23c0-5.322-4.33-9.652-9.651-9.652L18.23,8.577
		L18.23,8.577z"/>
</g>
<g>
</g>
<g>
</g>
<g>
</g>
<g>
</g>
<g>
</g>
<g>
</g>
<g>
</g>
<g>
</g>
<g>
</g>
<g>
</g>
<g>
</g>
<g>
</g>
<g>
</g>
<g>
</g>
<g>
</g>
</svg>
