<?xml version="1.0" encoding="iso-8859-1"?>
<!-- Generator: Adobe Illustrator 16.0.0, SVG Export Plug-In . SVG Version: 6.00 Build 0)  -->
<!DOCTYPE svg PUBLIC "-//W3C//DTD SVG 1.1//EN" "http://www.w3.org/Graphics/SVG/1.1/DTD/svg11.dtd">
<svg version="1.1" id="Capa_1" xmlns="http://www.w3.org/2000/svg" xmlns:xlink="http://www.w3.org/1999/xlink" x="0px" y="0px"
	 width="103.696px" height="103.696px" viewBox="0 0 103.696 103.696" style="enable-background:new 0 0 103.696 103.696;"
	 xml:space="preserve">
<g>
	<path d="M77.366,59.885c0.266,0.402,0.309,0.912,0.117,1.355C73.2,71.145,63.166,77.544,51.92,77.544
		c-11.486,0-21.58-6.431-25.714-16.382c-0.184-0.443-0.135-0.949,0.132-1.348c0.266-0.397,0.713-0.637,1.192-0.637
		c0,0,0.001,0,0.002,0l48.638,0.061C76.652,59.238,77.1,59.48,77.366,59.885z M32.06,37.489c0-3.423,2.777-6.201,6.201-6.201
		c3.423,0,6.2,2.777,6.2,6.201c0,3.426-2.777,6.203-6.2,6.203C34.836,43.692,32.06,40.915,32.06,37.489z M60.176,37.489
		c0-3.423,2.78-6.201,6.203-6.201c3.424,0,6.201,2.777,6.201,6.201c0,3.426-2.777,6.203-6.201,6.203
		C62.957,43.692,60.176,40.915,60.176,37.489z"/>
	<g>
		<path d="M85.467,103.696H18.23C8.179,103.696,0,95.518,0,85.467V18.23C0,8.178,8.179,0,18.23,0h67.235
			c10.053,0,18.23,8.178,18.23,18.23v67.235C103.697,95.518,95.518,103.696,85.467,103.696z M18.23,8.579
			c-5.321,0-9.651,4.33-9.651,9.651v67.235c0,5.321,4.33,9.651,9.651,9.651h67.235c5.321,0,9.651-4.33,9.651-9.651V18.23
			c0-5.321-4.33-9.651-9.651-9.651H18.23z"/>
	</g>
</g>
<g>
</g>
<g>
</g>
<g>
</g>
<g>
</g>
<g>
</g>
<g>
</g>
<g>
</g>
<g>
</g>
<g>
</g>
<g>
</g>
<g>
</g>
<g>
</g>
<g>
</g>
<g>
</g>
<g>
</g>
</svg>
