<?xml version="1.0" encoding="iso-8859-1"?>
<!-- Generator: Adobe Illustrator 16.0.0, SVG Export Plug-In . SVG Version: 6.00 Build 0)  -->
<!DOCTYPE svg PUBLIC "-//W3C//DTD SVG 1.1//EN" "http://www.w3.org/Graphics/SVG/1.1/DTD/svg11.dtd">
<svg version="1.1" id="Capa_1" xmlns="http://www.w3.org/2000/svg" xmlns:xlink="http://www.w3.org/1999/xlink" x="0px" y="0px"
	 width="103.695px" height="103.695px" viewBox="0 0 103.695 103.695" style="enable-background:new 0 0 103.695 103.695;"
	 xml:space="preserve">
<g>
	<path d="M32.441,35.827c0-1.025,0.365-2.114,1.002-2.988c0.729-1,1.684-1.551,2.691-1.551c1,0,1.942,0.437,2.625,1.173
		c0.684-0.736,1.626-1.173,2.626-1.173c1.006,0,1.961,0.551,2.688,1.551c0.637,0.874,1.002,1.963,1.002,2.988
		c0,1.628-1.006,3.473-2.991,5.485c-1.414,1.434-2.812,2.425-2.87,2.466c-0.137,0.097-0.296,0.145-0.455,0.145
		c-0.156,0-0.313-0.046-0.446-0.138C38.073,43.62,32.441,39.717,32.441,35.827z M52.408,77.516c10.085,0,19.085-5.742,22.928-14.629
		c0.657-1.521-0.042-3.287-1.562-3.943c-1.521-0.66-3.286,0.042-3.944,1.562c-2.894,6.689-9.729,11.012-17.421,11.012
		c-7.868,0-14.747-4.319-17.523-11.004c-0.479-1.154-1.596-1.851-2.771-1.851c-0.384,0-0.773,0.074-1.149,0.229
		c-1.531,0.637-2.256,2.393-1.62,3.922C33.053,71.745,42.107,77.516,52.408,77.516z M66.432,43.785
		c0.135,0.092,0.291,0.138,0.446,0.138c0.159,0,0.318-0.048,0.455-0.145c0.06-0.041,1.456-1.032,2.87-2.466
		c1.984-2.013,2.991-3.857,2.991-5.485c0-1.024-0.365-2.114-1.002-2.988c-0.728-1-1.683-1.551-2.688-1.551
		c-1,0-1.941,0.437-2.626,1.173c-0.683-0.736-1.625-1.173-2.625-1.173c-1.008,0-1.963,0.551-2.69,1.551
		c-0.637,0.874-1.002,1.963-1.002,2.988C60.561,39.717,66.192,43.62,66.432,43.785z M103.695,85.467V18.23
		C103.695,8.178,95.518,0,85.465,0H18.23C8.177,0,0,8.178,0,18.23v67.235c0,10.053,8.178,18.23,18.23,18.23h67.235
		C95.518,103.696,103.695,95.518,103.695,85.467z M85.465,8.579c5.321,0,9.651,4.33,9.651,9.651v67.235
		c0,5.321-4.33,9.651-9.651,9.651H18.23c-5.322,0-9.652-4.33-9.652-9.651V18.23c0-5.321,4.33-9.651,9.652-9.651H85.465z"/>
</g>
<g>
</g>
<g>
</g>
<g>
</g>
<g>
</g>
<g>
</g>
<g>
</g>
<g>
</g>
<g>
</g>
<g>
</g>
<g>
</g>
<g>
</g>
<g>
</g>
<g>
</g>
<g>
</g>
<g>
</g>
</svg>
