<?xml version="1.0" encoding="iso-8859-1"?>
<!-- Generator: Adobe Illustrator 16.0.0, SVG Export Plug-In . SVG Version: 6.00 Build 0)  -->
<!DOCTYPE svg PUBLIC "-//W3C//DTD SVG 1.1//EN" "http://www.w3.org/Graphics/SVG/1.1/DTD/svg11.dtd">
<svg version="1.1" id="Capa_1" xmlns="http://www.w3.org/2000/svg" xmlns:xlink="http://www.w3.org/1999/xlink" x="0px" y="0px"
	 width="103.696px" height="103.696px" viewBox="0 0 103.696 103.696" style="enable-background:new 0 0 103.696 103.696;"
	 xml:space="preserve">
<g>
	<path d="M57.676,40.489c0-4.797,3.904-8.701,8.703-8.701c4.797,0,8.701,3.903,8.701,8.701c0,1.381-1.119,2.5-2.5,2.5
		s-2.5-1.119-2.5-2.5c0-2.041-1.66-3.701-3.701-3.701s-3.703,1.66-3.703,3.701c0,1.381-1.119,2.5-2.5,2.5
		S57.676,41.869,57.676,40.489z M29.954,40.462c0-4.797,3.904-8.701,8.703-8.701c4.797,0,8.701,3.903,8.701,8.701
		c0,1.381-1.119,2.5-2.5,2.5c-1.381,0-2.5-1.119-2.5-2.5c0-2.041-1.66-3.701-3.701-3.701c-2.042,0-3.703,1.66-3.703,3.701
		c0,1.381-1.119,2.5-2.5,2.5S29.954,41.843,29.954,40.462z M28.845,62.812c-0.636-1.529,0.089-3.285,1.62-3.92
		c0.376-0.156,0.766-0.23,1.15-0.23c1.176,0,2.292,0.695,2.771,1.85c2.777,6.686,9.655,11.004,17.523,11.004
		c7.689,0,14.527-4.321,17.421-11.01c0.658-1.521,2.424-2.223,3.944-1.564s2.22,2.424,1.562,3.945
		c-3.843,8.887-12.843,14.629-22.928,14.629C41.607,77.516,32.555,71.745,28.845,62.812z M85.467,103.696H18.23
		C8.179,103.696,0,95.518,0,85.467V18.23C0,8.178,8.179,0,18.23,0h67.235c10.053,0,18.23,8.178,18.23,18.23v67.235
		C103.697,95.518,95.518,103.696,85.467,103.696z M18.23,8.579c-5.321,0-9.651,4.33-9.651,9.651v67.235
		c0,5.321,4.33,9.651,9.651,9.651h67.235c5.321,0,9.651-4.33,9.651-9.651V18.23c0-5.321-4.33-9.651-9.651-9.651H18.23z"/>
</g>
<g>
</g>
<g>
</g>
<g>
</g>
<g>
</g>
<g>
</g>
<g>
</g>
<g>
</g>
<g>
</g>
<g>
</g>
<g>
</g>
<g>
</g>
<g>
</g>
<g>
</g>
<g>
</g>
<g>
</g>
</svg>
