<?xml version="1.0" encoding="iso-8859-1"?>
<!-- Generator: Adobe Illustrator 16.0.0, SVG Export Plug-In . SVG Version: 6.00 Build 0)  -->
<!DOCTYPE svg PUBLIC "-//W3C//DTD SVG 1.1//EN" "http://www.w3.org/Graphics/SVG/1.1/DTD/svg11.dtd">
<svg version="1.1" id="Capa_1" xmlns="http://www.w3.org/2000/svg" xmlns:xlink="http://www.w3.org/1999/xlink" x="0px" y="0px"
	 width="103.696px" height="103.695px" viewBox="0 0 103.696 103.695" style="enable-background:new 0 0 103.696 103.695;"
	 xml:space="preserve">
<g>
	<path d="M50.803,71.848c0-2.482,1.305-4.496,2.913-4.496h24.27c1.607,0,2.91,2.014,2.91,4.496c0,2.481-1.303,4.496-2.91,4.496
		h-24.27C52.108,76.344,50.803,74.329,50.803,71.848z M30.559,29.488c0-4.113,3.12-7.451,6.965-7.451
		c3.846,0,6.966,3.338,6.966,7.451c0,4.117-3.12,7.453-6.966,7.453C33.679,36.941,30.559,33.605,30.559,29.488z M60.145,29.488
		c0-4.113,3.123-7.451,6.969-7.451c3.845,0,6.965,3.338,6.965,7.451c0,4.117-3.12,7.453-6.965,7.453
		C63.268,36.941,60.145,33.605,60.145,29.488z M85.465,103.695H18.23C8.178,103.695,0,95.518,0,85.465V18.23
		C0,8.177,8.179,0,18.23,0h67.235c10.053,0,18.229,8.178,18.229,18.23v67.235C103.696,95.518,95.518,103.695,85.465,103.695z
		 M18.23,8.577c-5.322,0-9.652,4.33-9.652,9.652v67.234c0,5.322,4.33,9.652,9.652,9.652h67.235c5.321,0,9.651-4.33,9.651-9.652
		V18.23c0-5.322-4.33-9.652-9.651-9.652L18.23,8.577L18.23,8.577z"/>
</g>
<g>
</g>
<g>
</g>
<g>
</g>
<g>
</g>
<g>
</g>
<g>
</g>
<g>
</g>
<g>
</g>
<g>
</g>
<g>
</g>
<g>
</g>
<g>
</g>
<g>
</g>
<g>
</g>
<g>
</g>
</svg>
