<?xml version="1.0" encoding="iso-8859-1"?>
<!-- Generator: Adobe Illustrator 16.0.0, SVG Export Plug-In . SVG Version: 6.00 Build 0)  -->
<!DOCTYPE svg PUBLIC "-//W3C//DTD SVG 1.1//EN" "http://www.w3.org/Graphics/SVG/1.1/DTD/svg11.dtd">
<svg version="1.1" id="Capa_1" xmlns="http://www.w3.org/2000/svg" xmlns:xlink="http://www.w3.org/1999/xlink" x="0px" y="0px"
	 width="103.696px" height="103.695px" viewBox="0 0 103.696 103.695" style="enable-background:new 0 0 103.696 103.695;"
	 xml:space="preserve">
<g>
	<path d="M51.852,95.182c-5.986-2.166-9.529-6.355-10.531-12.457c-0.188-1.143-0.281-2.36-0.279-3.621
		c0.004-2.584,0.406-4.771,0.693-5.998c0.377-0.063,0.805-0.096,1.273-0.096c3.557,0,8.074,1.799,8.113,1.815
		c0.01,0.004,0.092,0.035,0.104,0.038c0.438,0.15,0.917,0.141,1.357-0.038c0.043-0.019,4.552-1.815,8.113-1.815
		c0.469,0,0.896,0.031,1.274,0.098c0.289,1.223,0.695,3.402,0.705,5.988c0.004,1.256-0.088,2.475-0.275,3.621
		C61.407,88.816,57.858,93.01,51.852,95.182z M39.373,69.648c-0.543,0.227-0.955,0.683-1.129,1.25
		c-0.008,0.027-0.75,2.521-0.99,6.021c-3.48-2.145-5.908-5.182-7.186-9.027c-0.369-1.541-0.41-3.828,0.088-4.469
		c0.068-0.086,0.338-0.121,0.547-0.127c0.326,0.008,0.871,0.055,1.361,0.164c2.055,1.014,9.283,4.168,19.539,4.168
		c6.785,0,13.501-1.4,19.887-4.136c0.996-0.244,1.912-0.244,2.047-0.071c0.5,0.643,0.459,2.93,0.103,4.428
		c-1.287,3.883-3.715,6.922-7.191,9.065c-0.242-3.542-0.984-5.995-0.99-6.014c-0.174-0.569-0.584-1.025-1.129-1.253
		c-1.008-0.422-2.23-0.635-3.633-0.635c-3.389,0-7.195,1.228-8.844,1.822c-1.645-0.596-5.445-1.822-8.844-1.822
		C41.604,69.014,40.381,69.227,39.373,69.648z M41.646,36.689c0.197,0.158,0.309,0.392,0.309,0.645c0,0.253-0.111,0.486-0.305,0.641
		l-9.758,7.697c-0.236,0.189-0.578,0.229-0.857,0.1c-0.295-0.146-0.469-0.428-0.469-0.741v-3.554c0-0.181,0.084-0.351,0.225-0.463
		l4.664-3.68l-4.664-3.681c-0.141-0.112-0.225-0.281-0.225-0.462v-3.552c0-0.313,0.182-0.604,0.461-0.738
		c0.111-0.055,0.236-0.082,0.357-0.082c0.184,0,0.363,0.062,0.508,0.175L41.646,36.689z M62.994,37.976
		c-0.196-0.158-0.31-0.392-0.31-0.645s0.111-0.486,0.306-0.641l9.758-7.697c0.236-0.189,0.58-0.229,0.858-0.1
		c0.294,0.146,0.468,0.428,0.468,0.741v3.554c0,0.181-0.084,0.351-0.226,0.463l-4.664,3.68l4.664,3.681
		c0.142,0.112,0.226,0.281,0.226,0.462v3.552c0,0.313-0.181,0.604-0.459,0.738c-0.113,0.055-0.238,0.082-0.358,0.082
		c-0.185,0-0.363-0.062-0.507-0.175L62.994,37.976z M85.465,103.695H18.23C8.178,103.695,0,95.518,0,85.465V18.23
		C0,8.177,8.179,0,18.23,0h67.235c10.053,0,18.229,8.178,18.229,18.23v67.235C103.696,95.518,95.518,103.695,85.465,103.695z
		 M18.23,8.577c-5.322,0-9.652,4.33-9.652,9.652v67.234c0,5.322,4.33,9.652,9.652,9.652h67.235c5.321,0,9.651-4.33,9.651-9.652
		V18.23c0-5.322-4.33-9.652-9.651-9.652L18.23,8.577L18.23,8.577z"/>
</g>
<g>
</g>
<g>
</g>
<g>
</g>
<g>
</g>
<g>
</g>
<g>
</g>
<g>
</g>
<g>
</g>
<g>
</g>
<g>
</g>
<g>
</g>
<g>
</g>
<g>
</g>
<g>
</g>
<g>
</g>
</svg>
