<?xml version="1.0" encoding="iso-8859-1"?>
<!-- Generator: Adobe Illustrator 16.0.0, SVG Export Plug-In . SVG Version: 6.00 Build 0)  -->
<!DOCTYPE svg PUBLIC "-//W3C//DTD SVG 1.1//EN" "http://www.w3.org/Graphics/SVG/1.1/DTD/svg11.dtd">
<svg version="1.1" id="Capa_1" xmlns="http://www.w3.org/2000/svg" xmlns:xlink="http://www.w3.org/1999/xlink" x="0px" y="0px"
	 width="103.696px" height="103.696px" viewBox="0 0 103.696 103.696" style="enable-background:new 0 0 103.696 103.696;"
	 xml:space="preserve">
<g>
	<path d="M74.836,62.888c-3.843,8.887-12.843,14.629-22.928,14.629c-10.301,0-19.354-5.771-23.064-14.703
		c-0.636-1.529,0.089-3.285,1.62-3.922c0.376-0.156,0.766-0.23,1.15-0.23c1.176,0.002,2.292,0.697,2.771,1.852
		c2.777,6.685,9.655,11.004,17.523,11.004c7.689,0,14.527-4.321,17.421-11.012c0.658-1.52,2.424-2.221,3.944-1.562
		C74.793,59.601,75.493,61.366,74.836,62.888z M103.696,18.231v67.235c0,10.053-8.179,18.229-18.229,18.229H18.23
		C8.178,103.695,0,95.517,0,85.466V18.231C0,8.178,8.178,0.001,18.23,0.001h67.235C95.518,0,103.696,8.178,103.696,18.231z
		 M8.579,18.231v8.917l14.381,6.636c1.605-5.461,6.654-9.461,12.626-9.461c6.281,0,11.541,4.424,12.847,10.316h6.677
		c1.293-5.912,6.563-10.354,12.856-10.354c5.946,0,10.979,3.965,12.607,9.389l14.542-7.009V18.23c0-5.322-4.33-9.652-9.651-9.652
		H18.23C12.909,8.578,8.579,12.909,8.579,18.231z M95.117,85.466V30.317l-14.004,6.727c0.004,0.137,0.021,0.271,0.021,0.408
		c0,7.262-5.908,13.168-13.168,13.168c-7.098,0-12.887-5.65-13.142-12.688H48.73c-0.236,7.055-6.034,12.725-13.144,12.725
		c-7.259,0-13.166-5.906-13.166-13.168c0-0.111,0.014-0.219,0.017-0.33L8.58,30.772v54.694c0,5.321,4.33,9.651,9.651,9.651h67.236
		C90.787,95.118,95.117,90.787,95.117,85.466z"/>
</g>
<g>
</g>
<g>
</g>
<g>
</g>
<g>
</g>
<g>
</g>
<g>
</g>
<g>
</g>
<g>
</g>
<g>
</g>
<g>
</g>
<g>
</g>
<g>
</g>
<g>
</g>
<g>
</g>
<g>
</g>
</svg>
