<?xml version="1.0" encoding="iso-8859-1"?>
<!-- Generator: Adobe Illustrator 16.0.0, SVG Export Plug-In . SVG Version: 6.00 Build 0)  -->
<!DOCTYPE svg PUBLIC "-//W3C//DTD SVG 1.1//EN" "http://www.w3.org/Graphics/SVG/1.1/DTD/svg11.dtd">
<svg version="1.1" id="Capa_1" xmlns="http://www.w3.org/2000/svg" xmlns:xlink="http://www.w3.org/1999/xlink" x="0px" y="0px"
	 width="103.696px" height="103.695px" viewBox="0 0 103.696 103.695" style="enable-background:new 0 0 103.696 103.695;"
	 xml:space="preserve">
<g>
	<path d="M79.372,37.49c0,1.738-1.408,3.146-3.146,3.146h-4.981c-1.079,1.826-3.062,3.055-5.334,3.055
		c-3.423,0-6.201-2.774-6.203-6.199c0-0.001,0-0.001,0-0.002c0,0,0,0,0-0.001v-0.001c0-3.423,2.779-6.2,6.203-6.2
		c2.272,0,4.256,1.229,5.335,3.056h4.98C77.963,34.343,79.372,35.751,79.372,37.49z M32.454,40.636h-4.983
		c-1.738,0-3.147-1.409-3.147-3.146c0-1.738,1.409-3.147,3.147-3.147h4.983c1.079-1.826,3.063-3.055,5.335-3.055
		c3.424,0,6.201,2.777,6.201,6.2v0.001c0,0.001,0,0.001,0,0.001c0,0.001,0,0.001,0,0.002c-0.003,3.425-2.778,6.199-6.201,6.199
		C35.517,43.691,33.535,42.462,32.454,40.636z M75.186,70.705c-0.383,0.816-3.933,7.99-10.653,8.479
		c-0.235,0.018-0.472,0.025-0.708,0.025c-4.216,0-8.309-2.74-12.177-8.16c-1.956-2.738-4.956-5.978-8.213-5.978
		c-0.049,0-0.097,0-0.145,0.001c-3.674,0.109-6.985,4.249-7.951,5.835c-0.682,1.118-2.288,1.558-3.589,0.97
		c-1.3-0.585-1.808-1.966-1.131-3.088c0.198-0.329,4.942-8.064,12.468-8.301c4.725-0.145,9.124,2.596,13.092,8.154
		c2.863,4.012,5.67,6.148,7.907,5.97c2.761-0.201,5.347-3.876,6.164-5.625c0.552-1.175,2.101-1.744,3.466-1.269
		C75.078,68.194,75.736,69.531,75.186,70.705z M85.465,103.695H18.23C8.178,103.695,0,95.518,0,85.465V18.23
		C0,8.177,8.179,0,18.23,0h67.235c10.053,0,18.229,8.178,18.229,18.23v67.235C103.696,95.518,95.518,103.695,85.465,103.695z
		 M18.23,8.577c-5.322,0-9.652,4.33-9.652,9.652v67.234c0,5.322,4.33,9.652,9.652,9.652h67.235c5.321,0,9.651-4.33,9.651-9.652
		V18.23c0-5.322-4.33-9.652-9.651-9.652L18.23,8.577L18.23,8.577z"/>
</g>
<g>
</g>
<g>
</g>
<g>
</g>
<g>
</g>
<g>
</g>
<g>
</g>
<g>
</g>
<g>
</g>
<g>
</g>
<g>
</g>
<g>
</g>
<g>
</g>
<g>
</g>
<g>
</g>
<g>
</g>
</svg>
