<?xml version="1.0" encoding="iso-8859-1"?>
<!-- Generator: Adobe Illustrator 16.0.0, SVG Export Plug-In . SVG Version: 6.00 Build 0)  -->
<!DOCTYPE svg PUBLIC "-//W3C//DTD SVG 1.1//EN" "http://www.w3.org/Graphics/SVG/1.1/DTD/svg11.dtd">
<svg version="1.1" id="Capa_1" xmlns="http://www.w3.org/2000/svg" xmlns:xlink="http://www.w3.org/1999/xlink" x="0px" y="0px"
	 width="103.696px" height="103.695px" viewBox="0 0 103.696 103.695" style="enable-background:new 0 0 103.696 103.695;"
	 xml:space="preserve">
<g>
	<path d="M43.008,70.014c-1.404,0-2.627,0.213-3.635,0.635c-0.543,0.227-0.955,0.683-1.129,1.25c-0.008,0.023-0.617,2.08-0.91,5.07
		c-3.523-2.146-5.979-5.201-7.266-9.078c-0.369-1.539-0.41-3.828,0.088-4.467c0.068-0.086,0.338-0.123,0.547-0.127
		c0.326,0.006,0.871,0.053,1.361,0.164c2.055,1.012,9.283,4.166,19.539,4.166c6.785,0,13.501-1.398,19.887-4.135
		c0.996-0.244,1.912-0.244,2.047-0.07c0.5,0.643,0.459,2.928,0.103,4.426c-1.297,3.914-3.75,6.97-7.271,9.117
		c-0.293-3.021-0.904-5.048-0.91-5.063c-0.174-0.569-0.584-1.025-1.129-1.253c-1.008-0.422-2.23-0.635-3.633-0.635
		c-3.389,0-7.195,1.228-8.844,1.822C50.207,71.241,46.407,70.014,43.008,70.014z M32.059,37.489c0-3.424,2.777-6.201,6.201-6.201
		c3.422,0,6.199,2.777,6.199,6.201c0,3.426-2.777,6.203-6.199,6.203C34.835,43.692,32.059,40.914,32.059,37.489z M60.176,37.489
		c0-3.424,2.778-6.201,6.203-6.201c3.422,0,6.198,2.777,6.198,6.201c0,3.426-2.776,6.203-6.198,6.203
		C62.955,43.692,60.176,40.914,60.176,37.489z M51.94,96.281c-5.986-2.165-9.529-6.355-10.531-12.457
		c-0.188-1.143-0.281-2.359-0.279-3.621c0.004-2.584,0.406-4.77,0.693-5.997c0.377-0.063,0.805-0.097,1.273-0.097
		c3.557,0,8.074,1.8,8.113,1.816c0.01,0.004,0.092,0.034,0.104,0.037c0.438,0.151,0.916,0.141,1.357-0.037
		c0.043-0.019,4.551-1.816,8.113-1.816c0.469,0,0.896,0.031,1.275,0.098c0.289,1.223,0.694,3.402,0.705,5.989
		c0.004,1.256-0.088,2.474-0.275,3.62C61.495,89.915,57.947,94.109,51.94,96.281z M85.465,103.695H18.23
		C8.178,103.695,0,95.518,0,85.465V18.23C0,8.177,8.179,0,18.23,0h67.235c10.053,0,18.229,8.178,18.229,18.23v67.235
		C103.696,95.518,95.518,103.695,85.465,103.695z M18.23,8.577c-5.322,0-9.652,4.33-9.652,9.652v67.234
		c0,5.322,4.33,9.652,9.652,9.652h67.235c5.321,0,9.651-4.33,9.651-9.652V18.23c0-5.322-4.33-9.652-9.651-9.652L18.23,8.577
		L18.23,8.577z"/>
</g>
<g>
</g>
<g>
</g>
<g>
</g>
<g>
</g>
<g>
</g>
<g>
</g>
<g>
</g>
<g>
</g>
<g>
</g>
<g>
</g>
<g>
</g>
<g>
</g>
<g>
</g>
<g>
</g>
<g>
</g>
</svg>
