<?xml version="1.0" encoding="iso-8859-1"?>
<!-- Generator: Adobe Illustrator 16.0.0, SVG Export Plug-In . SVG Version: 6.00 Build 0)  -->
<!DOCTYPE svg PUBLIC "-//W3C//DTD SVG 1.1//EN" "http://www.w3.org/Graphics/SVG/1.1/DTD/svg11.dtd">
<svg version="1.1" id="Capa_1" xmlns="http://www.w3.org/2000/svg" xmlns:xlink="http://www.w3.org/1999/xlink" x="0px" y="0px"
	 width="103.695px" height="103.696px" viewBox="0 0 103.695 103.696" style="enable-background:new 0 0 103.695 103.696;"
	 xml:space="preserve">
<g>
	<path d="M51.777,58.596c-11.245,0-21.28,7.316-25.563,18.637c-0.191,0.507-0.148,1.089,0.117,1.55s0.715,0.739,1.197,0.739
		l48.638,0.068h0.002c0.479,0,0.926-0.273,1.191-0.729c0.268-0.455,0.316-1.033,0.133-1.539
		C73.357,65.949,63.264,58.596,51.777,58.596z M32.744,76.822l-2.469-0.002c-0.43-0.003-0.828-0.201-1.065-0.535
		c-0.235-0.332-0.274-0.754-0.104-1.119c0.533-1.144,1.178-2.226,1.9-3.248h1.738V76.822z M62.989,64
		c2.64,1.154,5.017,2.713,7.013,4.615h-7.013V64z M46.088,76.836l-9.785-0.012v-4.908h9.785V76.836z M46.088,68.617h-9.785V66.6
		c2.835-2.045,6.17-3.52,9.785-4.283V68.617z M59.432,76.85l-9.786-0.01v-4.924h9.786V76.85z M59.432,68.617h-9.786v-6.81
		c0.728-0.057,1.46-0.096,2.2-0.096c2.636,0,5.186,0.359,7.585,1.023V68.617z M72.773,76.867l-9.784-0.011v-4.938h9.784V76.867z
		 M85.467,0H18.23C8.178,0,0,8.179,0,18.23v67.235c0,10.053,8.178,18.229,18.23,18.229h67.235c10.053,0,18.23-8.179,18.23-18.229
		V18.231C103.696,8.179,95.518,0,85.467,0z M18.23,8.579h67.235c5.321,0,9.651,4.33,9.651,9.652v17.598l-42.519-5.48l-44.02,4.57
		V18.231C8.579,12.91,12.909,8.579,18.23,8.579z M73.562,40.935c0,3.426-2.777,6.203-6.199,6.203c-3.424,0-6.201-2.777-6.201-6.203
		c0-3.424,2.777-6.201,6.201-6.201C70.785,34.733,73.562,37.511,73.562,40.935z M43.531,40.935c0,3.426-2.777,6.203-6.199,6.203
		c-3.424,0-6.201-2.777-6.201-6.203c0-3.424,2.777-6.201,6.201-6.201C40.754,34.733,43.531,37.511,43.531,40.935z M85.467,95.119
		H18.23c-5.321,0-9.651-4.33-9.651-9.651V47.054L53.1,50.706l42.019-4.477v39.237C95.117,90.788,90.787,95.119,85.467,95.119z"/>
</g>
<g>
</g>
<g>
</g>
<g>
</g>
<g>
</g>
<g>
</g>
<g>
</g>
<g>
</g>
<g>
</g>
<g>
</g>
<g>
</g>
<g>
</g>
<g>
</g>
<g>
</g>
<g>
</g>
<g>
</g>
</svg>
