<?xml version="1.0" encoding="iso-8859-1"?>
<!-- Generator: Adobe Illustrator 16.0.0, SVG Export Plug-In . SVG Version: 6.00 Build 0)  -->
<!DOCTYPE svg PUBLIC "-//W3C//DTD SVG 1.1//EN" "http://www.w3.org/Graphics/SVG/1.1/DTD/svg11.dtd">
<svg version="1.1" id="Capa_1" xmlns="http://www.w3.org/2000/svg" xmlns:xlink="http://www.w3.org/1999/xlink" x="0px" y="0px"
	 width="103.695px" height="103.695px" viewBox="0 0 103.695 103.695" style="enable-background:new 0 0 103.695 103.695;"
	 xml:space="preserve">
<g>
	<path d="M32.059,37.488c0-3.424,2.777-6.201,6.201-6.201c3.423,0,6.2,2.777,6.2,6.201c0,3.426-2.777,6.203-6.2,6.203
		C34.836,43.691,32.059,40.913,32.059,37.488z M72.579,37.488c0,3.426-2.776,6.203-6.201,6.203c-3.423,0-6.202-2.777-6.202-6.203
		c0-3.424,2.779-6.201,6.202-6.201C69.803,31.286,72.579,34.064,72.579,37.488z M51.908,77.516
		c-9.08,4.867-19.354-5.771-23.064-14.703c-0.636-1.529,0.089-3.285,1.62-3.922c0.376-0.156,0.766-0.23,1.15-0.23
		c1.176,0.002,2.292,0.697,2.771,1.852c2.777,6.685,7.463,7.92,18.523,10.004C52.908,70.516,62.098,72.055,51.908,77.516z
		 M85.467,103.695H18.23C8.178,103.695,0,95.518,0,85.465V18.23C0,8.177,8.178,0,18.23,0h67.235c10.053,0,18.23,8.178,18.23,18.23
		v67.235C103.696,95.518,95.518,103.695,85.467,103.695z M18.23,8.577c-5.321,0-9.651,4.33-9.651,9.652v67.234
		c0,5.322,4.33,9.652,9.651,9.652h67.235c5.321,0,9.651-4.33,9.651-9.652V18.23c0-5.322-4.33-9.652-9.651-9.652L18.23,8.577
		L18.23,8.577z"/>
</g>
<g>
</g>
<g>
</g>
<g>
</g>
<g>
</g>
<g>
</g>
<g>
</g>
<g>
</g>
<g>
</g>
<g>
</g>
<g>
</g>
<g>
</g>
<g>
</g>
<g>
</g>
<g>
</g>
<g>
</g>
</svg>
