<?xml version="1.0" encoding="iso-8859-1"?>
<!-- Generator: Adobe Illustrator 16.0.0, SVG Export Plug-In . SVG Version: 6.00 Build 0)  -->
<!DOCTYPE svg PUBLIC "-//W3C//DTD SVG 1.1//EN" "http://www.w3.org/Graphics/SVG/1.1/DTD/svg11.dtd">
<svg version="1.1" id="Capa_1" xmlns="http://www.w3.org/2000/svg" xmlns:xlink="http://www.w3.org/1999/xlink" x="0px" y="0px"
	 width="103.696px" height="103.695px" viewBox="0 0 103.696 103.695" style="enable-background:new 0 0 103.696 103.695;"
	 xml:space="preserve">
<g>
	<path d="M21.588,38.622c0-1.738,1.408-3.146,3.146-3.146l13.373-0.002c0.029,0,0.055,0.008,0.082,0.009
		c1.609-0.018,3.225,0.581,4.453,1.81c2.422,2.422,2.422,6.35,0.002,8.77c-2.42,2.421-6.348,2.421-8.771-0.002
		c-1.186-1.187-1.783-2.735-1.805-4.291h-7.334C22.996,41.769,21.588,40.361,21.588,38.622z M62.256,46.156
		c-2.421-2.42-2.421-6.348,0.002-8.77c1.229-1.229,2.842-1.827,4.452-1.81c0.027-0.001,0.054-0.009,0.082-0.009l13.373,0.002
		c1.738,0,3.146,1.408,3.146,3.146c0,1.738-1.407,3.146-3.146,3.146h-7.334c-0.022,1.556-0.618,3.104-1.805,4.291
		C68.604,48.576,64.676,48.576,62.256,46.156z M32.721,66.368h38.26c1.92,0,3.479,1.558,3.479,3.479c0,1.92-1.559,3.479-3.479,3.479
		h-38.26c-1.92,0-3.479-1.559-3.479-3.479C29.242,67.926,30.801,66.368,32.721,66.368z M85.465,103.695H18.23
		C8.178,103.695,0,95.518,0,85.465V18.23C0,8.177,8.179,0,18.23,0h67.235c10.053,0,18.229,8.178,18.229,18.23v67.235
		C103.696,95.518,95.518,103.695,85.465,103.695z M18.23,8.577c-5.322,0-9.652,4.33-9.652,9.652v67.234
		c0,5.322,4.33,9.652,9.652,9.652h67.235c5.321,0,9.651-4.33,9.651-9.652V18.23c0-5.322-4.33-9.652-9.651-9.652L18.23,8.577
		L18.23,8.577z"/>
</g>
<g>
</g>
<g>
</g>
<g>
</g>
<g>
</g>
<g>
</g>
<g>
</g>
<g>
</g>
<g>
</g>
<g>
</g>
<g>
</g>
<g>
</g>
<g>
</g>
<g>
</g>
<g>
</g>
<g>
</g>
</svg>
