<?xml version="1.0" encoding="iso-8859-1"?>
<!-- Generator: Adobe Illustrator 16.0.0, SVG Export Plug-In . SVG Version: 6.00 Build 0)  -->
<!DOCTYPE svg PUBLIC "-//W3C//DTD SVG 1.1//EN" "http://www.w3.org/Graphics/SVG/1.1/DTD/svg11.dtd">
<svg version="1.1" id="Capa_1" xmlns="http://www.w3.org/2000/svg" xmlns:xlink="http://www.w3.org/1999/xlink" x="0px" y="0px"
	 width="103.696px" height="103.695px" viewBox="0 0 103.696 103.695" style="enable-background:new 0 0 103.696 103.695;"
	 xml:space="preserve">
<g>
	<path d="M32.059,37.489c0-3.424,2.777-6.201,6.2-6.201c3.423,0,6.2,2.777,6.2,6.201c0,3.426-2.777,6.203-6.2,6.203
		C34.835,43.692,32.059,40.914,32.059,37.489z M60.174,37.489c0-3.424,2.78-6.201,6.203-6.201c3.424,0,6.2,2.777,6.2,6.201
		c0,3.426-2.776,6.203-6.2,6.203C62.955,43.692,60.174,40.914,60.174,37.489z M51.918,83.543c11.245,0,21.278-6.398,25.562-16.304
		c0.191-0.442,0.146-0.952-0.117-1.356c-0.266-0.402-0.714-0.646-1.196-0.646l-48.638-0.06c-0.001,0-0.002,0-0.002,0
		c-0.479,0-0.926,0.238-1.192,0.637c-0.266,0.398-0.315,0.904-0.131,1.348C30.339,77.113,40.433,83.543,51.918,83.543z
		 M62.664,77.11h0.006v-4.574h-0.006v-5.151l4.028,0.004v8.39c-1.219,1.126-2.568,2.108-4.028,2.925V77.11z M54.27,67.372
		l3.82,0.005v13.23c-1.234,0.355-2.515,0.595-3.82,0.732V67.372z M45.417,67.362l4.348,0.006v14.001
		c-1.495-0.137-2.952-0.408-4.348-0.82V67.362z M37.269,72.379h0.004v-5.025l3.569,0.004v11.25c-1.255-0.709-2.429-1.535-3.5-2.477
		v-0.033h-0.073V72.379z M85.465,103.695H18.23C8.178,103.695,0,95.518,0,85.465V18.23C0,8.177,8.179,0,18.23,0h67.235
		c10.053,0,18.229,8.178,18.229,18.23v67.235C103.696,95.518,95.518,103.695,85.465,103.695z M18.23,8.577
		c-5.322,0-9.652,4.33-9.652,9.652v67.234c0,5.322,4.33,9.652,9.652,9.652h67.235c5.321,0,9.651-4.33,9.651-9.652V18.23
		c0-5.322-4.33-9.652-9.651-9.652L18.23,8.577L18.23,8.577z"/>
</g>
<g>
</g>
<g>
</g>
<g>
</g>
<g>
</g>
<g>
</g>
<g>
</g>
<g>
</g>
<g>
</g>
<g>
</g>
<g>
</g>
<g>
</g>
<g>
</g>
<g>
</g>
<g>
</g>
<g>
</g>
</svg>
