<?xml version="1.0" encoding="iso-8859-1"?>
<!-- Generator: Adobe Illustrator 16.0.0, SVG Export Plug-In . SVG Version: 6.00 Build 0)  -->
<!DOCTYPE svg PUBLIC "-//W3C//DTD SVG 1.1//EN" "http://www.w3.org/Graphics/SVG/1.1/DTD/svg11.dtd">
<svg version="1.1" id="Capa_1" xmlns="http://www.w3.org/2000/svg" xmlns:xlink="http://www.w3.org/1999/xlink" x="0px" y="0px"
	 width="103.696px" height="103.696px" viewBox="0 0 103.696 103.696" style="enable-background:new 0 0 103.696 103.696;"
	 xml:space="preserve">
<g>
	<path d="M51.919,79.544c11.245,0,21.278-6.399,25.562-16.304c0.191-0.443,0.146-0.953-0.117-1.355
		c-0.264-0.404-0.714-0.646-1.196-0.647l-48.638-0.06c-0.001,0-0.002,0-0.002,0c-0.479,0-0.926,0.238-1.192,0.637
		c-0.266,0.398-0.315,0.904-0.131,1.347C30.339,73.113,40.433,79.544,51.919,79.544z M71.853,65.232
		c-4.287,6.369-11.729,10.312-19.934,10.312c-8.401,0-15.917-3.962-20.132-10.361L71.853,65.232z M32.059,37.489
		c0-3.423,2.777-6.201,6.2-6.201c3.423,0,6.2,2.777,6.2,6.201c0,3.426-2.777,6.203-6.2,6.203
		C34.836,43.692,32.059,40.915,32.059,37.489z M60.175,37.489c0-3.423,2.78-6.201,6.203-6.201c3.424,0,6.2,2.777,6.2,6.201
		c0,3.426-2.776,6.203-6.2,6.203C62.955,43.692,60.175,40.915,60.175,37.489z M85.466,103.696H18.231
		c-10.053,0-18.23-8.179-18.23-18.229V18.23C0.001,8.178,8.179,0,18.231,0h67.235c10.053,0,18.229,8.178,18.229,18.23v67.235
		C103.696,95.518,95.519,103.696,85.466,103.696z M18.231,8.579c-5.322,0-9.652,4.33-9.652,9.651v67.235
		c0,5.321,4.33,9.651,9.652,9.651h67.235c5.321,0,9.651-4.33,9.651-9.651V18.23c0-5.321-4.33-9.651-9.651-9.651H18.231z"/>
</g>
<g>
</g>
<g>
</g>
<g>
</g>
<g>
</g>
<g>
</g>
<g>
</g>
<g>
</g>
<g>
</g>
<g>
</g>
<g>
</g>
<g>
</g>
<g>
</g>
<g>
</g>
<g>
</g>
<g>
</g>
</svg>
