<?xml version="1.0" encoding="iso-8859-1"?>
<!-- Generator: Adobe Illustrator 16.0.0, SVG Export Plug-In . SVG Version: 6.00 Build 0)  -->
<!DOCTYPE svg PUBLIC "-//W3C//DTD SVG 1.1//EN" "http://www.w3.org/Graphics/SVG/1.1/DTD/svg11.dtd">
<svg version="1.1" id="Capa_1" xmlns="http://www.w3.org/2000/svg" xmlns:xlink="http://www.w3.org/1999/xlink" x="0px" y="0px"
	 width="103.696px" height="103.696px" viewBox="0 0 103.696 103.696" style="enable-background:new 0 0 103.696 103.696;"
	 xml:space="preserve">
<g>
	<path d="M36.659,44.443l-9.455-9.456c-1.229-1.229-1.229-3.222,0-4.451s3.221-1.229,4.451,0l9.455,9.455
		c1.229,1.229,1.229,3.222,0,4.451C39.881,45.672,37.887,45.672,36.659,44.443z M76.493,30.537c1.229,1.229,1.229,3.222-0.002,4.451
		l-9.455,9.456c-1.229,1.229-3.223,1.229-4.451,0s-1.227-3.223,0-4.451l9.457-9.455C73.271,29.308,75.263,29.308,76.493,30.537z
		 M68.974,69.018c0,7.057-7.906,12.797-17.625,12.797s-17.625-5.74-17.625-12.797c0-7.055,7.906-12.795,17.625-12.795
		S68.974,61.963,68.974,69.018z M85.466,103.696H18.231c-10.053,0-18.23-8.179-18.23-18.229V18.23C0.001,8.178,8.179,0,18.231,0
		h67.235c10.053,0,18.229,8.178,18.229,18.23v67.235C103.696,95.518,95.519,103.696,85.466,103.696z M18.231,8.579
		c-5.322,0-9.652,4.33-9.652,9.651v67.235c0,5.321,4.33,9.651,9.652,9.651h67.235c5.321,0,9.651-4.33,9.651-9.651V18.23
		c0-5.321-4.33-9.651-9.651-9.651H18.231z"/>
</g>
<g>
</g>
<g>
</g>
<g>
</g>
<g>
</g>
<g>
</g>
<g>
</g>
<g>
</g>
<g>
</g>
<g>
</g>
<g>
</g>
<g>
</g>
<g>
</g>
<g>
</g>
<g>
</g>
<g>
</g>
</svg>
