<?xml version="1.0" encoding="iso-8859-1"?>
<!-- Generator: Adobe Illustrator 16.0.0, SVG Export Plug-In . SVG Version: 6.00 Build 0)  -->
<!DOCTYPE svg PUBLIC "-//W3C//DTD SVG 1.1//EN" "http://www.w3.org/Graphics/SVG/1.1/DTD/svg11.dtd">
<svg version="1.1" id="Capa_1" xmlns="http://www.w3.org/2000/svg" xmlns:xlink="http://www.w3.org/1999/xlink" x="0px" y="0px"
	 width="103.695px" height="103.695px" viewBox="0 0 103.695 103.695" style="enable-background:new 0 0 103.695 103.695;"
	 xml:space="preserve">
<g>
	<path d="M23.823,37.49c0-1.738,1.409-3.147,3.147-3.147h13.372c1.738,0,3.147,1.409,3.147,3.147c0,1.738-1.409,3.147-3.147,3.147
		H26.97C25.232,40.637,23.823,39.228,23.823,37.49z M62.352,40.638h13.373c1.738,0,3.146-1.409,3.146-3.147
		s-1.408-3.147-3.146-3.147H62.352c-1.736,0-3.146,1.409-3.146,3.147S60.615,40.638,62.352,40.638z M28.742,69.848
		c0,1.922,1.558,3.479,3.479,3.479H70.48c1.921,0,3.479-1.557,3.479-3.479c0-1.92-1.558-3.478-3.479-3.478H32.22
		C30.299,66.37,28.742,67.928,28.742,69.848z M103.695,85.467V18.23C103.695,8.178,95.518,0,85.465,0H18.23C8.177,0,0,8.178,0,18.23
		v67.235c0,10.053,8.178,18.23,18.23,18.23h67.235C95.518,103.696,103.695,95.518,103.695,85.467z M85.465,8.579
		c5.321,0,9.651,4.33,9.651,9.651v67.235c0,5.321-4.33,9.651-9.651,9.651H18.23c-5.322,0-9.652-4.33-9.652-9.651V18.23
		c0-5.321,4.33-9.651,9.652-9.651H85.465z"/>
</g>
<g>
</g>
<g>
</g>
<g>
</g>
<g>
</g>
<g>
</g>
<g>
</g>
<g>
</g>
<g>
</g>
<g>
</g>
<g>
</g>
<g>
</g>
<g>
</g>
<g>
</g>
<g>
</g>
<g>
</g>
</svg>
