<?xml version="1.0" encoding="iso-8859-1"?>
<!-- Generator: Adobe Illustrator 16.0.0, SVG Export Plug-In . SVG Version: 6.00 Build 0)  -->
<!DOCTYPE svg PUBLIC "-//W3C//DTD SVG 1.1//EN" "http://www.w3.org/Graphics/SVG/1.1/DTD/svg11.dtd">
<svg version="1.1" id="Capa_1" xmlns="http://www.w3.org/2000/svg" xmlns:xlink="http://www.w3.org/1999/xlink" x="0px" y="0px"
	 width="103.696px" height="103.696px" viewBox="0 0 103.696 103.696" style="enable-background:new 0 0 103.696 103.696;"
	 xml:space="preserve">
<g>
	<path d="M79.372,37.491c0,1.738-1.408,3.147-3.146,3.147h-4.981c-1.079,1.826-3.062,3.055-5.334,3.055
		c-3.423,0-6.201-2.775-6.203-6.2v-0.001l0,0l0,0l0,0c0-3.423,2.779-6.201,6.203-6.201c2.272,0,4.256,1.229,5.335,3.055h4.98
		C77.964,34.344,79.372,35.753,79.372,37.491z M42.845,41.081c0.721-1.013,1.145-2.252,1.146-3.59l0,0
		C43.99,38.829,43.566,40.068,42.845,41.081z M32.454,40.637h-4.983c-1.738,0-3.147-1.409-3.147-3.147
		c0-1.738,1.409-3.147,3.147-3.147h4.983c1.079-1.826,3.063-3.055,5.335-3.055c3.424,0,6.201,2.777,6.201,6.201l0,0l0,0l0,0
		l-2.735,5.143c-0.989,0.669-2.183,1.059-3.466,1.059C35.517,43.692,33.534,42.464,32.454,40.637z M74.457,69.848
		c0,1.922-1.558,3.479-3.479,3.479H32.72c-1.921,0-3.479-1.557-3.479-3.479c0-1.92,1.558-3.478,3.479-3.478h38.259
		C72.899,66.37,74.457,67.928,74.457,69.848z M85.466,103.696H18.231c-10.053,0-18.23-8.179-18.23-18.229V18.23
		C0.001,8.178,8.179,0,18.231,0h67.235c10.053,0,18.229,8.178,18.229,18.23v67.235C103.696,95.518,95.519,103.696,85.466,103.696z
		 M18.231,8.579c-5.322,0-9.652,4.33-9.652,9.651v67.235c0,5.321,4.33,9.651,9.652,9.651h67.235c5.321,0,9.651-4.33,9.651-9.651
		V18.23c0-5.321-4.33-9.651-9.651-9.651H18.231z"/>
</g>
<g>
</g>
<g>
</g>
<g>
</g>
<g>
</g>
<g>
</g>
<g>
</g>
<g>
</g>
<g>
</g>
<g>
</g>
<g>
</g>
<g>
</g>
<g>
</g>
<g>
</g>
<g>
</g>
<g>
</g>
</svg>
