<?xml version="1.0" encoding="iso-8859-1"?>
<!-- Generator: Adobe Illustrator 16.0.0, SVG Export Plug-In . SVG Version: 6.00 Build 0)  -->
<!DOCTYPE svg PUBLIC "-//W3C//DTD SVG 1.1//EN" "http://www.w3.org/Graphics/SVG/1.1/DTD/svg11.dtd">
<svg version="1.1" id="Capa_1" xmlns="http://www.w3.org/2000/svg" xmlns:xlink="http://www.w3.org/1999/xlink" x="0px" y="0px"
	 width="103.696px" height="103.696px" viewBox="0 0 103.696 103.696" style="enable-background:new 0 0 103.696 103.696;"
	 xml:space="preserve">
<g>
	<path d="M76.168,60.664L27.53,60.596c0,0-0.001,0-0.002,0c-0.479,0-0.926,0.273-1.191,0.729c-0.267,0.455-0.316,1.032-0.132,1.54
		C30.339,74.24,40.433,81.59,51.919,81.59c11.245,0,21.28-7.314,25.562-18.636c0.191-0.506,0.148-1.089-0.116-1.55
		S76.651,60.665,76.168,60.664z M40.707,76.186c-2.64-1.153-5.017-2.711-7.013-4.614h7.013V76.186z M40.707,68.27h-9.785V63.32
		l9.785,0.011V68.27z M54.052,78.381c-0.729,0.057-1.461,0.094-2.201,0.094c-2.636,0-5.186-0.359-7.585-1.023v-5.88h9.786V78.381z
		 M54.052,68.27h-9.786v-4.935l9.786,0.011V68.27z M67.394,73.586c-2.834,2.045-6.17,3.52-9.784,4.283V71.57h9.784V73.586z
		 M67.394,68.27h-9.784v-4.92l9.784,0.013V68.27z M74.591,65.021c-0.533,1.144-1.178,2.225-1.9,3.248h-1.737v-4.903l2.47,0.002
		c0.43,0.001,0.827,0.202,1.064,0.534C74.722,64.236,74.761,64.656,74.591,65.021z M32.059,37.489c0-3.423,2.777-6.201,6.2-6.201
		c3.424,0,6.2,2.777,6.2,6.201c0,3.426-2.776,6.203-6.2,6.203C34.836,43.692,32.059,40.915,32.059,37.489z M60.175,37.489
		c0-3.423,2.781-6.201,6.203-6.201c3.424,0,6.201,2.777,6.201,6.201c0,3.426-2.777,6.203-6.201,6.203
		C62.956,43.692,60.175,40.915,60.175,37.489z"/>
	<g>
		<path d="M85.466,103.696H18.231c-10.053,0-18.23-8.179-18.23-18.229V18.23C0.001,8.178,8.179,0,18.231,0h67.235
			c10.053,0,18.229,8.178,18.229,18.23v67.235C103.696,95.518,95.519,103.696,85.466,103.696z M18.231,8.579
			c-5.322,0-9.652,4.33-9.652,9.651v67.235c0,5.321,4.33,9.651,9.652,9.651h67.235c5.321,0,9.651-4.33,9.651-9.651V18.23
			c0-5.321-4.33-9.651-9.651-9.651H18.231z"/>
	</g>
</g>
<g>
</g>
<g>
</g>
<g>
</g>
<g>
</g>
<g>
</g>
<g>
</g>
<g>
</g>
<g>
</g>
<g>
</g>
<g>
</g>
<g>
</g>
<g>
</g>
<g>
</g>
<g>
</g>
<g>
</g>
</svg>
