<?xml version="1.0" encoding="iso-8859-1"?>
<!-- Generator: Adobe Illustrator 16.0.0, SVG Export Plug-In . SVG Version: 6.00 Build 0)  -->
<!DOCTYPE svg PUBLIC "-//W3C//DTD SVG 1.1//EN" "http://www.w3.org/Graphics/SVG/1.1/DTD/svg11.dtd">
<svg version="1.1" id="Capa_1" xmlns="http://www.w3.org/2000/svg" xmlns:xlink="http://www.w3.org/1999/xlink" x="0px" y="0px"
	 width="103.696px" height="103.696px" viewBox="0 0 103.696 103.696" style="enable-background:new 0 0 103.696 103.696;"
	 xml:space="preserve">
<g>
	<path d="M61.162,44.933c0-1.744,0.725-3.318,1.885-4.445c0.014-0.015,0.022-0.032,0.037-0.047l9.457-9.455
		c1.229-1.23,3.221-1.23,4.451,0c1.229,1.229,1.229,3.221-0.002,4.449l-5.182,5.183c1.084,1.116,1.754,2.637,1.754,4.315
		c0,3.426-2.777,6.203-6.199,6.203C63.939,51.136,61.162,48.359,61.162,44.933z M32.885,40.618
		c-1.084,1.117-1.754,2.637-1.754,4.315c0,3.426,2.777,6.203,6.201,6.203c3.422,0,6.199-2.777,6.199-6.203
		c0-1.745-0.724-3.319-1.884-4.446c-0.014-0.015-0.023-0.031-0.038-0.046l-9.455-9.455c-1.23-1.23-3.223-1.23-4.451,0
		c-1.229,1.229-1.229,3.221,0,4.449L32.885,40.618z M95.254,63.138c-1.936,7.492-5.82,14.582-11.678,20.438
		c-17.494,17.493-45.962,17.495-63.455,0.002c-5.689-5.688-9.517-12.541-11.506-19.796c4.55,2.507,11.675,5.727,21.101,7.812
		c5.376,1.19,11.882,2.069,19.372,2.069C61.864,73.663,77.506,71.084,95.254,63.138z M81.223,74.536
		c-12,3.971-22.574,5.258-31.212,5.258c-5.064,0-9.461-0.439-13.097-1.033c-6.372-1.043-11.189-2.65-14.266-3.902
		c1.346,3.623,3.933,7.047,7.779,9.89c11.827,8.738,31.074,8.735,42.902-0.001C77.286,81.819,79.914,78.279,81.223,74.536z
		 M103.696,85.466V18.231c0-10.053-8.179-18.23-18.229-18.23H18.23C8.178,0.001,0,8.179,0,18.231v67.235
		c0,10.053,8.178,18.229,18.23,18.229h67.235C95.518,103.696,103.696,95.519,103.696,85.466z M85.467,8.578
		c5.32,0,9.65,4.33,9.65,9.652v67.234c0,5.322-4.33,9.652-9.65,9.652H18.23c-5.321,0-9.651-4.33-9.651-9.652V18.231
		c0-5.322,4.33-9.652,9.651-9.652L85.467,8.578L85.467,8.578z"/>
</g>
<g>
</g>
<g>
</g>
<g>
</g>
<g>
</g>
<g>
</g>
<g>
</g>
<g>
</g>
<g>
</g>
<g>
</g>
<g>
</g>
<g>
</g>
<g>
</g>
<g>
</g>
<g>
</g>
<g>
</g>
</svg>
