<?xml version="1.0" encoding="iso-8859-1"?>
<!-- Generator: Adobe Illustrator 16.0.0, SVG Export Plug-In . SVG Version: 6.00 Build 0)  -->
<!DOCTYPE svg PUBLIC "-//W3C//DTD SVG 1.1//EN" "http://www.w3.org/Graphics/SVG/1.1/DTD/svg11.dtd">
<svg version="1.1" id="Capa_1" xmlns="http://www.w3.org/2000/svg" xmlns:xlink="http://www.w3.org/1999/xlink" x="0px" y="0px"
	 width="103.696px" height="103.696px" viewBox="0 0 103.696 103.696" style="enable-background:new 0 0 103.696 103.696;"
	 xml:space="preserve">
<g>
	<path d="M62.585,44.444c-1.229-1.229-1.229-3.222,0-4.451l9.456-9.455c1.229-1.229,3.223-1.229,4.451,0s1.229,3.222-0.001,4.451
		l-9.455,9.456C65.807,45.672,63.813,45.672,62.585,44.444z M76.698,46.818c0,2.254-1.827,4.081-4.079,4.081
		s-4.079-1.827-4.079-4.081c0-2.252,1.827-4.08,4.079-4.08C74.87,42.738,76.698,44.565,76.698,46.818z M27.205,34.988
		c-1.229-1.229-1.229-3.222-0.001-4.451c1.229-1.229,3.222-1.229,4.451,0l9.456,9.455c1.229,1.229,1.229,3.222,0,4.451
		c-1.229,1.229-3.223,1.229-4.451,0L27.205,34.988z M31.078,42.738c2.252,0,4.079,1.827,4.079,4.08c0,2.254-1.827,4.081-4.079,4.081
		c-2.251,0-4.079-1.827-4.079-4.081C26.999,44.565,28.827,42.738,31.078,42.738z M69.532,56.152H34.17
		c-4.687,0-8.486,3.8-8.486,8.486v9.752c0,4.687,3.799,8.485,8.486,8.485h35.361c4.688,0,8.486-3.8,8.486-8.485v-9.752
		C78.018,59.952,74.217,56.152,69.532,56.152z M37.775,79.573h-5.322c-1.297-0.938-2.271-2.294-2.725-3.872v-4.176h8.047V79.573z
		 M37.775,67.504h-8.047v-4.175c0.454-1.578,1.428-2.935,2.725-3.873h5.322V67.504z M49.832,79.573h-8.033v-8.048h8.033V79.573z
		 M49.832,67.504h-8.033v-8.048h8.033V67.504z M61.903,79.573H53.87v-8.048h8.033V79.573z M61.903,67.504H53.87v-8.048h8.033V67.504
		z M73.973,75.701c-0.455,1.578-1.429,2.934-2.726,3.872h-5.321v-8.048h8.047V75.701z M73.973,67.504h-8.047v-8.048h5.321
		c1.297,0.938,2.271,2.295,2.726,3.873V67.504z M85.467,103.696H18.23C8.179,103.696,0,95.518,0,85.467V18.23
		C0,8.178,8.179,0,18.23,0h67.235c10.053,0,18.23,8.178,18.23,18.23v67.235C103.697,95.518,95.518,103.696,85.467,103.696z
		 M18.23,8.579c-5.321,0-9.651,4.33-9.651,9.651v67.235c0,5.321,4.33,9.651,9.651,9.651h67.235c5.321,0,9.651-4.33,9.651-9.651
		V18.23c0-5.321-4.33-9.651-9.651-9.651H18.23z"/>
</g>
<g>
</g>
<g>
</g>
<g>
</g>
<g>
</g>
<g>
</g>
<g>
</g>
<g>
</g>
<g>
</g>
<g>
</g>
<g>
</g>
<g>
</g>
<g>
</g>
<g>
</g>
<g>
</g>
<g>
</g>
</svg>
