<?xml version="1.0" encoding="iso-8859-1"?>
<!-- Generator: Adobe Illustrator 16.0.0, SVG Export Plug-In . SVG Version: 6.00 Build 0)  -->
<!DOCTYPE svg PUBLIC "-//W3C//DTD SVG 1.1//EN" "http://www.w3.org/Graphics/SVG/1.1/DTD/svg11.dtd">
<svg version="1.1" id="Capa_1" xmlns="http://www.w3.org/2000/svg" xmlns:xlink="http://www.w3.org/1999/xlink" x="0px" y="0px"
	 width="103.695px" height="103.695px" viewBox="0 0 103.695 103.695" style="enable-background:new 0 0 103.695 103.695;"
	 xml:space="preserve">
<g>
	<path d="M25.818,68.684c0,0-2.958-11.438,6.705-8.875c0,0,17.144,9.295,38.651,0c9.663-2.562,6.705,8.875,6.705,8.875
		c-5.521,16.959-26.031,15.578-26.031,15.578S31.339,85.643,25.818,68.684z M32.059,37.489c0-3.424,2.777-6.201,6.201-6.201
		c3.423,0,6.2,2.777,6.2,6.201c0,3.426-2.777,6.203-6.2,6.203C34.836,43.692,32.059,40.914,32.059,37.489z M60.176,37.489
		c0-3.424,2.78-6.201,6.203-6.201c3.424,0,6.201,2.777,6.201,6.201c0,3.426-2.777,6.203-6.201,6.203
		C62.956,43.692,60.176,40.914,60.176,37.489z M85.467,103.695H18.23C8.178,103.695,0,95.518,0,85.465V18.23
		C0,8.177,8.178,0,18.23,0h67.235c10.053,0,18.23,8.178,18.23,18.23v67.235C103.696,95.518,95.518,103.695,85.467,103.695z
		 M18.23,8.577c-5.321,0-9.651,4.33-9.651,9.652v67.234c0,5.322,4.33,9.652,9.651,9.652h67.235c5.321,0,9.651-4.33,9.651-9.652
		V18.23c0-5.322-4.33-9.652-9.651-9.652L18.23,8.577L18.23,8.577z"/>
</g>
<g>
</g>
<g>
</g>
<g>
</g>
<g>
</g>
<g>
</g>
<g>
</g>
<g>
</g>
<g>
</g>
<g>
</g>
<g>
</g>
<g>
</g>
<g>
</g>
<g>
</g>
<g>
</g>
<g>
</g>
</svg>
