<?xml version="1.0" encoding="iso-8859-1"?>
<!-- Generator: Adobe Illustrator 16.0.0, SVG Export Plug-In . SVG Version: 6.00 Build 0)  -->
<!DOCTYPE svg PUBLIC "-//W3C//DTD SVG 1.1//EN" "http://www.w3.org/Graphics/SVG/1.1/DTD/svg11.dtd">
<svg version="1.1" id="Capa_1" xmlns="http://www.w3.org/2000/svg" xmlns:xlink="http://www.w3.org/1999/xlink" x="0px" y="0px"
	 width="103.695px" height="103.695px" viewBox="0 0 103.695 103.695" style="enable-background:new 0 0 103.695 103.695;"
	 xml:space="preserve">
<g>
	<path d="M73.727,59.436c-0.733,0-1.58,0.115-2.553,0.373c-7.171,3.1-13.854,4.131-19.581,4.131
		c-11.451,0-19.072-4.131-19.072-4.131c-0.898-0.238-1.834-0.352-2.551-0.367v-0.006h-0.001c-0.019,0-0.033,0.004-0.052,0.004
		c-0.042,0-0.092-0.004-0.132-0.004l0.001,0.017c-6.297,0.187-3.969,9.231-3.969,9.231C30.566,83.27,46.4,84.289,50.739,84.289
		c0.706,0,1.108-0.027,1.108-0.027s0.401,0.027,1.108,0.027c4.34,0,20.174-1.021,24.923-15.605
		C77.879,68.684,80.271,59.436,73.727,59.436z M31.598,72.189c-0.803-1.219-1.491-2.602-2.015-4.182
		c-0.356-1.488-0.494-4.027,0.182-4.895c0.072-0.092,0.242-0.301,0.95-0.316c0.246,0.004,0.561,0.031,0.883,0.075V72.189z
		 M40.931,79.251c-1.813-0.659-3.647-1.573-5.333-2.834V64.393c1.421,0.513,3.218,1.066,5.333,1.545V79.251z M50.515,80.93
		c-1.265-0.014-3.274-0.123-5.583-0.576V66.662c1.728,0.239,3.595,0.398,5.583,0.443V80.93z M59.516,80.196
		c-1.908,0.428-3.65,0.612-5,0.688V67.032c1.672-0.101,3.34-0.286,5-0.56V80.196z M68.432,76.16
		c-1.547,1.214-3.23,2.126-4.918,2.805v-13.32c1.651-0.412,3.291-0.909,4.918-1.493V76.16z M74.114,68.006
		c-0.449,1.355-1.022,2.563-1.683,3.651v-8.829c0.158-0.016,0.321-0.035,0.463-0.035c0.787,0,0.961,0.225,1.037,0.32
		C74.609,63.982,74.469,66.528,74.114,68.006z M32.059,37.489c0-3.424,2.777-6.201,6.201-6.201c3.423,0,6.2,2.777,6.2,6.201
		c0,3.426-2.777,6.203-6.2,6.203C34.836,43.692,32.059,40.914,32.059,37.489z M60.176,37.489c0-3.424,2.78-6.201,6.203-6.201
		c3.424,0,6.201,2.777,6.201,6.201c0,3.426-2.777,6.203-6.201,6.203C62.956,43.692,60.176,40.914,60.176,37.489z M85.467,103.695
		H18.23C8.178,103.695,0,95.518,0,85.465V18.23C0,8.177,8.178,0,18.23,0h67.235c10.053,0,18.23,8.178,18.23,18.23v67.235
		C103.696,95.518,95.518,103.695,85.467,103.695z M18.23,8.577c-5.321,0-9.651,4.33-9.651,9.652v67.234
		c0,5.322,4.33,9.652,9.651,9.652h67.235c5.321,0,9.651-4.33,9.651-9.652V18.23c0-5.322-4.33-9.652-9.651-9.652L18.23,8.577
		L18.23,8.577z"/>
</g>
<g>
</g>
<g>
</g>
<g>
</g>
<g>
</g>
<g>
</g>
<g>
</g>
<g>
</g>
<g>
</g>
<g>
</g>
<g>
</g>
<g>
</g>
<g>
</g>
<g>
</g>
<g>
</g>
<g>
</g>
</svg>
