<?xml version="1.0" encoding="iso-8859-1"?>
<!-- Generator: Adobe Illustrator 16.0.0, SVG Export Plug-In . SVG Version: 6.00 Build 0)  -->
<!DOCTYPE svg PUBLIC "-//W3C//DTD SVG 1.1//EN" "http://www.w3.org/Graphics/SVG/1.1/DTD/svg11.dtd">
<svg version="1.1" id="Capa_1" xmlns="http://www.w3.org/2000/svg" xmlns:xlink="http://www.w3.org/1999/xlink" x="0px" y="0px"
	 width="103.695px" height="103.695px" viewBox="0 0 103.695 103.695" style="enable-background:new 0 0 103.695 103.695;"
	 xml:space="preserve">
<g>
	<path d="M43.682,83.084c1.339,0.479,2.721,0.848,4.132,1.096c1.343,0.234,2.713,0.363,4.105,0.363c1.341,0,2.662-0.127,3.96-0.354
		c1.41-0.248,2.793-0.615,4.135-1.102c7.785-2.818,14.248-9.408,17.469-16.85c0.191-0.443,0.146-0.953-0.118-1.355
		c-0.265-0.404-0.714-0.646-1.196-0.647l-48.637-0.058c-0.001,0-0.002,0-0.002,0c-0.479,0-0.926,0.237-1.192,0.637
		c-0.266,0.398-0.315,0.904-0.131,1.348C29.312,73.639,35.784,80.256,43.682,83.084z M55.794,80.094
		c-1.266,0.282-2.559,0.449-3.874,0.449c-1.366,0-2.705-0.172-4.014-0.464c-0.688-0.153-1.366-0.347-2.034-0.567
		c1.146-2.469,3.649-4.045,5.977-4.045c2.331,0,4.836,1.58,5.98,4.053C57.16,79.744,56.482,79.939,55.794,80.094z M71.854,68.23
		c-2.203,3.271-5.243,6.422-8.787,8.719c-2.232-3.271-6.411-5.482-11.218-5.482c-4.813,0-8.998,2.217-11.229,5.496
		c-3.6-2.308-6.658-5.48-8.832-8.781L71.854,68.23z M32.059,37.488c0-3.424,2.777-6.201,6.2-6.201c3.423,0,6.2,2.777,6.2,6.201
		c0,3.426-2.777,6.203-6.2,6.203C34.836,43.691,32.059,40.913,32.059,37.488z M60.176,37.488c0-3.424,2.78-6.201,6.203-6.201
		c3.424,0,6.2,2.777,6.2,6.201c0,3.426-2.776,6.203-6.2,6.203C62.956,43.691,60.176,40.913,60.176,37.488z M85.467,103.695H18.23
		C8.178,103.695,0,95.518,0,85.465V18.23C0,8.177,8.178,0,18.23,0h67.235c10.053,0,18.23,8.178,18.23,18.23v67.235
		C103.696,95.518,95.518,103.695,85.467,103.695z M18.23,8.577c-5.321,0-9.651,4.33-9.651,9.652v67.234
		c0,5.322,4.33,9.652,9.651,9.652h67.235c5.321,0,9.651-4.33,9.651-9.652V18.23c0-5.322-4.33-9.652-9.651-9.652L18.23,8.577
		L18.23,8.577z"/>
</g>
<g>
</g>
<g>
</g>
<g>
</g>
<g>
</g>
<g>
</g>
<g>
</g>
<g>
</g>
<g>
</g>
<g>
</g>
<g>
</g>
<g>
</g>
<g>
</g>
<g>
</g>
<g>
</g>
<g>
</g>
</svg>
