<?xml version="1.0" encoding="iso-8859-1"?>
<!-- Generator: Adobe Illustrator 16.0.0, SVG Export Plug-In . SVG Version: 6.00 Build 0)  -->
<!DOCTYPE svg PUBLIC "-//W3C//DTD SVG 1.1//EN" "http://www.w3.org/Graphics/SVG/1.1/DTD/svg11.dtd">
<svg version="1.1" id="Capa_1" xmlns="http://www.w3.org/2000/svg" xmlns:xlink="http://www.w3.org/1999/xlink" x="0px" y="0px"
	 width="103.696px" height="103.696px" viewBox="0 0 103.696 103.696" style="enable-background:new 0 0 103.696 103.696;"
	 xml:space="preserve">
<g>
	<path d="M19.809,36.527v-0.409c0-4.844,3.403-8.771,7.6-8.771h12.982c3.397,0,6.273,2.574,7.246,6.125h8.424
		c0.973-3.55,3.849-6.125,7.246-6.125h12.981c4.196,0,7.601,3.926,7.601,8.771v0.409c0,4.844-3.403,8.771-7.601,8.771H63.307
		c-4.129,0-7.479-3.8-7.59-8.533H47.98c-0.11,4.733-3.462,8.533-7.59,8.533H27.409C23.211,45.297,19.809,41.371,19.809,36.527z
		 M74.368,61.721c-3.844,8.885-12.844,14.627-22.928,14.627c-10.301,0-19.354-5.771-23.064-14.703
		c-0.636-1.529,0.089-3.285,1.619-3.92c0.377-0.156,0.767-0.23,1.15-0.23c1.176,0,2.292,0.695,2.771,1.85
		c2.777,6.686,9.656,11.004,17.524,11.004c7.689,0,14.528-4.322,17.421-11.01c0.657-1.521,2.424-2.223,3.944-1.564
		C74.326,58.434,75.024,60.199,74.368,61.721z"/>
	<g>
		<path d="M85.467,103.696H18.23C8.179,103.696,0,95.518,0,85.467V18.23C0,8.178,8.179,0,18.23,0h67.235
			c10.053,0,18.23,8.178,18.23,18.23v67.235C103.697,95.518,95.518,103.696,85.467,103.696z M18.23,8.579
			c-5.321,0-9.651,4.33-9.651,9.651v67.235c0,5.321,4.33,9.651,9.651,9.651h67.235c5.321,0,9.651-4.33,9.651-9.651V18.23
			c0-5.321-4.33-9.651-9.651-9.651H18.23z"/>
	</g>
</g>
<g>
</g>
<g>
</g>
<g>
</g>
<g>
</g>
<g>
</g>
<g>
</g>
<g>
</g>
<g>
</g>
<g>
</g>
<g>
</g>
<g>
</g>
<g>
</g>
<g>
</g>
<g>
</g>
<g>
</g>
</svg>
