<?xml version="1.0" encoding="iso-8859-1"?>
<!-- Generator: Adobe Illustrator 16.0.0, SVG Export Plug-In . SVG Version: 6.00 Build 0)  -->
<!DOCTYPE svg PUBLIC "-//W3C//DTD SVG 1.1//EN" "http://www.w3.org/Graphics/SVG/1.1/DTD/svg11.dtd">
<svg version="1.1" id="Capa_1" xmlns="http://www.w3.org/2000/svg" xmlns:xlink="http://www.w3.org/1999/xlink" x="0px" y="0px"
	 width="103.696px" height="103.695px" viewBox="0 0 103.696 103.695" style="enable-background:new 0 0 103.696 103.695;"
	 xml:space="preserve">
<g>
	<path d="M27.614,44.299c-1.23,1.148-3.115,1.07-4.248-0.143c-1.133-1.212-1.07-3.113,0.143-4.246
		c5.863-5.483,12.408-2.385,15.072,0c1.236,1.107,1.342,3.007,0.234,4.243c-0.117,0.13-0.242,0.249-0.375,0.354
		c-1.127,0.892-2.762,0.871-3.867-0.119C34.202,44.058,30.864,41.247,27.614,44.299z M80.083,39.946
		c1.236,1.107,1.343,3.007,0.236,4.243c-0.117,0.13-0.244,0.249-0.377,0.354c-1.125,0.892-2.763,0.871-3.867-0.119
		c-0.369-0.33-3.707-3.141-6.959-0.089c-1.229,1.148-3.115,1.07-4.246-0.143c-1.133-1.212-1.069-3.113,0.142-4.246
		C70.876,34.462,77.419,37.561,80.083,39.946z M76.026,60.129l-48.639-0.068c0,0,0,0-0.002,0c-0.479,0-0.926,0.273-1.191,0.729
		c-0.265,0.456-0.316,1.033-0.131,1.54c4.133,11.374,14.227,18.725,25.713,18.725c11.246,0,21.281-7.313,25.564-18.635
		c0.19-0.508,0.147-1.09-0.117-1.551C76.958,60.408,76.508,60.129,76.026,60.129z M40.564,75.65
		c-2.641-1.154-5.018-2.713-7.014-4.615h7.014V75.65z M40.564,67.735H30.78v-4.95l9.785,0.012V67.735z M53.909,77.844
		c-0.729,0.059-1.461,0.096-2.201,0.096c-2.635,0-5.186-0.359-7.584-1.023v-5.881h9.785V77.844z M53.909,67.735h-9.785v-4.935
		l9.785,0.01V67.735z M67.25,73.051c-2.834,2.045-6.17,3.52-9.784,4.282v-6.299h9.784V73.051z M67.25,67.735h-9.784v-4.921
		l9.784,0.013V67.735z M74.448,64.486c-0.533,1.145-1.178,2.225-1.9,3.249h-1.738v-4.904l2.47,0.002
		c0.43,0.001,0.827,0.202,1.065,0.534C74.578,63.701,74.618,64.12,74.448,64.486z M85.465,103.695H18.23
		C8.178,103.695,0,95.518,0,85.465V18.23C0,8.177,8.179,0,18.23,0h67.235c10.053,0,18.229,8.178,18.229,18.23v67.235
		C103.696,95.518,95.518,103.695,85.465,103.695z M18.23,8.577c-5.322,0-9.652,4.33-9.652,9.652v67.234
		c0,5.322,4.33,9.652,9.652,9.652h67.235c5.321,0,9.651-4.33,9.651-9.652V18.23c0-5.322-4.33-9.652-9.651-9.652L18.23,8.577
		L18.23,8.577z"/>
</g>
<g>
</g>
<g>
</g>
<g>
</g>
<g>
</g>
<g>
</g>
<g>
</g>
<g>
</g>
<g>
</g>
<g>
</g>
<g>
</g>
<g>
</g>
<g>
</g>
<g>
</g>
<g>
</g>
<g>
</g>
</svg>
