<?xml version="1.0" encoding="iso-8859-1"?>
<!-- Generator: Adobe Illustrator 16.0.0, SVG Export Plug-In . SVG Version: 6.00 Build 0)  -->
<!DOCTYPE svg PUBLIC "-//W3C//DTD SVG 1.1//EN" "http://www.w3.org/Graphics/SVG/1.1/DTD/svg11.dtd">
<svg version="1.1" id="Capa_1" xmlns="http://www.w3.org/2000/svg" xmlns:xlink="http://www.w3.org/1999/xlink" x="0px" y="0px"
	 width="103.696px" height="103.696px" viewBox="0 0 103.696 103.696" style="enable-background:new 0 0 103.696 103.696;"
	 xml:space="preserve">
<g>
	<path d="M77.366,59.885c0.266,0.402,0.311,0.912,0.117,1.355c-4.284,9.904-14.317,16.304-25.562,16.304
		c-11.486,0-21.58-6.431-25.714-16.382c-0.185-0.443-0.135-0.949,0.131-1.348c0.267-0.397,0.714-0.637,1.192-0.637
		c0.001,0,0.001,0,0.002,0l48.638,0.061C76.652,59.238,77.1,59.48,77.366,59.885z M31.941,35.827c0-1.025,0.365-2.114,1.002-2.988
		c0.729-1,1.684-1.551,2.691-1.551c1,0,1.942,0.437,2.625,1.173c0.684-0.736,1.626-1.173,2.626-1.173
		c1.006,0,1.961,0.551,2.688,1.551c0.637,0.874,1.002,1.963,1.002,2.988c0,1.628-1.006,3.473-2.991,5.485
		c-1.414,1.434-2.812,2.425-2.87,2.466c-0.137,0.097-0.296,0.145-0.455,0.145c-0.156,0-0.313-0.046-0.446-0.138
		C37.574,43.62,31.941,39.717,31.941,35.827z M60.061,35.827c0-1.025,0.365-2.114,1.002-2.988c0.729-1,1.684-1.551,2.69-1.551
		c1,0,1.942,0.437,2.625,1.173c0.685-0.736,1.626-1.173,2.626-1.173c1.006,0,1.961,0.551,2.688,1.551
		c0.637,0.874,1.002,1.963,1.002,2.988c0,1.628-1.007,3.473-2.991,5.485c-1.414,1.434-2.812,2.425-2.87,2.466
		c-0.137,0.097-0.296,0.145-0.455,0.145c-0.155,0-0.313-0.046-0.446-0.138C65.693,43.62,60.061,39.717,60.061,35.827z
		 M85.467,103.696H18.23C8.179,103.696,0,95.518,0,85.467V18.23C0,8.178,8.179,0,18.23,0h67.235c10.053,0,18.23,8.178,18.23,18.23
		v67.235C103.697,95.518,95.518,103.696,85.467,103.696z M18.23,8.579c-5.321,0-9.651,4.33-9.651,9.651v67.235
		c0,5.321,4.33,9.651,9.651,9.651h67.235c5.321,0,9.651-4.33,9.651-9.651V18.23c0-5.321-4.33-9.651-9.651-9.651H18.23z"/>
</g>
<g>
</g>
<g>
</g>
<g>
</g>
<g>
</g>
<g>
</g>
<g>
</g>
<g>
</g>
<g>
</g>
<g>
</g>
<g>
</g>
<g>
</g>
<g>
</g>
<g>
</g>
<g>
</g>
<g>
</g>
</svg>
