<?xml version="1.0" encoding="iso-8859-1"?>
<!-- Generator: Adobe Illustrator 16.0.0, SVG Export Plug-In . SVG Version: 6.00 Build 0)  -->
<!DOCTYPE svg PUBLIC "-//W3C//DTD SVG 1.1//EN" "http://www.w3.org/Graphics/SVG/1.1/DTD/svg11.dtd">
<svg version="1.1" id="Capa_1" xmlns="http://www.w3.org/2000/svg" xmlns:xlink="http://www.w3.org/1999/xlink" x="0px" y="0px"
	 width="103.695px" height="103.696px" viewBox="0 0 103.695 103.696" style="enable-background:new 0 0 103.695 103.696;"
	 xml:space="preserve">
<g>
	<path d="M75.729,74.856c0.658,1.521-0.043,3.287-1.563,3.945s-3.287-0.043-3.944-1.563c-2.894-6.688-9.73-11.013-17.42-11.013
		c-7.869,0-14.746,4.32-17.523,11.006c-0.48,1.152-1.596,1.85-2.771,1.851c-0.383,0-0.773-0.073-1.15-0.229
		c-1.529-0.637-2.254-2.394-1.619-3.922c3.71-8.933,12.762-14.703,23.063-14.703C62.885,60.227,71.885,65.969,75.729,74.856z
		 M53.188,69.292c-3.697,0-6.691,2.997-6.691,6.693s2.994,6.692,6.691,6.692c3.695,0,6.69-2.996,6.69-6.692
		S56.883,69.292,53.188,69.292z M65.753,37.406c0,1.771,1.435,3.205,3.203,3.205s3.203-1.434,3.203-3.205
		c0-1.768-1.437-3.203-3.203-3.203C67.188,34.202,65.753,35.638,65.753,37.406z M33.542,37.406c0,1.771,1.434,3.205,3.203,3.205
		c1.768,0,3.203-1.434,3.203-3.205c0-1.768-1.436-3.203-3.203-3.203C34.976,34.202,33.542,35.638,33.542,37.406z M103.695,18.23
		v67.235c0,10.053-8.178,18.229-18.23,18.229H18.23C8.177,103.695,0,95.516,0,85.465V18.23C0,8.178,8.178,0,18.23,0h67.235
		C95.518,0,103.695,8.178,103.695,18.23z M8.577,18.23v13.331h16.375c2.158-4.336,6.633-7.322,11.793-7.322
		c6.279,0,11.541,4.424,12.848,10.316h6.676c1.293-5.912,6.563-10.354,12.856-10.354c5.177,0,9.658,3.005,11.808,7.359h14.184V18.23
		c0-5.322-4.33-9.652-9.652-9.652H18.23C12.908,8.578,8.577,12.909,8.577,18.23z M69.126,28.281c-5.012,0-9.09,4.076-9.09,9.088
		s4.078,9.09,9.09,9.09c5.011,0,9.089-4.078,9.089-9.09S74.137,28.281,69.126,28.281z M36.745,28.317
		c-5.012,0-9.09,4.076-9.09,9.088c0,5.012,4.078,9.09,9.09,9.09c5.01,0,9.088-4.078,9.088-9.09
		C45.833,32.394,41.755,28.317,36.745,28.317z M95.117,85.465V36.539h-12.91l0.066,0.421c0.004,0.137,0.02,0.271,0.02,0.408
		c0,7.262-5.906,13.168-13.166,13.168c-7.098,0-12.887-5.65-13.143-12.688H49.89c-0.236,7.055-6.035,12.725-13.145,12.725
		c-7.26,0-13.166-5.906-13.166-13.168c0-0.084,0.01-0.168,0.012-0.252l0.098-0.614H8.577v48.927c0,5.321,4.33,9.651,9.652,9.651
		h67.234C90.786,95.118,95.117,90.787,95.117,85.465z"/>
</g>
<g>
</g>
<g>
</g>
<g>
</g>
<g>
</g>
<g>
</g>
<g>
</g>
<g>
</g>
<g>
</g>
<g>
</g>
<g>
</g>
<g>
</g>
<g>
</g>
<g>
</g>
<g>
</g>
<g>
</g>
</svg>
