<?xml version="1.0" encoding="iso-8859-1"?>
<!-- Generator: Adobe Illustrator 16.0.0, SVG Export Plug-In . SVG Version: 6.00 Build 0)  -->
<!DOCTYPE svg PUBLIC "-//W3C//DTD SVG 1.1//EN" "http://www.w3.org/Graphics/SVG/1.1/DTD/svg11.dtd">
<svg version="1.1" id="Capa_1" xmlns="http://www.w3.org/2000/svg" xmlns:xlink="http://www.w3.org/1999/xlink" x="0px" y="0px"
	 width="103.695px" height="103.696px" viewBox="0 0 103.695 103.696" style="enable-background:new 0 0 103.695 103.696;"
	 xml:space="preserve">
<g>
	<path d="M74.895,69.274v5.609c0,2.803-2.084,5.084-4.644,5.084c-2.562,0-4.643-2.281-4.643-5.084c0,2.803-2.082,5.084-4.644,5.084
		c-2.18,0-4.002-1.66-4.496-3.883c-0.496,2.223-2.315,3.883-4.498,3.883c-2.561,0-4.643-2.281-4.643-5.084
		c0,2.803-2.082,5.084-4.643,5.084c-2.18,0-4.002-1.66-4.496-3.883c-0.496,2.223-2.316,3.883-4.498,3.883
		c-2.559,0-4.643-2.281-4.643-5.084v-5.609c0-2.803,2.084-5.082,4.643-5.082c0.195,0,0.379,0.037,0.566,0.062
		c0.201-0.039,0.408-0.062,0.621-0.062h34.649c0.129,0,0.252,0.021,0.379,0.037c0.115-0.01,0.227-0.037,0.346-0.037
		C72.811,64.192,74.895,66.471,74.895,69.274z M32.382,41.49c0,1.771,1.434,3.205,3.203,3.205c1.768,0,3.203-1.435,3.203-3.205
		c0-1.769-1.436-3.203-3.203-3.203C33.816,38.286,32.382,39.721,32.382,41.49z M64.594,41.49c0,1.771,1.434,3.205,3.203,3.205
		c1.768,0,3.202-1.435,3.202-3.205c0-1.769-1.437-3.203-3.202-3.203C66.027,38.286,64.594,39.721,64.594,41.49z M103.695,18.23
		v67.235c0,10.053-8.178,18.229-18.23,18.229H18.23C8.177,103.695,0,95.516,0,85.465V18.23C0,8.178,8.178,0,18.23,0h67.235
		C95.518,0,103.695,8.178,103.695,18.23z M8.577,18.23v12.459l14.418,6.948c1.652-5.387,6.67-9.314,12.59-9.314
		c6.279,0,11.541,4.423,12.848,10.316h6.676c1.293-5.912,6.564-10.354,12.857-10.354c5.944,0,10.979,3.965,12.606,9.389
		l14.543-6.779V18.23c0-5.322-4.33-9.652-9.651-9.652H18.23C12.908,8.578,8.577,12.909,8.577,18.23z M67.967,32.364
		c-5.013,0-9.091,4.077-9.091,9.089s4.078,9.089,9.091,9.089c5.01,0,9.088-4.077,9.088-9.089S72.977,32.364,67.967,32.364z
		 M35.585,32.4c-5.012,0-9.09,4.077-9.09,9.089c0,5.012,4.078,9.089,9.09,9.089c5.01,0,9.088-4.077,9.088-9.089
		C44.673,36.478,40.595,32.4,35.585,32.4z M95.117,85.465v-50.94l-14.004,6.52c0.004,0.137,0.02,0.271,0.02,0.408
		c0,7.261-5.906,13.167-13.166,13.167c-7.098,0-12.887-5.649-13.143-12.688H48.73c-0.236,7.055-6.035,12.725-13.145,12.725
		c-7.26,0-13.166-5.906-13.166-13.167c0-0.085,0.01-0.168,0.012-0.252L8.577,34.573v50.893c0,5.322,4.33,9.652,9.652,9.652h67.234
		C90.786,95.118,95.117,90.787,95.117,85.465z"/>
</g>
<g>
</g>
<g>
</g>
<g>
</g>
<g>
</g>
<g>
</g>
<g>
</g>
<g>
</g>
<g>
</g>
<g>
</g>
<g>
</g>
<g>
</g>
<g>
</g>
<g>
</g>
<g>
</g>
<g>
</g>
</svg>
