<?xml version="1.0" encoding="iso-8859-1"?>
<!-- Generator: Adobe Illustrator 16.0.0, SVG Export Plug-In . SVG Version: 6.00 Build 0)  -->
<!DOCTYPE svg PUBLIC "-//W3C//DTD SVG 1.1//EN" "http://www.w3.org/Graphics/SVG/1.1/DTD/svg11.dtd">
<svg version="1.1" id="Capa_1" xmlns="http://www.w3.org/2000/svg" xmlns:xlink="http://www.w3.org/1999/xlink" x="0px" y="0px"
	 width="103.696px" height="103.695px" viewBox="0 0 103.696 103.695" style="enable-background:new 0 0 103.696 103.695;"
	 xml:space="preserve">
<g>
	<path d="M43.327,63.719v2.649h6.043v-2.649c0-1.922,1.557-3.479,3.479-3.479c1.92,0,3.479,1.558,3.479,3.479v2.649h5.543v-2.649
		c0-1.922,1.558-3.479,3.479-3.479c1.92,0,3.479,1.558,3.479,3.479v2.649h3.15c1.922,0,3.479,1.558,3.479,3.479
		c0,1.92-1.557,3.479-3.479,3.479h-3.152v2.65c0,1.922-1.557,3.479-3.479,3.479c-1.92,0-3.479-1.557-3.479-3.479v-2.65h-5.543v2.65
		c0,1.922-1.558,3.479-3.479,3.479c-1.919,0-3.479-1.557-3.479-3.479v-2.65h-6.043v2.65c0,1.922-1.557,3.479-3.479,3.479
		c-1.92,0-3.479-1.557-3.479-3.479v-2.65h-2.648c-1.922,0-3.479-1.559-3.479-3.479c0-1.922,1.557-3.479,3.479-3.479h2.65v-2.649
		c0-1.922,1.557-3.479,3.479-3.479C41.768,60.24,43.327,61.797,43.327,63.719z M42.35,39.488c0,3.426-1.832,6.203-4.09,6.203
		c-2.258,0-4.09-2.777-4.09-6.203c0-3.424,1.832-6.201,4.09-6.201C40.518,33.287,42.35,36.064,42.35,39.488z M28.635,31.863
		c0.506-2.932,3.172-8.333,9.83-7.787c1.375,0.113,2.398,1.32,2.285,2.697c-0.111,1.375-1.301,2.4-2.695,2.287
		c-3.697-0.312-4.422,3.246-4.492,3.652c-0.211,1.217-1.268,2.075-2.461,2.075c-0.141,0-0.285-0.013-0.428-0.036
		C29.312,34.516,28.401,33.223,28.635,31.863z M62.287,39.488c0-3.424,1.832-6.201,4.09-6.201c2.259,0,4.091,2.777,4.091,6.201
		c0,3.426-1.832,6.203-4.091,6.203C64.119,45.691,62.287,42.913,62.287,39.488z M63.887,26.773c-0.113-1.377,0.91-2.584,2.285-2.697
		c6.657-0.546,9.323,4.855,9.829,7.787c0.234,1.36-0.678,2.653-2.038,2.889c-0.144,0.022-0.287,0.036-0.429,0.036
		c-1.192,0-2.25-0.858-2.461-2.075c-0.069-0.406-0.795-3.964-4.492-3.652C65.188,29.173,63.998,28.148,63.887,26.773z
		 M85.465,103.695H18.23C8.178,103.695,0,95.518,0,85.465V18.23C0,8.177,8.179,0,18.23,0h67.235c10.053,0,18.229,8.178,18.229,18.23
		v67.235C103.696,95.518,95.518,103.695,85.465,103.695z M18.23,8.577c-5.322,0-9.652,4.33-9.652,9.652v67.234
		c0,5.322,4.33,9.652,9.652,9.652h67.235c5.321,0,9.651-4.33,9.651-9.652V18.23c0-5.322-4.33-9.652-9.651-9.652L18.23,8.577
		L18.23,8.577z"/>
</g>
<g>
</g>
<g>
</g>
<g>
</g>
<g>
</g>
<g>
</g>
<g>
</g>
<g>
</g>
<g>
</g>
<g>
</g>
<g>
</g>
<g>
</g>
<g>
</g>
<g>
</g>
<g>
</g>
<g>
</g>
</svg>
