<?xml version="1.0" encoding="iso-8859-1"?>
<!-- Generator: Adobe Illustrator 16.0.0, SVG Export Plug-In . SVG Version: 6.00 Build 0)  -->
<!DOCTYPE svg PUBLIC "-//W3C//DTD SVG 1.1//EN" "http://www.w3.org/Graphics/SVG/1.1/DTD/svg11.dtd">
<svg version="1.1" id="Capa_1" xmlns="http://www.w3.org/2000/svg" xmlns:xlink="http://www.w3.org/1999/xlink" x="0px" y="0px"
	 width="103.696px" height="103.695px" viewBox="0 0 103.696 103.695" style="enable-background:new 0 0 103.696 103.695;"
	 xml:space="preserve">
<g>
	<path d="M40.645,46.062c-2.42,2.421-6.348,2.421-8.771-0.002c-2.42-2.42-2.42-6.348,0-8.769c2.422-2.421,6.35-2.421,8.77,0.001
		C43.064,39.714,43.064,43.642,40.645,46.062z M73.028,37.385c2.42,2.421,2.42,6.349,0,8.769c-2.424,2.423-6.352,2.423-8.771,0.002
		c-2.42-2.42-2.42-6.348,0.002-8.77C66.678,34.964,70.606,34.964,73.028,37.385z M61.698,69.436l-2.678,2.681l2.678,2.676
		c0.957,0.959,1.486,2.233,1.486,3.587s-0.527,2.629-1.486,3.588c-1.916,1.918-5.254,1.92-7.174,0l-2.678-2.676l-2.676,2.676
		c-0.959,0.961-2.232,1.486-3.588,1.486c-1.354,0-2.627-0.527-3.586-1.486c-1.977-1.976-1.977-5.193,0-7.17l2.678-2.681l-2.68-2.679
		c-1.877-1.879-1.973-4.916-0.219-6.92c0.039-0.051,0.119-0.146,0.209-0.236c1.945-1.946,5.268-1.936,7.184-0.02l2.678,2.68
		l2.68-2.68c1.824-1.824,4.973-1.92,6.918-0.22c0.062,0.048,0.162,0.132,0.254,0.224c0.957,0.957,1.486,2.229,1.486,3.582
		C63.186,67.204,62.657,68.477,61.698,69.436z M85.465,103.695H18.23C8.178,103.695,0,95.518,0,85.465V18.23
		C0,8.177,8.179,0,18.23,0h67.235c10.053,0,18.229,8.178,18.229,18.23v67.235C103.696,95.518,95.518,103.695,85.465,103.695z
		 M18.23,8.577c-5.322,0-9.652,4.33-9.652,9.652v67.234c0,5.322,4.33,9.652,9.652,9.652h67.235c5.321,0,9.651-4.33,9.651-9.652
		V18.23c0-5.322-4.33-9.652-9.651-9.652L18.23,8.577L18.23,8.577z"/>
</g>
<g>
</g>
<g>
</g>
<g>
</g>
<g>
</g>
<g>
</g>
<g>
</g>
<g>
</g>
<g>
</g>
<g>
</g>
<g>
</g>
<g>
</g>
<g>
</g>
<g>
</g>
<g>
</g>
<g>
</g>
</svg>
