<?xml version="1.0" encoding="iso-8859-1"?>
<!-- Generator: Adobe Illustrator 16.0.0, SVG Export Plug-In . SVG Version: 6.00 Build 0)  -->
<!DOCTYPE svg PUBLIC "-//W3C//DTD SVG 1.1//EN" "http://www.w3.org/Graphics/SVG/1.1/DTD/svg11.dtd">
<svg version="1.1" id="Capa_1" xmlns="http://www.w3.org/2000/svg" xmlns:xlink="http://www.w3.org/1999/xlink" x="0px" y="0px"
	 width="103.696px" height="103.696px" viewBox="0 0 103.696 103.696" style="enable-background:new 0 0 103.696 103.696;"
	 xml:space="preserve">
<g>
	<path d="M74.836,62.888c-3.843,8.887-12.843,14.629-22.928,14.629c-10.301,0-19.354-5.771-23.064-14.703
		c-0.636-1.528,0.089-3.284,1.62-3.922c0.376-0.155,0.766-0.229,1.15-0.229c1.176,0.001,2.292,0.696,2.771,1.851
		c2.777,6.686,9.655,11.006,17.523,11.006c7.689,0,14.527-4.322,17.421-11.012c0.658-1.521,2.424-2.223,3.944-1.564
		S75.493,61.367,74.836,62.888z M32.383,37.49c0,1.771,1.435,3.205,3.203,3.205c1.768,0,3.204-1.435,3.204-3.205
		c0-1.769-1.435-3.203-3.204-3.203C33.817,34.287,32.383,35.721,32.383,37.49z M64.594,37.49c0,1.771,1.436,3.205,3.203,3.205
		s3.204-1.435,3.204-3.205c0-1.769-1.435-3.203-3.204-3.203C66.028,34.287,64.594,35.721,64.594,37.49z M103.696,18.231v67.235
		c0,10.053-8.179,18.229-18.229,18.229H18.23C8.178,103.695,0,95.517,0,85.466V18.231C0,8.178,8.178,0.001,18.23,0.001h67.235
		C95.518,0,103.696,8.178,103.696,18.231z M8.579,18.231V27.3l14.381,6.483c1.605-5.46,6.654-9.46,12.626-9.46
		c6.281,0,11.541,4.423,12.847,10.316h6.678c1.292-5.912,6.562-10.354,12.855-10.354c5.947,0,10.98,3.965,12.608,9.389l14.542-6.718
		v-8.727c0-5.322-4.33-9.652-9.65-9.652H18.23C12.909,8.578,8.579,12.909,8.579,18.231z M67.967,28.364
		c-5.011,0-9.088,4.077-9.088,9.089s4.078,9.089,9.088,9.089c5.012,0,9.09-4.077,9.09-9.089S72.979,28.364,67.967,28.364z
		 M35.586,28.401c-5.011,0-9.088,4.077-9.088,9.089c0,5.012,4.078,9.089,9.088,9.089c5.011,0,9.089-4.077,9.089-9.089
		C44.675,32.478,40.597,28.401,35.586,28.401z M95.117,85.466V30.582l-14.004,6.462c0.004,0.137,0.021,0.271,0.021,0.408
		c0,7.261-5.908,13.167-13.168,13.167c-7.098,0-12.886-5.649-13.142-12.688H48.73c-0.236,7.055-6.034,12.725-13.144,12.725
		c-7.259,0-13.166-5.906-13.166-13.167c0-0.111,0.014-0.22,0.017-0.33L8.58,30.912v54.554c0,5.321,4.33,9.651,9.651,9.651h67.236
		C90.787,95.118,95.117,90.787,95.117,85.466z"/>
</g>
<g>
</g>
<g>
</g>
<g>
</g>
<g>
</g>
<g>
</g>
<g>
</g>
<g>
</g>
<g>
</g>
<g>
</g>
<g>
</g>
<g>
</g>
<g>
</g>
<g>
</g>
<g>
</g>
<g>
</g>
</svg>
