<?xml version="1.0" encoding="iso-8859-1"?>
<!-- Generator: Adobe Illustrator 16.0.0, SVG Export Plug-In . SVG Version: 6.00 Build 0)  -->
<!DOCTYPE svg PUBLIC "-//W3C//DTD SVG 1.1//EN" "http://www.w3.org/Graphics/SVG/1.1/DTD/svg11.dtd">
<svg version="1.1" id="Capa_1" xmlns="http://www.w3.org/2000/svg" xmlns:xlink="http://www.w3.org/1999/xlink" x="0px" y="0px"
	 width="103.695px" height="103.696px" viewBox="0 0 103.695 103.696" style="enable-background:new 0 0 103.695 103.696;"
	 xml:space="preserve">
<g>
	<path d="M52.908,61.19c-10.301,0-19.354,5.771-23.065,14.703c-0.636,1.529,0.089,3.285,1.62,3.922
		c0.376,0.156,0.766,0.23,1.15,0.23c1.176-0.001,2.292-0.697,2.772-1.851c1.382-3.328,3.782-6.069,6.814-7.983v4.536
		c0,3.097,2.3,5.613,5.127,5.613c2.395,0,4.405-1.81,4.966-4.244c0.562,2.435,2.571,4.244,4.966,4.244
		c2.827,0,5.127-2.519,5.127-5.613v-5.162c3.512,1.921,6.338,4.9,7.943,8.616c0.658,1.521,2.424,2.223,3.945,1.562
		c1.52-0.658,2.22-2.424,1.562-3.944C71.992,66.932,62.992,61.19,52.908,61.19z M49.357,74.748c0,1.228-0.912,2.226-2.031,2.226
		c-1.12,0-2.031-0.998-2.031-2.226v-6.103c1.218-0.487,2.499-0.858,3.83-1.104c0.144,0.305,0.232,0.646,0.232,1.012V74.748z
		 M59.289,74.748c0,1.228-0.911,2.226-2.031,2.226c-1.119,0-2.031-0.998-2.031-2.226v-6.192c0-0.438,0.121-0.842,0.32-1.188
		c1.279,0.168,2.521,0.461,3.713,0.859c0.014,0.107,0.029,0.215,0.029,0.326V74.748z M35.586,38.287
		c1.769,0,3.204,1.435,3.204,3.203c0,1.771-1.435,3.205-3.204,3.205c-1.769,0-3.203-1.435-3.203-3.205
		C32.383,39.722,33.817,38.287,35.586,38.287z M67.797,38.287c1.77,0,3.204,1.435,3.204,3.203c0,1.771-1.435,3.205-3.204,3.205
		c-1.769,0-3.203-1.435-3.203-3.205C64.594,39.722,66.028,38.287,67.797,38.287z M85.467,0H18.23C8.178,0,0,8.179,0,18.23v67.235
		c0,10.053,8.178,18.229,18.23,18.229h67.235c10.053,0,18.23-8.179,18.23-18.229V18.231C103.696,8.179,95.518,0,85.467,0z
		 M18.23,8.579h67.235c5.321,0,9.651,4.33,9.651,9.652v12.74l-14.542,6.704c-1.628-5.424-6.661-9.389-12.607-9.389
		c-6.293,0-11.563,4.441-12.856,10.354h-6.677c-1.307-5.894-6.566-10.316-12.847-10.316c-5.919,0-10.937,3.928-12.588,9.314
		L8.58,30.911V18.231C8.579,12.91,12.909,8.579,18.23,8.579z M77.057,41.453c0,5.012-4.078,9.089-9.09,9.089
		c-5.011,0-9.088-4.077-9.088-9.089s4.078-9.089,9.088-9.089C72.979,32.365,77.057,36.441,77.057,41.453z M44.675,41.491
		c0,5.012-4.078,9.089-9.089,9.089c-5.011,0-9.088-4.077-9.088-9.089c0-5.012,4.078-9.089,9.088-9.089
		C40.597,32.401,44.675,36.479,44.675,41.491z M85.467,95.119H18.23c-5.321,0-9.651-4.33-9.651-9.651V34.773l13.854,6.465
		c-0.001,0.084-0.013,0.167-0.013,0.252c0,7.261,5.907,13.167,13.166,13.167c7.11,0,12.908-5.67,13.144-12.725h6.095
		c0.255,7.038,6.044,12.688,13.142,12.688c7.26,0,13.168-5.906,13.168-13.167c0-0.138-0.018-0.271-0.021-0.408l14.004-6.45v50.872
		C95.117,90.788,90.787,95.119,85.467,95.119z"/>
</g>
<g>
</g>
<g>
</g>
<g>
</g>
<g>
</g>
<g>
</g>
<g>
</g>
<g>
</g>
<g>
</g>
<g>
</g>
<g>
</g>
<g>
</g>
<g>
</g>
<g>
</g>
<g>
</g>
<g>
</g>
</svg>
