<?xml version="1.0" encoding="iso-8859-1"?>
<!-- Generator: Adobe Illustrator 16.0.0, SVG Export Plug-In . SVG Version: 6.00 Build 0)  -->
<!DOCTYPE svg PUBLIC "-//W3C//DTD SVG 1.1//EN" "http://www.w3.org/Graphics/SVG/1.1/DTD/svg11.dtd">
<svg version="1.1" id="Capa_1" xmlns="http://www.w3.org/2000/svg" xmlns:xlink="http://www.w3.org/1999/xlink" x="0px" y="0px"
	 width="103.695px" height="103.696px" viewBox="0 0 103.695 103.696" style="enable-background:new 0 0 103.695 103.696;"
	 xml:space="preserve">
<g>
	<path d="M69.529,56.154H34.168c-4.687,0-8.486,3.799-8.486,8.485v9.752c0,4.687,3.799,8.486,8.486,8.486h35.361
		c4.688,0,8.486-3.801,8.486-8.486v-9.752C78.016,59.953,74.215,56.154,69.529,56.154z M37.773,79.574h-5.322
		c-1.297-0.938-2.271-2.293-2.725-3.871v-4.177h8.047V79.574z M37.773,67.502h-8.047v-4.174c0.454-1.578,1.428-2.934,2.725-3.873
		h5.322V67.502z M49.829,79.574h-8.033v-8.048h8.033V79.574z M49.829,67.502h-8.033v-8.047h8.033V67.502z M61.9,79.574h-8.033
		v-8.048H61.9V79.574z M61.9,67.502h-8.033v-8.047H61.9V67.502z M73.971,75.703c-0.455,1.578-1.429,2.933-2.726,3.871h-5.321v-8.048
		h8.047V75.703z M73.971,67.502h-8.047v-8.047h5.321c1.297,0.939,2.271,2.295,2.726,3.873V67.502z M30.631,38.933
		c0-3.422,2.777-6.199,6.201-6.199c3.423,0,6.2,2.777,6.2,6.199c0,3.428-2.777,6.203-6.2,6.203
		C33.408,45.136,30.631,42.361,30.631,38.933z M85.467,0H18.23C8.178,0,0,8.179,0,18.23v67.235c0,10.053,8.178,18.229,18.23,18.229
		h67.235c10.053,0,18.23-8.179,18.23-18.229V18.231C103.696,8.179,95.518,0,85.467,0z M95.117,18.231v38.621L79.758,43.836
		c0.873-1.758,1.375-3.73,1.375-5.824c0-7.262-5.906-13.166-13.166-13.166c-3.01,0-5.777,1.025-7.996,2.73L37.704,8.579h47.763
		C90.787,8.579,95.117,12.91,95.117,18.231z M85.467,95.119H18.23c-5.321,0-9.651-4.33-9.651-9.651V18.231
		c0-5.322,4.33-9.652,9.651-9.652h14.391l24.998,21.318c-1.759,2.24-2.818,5.053-2.818,8.115c0,7.26,5.907,13.166,13.166,13.166
		c3.979,0,7.543-1.779,9.959-4.578l17.191,14.517v24.35C95.117,90.788,90.787,95.119,85.467,95.119z"/>
</g>
<g>
</g>
<g>
</g>
<g>
</g>
<g>
</g>
<g>
</g>
<g>
</g>
<g>
</g>
<g>
</g>
<g>
</g>
<g>
</g>
<g>
</g>
<g>
</g>
<g>
</g>
<g>
</g>
<g>
</g>
</svg>
