<?xml version="1.0" encoding="iso-8859-1"?>
<!-- Generator: Adobe Illustrator 16.0.0, SVG Export Plug-In . SVG Version: 6.00 Build 0)  -->
<!DOCTYPE svg PUBLIC "-//W3C//DTD SVG 1.1//EN" "http://www.w3.org/Graphics/SVG/1.1/DTD/svg11.dtd">
<svg version="1.1" id="Capa_1" xmlns="http://www.w3.org/2000/svg" xmlns:xlink="http://www.w3.org/1999/xlink" x="0px" y="0px"
	 width="103.696px" height="103.695px" viewBox="0 0 103.696 103.695" style="enable-background:new 0 0 103.696 103.695;"
	 xml:space="preserve">
<g>
	<path d="M27.46,36.897c0-0.418,0.043-0.825,0.107-1.226c0.588,3.619,3.719,6.385,7.5,6.385c3.783,0,6.914-2.766,7.5-6.385
		c0.064,0.4,0.107,0.808,0.107,1.226c0,4.204-3.406,7.611-7.607,7.611C30.869,44.508,27.46,41.101,27.46,36.897z M61.963,36.897
		c0-0.418,0.045-0.825,0.108-1.226c0.588,3.619,3.719,6.385,7.5,6.385c3.782,0,6.912-2.766,7.5-6.385
		c0.063,0.4,0.106,0.808,0.106,1.226c0,4.204-3.406,7.611-7.606,7.611C65.371,44.508,61.963,41.101,61.963,36.897z M42.023,68.207
		h19.649c1.303,0,2.356,1.631,2.356,3.641s-1.056,3.641-2.356,3.641H42.023c-1.301,0-2.357-1.631-2.357-3.641
		C39.666,69.838,40.723,68.207,42.023,68.207z M85.465,103.695H18.23C8.178,103.695,0,95.518,0,85.465V18.23
		C0,8.177,8.179,0,18.23,0h67.235c10.053,0,18.229,8.178,18.229,18.23v67.235C103.696,95.518,95.518,103.695,85.465,103.695z
		 M18.23,8.577c-5.322,0-9.652,4.33-9.652,9.652v67.234c0,5.322,4.33,9.652,9.652,9.652h67.235c5.321,0,9.651-4.33,9.651-9.652
		V18.23c0-5.322-4.33-9.652-9.651-9.652L18.23,8.577L18.23,8.577z"/>
</g>
<g>
</g>
<g>
</g>
<g>
</g>
<g>
</g>
<g>
</g>
<g>
</g>
<g>
</g>
<g>
</g>
<g>
</g>
<g>
</g>
<g>
</g>
<g>
</g>
<g>
</g>
<g>
</g>
<g>
</g>
</svg>
