<?xml version="1.0" encoding="iso-8859-1"?>
<!-- Generator: Adobe Illustrator 16.0.0, SVG Export Plug-In . SVG Version: 6.00 Build 0)  -->
<!DOCTYPE svg PUBLIC "-//W3C//DTD SVG 1.1//EN" "http://www.w3.org/Graphics/SVG/1.1/DTD/svg11.dtd">
<svg version="1.1" id="Capa_1" xmlns="http://www.w3.org/2000/svg" xmlns:xlink="http://www.w3.org/1999/xlink" x="0px" y="0px"
	 width="103.695px" height="103.695px" viewBox="0 0 103.695 103.695" style="enable-background:new 0 0 103.695 103.695;"
	 xml:space="preserve">
<g>
	<path d="M75.836,72.818c0.658,1.521-0.042,3.287-1.562,3.945c-1.521,0.658-3.286-0.043-3.944-1.563
		c-2.894-6.688-9.731-11.013-17.421-11.013c-7.868,0-14.747,4.32-17.523,11.006c-0.479,1.152-1.596,1.85-2.771,1.852
		c-0.384,0-0.773-0.074-1.15-0.23c-1.53-0.637-2.255-2.393-1.62-3.922c3.71-8.933,12.764-14.703,23.064-14.703
		C62.993,58.189,71.993,63.932,75.836,72.818z M32.011,38.877l-2.585,0.833c-1.654,0.533-3.428-0.375-3.961-2.029
		c-0.533-1.654,0.376-3.427,2.03-3.96l12.728-4.104c1.654-0.531,3.427,0.377,3.96,2.031c0.48,1.488-0.215,3.065-1.564,3.756
		c2.316,2.43,2.286,6.274-0.098,8.658c-2.421,2.421-6.349,2.421-8.771-0.002C32.335,42.646,31.772,40.719,32.011,38.877z
		 M79.186,37.492c-0.532,1.654-2.307,2.563-3.961,2.029l-2.584-0.833c0.238,1.842-0.324,3.769-1.738,5.183
		c-2.424,2.423-6.352,2.423-8.771,0.002c-2.384-2.384-2.414-6.229-0.098-8.658c-1.35-0.69-2.044-2.268-1.564-3.756
		c0.533-1.654,2.307-2.563,3.961-2.031l12.728,4.104C78.811,34.065,79.721,35.837,79.186,37.492z M85.467,103.695H18.23
		C8.178,103.695,0,95.518,0,85.465V18.23C0,8.177,8.178,0,18.23,0h67.235c10.053,0,18.23,8.178,18.23,18.23v67.235
		C103.696,95.518,95.518,103.695,85.467,103.695z M18.23,8.577c-5.321,0-9.651,4.33-9.651,9.652v67.234
		c0,5.322,4.33,9.652,9.651,9.652h67.235c5.321,0,9.651-4.33,9.651-9.652V18.23c0-5.322-4.33-9.652-9.651-9.652L18.23,8.577
		L18.23,8.577z"/>
</g>
<g>
</g>
<g>
</g>
<g>
</g>
<g>
</g>
<g>
</g>
<g>
</g>
<g>
</g>
<g>
</g>
<g>
</g>
<g>
</g>
<g>
</g>
<g>
</g>
<g>
</g>
<g>
</g>
<g>
</g>
</svg>
