<?xml version="1.0" encoding="iso-8859-1"?>
<!-- Generator: Adobe Illustrator 16.0.0, SVG Export Plug-In . SVG Version: 6.00 Build 0)  -->
<!DOCTYPE svg PUBLIC "-//W3C//DTD SVG 1.1//EN" "http://www.w3.org/Graphics/SVG/1.1/DTD/svg11.dtd">
<svg version="1.1" id="Capa_1" xmlns="http://www.w3.org/2000/svg" xmlns:xlink="http://www.w3.org/1999/xlink" x="0px" y="0px"
	 width="103.696px" height="103.695px" viewBox="0 0 103.696 103.695" style="enable-background:new 0 0 103.696 103.695;"
	 xml:space="preserve">
<g>
	<path d="M75.835,72.818c0.656,1.521-0.043,3.287-1.563,3.945s-3.286-0.043-3.944-1.563c-2.894-6.688-9.729-11.013-17.42-11.013
		c-7.869,0-14.748,4.32-17.523,11.006c-0.48,1.152-1.596,1.85-2.771,1.852c-0.385,0-0.773-0.074-1.15-0.23
		c-1.531-0.637-2.256-2.393-1.619-3.922c3.709-8.933,12.764-14.703,23.064-14.703C62.993,58.189,71.993,63.932,75.835,72.818z
		 M28.452,36.484c-0.676-1.176-0.27-2.676,0.906-3.351l9.045-5.196c1.176-0.674,2.676-0.268,3.352,0.907
		c0.676,1.176,0.27,2.676-0.906,3.351l-9.045,5.194C30.626,38.065,29.126,37.66,28.452,36.484z M42.487,36.59
		c1.688,1.689,1.688,4.429,0,6.115c-1.688,1.688-4.426,1.688-6.117-0.002c-1.688-1.688-1.688-4.426,0-6.113
		C38.059,34.901,40.797,34.901,42.487,36.59z M57.188,21.907c0.121-1.35,1.312-2.347,2.662-2.226l10.391,0.934
		c1.35,0.121,2.348,1.313,2.225,2.664c-0.121,1.351-1.312,2.347-2.664,2.225l-10.389-0.933
		C58.063,24.45,57.065,23.256,57.188,21.907z M68.28,36.519c1.688,1.688,1.688,4.426,0,6.113c-1.691,1.69-4.43,1.69-6.117,0.002
		c-1.688-1.687-1.688-4.426,0-6.115C63.852,34.829,66.59,34.829,68.28,36.519z M85.465,103.695H18.23
		C8.178,103.695,0,95.518,0,85.465V18.23C0,8.177,8.179,0,18.23,0h67.235c10.053,0,18.229,8.178,18.229,18.23v67.235
		C103.696,95.518,95.518,103.695,85.465,103.695z M18.23,8.577c-5.322,0-9.652,4.33-9.652,9.652v67.234
		c0,5.322,4.33,9.652,9.652,9.652h67.235c5.321,0,9.651-4.33,9.651-9.652V18.23c0-5.322-4.33-9.652-9.651-9.652L18.23,8.577
		L18.23,8.577z"/>
</g>
<g>
</g>
<g>
</g>
<g>
</g>
<g>
</g>
<g>
</g>
<g>
</g>
<g>
</g>
<g>
</g>
<g>
</g>
<g>
</g>
<g>
</g>
<g>
</g>
<g>
</g>
<g>
</g>
<g>
</g>
</svg>
