<?xml version="1.0" encoding="iso-8859-1"?>
<!-- Generator: Adobe Illustrator 16.0.0, SVG Export Plug-In . SVG Version: 6.00 Build 0)  -->
<!DOCTYPE svg PUBLIC "-//W3C//DTD SVG 1.1//EN" "http://www.w3.org/Graphics/SVG/1.1/DTD/svg11.dtd">
<svg version="1.1" id="Capa_1" xmlns="http://www.w3.org/2000/svg" xmlns:xlink="http://www.w3.org/1999/xlink" x="0px" y="0px"
	 width="103.696px" height="103.695px" viewBox="0 0 103.696 103.695" style="enable-background:new 0 0 103.696 103.695;"
	 xml:space="preserve">
<g>
	<path d="M23.507,51.13c-1.212-1.133-1.274-3.033-0.142-4.246c1.132-1.213,3.018-1.291,4.247-0.143
		c3.251,3.053,6.589,0.242,6.959-0.088c1.105-0.99,2.741-1.012,3.867-0.119c0.133,0.104,0.259,0.223,0.376,0.354
		c1.106,1.236,1.001,3.135-0.235,4.242C35.915,53.516,29.371,56.615,23.507,51.13z M80.32,46.853
		c1.106,1.236,1.001,3.135-0.235,4.242c-2.664,2.385-9.208,5.484-15.072,0c-1.211-1.133-1.273-3.033-0.142-4.246
		s3.019-1.291,4.247-0.143c3.251,3.053,6.589,0.242,6.959-0.088c1.105-0.99,2.741-1.012,3.867-0.119
		C80.077,46.603,80.202,46.722,80.32,46.853z M75.834,78.15c0.658,1.521-0.041,3.287-1.562,3.945
		c-1.521,0.66-3.285-0.041-3.943-1.563c-2.895-6.688-9.73-11.013-17.422-11.013c-7.867,0-14.746,4.32-17.523,11.007
		c-0.479,1.151-1.596,1.85-2.771,1.85c-0.383,0-0.773-0.073-1.149-0.229c-1.53-0.637-2.255-2.393-1.62-3.922
		c3.711-8.933,12.764-14.703,23.064-14.703C62.993,63.521,71.993,69.264,75.834,78.15z M85.465,103.695H18.23
		C8.178,103.695,0,95.518,0,85.465V18.23C0,8.177,8.179,0,18.23,0h67.235c10.053,0,18.229,8.178,18.229,18.23v67.235
		C103.696,95.518,95.518,103.695,85.465,103.695z M18.23,8.577c-5.322,0-9.652,4.33-9.652,9.652v67.234
		c0,5.322,4.33,9.652,9.652,9.652h67.235c5.321,0,9.651-4.33,9.651-9.652V18.23c0-5.322-4.33-9.652-9.651-9.652L18.23,8.577
		L18.23,8.577z"/>
</g>
<g>
</g>
<g>
</g>
<g>
</g>
<g>
</g>
<g>
</g>
<g>
</g>
<g>
</g>
<g>
</g>
<g>
</g>
<g>
</g>
<g>
</g>
<g>
</g>
<g>
</g>
<g>
</g>
<g>
</g>
</svg>
