<?xml version="1.0" encoding="iso-8859-1"?>
<!-- Generator: Adobe Illustrator 16.0.0, SVG Export Plug-In . SVG Version: 6.00 Build 0)  -->
<!DOCTYPE svg PUBLIC "-//W3C//DTD SVG 1.1//EN" "http://www.w3.org/Graphics/SVG/1.1/DTD/svg11.dtd">
<svg version="1.1" id="Capa_1" xmlns="http://www.w3.org/2000/svg" xmlns:xlink="http://www.w3.org/1999/xlink" x="0px" y="0px"
	 width="103.695px" height="103.695px" viewBox="0 0 103.695 103.695" style="enable-background:new 0 0 103.695 103.695;"
	 xml:space="preserve">
<g>
	<path d="M52.908,58.189c10.084,0,19.084,5.742,22.928,14.629c0.658,1.521-0.042,3.287-1.562,3.945
		c-1.521,0.658-3.286-0.043-3.944-1.563c-2.894-6.688-9.731-11.013-17.421-11.013c-7.868,0-14.747,4.32-17.523,11.006
		c-0.479,1.152-1.596,1.85-2.771,1.852c-0.384,0-0.773-0.074-1.15-0.23c-1.53-0.637-2.255-2.393-1.62-3.922
		C33.554,63.96,42.607,58.189,52.908,58.189z M28.864,32.291c-1.102-0.073-1.936-1.026-1.863-2.128
		c0.073-1.101,1.01-1.938,2.125-1.863c0.087,0.006,8.679,0.498,11.91-3.958c0.648-0.896,1.9-1.092,2.793-0.445
		c0.894,0.648,1.093,1.899,0.445,2.793c-3.717,5.125-11.401,5.632-14.292,5.632C29.347,32.322,28.944,32.297,28.864,32.291z
		 M44.462,39.487c0,1.315-0.412,2.533-1.11,3.537c-1.127-1.549-2.949-2.561-5.011-2.561c-2.108,0-3.97,1.057-5.09,2.666
		c-0.744-1.023-1.189-2.279-1.189-3.643c0-3.424,2.777-6.201,6.2-6.201S44.462,36.063,44.462,39.487z M60.378,26.653
		c-0.647-0.894-0.448-2.145,0.445-2.793c0.894-0.646,2.146-0.45,2.793,0.445c3.231,4.456,11.823,3.964,11.91,3.958
		c1.116-0.074,2.052,0.763,2.125,1.863c0.073,1.102-0.761,2.055-1.863,2.128c-0.08,0.006-0.483,0.03-1.119,0.03
		C71.779,32.285,64.096,31.778,60.378,26.653z M66.391,33.248c3.424,0,6.201,2.777,6.201,6.201c0,1.363-0.445,2.619-1.189,3.643
		c-1.12-1.609-2.981-2.666-5.09-2.666c-2.062,0-3.885,1.012-5.012,2.561c-0.697-1.004-1.109-2.222-1.109-3.537
		C60.191,36.026,62.969,33.248,66.391,33.248z M32.015,58.611c-3.6,0-3.6-3.994-3.6-3.994c0.001-3.436,4.555-7.535,4.555-7.535
		c0.438,2.747,1.52,4.344,1.52,4.344c1.218,1.818,1.218,3.507,1.218,3.507C35.708,58.645,32.015,58.611,32.015,58.611z
		 M85.467,103.695H18.23C8.178,103.695,0,95.518,0,85.465V18.23C0,8.177,8.178,0,18.23,0h67.235c10.053,0,18.23,8.178,18.23,18.23
		v67.235C103.696,95.518,95.518,103.695,85.467,103.695z M18.23,8.577c-5.321,0-9.651,4.33-9.651,9.652v67.234
		c0,5.322,4.33,9.652,9.651,9.652h67.235c5.321,0,9.651-4.33,9.651-9.652V18.23c0-5.322-4.33-9.652-9.651-9.652L18.23,8.577
		L18.23,8.577z"/>
</g>
<g>
</g>
<g>
</g>
<g>
</g>
<g>
</g>
<g>
</g>
<g>
</g>
<g>
</g>
<g>
</g>
<g>
</g>
<g>
</g>
<g>
</g>
<g>
</g>
<g>
</g>
<g>
</g>
<g>
</g>
</svg>
