<?xml version="1.0" encoding="iso-8859-1"?>
<!-- Generator: Adobe Illustrator 16.0.0, SVG Export Plug-In . SVG Version: 6.00 Build 0)  -->
<!DOCTYPE svg PUBLIC "-//W3C//DTD SVG 1.1//EN" "http://www.w3.org/Graphics/SVG/1.1/DTD/svg11.dtd">
<svg version="1.1" id="Capa_1" xmlns="http://www.w3.org/2000/svg" xmlns:xlink="http://www.w3.org/1999/xlink" x="0px" y="0px"
	 width="103.695px" height="103.695px" viewBox="0 0 103.695 103.695" style="enable-background:new 0 0 103.695 103.695;"
	 xml:space="preserve">
<g>
	<path d="M27.528,77.521l48.638,0.068h0.002c0.479,0,0.926-0.273,1.191-0.729c0.268-0.455,0.316-1.033,0.133-1.539
		c-4.135-11.374-14.229-18.726-25.715-18.726c-11.245,0-21.28,7.315-25.563,18.637c-0.191,0.506-0.148,1.088,0.117,1.549
		S27.046,77.521,27.528,77.521z M62.989,61.999c2.64,1.154,5.017,2.714,7.013,4.615h-7.013V61.999z M62.989,69.915h9.784v4.949
		l-9.784-0.011V69.915z M49.645,59.807c0.728-0.058,1.46-0.097,2.2-0.097c2.635,0,5.186,0.359,7.584,1.022v5.882h-9.785V59.807z
		 M49.645,69.915h9.785v4.935l-9.785-0.01V69.915z M36.303,64.6c2.835-2.045,6.17-3.521,9.785-4.283v6.299h-9.785V64.6z
		 M36.303,69.915h9.785v4.92l-9.785-0.012V69.915z M29.105,73.163c0.533-1.144,1.178-2.226,1.9-3.248h1.738v4.904l-2.469-0.003
		c-0.43-0.002-0.828-0.2-1.065-0.534C28.974,73.951,28.935,73.529,29.105,73.163z M37.315,35.232c0-3.424,2.777-6.201,6.201-6.201
		c3.422,0,6.199,2.777,6.199,6.201c0,3.426-2.777,6.203-6.199,6.203C40.093,41.435,37.315,38.658,37.315,35.232z M53.348,35.232
		c0-3.424,2.776-6.201,6.201-6.201c3.422,0,6.198,2.777,6.198,6.201c0,3.426-2.776,6.203-6.198,6.203
		C56.124,41.435,53.348,38.658,53.348,35.232z M85.467,103.695H18.23C8.178,103.695,0,95.518,0,85.465V18.23
		C0,8.177,8.178,0,18.23,0h67.235c10.053,0,18.23,8.178,18.23,18.23v67.235C103.696,95.518,95.518,103.695,85.467,103.695z
		 M18.23,8.577c-5.321,0-9.651,4.33-9.651,9.652v67.234c0,5.322,4.33,9.652,9.651,9.652h67.235c5.321,0,9.651-4.33,9.651-9.652
		V18.23c0-5.322-4.33-9.652-9.651-9.652L18.23,8.577L18.23,8.577z"/>
</g>
<g>
</g>
<g>
</g>
<g>
</g>
<g>
</g>
<g>
</g>
<g>
</g>
<g>
</g>
<g>
</g>
<g>
</g>
<g>
</g>
<g>
</g>
<g>
</g>
<g>
</g>
<g>
</g>
<g>
</g>
</svg>
