<?xml version="1.0" encoding="iso-8859-1"?>
<!-- Generator: Adobe Illustrator 16.0.0, SVG Export Plug-In . SVG Version: 6.00 Build 0)  -->
<!DOCTYPE svg PUBLIC "-//W3C//DTD SVG 1.1//EN" "http://www.w3.org/Graphics/SVG/1.1/DTD/svg11.dtd">
<svg version="1.1" id="Capa_1" xmlns="http://www.w3.org/2000/svg" xmlns:xlink="http://www.w3.org/1999/xlink" x="0px" y="0px"
	 width="103.695px" height="103.695px" viewBox="0 0 103.695 103.695" style="enable-background:new 0 0 103.695 103.695;"
	 xml:space="preserve">
<g>
	<path d="M63.098,71.695c0,10.02-2.822,18.143-9.998,18.143c-7.178,0-8.001-8.123-8.001-18.143c0-10.014,0.823-18.139,8.001-18.139
		C60.276,53.557,63.098,61.682,63.098,71.695z M43.99,37.489c0,1.737-1.409,3.147-3.147,3.147H27.471
		c-1.738,0-3.147-1.41-3.147-3.147s1.409-3.147,3.147-3.147h13.372C42.581,34.341,43.99,35.751,43.99,37.489z M79.372,37.49
		c0,1.737-1.409,3.146-3.147,3.146H62.852c-1.736,0-3.146-1.409-3.146-3.146c0-1.738,1.41-3.147,3.146-3.147h13.373
		C77.963,34.342,79.372,35.751,79.372,37.49z M85.467,103.695H18.23C8.178,103.695,0,95.518,0,85.465V18.23C0,8.177,8.178,0,18.23,0
		h67.235c10.053,0,18.23,8.178,18.23,18.23v67.235C103.696,95.518,95.518,103.695,85.467,103.695z M18.23,8.577
		c-5.321,0-9.651,4.33-9.651,9.652v67.234c0,5.322,4.33,9.652,9.651,9.652h67.235c5.321,0,9.651-4.33,9.651-9.652V18.23
		c0-5.322-4.33-9.652-9.651-9.652L18.23,8.577L18.23,8.577z"/>
</g>
<g>
</g>
<g>
</g>
<g>
</g>
<g>
</g>
<g>
</g>
<g>
</g>
<g>
</g>
<g>
</g>
<g>
</g>
<g>
</g>
<g>
</g>
<g>
</g>
<g>
</g>
<g>
</g>
<g>
</g>
</svg>
