<?xml version="1.0" encoding="iso-8859-1"?>
<!-- Generator: Adobe Illustrator 16.0.0, SVG Export Plug-In . SVG Version: 6.00 Build 0)  -->
<!DOCTYPE svg PUBLIC "-//W3C//DTD SVG 1.1//EN" "http://www.w3.org/Graphics/SVG/1.1/DTD/svg11.dtd">
<svg version="1.1" id="Capa_1" xmlns="http://www.w3.org/2000/svg" xmlns:xlink="http://www.w3.org/1999/xlink" x="0px" y="0px"
	 width="103.696px" height="103.696px" viewBox="0 0 103.696 103.696" style="enable-background:new 0 0 103.696 103.696;"
	 xml:space="preserve">
<g>
	<path d="M39.461,79.37h24.777c1.243,0,2.252,1.558,2.252,3.478c0,1.922-1.009,3.479-2.252,3.479H39.461
		c-1.244,0-2.253-1.557-2.253-3.479C37.208,80.928,38.217,79.37,39.461,79.37z M23.507,51.133c-1.212-1.135-1.274-3.036-0.142-4.248
		c1.132-1.213,3.018-1.291,4.247-0.143c3.251,3.052,6.589,0.241,6.959-0.089c1.105-0.99,2.741-1.011,3.867-0.119
		c0.133,0.105,0.259,0.224,0.376,0.354c1.106,1.236,1.001,3.136-0.235,4.245C35.915,53.516,29.371,56.615,23.507,51.133z
		 M65.013,51.098c-1.213-1.134-1.274-3.036-0.143-4.248c1.132-1.213,3.018-1.291,4.247-0.143c3.251,3.052,6.589,0.241,6.959-0.089
		c1.104-0.99,2.741-1.011,3.867-0.119c0.133,0.105,0.259,0.224,0.376,0.354c1.105,1.236,1.001,3.136-0.235,4.245
		C77.42,53.48,70.876,56.58,65.013,51.098z M85.466,103.696H18.231c-10.053,0-18.23-8.179-18.23-18.229V18.23
		C0.001,8.178,8.179,0,18.231,0h67.235c10.053,0,18.229,8.178,18.229,18.23v67.235C103.696,95.518,95.519,103.696,85.466,103.696z
		 M18.231,8.579c-5.322,0-9.652,4.33-9.652,9.651v67.235c0,5.321,4.33,9.651,9.652,9.651h67.235c5.321,0,9.651-4.33,9.651-9.651
		V18.23c0-5.321-4.33-9.651-9.651-9.651H18.231z"/>
</g>
<g>
</g>
<g>
</g>
<g>
</g>
<g>
</g>
<g>
</g>
<g>
</g>
<g>
</g>
<g>
</g>
<g>
</g>
<g>
</g>
<g>
</g>
<g>
</g>
<g>
</g>
<g>
</g>
<g>
</g>
</svg>
