<?xml version="1.0" encoding="iso-8859-1"?>
<!-- Generator: Adobe Illustrator 16.0.0, SVG Export Plug-In . SVG Version: 6.00 Build 0)  -->
<!DOCTYPE svg PUBLIC "-//W3C//DTD SVG 1.1//EN" "http://www.w3.org/Graphics/SVG/1.1/DTD/svg11.dtd">
<svg version="1.1" id="Capa_1" xmlns="http://www.w3.org/2000/svg" xmlns:xlink="http://www.w3.org/1999/xlink" x="0px" y="0px"
	 width="103.696px" height="103.696px" viewBox="0 0 103.696 103.696" style="enable-background:new 0 0 103.696 103.696;"
	 xml:space="preserve">
<g>
	<path d="M51.848,53.622c9.023,0,16.363,7.341,16.363,16.365c0,9.026-7.34,16.37-16.363,16.37s-16.363-7.344-16.363-16.37
		C35.485,60.963,42.825,53.622,51.848,53.622z M30.565,45.187v-3.554c0-0.181,0.084-0.351,0.225-0.463l4.664-3.68l-4.664-3.681
		c-0.141-0.112-0.225-0.281-0.225-0.462v-3.552c0-0.313,0.18-0.604,0.459-0.738c0.113-0.055,0.236-0.082,0.359-0.082
		c0.182,0,0.363,0.062,0.506,0.175l9.756,7.695c0.197,0.158,0.307,0.392,0.307,0.645s-0.109,0.486-0.303,0.641l-9.758,7.697
		c-0.236,0.189-0.58,0.229-0.859,0.1C30.739,45.783,30.565,45.5,30.565,45.187z M62.993,38.133
		c-0.197-0.158-0.309-0.392-0.309-0.645s0.11-0.486,0.305-0.641l9.756-7.697c0.238-0.189,0.58-0.229,0.859-0.1
		c0.293,0.146,0.467,0.428,0.467,0.741v3.554c0,0.181-0.082,0.351-0.225,0.463l-4.664,3.68l4.664,3.681
		c0.143,0.112,0.225,0.281,0.225,0.462v3.552c0,0.313-0.18,0.604-0.459,0.738c-0.113,0.055-0.236,0.082-0.359,0.082
		c-0.182,0-0.363-0.062-0.506-0.175L62.993,38.133z M85.466,103.696H18.231c-10.053,0-18.23-8.179-18.23-18.229V18.23
		C0.001,8.178,8.179,0,18.231,0h67.235c10.053,0,18.229,8.178,18.229,18.23v67.235C103.696,95.518,95.519,103.696,85.466,103.696z
		 M18.231,8.579c-5.322,0-9.652,4.33-9.652,9.651v67.235c0,5.321,4.33,9.651,9.652,9.651h67.235c5.321,0,9.651-4.33,9.651-9.651
		V18.23c0-5.321-4.33-9.651-9.651-9.651H18.231z"/>
</g>
<g>
</g>
<g>
</g>
<g>
</g>
<g>
</g>
<g>
</g>
<g>
</g>
<g>
</g>
<g>
</g>
<g>
</g>
<g>
</g>
<g>
</g>
<g>
</g>
<g>
</g>
<g>
</g>
<g>
</g>
</svg>
