<?xml version="1.0" encoding="iso-8859-1"?>
<!-- Generator: Adobe Illustrator 16.0.0, SVG Export Plug-In . SVG Version: 6.00 Build 0)  -->
<!DOCTYPE svg PUBLIC "-//W3C//DTD SVG 1.1//EN" "http://www.w3.org/Graphics/SVG/1.1/DTD/svg11.dtd">
<svg version="1.1" id="Capa_1" xmlns="http://www.w3.org/2000/svg" xmlns:xlink="http://www.w3.org/1999/xlink" x="0px" y="0px"
	 width="103.696px" height="103.696px" viewBox="0 0 103.696 103.696" style="enable-background:new 0 0 103.696 103.696;"
	 xml:space="preserve">
<g>
	<path d="M32.117,43.183h-3.552c-0.313,0-0.604-0.18-0.738-0.459c-0.055-0.113-0.082-0.237-0.082-0.359
		c0-0.183,0.062-0.363,0.175-0.506l7.695-9.755c0.158-0.197,0.392-0.308,0.645-0.308s0.486,0.111,0.641,0.304l7.697,9.757
		c0.189,0.237,0.229,0.58,0.1,0.859c-0.146,0.293-0.428,0.467-0.741,0.467h-3.554c-0.181,0-0.351-0.083-0.463-0.225l-3.68-4.664
		l-3.681,4.664C32.466,43.1,32.297,43.183,32.117,43.183z M76.716,41.857c0.189,0.237,0.229,0.58,0.1,0.859
		c-0.146,0.293-0.428,0.467-0.74,0.467h-3.555c-0.18,0-0.351-0.083-0.463-0.225l-3.68-4.664l-3.681,4.664
		c-0.112,0.141-0.281,0.225-0.462,0.225h-3.553c-0.312,0-0.604-0.18-0.737-0.459c-0.056-0.113-0.082-0.237-0.082-0.359
		c0-0.183,0.062-0.363,0.175-0.506l7.695-9.755c0.158-0.197,0.392-0.308,0.645-0.308c0.254,0,0.486,0.111,0.641,0.304L76.716,41.857
		z M74.835,62.887c-3.843,8.887-12.843,14.629-22.928,14.629c-10.301,0-19.354-5.771-23.064-14.703
		c-0.636-1.529,0.089-3.285,1.62-3.92c0.376-0.156,0.766-0.23,1.149-0.23c1.176,0,2.292,0.695,2.771,1.85
		c2.776,6.686,9.655,11.004,17.523,11.004c7.69,0,14.528-4.321,17.421-11.01c0.658-1.521,2.424-2.223,3.943-1.564
		C74.793,59.6,75.493,61.366,74.835,62.887z M85.466,103.696H18.231c-10.053,0-18.23-8.179-18.23-18.229V18.23
		C0.001,8.178,8.179,0,18.231,0h67.235c10.053,0,18.229,8.178,18.229,18.23v67.235C103.696,95.518,95.519,103.696,85.466,103.696z
		 M18.231,8.579c-5.322,0-9.652,4.33-9.652,9.651v67.235c0,5.321,4.33,9.651,9.652,9.651h67.235c5.321,0,9.651-4.33,9.651-9.651
		V18.23c0-5.321-4.33-9.651-9.651-9.651H18.231z"/>
</g>
<g>
</g>
<g>
</g>
<g>
</g>
<g>
</g>
<g>
</g>
<g>
</g>
<g>
</g>
<g>
</g>
<g>
</g>
<g>
</g>
<g>
</g>
<g>
</g>
<g>
</g>
<g>
</g>
<g>
</g>
</svg>
