<?xml version="1.0" encoding="iso-8859-1"?>
<!-- Generator: Adobe Illustrator 16.0.0, SVG Export Plug-In . SVG Version: 6.00 Build 0)  -->
<!DOCTYPE svg PUBLIC "-//W3C//DTD SVG 1.1//EN" "http://www.w3.org/Graphics/SVG/1.1/DTD/svg11.dtd">
<svg version="1.1" id="Capa_1" xmlns="http://www.w3.org/2000/svg" xmlns:xlink="http://www.w3.org/1999/xlink" x="0px" y="0px"
	 width="103.696px" height="103.696px" viewBox="0 0 103.696 103.696" style="enable-background:new 0 0 103.696 103.696;"
	 xml:space="preserve">
<g>
	<path d="M77.866,59.885c0.266,0.402,0.311,0.912,0.118,1.355c-4.285,9.904-14.318,16.304-25.563,16.304
		c-11.486,0-21.58-6.431-25.714-16.382c-0.185-0.443-0.135-0.949,0.131-1.348c0.267-0.397,0.714-0.637,1.192-0.637
		c0.001,0,0.001,0,0.002,0l48.638,0.061C77.152,59.238,77.601,59.48,77.866,59.885z M27.827,42.724
		c-0.055-0.113-0.082-0.237-0.082-0.359c0-0.183,0.062-0.363,0.175-0.506l7.695-9.755c0.158-0.197,0.392-0.308,0.645-0.308
		s0.486,0.111,0.641,0.304l7.697,9.757c0.189,0.237,0.229,0.58,0.1,0.859c-0.146,0.293-0.428,0.467-0.741,0.467h-3.554
		c-0.181,0-0.351-0.083-0.463-0.225l-3.68-4.664l-3.681,4.664c-0.112,0.141-0.281,0.225-0.462,0.225h-3.552
		C28.251,43.183,27.961,43.003,27.827,42.724z M59.946,42.724c-0.055-0.113-0.082-0.237-0.082-0.359
		c0-0.183,0.062-0.363,0.175-0.506l7.695-9.755c0.157-0.197,0.392-0.308,0.645-0.308s0.486,0.111,0.642,0.304l7.697,9.757
		c0.188,0.237,0.229,0.58,0.1,0.859c-0.146,0.293-0.428,0.467-0.741,0.467h-3.554c-0.182,0-0.352-0.083-0.463-0.225l-3.681-4.664
		l-3.681,4.664c-0.112,0.141-0.281,0.225-0.462,0.225h-3.552C60.37,43.183,60.08,43.003,59.946,42.724z M85.466,103.696H18.231
		c-10.053,0-18.23-8.179-18.23-18.229V18.23C0.001,8.178,8.179,0,18.231,0h67.235c10.053,0,18.229,8.178,18.229,18.23v67.235
		C103.696,95.518,95.519,103.696,85.466,103.696z M18.231,8.579c-5.322,0-9.652,4.33-9.652,9.651v67.235
		c0,5.321,4.33,9.651,9.652,9.651h67.235c5.321,0,9.651-4.33,9.651-9.651V18.23c0-5.321-4.33-9.651-9.651-9.651H18.231z"/>
</g>
<g>
</g>
<g>
</g>
<g>
</g>
<g>
</g>
<g>
</g>
<g>
</g>
<g>
</g>
<g>
</g>
<g>
</g>
<g>
</g>
<g>
</g>
<g>
</g>
<g>
</g>
<g>
</g>
<g>
</g>
</svg>
