<?xml version="1.0" encoding="iso-8859-1"?>
<!-- Generator: Adobe Illustrator 16.0.0, SVG Export Plug-In . SVG Version: 6.00 Build 0)  -->
<!DOCTYPE svg PUBLIC "-//W3C//DTD SVG 1.1//EN" "http://www.w3.org/Graphics/SVG/1.1/DTD/svg11.dtd">
<svg version="1.1" id="Capa_1" xmlns="http://www.w3.org/2000/svg" xmlns:xlink="http://www.w3.org/1999/xlink" x="0px" y="0px"
	 width="103.696px" height="103.696px" viewBox="0 0 103.696 103.696" style="enable-background:new 0 0 103.696 103.696;"
	 xml:space="preserve">
<g>
	<path d="M40.842,40.637H27.471c-1.738,0-3.148-1.409-3.148-3.147c0-1.738,1.41-3.147,3.148-3.147h13.371
		c1.738,0,3.148,1.409,3.148,3.147C43.99,39.228,42.58,40.637,40.842,40.637z M79.371,37.491c0,1.738-1.407,3.147-3.146,3.147
		H62.853c-1.736,0-3.146-1.409-3.146-3.147s1.41-3.147,3.146-3.147h13.373C77.964,34.344,79.371,35.753,79.371,37.491z
		 M74.836,62.887c-3.844,8.887-12.844,14.629-22.928,14.629c-10.301,0-19.355-5.771-23.064-14.703
		c-0.637-1.529,0.088-3.285,1.619-3.92c0.377-0.156,0.766-0.23,1.15-0.23c1.176,0,2.291,0.695,2.771,1.85
		c2.775,6.686,9.654,11.004,17.523,11.004c7.689,0,14.527-4.321,17.42-11.01c0.658-1.521,2.424-2.223,3.945-1.564
		C74.793,59.6,75.493,61.366,74.836,62.887z M85.466,103.696H18.231c-10.053,0-18.23-8.179-18.23-18.229V18.23
		C0.001,8.178,8.179,0,18.231,0h67.235c10.053,0,18.229,8.178,18.229,18.23v67.235C103.696,95.518,95.519,103.696,85.466,103.696z
		 M18.231,8.579c-5.322,0-9.652,4.33-9.652,9.651v67.235c0,5.321,4.33,9.651,9.652,9.651h67.235c5.321,0,9.651-4.33,9.651-9.651
		V18.23c0-5.321-4.33-9.651-9.651-9.651H18.231z"/>
</g>
<g>
</g>
<g>
</g>
<g>
</g>
<g>
</g>
<g>
</g>
<g>
</g>
<g>
</g>
<g>
</g>
<g>
</g>
<g>
</g>
<g>
</g>
<g>
</g>
<g>
</g>
<g>
</g>
<g>
</g>
</svg>
