<?xml version="1.0" encoding="iso-8859-1"?>
<!-- Generator: Adobe Illustrator 16.0.0, SVG Export Plug-In . SVG Version: 6.00 Build 0)  -->
<!DOCTYPE svg PUBLIC "-//W3C//DTD SVG 1.1//EN" "http://www.w3.org/Graphics/SVG/1.1/DTD/svg11.dtd">
<svg version="1.1" id="Capa_1" xmlns="http://www.w3.org/2000/svg" xmlns:xlink="http://www.w3.org/1999/xlink" x="0px" y="0px"
	 width="103.695px" height="103.695px" viewBox="0 0 103.695 103.695" style="enable-background:new 0 0 103.695 103.695;"
	 xml:space="preserve">
<g>
	<path d="M51.908,71.516c7.689,0,14.527-4.321,17.421-11.012c0.658-1.521,2.424-2.222,3.944-1.562
		c1.521,0.658,2.22,2.424,1.562,3.945c-3.843,8.887-12.843,14.629-22.928,14.629c-10.301,0-19.354-5.771-23.064-14.703
		c-0.636-1.529,0.089-3.285,1.62-3.922c0.376-0.156,0.766-0.23,1.15-0.23c1.176,0.001,2.292,0.697,2.771,1.852
		C37.161,67.196,44.04,71.516,51.908,71.516z M26.999,30.164c0.073-1.101,1.01-1.938,2.125-1.863
		c0.087,0.006,8.679,0.498,11.91-3.958c0.648-0.896,1.9-1.092,2.793-0.445c0.894,0.648,1.093,1.899,0.445,2.793
		c-3.717,5.125-11.401,5.632-14.292,5.632c-0.636,0-1.039-0.024-1.119-0.03C27.76,32.219,26.926,31.266,26.999,30.164z
		 M33.249,43.13c-0.744-1.023-1.189-2.279-1.189-3.643c0-3.424,2.777-6.201,6.2-6.201c3.424,0,6.2,2.777,6.2,6.201
		c0,1.315-0.412,2.533-1.11,3.537c-1.127-1.549-2.949-2.561-5.011-2.561C36.23,40.464,34.369,41.521,33.249,43.13z M60.376,26.654
		c-0.647-0.894-0.448-2.145,0.445-2.793c0.894-0.646,2.146-0.45,2.793,0.445c3.231,4.456,11.823,3.964,11.909,3.958
		c1.117-0.074,2.053,0.763,2.125,1.863c0.074,1.102-0.76,2.055-1.862,2.128c-0.08,0.006-0.483,0.03-1.119,0.03
		C71.777,32.285,64.094,31.779,60.376,26.654z M66.391,33.249c3.422,0,6.199,2.777,6.199,6.201c0,1.363-0.445,2.619-1.188,3.643
		c-1.12-1.609-2.981-2.666-5.091-2.666c-2.062,0-3.883,1.012-5.01,2.561c-0.699-1.004-1.111-2.222-1.111-3.537
		C60.189,36.027,62.967,33.249,66.391,33.249z M85.467,103.695H18.23C8.178,103.695,0,95.518,0,85.465V18.23
		C0,8.177,8.178,0,18.23,0h67.235c10.053,0,18.23,8.178,18.23,18.23v67.235C103.696,95.518,95.518,103.695,85.467,103.695z
		 M18.23,8.577c-5.321,0-9.651,4.33-9.651,9.652v67.234c0,5.322,4.33,9.652,9.651,9.652h67.235c5.321,0,9.651-4.33,9.651-9.652
		V18.23c0-5.322-4.33-9.652-9.651-9.652L18.23,8.577L18.23,8.577z"/>
</g>
<g>
</g>
<g>
</g>
<g>
</g>
<g>
</g>
<g>
</g>
<g>
</g>
<g>
</g>
<g>
</g>
<g>
</g>
<g>
</g>
<g>
</g>
<g>
</g>
<g>
</g>
<g>
</g>
<g>
</g>
</svg>
