<?xml version="1.0" encoding="iso-8859-1"?>
<!-- Generator: Adobe Illustrator 16.0.0, SVG Export Plug-In . SVG Version: 6.00 Build 0)  -->
<!DOCTYPE svg PUBLIC "-//W3C//DTD SVG 1.1//EN" "http://www.w3.org/Graphics/SVG/1.1/DTD/svg11.dtd">
<svg version="1.1" id="Capa_1" xmlns="http://www.w3.org/2000/svg" xmlns:xlink="http://www.w3.org/1999/xlink" x="0px" y="0px"
	 width="103.696px" height="103.696px" viewBox="0 0 103.696 103.696" style="enable-background:new 0 0 103.696 103.696;"
	 xml:space="preserve">
<g>
	<path d="M32.059,37.489c0-3.423,2.777-6.201,6.201-6.201c3.422,0,6.199,2.777,6.199,6.201c0,3.426-2.777,6.203-6.199,6.203
		C34.836,43.692,32.059,40.915,32.059,37.489z M60.177,37.489c0-3.423,2.778-6.201,6.203-6.201c3.424,0,6.2,2.777,6.2,6.201
		c0,3.426-2.776,6.203-6.2,6.203C62.955,43.692,60.177,40.915,60.177,37.489z M74.836,60.887
		c-2.512,5.805-7.229,10.254-13.006,12.652v3.941c0,5.295-4.471,9.586-9.982,9.586s-9.98-4.291-9.98-9.586v-3.932
		c-5.863-2.406-10.594-6.886-13.023-12.734c-0.637-1.53,0.09-3.286,1.619-3.922c0.377-0.155,0.766-0.229,1.15-0.229
		c1.176,0,2.291,0.696,2.771,1.851c2.777,6.685,9.654,11.004,17.523,11.004c7.688,0,14.526-4.322,17.42-11.012
		c0.658-1.521,2.424-2.222,3.944-1.562C74.793,57.6,75.494,59.366,74.836,60.887z M85.466,103.696H18.231
		c-10.053,0-18.23-8.179-18.23-18.229V18.23C0.001,8.178,8.179,0,18.231,0h67.235c10.053,0,18.229,8.178,18.229,18.23v67.235
		C103.696,95.518,95.519,103.696,85.466,103.696z M18.231,8.579c-5.322,0-9.652,4.33-9.652,9.651v67.235
		c0,5.321,4.33,9.651,9.652,9.651h67.235c5.321,0,9.651-4.33,9.651-9.651V18.23c0-5.321-4.33-9.651-9.651-9.651H18.231z"/>
</g>
<g>
</g>
<g>
</g>
<g>
</g>
<g>
</g>
<g>
</g>
<g>
</g>
<g>
</g>
<g>
</g>
<g>
</g>
<g>
</g>
<g>
</g>
<g>
</g>
<g>
</g>
<g>
</g>
<g>
</g>
</svg>
