<?xml version="1.0" encoding="iso-8859-1"?>
<!-- Generator: Adobe Illustrator 16.0.0, SVG Export Plug-In . SVG Version: 6.00 Build 0)  -->
<!DOCTYPE svg PUBLIC "-//W3C//DTD SVG 1.1//EN" "http://www.w3.org/Graphics/SVG/1.1/DTD/svg11.dtd">
<svg version="1.1" id="Capa_1" xmlns="http://www.w3.org/2000/svg" xmlns:xlink="http://www.w3.org/1999/xlink" x="0px" y="0px"
	 width="103.695px" height="103.695px" viewBox="0 0 103.695 103.695" style="enable-background:new 0 0 103.695 103.695;"
	 xml:space="preserve">
<g>
	<path d="M50.74,84.289c0.706,0,1.108-0.027,1.108-0.027s0.401,0.027,1.108,0.027c4.341,0,20.175-1.021,24.923-15.605
		c0,0,2.393-9.248-4.152-9.248c-0.732,0-1.578,0.115-2.553,0.373c-7.17,3.1-13.853,4.131-19.58,4.131
		c-11.451,0-19.072-4.131-19.072-4.131c-0.898-0.238-1.834-0.352-2.551-0.367v-0.006H29.97c-0.019,0-0.033,0.004-0.052,0.004
		c-0.042,0-0.092-0.004-0.132-0.004l0.001,0.017c-6.297,0.187-3.969,9.231-3.969,9.231C30.566,83.27,46.401,84.289,50.74,84.289z
		 M72.432,62.828c0.158-0.016,0.321-0.035,0.463-0.035c0.787,0,0.961,0.225,1.037,0.32c0.676,0.867,0.537,3.414,0.182,4.893
		c-0.344,1.033-0.758,1.979-1.227,2.855H72.43v-8.033H72.432z M63.516,65.645c1.65-0.412,3.291-0.909,4.916-1.493v6.711h-4.916
		V65.645z M63.516,74.247h4.916v1.913c-1.547,1.214-3.229,2.126-4.916,2.805V74.247z M54.516,67.032c1.674-0.101,3.34-0.286,5-0.56
		v4.39h-5V67.032z M54.516,74.247h5v5.948c-1.908,0.428-3.65,0.613-5,0.688V74.247z M44.931,66.662
		c1.728,0.239,3.595,0.398,5.583,0.443v3.756h-5.583V66.662z M44.931,74.247h5.583v6.683c-1.265-0.014-3.274-0.123-5.583-0.576
		V74.247z M35.598,64.393c1.421,0.513,3.218,1.066,5.333,1.545v4.925h-5.333V64.393z M35.598,74.247h5.333v5.004
		c-1.813-0.659-3.647-1.573-5.333-2.834V74.247z M29.765,63.114c0.072-0.093,0.242-0.302,0.95-0.317
		c0.246,0.006,0.561,0.032,0.883,0.076v7.989h-0.789c-0.468-0.876-0.884-1.821-1.226-2.854C29.227,66.52,29.09,63.98,29.765,63.114z
		 M32.059,37.489c0-3.424,2.777-6.201,6.201-6.201c3.423,0,6.2,2.777,6.2,6.201c0,3.426-2.777,6.203-6.2,6.203
		C34.836,43.692,32.059,40.914,32.059,37.489z M60.176,37.489c0-3.424,2.78-6.201,6.203-6.201c3.424,0,6.201,2.777,6.201,6.201
		c0,3.426-2.777,6.203-6.201,6.203C62.956,43.692,60.176,40.914,60.176,37.489z M85.467,103.695H18.23
		C8.178,103.695,0,95.518,0,85.465V18.23C0,8.177,8.178,0,18.23,0h67.235c10.053,0,18.23,8.178,18.23,18.23v67.235
		C103.696,95.518,95.518,103.695,85.467,103.695z M18.23,8.577c-5.321,0-9.651,4.33-9.651,9.652v67.234
		c0,5.322,4.33,9.652,9.651,9.652h67.235c5.321,0,9.651-4.33,9.651-9.652V18.23c0-5.322-4.33-9.652-9.651-9.652L18.23,8.577
		L18.23,8.577z"/>
</g>
<g>
</g>
<g>
</g>
<g>
</g>
<g>
</g>
<g>
</g>
<g>
</g>
<g>
</g>
<g>
</g>
<g>
</g>
<g>
</g>
<g>
</g>
<g>
</g>
<g>
</g>
<g>
</g>
<g>
</g>
</svg>
