<?xml version="1.0" encoding="iso-8859-1"?>
<!-- Generator: Adobe Illustrator 16.0.0, SVG Export Plug-In . SVG Version: 6.00 Build 0)  -->
<!DOCTYPE svg PUBLIC "-//W3C//DTD SVG 1.1//EN" "http://www.w3.org/Graphics/SVG/1.1/DTD/svg11.dtd">
<svg version="1.1" id="Capa_1" xmlns="http://www.w3.org/2000/svg" xmlns:xlink="http://www.w3.org/1999/xlink" x="0px" y="0px"
	 width="103.696px" height="103.696px" viewBox="0 0 103.696 103.696" style="enable-background:new 0 0 103.696 103.696;"
	 xml:space="preserve">
<g>
	<path d="M30.557,36.281c-0.185-0.189-0.248-0.465-0.164-0.715s0.301-0.432,0.561-0.472l4.604-0.703l2.065-4.4
		c0.116-0.247,0.364-0.404,0.637-0.404s0.521,0.157,0.637,0.404l2.065,4.4l4.604,0.703c0.26,0.04,0.477,0.222,0.561,0.472
		s0.021,0.525-0.164,0.714l-3.352,3.437l0.794,4.857c0.043,0.266-0.068,0.533-0.289,0.688c-0.121,0.085-0.263,0.128-0.405,0.128
		c-0.117,0-0.234-0.029-0.34-0.087l-4.11-2.271l-4.108,2.271c-0.234,0.131-0.524,0.115-0.745-0.041
		c-0.22-0.155-0.332-0.422-0.289-0.688l0.791-4.857L30.557,36.281z M58.675,36.281c-0.185-0.189-0.248-0.465-0.164-0.715
		s0.301-0.432,0.562-0.472l4.604-0.703l2.064-4.4c0.115-0.247,0.363-0.404,0.637-0.404s0.521,0.157,0.637,0.404l2.065,4.4
		l4.604,0.703c0.26,0.04,0.477,0.222,0.561,0.472s0.021,0.525-0.164,0.714l-3.354,3.438l0.795,4.857
		c0.043,0.266-0.068,0.533-0.289,0.688c-0.121,0.085-0.264,0.128-0.405,0.128c-0.117,0-0.233-0.029-0.34-0.087l-4.11-2.271
		l-4.107,2.271c-0.234,0.131-0.524,0.115-0.746-0.041c-0.219-0.155-0.331-0.422-0.288-0.688l0.791-4.857L58.675,36.281z
		 M77.365,59.885c0.265,0.402,0.31,0.912,0.118,1.355c-4.285,9.904-14.318,16.304-25.563,16.304
		c-11.486,0-21.58-6.431-25.714-16.382c-0.185-0.443-0.135-0.949,0.131-1.348c0.267-0.397,0.714-0.637,1.192-0.637
		c0.001,0,0.001,0,0.002,0l48.638,0.061C76.651,59.238,77.101,59.48,77.365,59.885z M85.466,103.696H18.231
		c-10.053,0-18.23-8.179-18.23-18.229V18.23C0.001,8.178,8.179,0,18.231,0h67.235c10.053,0,18.229,8.178,18.229,18.23v67.235
		C103.696,95.518,95.519,103.696,85.466,103.696z M18.231,8.579c-5.322,0-9.652,4.33-9.652,9.651v67.235
		c0,5.321,4.33,9.651,9.652,9.651h67.235c5.321,0,9.651-4.33,9.651-9.651V18.23c0-5.321-4.33-9.651-9.651-9.651H18.231z"/>
</g>
<g>
</g>
<g>
</g>
<g>
</g>
<g>
</g>
<g>
</g>
<g>
</g>
<g>
</g>
<g>
</g>
<g>
</g>
<g>
</g>
<g>
</g>
<g>
</g>
<g>
</g>
<g>
</g>
<g>
</g>
</svg>
