<?xml version="1.0" encoding="iso-8859-1"?>
<!-- Generator: Adobe Illustrator 16.0.0, SVG Export Plug-In . SVG Version: 6.00 Build 0)  -->
<!DOCTYPE svg PUBLIC "-//W3C//DTD SVG 1.1//EN" "http://www.w3.org/Graphics/SVG/1.1/DTD/svg11.dtd">
<svg version="1.1" id="Capa_1" xmlns="http://www.w3.org/2000/svg" xmlns:xlink="http://www.w3.org/1999/xlink" x="0px" y="0px"
	 width="103.696px" height="103.696px" viewBox="0 0 103.696 103.696" style="enable-background:new 0 0 103.696 103.696;"
	 xml:space="preserve">
<g>
	<path d="M32.191,26.524c1.303-3.356,5.027-1.911,5.027-1.911c3.202,1.244,5.376,6.973,5.376,6.973
		c-2.719-0.586-4.6-0.155-4.6-0.155c-2.136,0.478-3.71-0.133-3.71-0.133C30.825,29.954,32.191,26.524,32.191,26.524z M38.261,34.819
		c1.817,0,3.292,2.092,3.292,4.67c0,2.58-1.475,4.671-3.292,4.671c-1.818,0-3.292-2.091-3.292-4.671
		C34.968,36.911,36.443,34.819,38.261,34.819z M74.836,62.887c-3.843,8.887-12.843,14.629-22.928,14.629
		c-10.301,0-19.354-5.771-23.064-14.703c-0.636-1.529,0.089-3.285,1.62-3.92c0.376-0.156,0.766-0.23,1.15-0.23
		c1.176,0,2.292,0.695,2.771,1.85c2.777,6.686,9.655,11.004,17.523,11.004c7.689,0,14.527-4.321,17.421-11.01
		c0.658-1.521,2.424-2.223,3.944-1.564S75.495,61.366,74.836,62.887z M60.176,31.486c0,0,2.174-5.729,5.375-6.973
		c0,0,3.725-1.446,5.027,1.911c0,0,1.367,3.431-2.093,4.774c0,0-1.574,0.611-3.71,0.133C64.776,31.33,62.895,30.9,60.176,31.486z
		 M64.51,34.719c1.817,0,3.291,2.092,3.291,4.67c0,2.58-1.475,4.671-3.291,4.671c-1.817,0-3.293-2.091-3.293-4.671
		C61.219,36.81,62.693,34.719,64.51,34.719z M85.467,103.696H18.23C8.179,103.696,0,95.518,0,85.467V18.23C0,8.178,8.179,0,18.23,0
		h67.235c10.053,0,18.23,8.178,18.23,18.23v67.235C103.697,95.518,95.518,103.696,85.467,103.696z M18.23,8.579
		c-5.321,0-9.651,4.33-9.651,9.651v67.235c0,5.321,4.33,9.651,9.651,9.651h67.235c5.321,0,9.651-4.33,9.651-9.651V18.23
		c0-5.321-4.33-9.651-9.651-9.651H18.23z"/>
</g>
<g>
</g>
<g>
</g>
<g>
</g>
<g>
</g>
<g>
</g>
<g>
</g>
<g>
</g>
<g>
</g>
<g>
</g>
<g>
</g>
<g>
</g>
<g>
</g>
<g>
</g>
<g>
</g>
<g>
</g>
</svg>
