<?xml version="1.0" encoding="iso-8859-1"?>
<!-- Generator: Adobe Illustrator 16.0.0, SVG Export Plug-In . SVG Version: 6.00 Build 0)  -->
<!DOCTYPE svg PUBLIC "-//W3C//DTD SVG 1.1//EN" "http://www.w3.org/Graphics/SVG/1.1/DTD/svg11.dtd">
<svg version="1.1" id="Capa_1" xmlns="http://www.w3.org/2000/svg" xmlns:xlink="http://www.w3.org/1999/xlink" x="0px" y="0px"
	 width="103.696px" height="103.696px" viewBox="0 0 103.696 103.696" style="enable-background:new 0 0 103.696 103.696;"
	 xml:space="preserve">
<g>
	<path d="M77.365,59.885c0.265,0.403,0.31,0.914,0.118,1.355c-4.285,9.904-14.318,16.304-25.563,16.304
		c-11.486,0-21.58-6.431-25.714-16.382c-0.185-0.443-0.135-0.947,0.131-1.348c0.267-0.397,0.714-0.637,1.192-0.637
		c0,0,0.001,0,0.002,0l48.638,0.06C76.651,59.237,77.101,59.48,77.365,59.885z M32.778,41.131c-0.744-1.023-1.189-2.279-1.189-3.643
		c0-3.424,2.777-6.201,6.2-6.201c3.424,0,6.2,2.777,6.2,6.201c0,1.315-0.412,2.533-1.11,3.537c-1.127-1.549-2.949-2.561-5.011-2.561
		C35.759,38.465,33.898,39.522,32.778,41.131z M60.896,41.131c-0.743-1.023-1.188-2.279-1.188-3.643c0-3.424,2.777-6.201,6.2-6.201
		c3.424,0,6.199,2.777,6.199,6.201c0,1.315-0.411,2.533-1.109,3.537c-1.127-1.549-2.949-2.561-5.011-2.561
		C63.877,38.465,62.017,39.522,60.896,41.131z M85.466,103.696H18.231c-10.053,0-18.23-8.179-18.23-18.229V18.23
		C0.001,8.178,8.179,0,18.231,0h67.235c10.053,0,18.229,8.178,18.229,18.23v67.235C103.696,95.518,95.519,103.696,85.466,103.696z
		 M18.231,8.579c-5.322,0-9.652,4.33-9.652,9.651v67.235c0,5.321,4.33,9.651,9.652,9.651h67.235c5.321,0,9.651-4.33,9.651-9.651
		V18.23c0-5.321-4.33-9.651-9.651-9.651H18.231z"/>
</g>
<g>
</g>
<g>
</g>
<g>
</g>
<g>
</g>
<g>
</g>
<g>
</g>
<g>
</g>
<g>
</g>
<g>
</g>
<g>
</g>
<g>
</g>
<g>
</g>
<g>
</g>
<g>
</g>
<g>
</g>
</svg>
