<?xml version="1.0" encoding="iso-8859-1"?>
<!-- Generator: Adobe Illustrator 16.0.0, SVG Export Plug-In . SVG Version: 6.00 Build 0)  -->
<!DOCTYPE svg PUBLIC "-//W3C//DTD SVG 1.1//EN" "http://www.w3.org/Graphics/SVG/1.1/DTD/svg11.dtd">
<svg version="1.1" id="Capa_1" xmlns="http://www.w3.org/2000/svg" xmlns:xlink="http://www.w3.org/1999/xlink" x="0px" y="0px"
	 width="103.696px" height="103.695px" viewBox="0 0 103.696 103.695" style="enable-background:new 0 0 103.696 103.695;"
	 xml:space="preserve">
<g>
	<path d="M74.834,62.887c-3.843,8.887-12.843,14.629-22.928,14.629c-10.301,0-19.354-5.771-23.064-14.703
		c-0.636-1.528,0.089-3.284,1.62-3.922c0.376-0.155,0.766-0.229,1.149-0.229c1.176,0.001,2.292,0.696,2.771,1.851
		c2.776,6.686,9.655,11.006,17.523,11.006c7.69,0,14.528-4.322,17.421-11.012c0.658-1.521,2.424-2.223,3.943-1.564
		C74.792,59.6,75.493,61.366,74.834,62.887z M27.387,29.291c-0.205,0.058-0.407-0.063-0.461-0.262
		c-0.055-0.2,0.063-0.406,0.262-0.461c2.304-0.633,5.31,2.141,7.121,4.142c0.837-0.693,1.862-1.164,2.983-1.34
		c-0.633-2.564-1.779-5.603-3.502-5.986c-0.202-0.045-0.329-0.246-0.284-0.448c0.045-0.2,0.232-0.331,0.448-0.284
		c2.22,0.495,3.467,4.047,4.093,6.646c0.071-0.002,0.141-0.011,0.212-0.011c0.629,0,1.234,0.096,1.807,0.27
		c-0.452-2.587-0.92-7.245,1.218-8.71c0.17-0.115,0.403-0.074,0.521,0.098c0.117,0.171,0.073,0.404-0.098,0.521
		c-1.771,1.213-1.337,5.717-0.825,8.41c2.111,0.989,3.577,3.128,3.577,5.612c0,3.426-2.777,6.203-6.2,6.203
		c-3.423,0-6.2-2.777-6.2-6.203c0-1.652,0.651-3.151,1.706-4.263C31.924,31.203,29.204,28.795,27.387,29.291z M77.708,28.893
		c-0.054,0.198-0.256,0.319-0.461,0.262c-1.816-0.496-4.537,1.912-6.378,3.935c1.056,1.111,1.706,2.61,1.706,4.263
		c0,3.426-2.777,6.203-6.2,6.203s-6.2-2.777-6.2-6.203c0-2.484,1.467-4.623,3.577-5.612c0.513-2.693,0.945-7.197-0.825-8.41
		c-0.17-0.117-0.215-0.351-0.098-0.521c0.118-0.172,0.352-0.213,0.521-0.098c2.138,1.465,1.67,6.123,1.218,8.71
		c0.571-0.174,1.178-0.27,1.807-0.27c0.071,0,0.142,0.009,0.212,0.011c0.627-2.6,1.873-6.151,4.094-6.646
		c0.215-0.047,0.402,0.084,0.447,0.284c0.045,0.202-0.082,0.403-0.283,0.448c-1.725,0.384-2.869,3.422-3.504,5.986
		c1.123,0.176,2.147,0.646,2.984,1.34c1.812-2.001,4.816-4.774,7.121-4.142C77.645,28.487,77.762,28.693,77.708,28.893z
		 M85.465,103.695H18.23C8.178,103.695,0,95.518,0,85.465V18.23C0,8.177,8.179,0,18.23,0h67.235c10.053,0,18.229,8.178,18.229,18.23
		v67.235C103.696,95.518,95.518,103.695,85.465,103.695z M18.23,8.577c-5.322,0-9.652,4.33-9.652,9.652v67.234
		c0,5.322,4.33,9.652,9.652,9.652h67.235c5.321,0,9.651-4.33,9.651-9.652V18.23c0-5.322-4.33-9.652-9.651-9.652L18.23,8.577
		L18.23,8.577z"/>
</g>
<g>
</g>
<g>
</g>
<g>
</g>
<g>
</g>
<g>
</g>
<g>
</g>
<g>
</g>
<g>
</g>
<g>
</g>
<g>
</g>
<g>
</g>
<g>
</g>
<g>
</g>
<g>
</g>
<g>
</g>
</svg>
