<?xml version="1.0" encoding="iso-8859-1"?>
<!-- Generator: Adobe Illustrator 16.0.0, SVG Export Plug-In . SVG Version: 6.00 Build 0)  -->
<!DOCTYPE svg PUBLIC "-//W3C//DTD SVG 1.1//EN" "http://www.w3.org/Graphics/SVG/1.1/DTD/svg11.dtd">
<svg version="1.1" id="Capa_1" xmlns="http://www.w3.org/2000/svg" xmlns:xlink="http://www.w3.org/1999/xlink" x="0px" y="0px"
	 width="103.695px" height="103.695px" viewBox="0 0 103.695 103.695" style="enable-background:new 0 0 103.695 103.695;"
	 xml:space="preserve">
<g>
	<path d="M76.169,64.236l-48.638-0.059c-0.001,0-0.002,0-0.002,0c-0.479,0-0.926,0.237-1.192,0.637
		c-0.266,0.398-0.315,0.904-0.131,1.348c4.134,9.951,14.228,18.383,25.714,18.383c11.245,0,21.278-8.4,25.562-18.305
		c0.191-0.443,0.146-0.953-0.117-1.355C77.102,64.48,76.651,64.237,76.169,64.236z M51.92,80.543
		c-8.401,0-15.917-5.962-20.132-12.361l40.065,0.049C67.564,74.6,60.124,80.543,51.92,80.543z M32.059,37.488
		c0-3.424,2.777-6.201,6.2-6.201c3.423,0,6.2,2.777,6.2,6.201c0,3.426-2.777,6.203-6.2,6.203
		C34.836,43.691,32.059,40.913,32.059,37.488z M60.176,37.488c0-3.424,2.78-6.201,6.203-6.201c3.424,0,6.2,2.777,6.2,6.201
		c0,3.426-2.776,6.203-6.2,6.203C62.956,43.691,60.176,40.913,60.176,37.488z M40.227,74.006c-0.083-0.121-0.061-0.258,0.06-0.365
		c0.121-0.108,0.324-0.174,0.54-0.174c0,0,0,0,0.001,0l22.042,0.016c0.22,0,0.422,0.066,0.542,0.177
		c0.121,0.108,0.141,0.248,0.055,0.369c-1.941,2.688-6.49,4.968-11.585,4.968C46.676,78.995,42.101,76.707,40.227,74.006z
		 M85.467,103.695H18.23C8.178,103.695,0,95.518,0,85.465V18.23C0,8.177,8.178,0,18.23,0h67.235c10.053,0,18.23,8.178,18.23,18.23
		v67.235C103.696,95.518,95.518,103.695,85.467,103.695z M18.23,8.577c-5.321,0-9.651,4.33-9.651,9.652v67.234
		c0,5.322,4.33,9.652,9.651,9.652h67.235c5.321,0,9.651-4.33,9.651-9.652V18.23c0-5.322-4.33-9.652-9.651-9.652L18.23,8.577
		L18.23,8.577z"/>
</g>
<g>
</g>
<g>
</g>
<g>
</g>
<g>
</g>
<g>
</g>
<g>
</g>
<g>
</g>
<g>
</g>
<g>
</g>
<g>
</g>
<g>
</g>
<g>
</g>
<g>
</g>
<g>
</g>
<g>
</g>
</svg>
