<?xml version="1.0" encoding="iso-8859-1"?>
<!-- Generator: Adobe Illustrator 16.0.0, SVG Export Plug-In . SVG Version: 6.00 Build 0)  -->
<!DOCTYPE svg PUBLIC "-//W3C//DTD SVG 1.1//EN" "http://www.w3.org/Graphics/SVG/1.1/DTD/svg11.dtd">
<svg version="1.1" id="Capa_1" xmlns="http://www.w3.org/2000/svg" xmlns:xlink="http://www.w3.org/1999/xlink" x="0px" y="0px"
	 width="103.696px" height="103.696px" viewBox="0 0 103.696 103.696" style="enable-background:new 0 0 103.696 103.696;"
	 xml:space="preserve">
<g>
	<path d="M76.167,63.094L27.53,63.025c-0.001,0-0.002,0-0.002,0c-0.479,0-0.926,0.273-1.191,0.729
		c-0.268,0.455-0.316,1.033-0.133,1.54c4.135,11.373,14.229,18.724,25.715,18.724c11.244,0,21.279-7.314,25.562-18.635
		c0.191-0.507,0.148-1.09-0.116-1.551S76.649,63.094,76.167,63.094z M40.706,78.614c-2.64-1.154-5.017-2.712-7.012-4.615h7.012
		V78.614z M40.706,70.699h-9.785v-4.951l9.785,0.012V70.699z M54.05,80.809c-0.727,0.057-1.459,0.095-2.199,0.095
		c-2.637,0-5.186-0.36-7.586-1.024v-5.88h9.785V80.809z M54.05,70.699h-9.785v-4.936l9.785,0.012V70.699z M67.394,76.016
		c-2.836,2.045-6.17,3.52-9.784,4.283v-6.3h9.784V76.016z M74.591,67.45c-0.533,1.144-1.178,2.226-1.9,3.249h-1.737v-4.904
		l2.47,0.002c0.428,0.002,0.827,0.202,1.063,0.534C74.722,66.664,74.761,67.084,74.591,67.45z M32.059,37.489
		c0-3.423,2.777-6.201,6.2-6.201c3.424,0,6.2,2.777,6.2,6.201c0,3.426-2.776,6.203-6.2,6.203
		C34.836,43.692,32.059,40.915,32.059,37.489z M60.175,37.489c0-3.423,2.781-6.201,6.203-6.201c3.424,0,6.201,2.777,6.201,6.201
		c0,3.426-2.777,6.203-6.201,6.203C62.956,43.692,60.175,40.915,60.175,37.489z M85.466,103.696H18.231
		c-10.053,0-18.23-8.179-18.23-18.229V18.23C0.001,8.178,8.179,0,18.231,0h67.235c10.053,0,18.229,8.178,18.229,18.23v67.235
		C103.696,95.518,95.519,103.696,85.466,103.696z M18.231,8.579c-5.322,0-9.652,4.33-9.652,9.651v67.235
		c0,5.321,4.33,9.651,9.652,9.651h67.235c5.321,0,9.651-4.33,9.651-9.651V18.23c0-5.321-4.33-9.651-9.651-9.651H18.231z"/>
</g>
<g>
</g>
<g>
</g>
<g>
</g>
<g>
</g>
<g>
</g>
<g>
</g>
<g>
</g>
<g>
</g>
<g>
</g>
<g>
</g>
<g>
</g>
<g>
</g>
<g>
</g>
<g>
</g>
<g>
</g>
</svg>
