<?xml version="1.0" encoding="iso-8859-1"?>
<!-- Generator: Adobe Illustrator 16.0.0, SVG Export Plug-In . SVG Version: 6.00 Build 0)  -->
<!DOCTYPE svg PUBLIC "-//W3C//DTD SVG 1.1//EN" "http://www.w3.org/Graphics/SVG/1.1/DTD/svg11.dtd">
<svg version="1.1" id="Capa_1" xmlns="http://www.w3.org/2000/svg" xmlns:xlink="http://www.w3.org/1999/xlink" x="0px" y="0px"
	 width="103.696px" height="103.696px" viewBox="0 0 103.696 103.696" style="enable-background:new 0 0 103.696 103.696;"
	 xml:space="preserve">
<g>
	<path d="M51.919,81.59c11.245,0,21.28-7.314,25.562-18.636c0.191-0.506,0.148-1.089-0.116-1.55s-0.715-0.739-1.197-0.74
		L27.53,60.596c0,0-0.001,0-0.002,0c-0.479,0-0.926,0.273-1.191,0.729c-0.267,0.455-0.316,1.032-0.132,1.54
		C30.339,74.239,40.433,81.59,51.919,81.59z M70.952,63.366l2.469,0.002c0.43,0.001,0.828,0.202,1.065,0.534
		c0.235,0.332,0.274,0.754,0.104,1.119c-0.533,1.144-1.179,2.225-1.9,3.248h-1.738V63.366z M40.707,76.186
		c-2.64-1.153-5.017-2.711-7.013-4.614h7.013V76.186z M57.609,63.35l9.784,0.013v4.907h-9.784V63.35z M57.609,71.571h9.784v2.017
		c-2.834,2.045-6.17,3.52-9.784,4.282V71.571z M44.266,63.336l9.786,0.012v4.924h-9.786V63.336z M44.266,71.571h9.786v6.81
		c-0.729,0.057-1.461,0.094-2.201,0.094c-2.636,0-5.186-0.359-7.585-1.023V71.571z M30.922,63.32l9.785,0.011v4.938h-9.785V63.32z
		 M33.248,41.131c-0.744-1.023-1.189-2.28-1.189-3.643c0-3.423,2.777-6.201,6.2-6.201c3.424,0,6.2,2.777,6.2,6.201
		c0,1.315-0.412,2.533-1.11,3.537c-1.127-1.549-2.949-2.56-5.011-2.56C36.23,38.465,34.369,39.521,33.248,41.131z M61.367,41.131
		c-0.744-1.023-1.188-2.28-1.188-3.643c0-3.423,2.776-6.201,6.199-6.201c3.424,0,6.2,2.777,6.2,6.201
		c0,1.315-0.412,2.533-1.11,3.537c-1.127-1.549-2.949-2.56-5.011-2.56C64.349,38.465,62.487,39.521,61.367,41.131z M85.466,103.696
		H18.231c-10.053,0-18.23-8.179-18.23-18.229V18.23C0.001,8.178,8.179,0,18.231,0h67.235c10.053,0,18.229,8.178,18.229,18.23v67.235
		C103.696,95.518,95.519,103.696,85.466,103.696z M18.231,8.579c-5.322,0-9.652,4.33-9.652,9.651v67.235
		c0,5.321,4.33,9.651,9.652,9.651h67.235c5.321,0,9.651-4.33,9.651-9.651V18.23c0-5.321-4.33-9.651-9.651-9.651H18.231z"/>
</g>
<g>
</g>
<g>
</g>
<g>
</g>
<g>
</g>
<g>
</g>
<g>
</g>
<g>
</g>
<g>
</g>
<g>
</g>
<g>
</g>
<g>
</g>
<g>
</g>
<g>
</g>
<g>
</g>
<g>
</g>
</svg>
