<?xml version="1.0" encoding="iso-8859-1"?>
<!-- Generator: Adobe Illustrator 16.0.0, SVG Export Plug-In . SVG Version: 6.00 Build 0)  -->
<!DOCTYPE svg PUBLIC "-//W3C//DTD SVG 1.1//EN" "http://www.w3.org/Graphics/SVG/1.1/DTD/svg11.dtd">
<svg version="1.1" id="Capa_1" xmlns="http://www.w3.org/2000/svg" xmlns:xlink="http://www.w3.org/1999/xlink" x="0px" y="0px"
	 width="103.695px" height="103.695px" viewBox="0 0 103.695 103.695" style="enable-background:new 0 0 103.695 103.695;"
	 xml:space="preserve">
<g>
	<path d="M73.727,58.936c-0.805,0-1.707,0.131-2.752,0.414c-6.279,2.715-12.799,4.09-19.38,4.09
		c-11.178,0-18.758-4.029-18.833-4.069c-0.035-0.019-0.072-0.032-0.109-0.044c-0.847-0.227-1.82-0.365-2.669-0.385v0.006
		c-0.032-0.006-0.064-0.01-0.096-0.01c-0.008,0-0.092-0.002-0.101-0.002c-0.047,0-0.093,0.008-0.138,0.021
		c-1.547,0.073-2.743,0.658-3.555,1.738c-2.098,2.788-0.815,7.896-0.751,8.144C30.161,83.639,46,84.789,50.74,84.789
		c0.672,0,1.077-0.023,1.081-0.027c0.058,0.004,0.462,0.027,1.135,0.027c4.74,0,20.579-1.15,25.407-15.98
		c0.057-0.219,1.363-5.4-0.789-8.18C76.704,59.504,75.41,58.936,73.727,58.936z M73.641,67.848
		c-3.869,11.676-16.842,12.584-20.727,12.584c-0.52,0-0.824-0.019-0.833-0.019c-0.075-0.006-0.153-0.009-0.231-0.009
		c-0.077,0-0.153,0.003-0.222,0.008c-0.044,0.002-0.347,0.02-0.846,0.02c-3.884,0-16.856-0.908-20.712-12.541
		c-0.369-1.539-0.41-3.828,0.088-4.467c0.067-0.086,0.338-0.123,0.546-0.127c0.326,0.006,0.871,0.053,1.361,0.163
		c2.055,1.013,9.283,4.167,19.538,4.167c6.786,0,13.502-1.398,19.888-4.135c0.538-0.132,1.01-0.199,1.403-0.199
		c0.263,0,0.568,0.033,0.643,0.129C74.038,64.064,73.997,66.35,73.641,67.848z M32.059,37.489c0-3.424,2.777-6.201,6.201-6.201
		c3.423,0,6.2,2.777,6.2,6.201c0,3.426-2.777,6.203-6.2,6.203C34.836,43.692,32.059,40.914,32.059,37.489z M60.176,37.489
		c0-3.424,2.78-6.201,6.203-6.201c3.424,0,6.201,2.777,6.201,6.201c0,3.426-2.777,6.203-6.201,6.203
		C62.956,43.692,60.176,40.914,60.176,37.489z M85.467,103.695H18.23C8.178,103.695,0,95.518,0,85.465V18.23
		C0,8.177,8.178,0,18.23,0h67.235c10.053,0,18.23,8.178,18.23,18.23v67.235C103.696,95.518,95.518,103.695,85.467,103.695z
		 M18.23,8.577c-5.321,0-9.651,4.33-9.651,9.652v67.234c0,5.322,4.33,9.652,9.651,9.652h67.235c5.321,0,9.651-4.33,9.651-9.652
		V18.23c0-5.322-4.33-9.652-9.651-9.652L18.23,8.577L18.23,8.577z"/>
</g>
<g>
</g>
<g>
</g>
<g>
</g>
<g>
</g>
<g>
</g>
<g>
</g>
<g>
</g>
<g>
</g>
<g>
</g>
<g>
</g>
<g>
</g>
<g>
</g>
<g>
</g>
<g>
</g>
<g>
</g>
</svg>
