<?xml version="1.0" encoding="iso-8859-1"?>
<!-- Generator: Adobe Illustrator 16.0.0, SVG Export Plug-In . SVG Version: 6.00 Build 0)  -->
<!DOCTYPE svg PUBLIC "-//W3C//DTD SVG 1.1//EN" "http://www.w3.org/Graphics/SVG/1.1/DTD/svg11.dtd">
<svg version="1.1" id="Capa_1" xmlns="http://www.w3.org/2000/svg" xmlns:xlink="http://www.w3.org/1999/xlink" x="0px" y="0px"
	 width="103.696px" height="103.695px" viewBox="0 0 103.696 103.695" style="enable-background:new 0 0 103.696 103.695;"
	 xml:space="preserve">
<g>
	<path d="M41.646,40.486c1.16,1.127,1.885,2.701,1.885,4.446c0,3.426-2.777,6.203-6.199,6.203c-3.424,0-6.201-2.777-6.201-6.203
		c0-1.679,0.67-3.199,1.754-4.315l-5.182-5.183c-1.229-1.229-1.229-3.221,0-4.449c1.229-1.23,3.221-1.23,4.451,0l9.455,9.455
		C41.623,40.453,41.633,40.471,41.646,40.486z M62.162,44.932c0-1.744,0.724-3.318,1.883-4.445c0.015-0.015,0.023-0.032,0.039-0.047
		l9.457-9.455c1.229-1.23,3.222-1.23,4.451,0c1.229,1.229,1.229,3.221-0.002,4.449l-5.183,5.183
		c1.084,1.116,1.754,2.637,1.754,4.315c0,3.426-2.776,6.203-6.198,6.203C64.94,51.135,62.162,48.358,62.162,44.932z M58.756,68.116
		l26.92-1.052c-5.207,17.412-23.615,27.348-41.03,22.14L58.756,68.116z M85.465,103.695H18.23C8.178,103.695,0,95.518,0,85.465
		V18.23C0,8.177,8.179,0,18.23,0h67.235c10.053,0,18.229,8.178,18.229,18.23v67.235C103.696,95.518,95.518,103.695,85.465,103.695z
		 M18.23,8.577c-5.322,0-9.652,4.33-9.652,9.652v67.234c0,5.322,4.33,9.652,9.652,9.652h67.235c5.321,0,9.651-4.33,9.651-9.652
		V18.23c0-5.322-4.33-9.652-9.651-9.652L18.23,8.577L18.23,8.577z"/>
</g>
<g>
</g>
<g>
</g>
<g>
</g>
<g>
</g>
<g>
</g>
<g>
</g>
<g>
</g>
<g>
</g>
<g>
</g>
<g>
</g>
<g>
</g>
<g>
</g>
<g>
</g>
<g>
</g>
<g>
</g>
</svg>
