<?xml version="1.0" encoding="iso-8859-1"?>
<!-- Generator: Adobe Illustrator 16.0.0, SVG Export Plug-In . SVG Version: 6.00 Build 0)  -->
<!DOCTYPE svg PUBLIC "-//W3C//DTD SVG 1.1//EN" "http://www.w3.org/Graphics/SVG/1.1/DTD/svg11.dtd">
<svg version="1.1" id="Capa_1" xmlns="http://www.w3.org/2000/svg" xmlns:xlink="http://www.w3.org/1999/xlink" x="0px" y="0px"
	 width="103.696px" height="103.696px" viewBox="0 0 103.696 103.696" style="enable-background:new 0 0 103.696 103.696;"
	 xml:space="preserve">
<g>
	<path d="M74.836,62.887c-3.843,8.887-12.843,14.629-22.928,14.629c-10.301,0-19.354-5.771-23.064-14.703
		c-0.636-1.529,0.089-3.285,1.62-3.92c0.376-0.156,0.766-0.23,1.15-0.23c1.176,0,2.292,0.695,2.771,1.85
		c2.777,6.686,9.655,11.004,17.523,11.004c7.689,0,14.527-4.321,17.421-11.01c0.658-1.521,2.424-2.223,3.944-1.564
		S75.494,61.366,74.836,62.887z M27.409,46.465h12.982c4.127,0,7.479-3.8,7.589-8.533h7.738c0.109,4.733,3.461,8.533,7.588,8.533
		h12.983c4.197,0,7.601-3.926,7.601-8.771v-0.409c0-4.844-3.403-8.771-7.601-8.771H63.307c-3.397,0-6.273,2.574-7.246,6.125h-8.423
		c-0.973-3.55-3.849-6.125-7.246-6.125H27.409c-4.197,0-7.6,3.926-7.6,8.771v0.409C19.809,42.538,23.211,46.465,27.409,46.465z
		 M58.707,37.286c0-3.182,2.063-5.771,4.601-5.771h12.981c2.536,0,4.601,2.589,4.601,5.771v0.409c0,3.182-2.063,5.771-4.601,5.771
		H63.307c-2.537,0-4.601-2.589-4.601-5.771V37.286z M22.809,37.286c0-3.182,2.063-5.771,4.6-5.771h12.982
		c2.536,0,4.6,2.589,4.6,5.771v0.409c0,3.182-2.063,5.771-4.6,5.771H27.409c-2.536,0-4.6-2.589-4.6-5.771V37.286z M30.384,37.489
		c0-1.769,1.435-3.204,3.203-3.204c1.768,0,3.204,1.435,3.204,3.204c0,1.771-1.435,3.205-3.204,3.205
		C31.818,40.694,30.384,39.26,30.384,37.489z M66.594,37.489c0-1.769,1.436-3.204,3.203-3.204s3.204,1.435,3.204,3.204
		c0,1.771-1.435,3.205-3.204,3.205C68.029,40.694,66.594,39.26,66.594,37.489z M85.467,103.696H18.23
		C8.179,103.696,0,95.518,0,85.467V18.23C0,8.178,8.179,0,18.23,0h67.235c10.053,0,18.23,8.178,18.23,18.23v67.235
		C103.697,95.518,95.518,103.696,85.467,103.696z M18.23,8.579c-5.321,0-9.651,4.33-9.651,9.651v67.235
		c0,5.321,4.33,9.651,9.651,9.651h67.235c5.321,0,9.651-4.33,9.651-9.651V18.23c0-5.321-4.33-9.651-9.651-9.651H18.23z"/>
</g>
<g>
</g>
<g>
</g>
<g>
</g>
<g>
</g>
<g>
</g>
<g>
</g>
<g>
</g>
<g>
</g>
<g>
</g>
<g>
</g>
<g>
</g>
<g>
</g>
<g>
</g>
<g>
</g>
<g>
</g>
</svg>
