<?xml version="1.0" encoding="iso-8859-1"?>
<!-- Generator: Adobe Illustrator 16.0.0, SVG Export Plug-In . SVG Version: 6.00 Build 0)  -->
<!DOCTYPE svg PUBLIC "-//W3C//DTD SVG 1.1//EN" "http://www.w3.org/Graphics/SVG/1.1/DTD/svg11.dtd">
<svg version="1.1" id="Capa_1" xmlns="http://www.w3.org/2000/svg" xmlns:xlink="http://www.w3.org/1999/xlink" x="0px" y="0px"
	 width="103.695px" height="103.695px" viewBox="0 0 103.695 103.695" style="enable-background:new 0 0 103.695 103.695;"
	 xml:space="preserve">
<g>
	<path d="M73.536,76.368c-22.713,20.021-43.377,0-43.377,0c0-11.55,9.711-20.913,21.688-20.913S73.536,64.818,73.536,76.368z
		 M47.718,36.49c0-5.773-4.688-10.459-10.459-10.459c-5.773,0-10.459,4.686-10.459,10.459c0,5.772,4.686,10.459,10.459,10.459
		C43.03,46.949,47.718,42.262,47.718,36.49z M28.955,36.49c0-4.579,3.724-8.305,8.304-8.305c4.577,0,8.304,3.726,8.304,8.305
		s-3.727,8.305-8.304,8.305C32.679,44.794,28.955,41.069,28.955,36.49z M43.759,36.49c0-3.588-2.914-6.5-6.5-6.5
		c-3.588,0-6.5,2.912-6.5,6.5c0,3.587,2.912,6.5,6.5,6.5C40.845,42.99,43.759,40.076,43.759,36.49z M32.759,36.49
		c0-2.481,2.018-4.5,4.5-4.5c2.48,0,4.5,2.019,4.5,4.5s-2.02,4.5-4.5,4.5C34.777,40.99,32.759,38.971,32.759,36.49z M37.259,38.49
		c-1.104,0-2-0.896-2-2s0.896-2,2-2s2,0.896,2,2S38.363,38.49,37.259,38.49z M67.377,26.031c-5.773,0-10.459,4.686-10.459,10.459
		c0,5.772,4.686,10.459,10.459,10.459c5.77,0,10.459-4.687,10.459-10.459C77.836,30.716,73.146,26.031,67.377,26.031z
		 M67.377,44.794c-4.58,0-8.304-3.726-8.304-8.305s3.724-8.305,8.304-8.305c4.577,0,8.305,3.726,8.305,8.305
		S71.954,44.794,67.377,44.794z M67.377,29.99c-3.588,0-6.5,2.912-6.5,6.5c0,3.587,2.912,6.5,6.5,6.5c3.586,0,6.5-2.913,6.5-6.5
		C73.877,32.902,70.963,29.99,67.377,29.99z M67.377,40.99c-2.482,0-4.5-2.019-4.5-4.5s2.018-4.5,4.5-4.5c2.48,0,4.5,2.019,4.5,4.5
		S69.857,40.99,67.377,40.99z M69.377,36.49c0,1.104-0.896,2-2,2s-2-0.896-2-2s0.896-2,2-2S69.377,35.386,69.377,36.49z
		 M85.467,103.695H18.23C8.178,103.695,0,95.518,0,85.465V18.23C0,8.177,8.178,0,18.23,0h67.235c10.053,0,18.23,8.178,18.23,18.23
		v67.235C103.696,95.518,95.518,103.695,85.467,103.695z M18.23,8.577c-5.321,0-9.651,4.33-9.651,9.652v67.234
		c0,5.322,4.33,9.652,9.651,9.652h67.235c5.321,0,9.651-4.33,9.651-9.652V18.23c0-5.322-4.33-9.652-9.651-9.652L18.23,8.577
		L18.23,8.577z"/>
</g>
<g>
</g>
<g>
</g>
<g>
</g>
<g>
</g>
<g>
</g>
<g>
</g>
<g>
</g>
<g>
</g>
<g>
</g>
<g>
</g>
<g>
</g>
<g>
</g>
<g>
</g>
<g>
</g>
<g>
</g>
</svg>
