<?xml version="1.0" encoding="iso-8859-1"?>
<!-- Generator: Adobe Illustrator 16.0.0, SVG Export Plug-In . SVG Version: 6.00 Build 0)  -->
<!DOCTYPE svg PUBLIC "-//W3C//DTD SVG 1.1//EN" "http://www.w3.org/Graphics/SVG/1.1/DTD/svg11.dtd">
<svg version="1.1" id="Capa_1" xmlns="http://www.w3.org/2000/svg" xmlns:xlink="http://www.w3.org/1999/xlink" x="0px" y="0px"
	 width="103.696px" height="103.696px" viewBox="0 0 103.696 103.696" style="enable-background:new 0 0 103.696 103.696;"
	 xml:space="preserve">
<g>
	<path d="M38.259,44.692c-2.258,0-4.09-2.777-4.09-6.203c0-3.423,1.832-6.201,4.09-6.201c2.258,0,4.09,2.777,4.09,6.201
		C42.349,41.915,40.517,44.692,38.259,44.692z M33.562,31.713c-0.21,1.217-1.267,2.076-2.461,2.076
		c-0.141,0-0.284-0.012-0.428-0.037c-1.36-0.235-2.273-1.528-2.039-2.889c0.506-2.931,3.173-8.333,9.83-7.786
		c1.376,0.113,2.399,1.32,2.286,2.696c-0.112,1.376-1.301,2.4-2.696,2.287C34.358,27.749,33.632,31.307,33.562,31.713z
		 M70.468,38.489c0,3.426-1.832,6.203-4.091,6.203c-2.258,0-4.09-2.777-4.09-6.203c0-3.423,1.832-6.201,4.09-6.201
		C68.636,32.288,70.468,35.065,70.468,38.489z M76.002,30.863c0.234,1.361-0.679,2.654-2.038,2.889
		c-0.145,0.024-0.287,0.037-0.429,0.037c-1.194,0-2.251-0.859-2.461-2.076c-0.07-0.406-0.796-3.963-4.492-3.652
		c-1.396,0.113-2.584-0.911-2.696-2.287c-0.113-1.376,0.91-2.583,2.287-2.696C72.829,22.531,75.496,27.932,76.002,30.863z
		 M64.681,69.988c0,8.184-5.754,14.84-12.833,14.84c-7.078,0-12.833-6.656-12.833-14.84c0-8.182,5.755-14.835,12.833-14.835
		C58.927,55.153,64.681,61.807,64.681,69.988z M85.466,103.696H18.231c-10.053,0-18.23-8.179-18.23-18.229V18.23
		C0.001,8.178,8.179,0,18.231,0h67.235c10.053,0,18.229,8.178,18.229,18.23v67.235C103.696,95.518,95.519,103.696,85.466,103.696z
		 M18.231,8.579c-5.322,0-9.652,4.33-9.652,9.651v67.235c0,5.321,4.33,9.651,9.652,9.651h67.235c5.321,0,9.651-4.33,9.651-9.651
		V18.23c0-5.321-4.33-9.651-9.651-9.651H18.231z"/>
</g>
<g>
</g>
<g>
</g>
<g>
</g>
<g>
</g>
<g>
</g>
<g>
</g>
<g>
</g>
<g>
</g>
<g>
</g>
<g>
</g>
<g>
</g>
<g>
</g>
<g>
</g>
<g>
</g>
<g>
</g>
</svg>
