<?xml version="1.0" encoding="iso-8859-1"?>
<!-- Generator: Adobe Illustrator 16.0.0, SVG Export Plug-In . SVG Version: 6.00 Build 0)  -->
<!DOCTYPE svg PUBLIC "-//W3C//DTD SVG 1.1//EN" "http://www.w3.org/Graphics/SVG/1.1/DTD/svg11.dtd">
<svg version="1.1" id="Capa_1" xmlns="http://www.w3.org/2000/svg" xmlns:xlink="http://www.w3.org/1999/xlink" x="0px" y="0px"
	 width="103.696px" height="103.696px" viewBox="0 0 103.696 103.696" style="enable-background:new 0 0 103.696 103.696;"
	 xml:space="preserve">
<g>
	<path d="M57.677,40.489c0-4.797,3.903-8.701,8.703-8.701c4.797,0,8.698,3.903,8.698,8.701c0,1.381-1.119,2.5-2.5,2.5
		s-2.5-1.119-2.5-2.5c0-2.041-1.66-3.701-3.698-3.701c-2.044,0-3.703,1.66-3.703,3.701c0,1.381-1.119,2.5-2.5,2.5
		C58.795,42.989,57.677,41.869,57.677,40.489z M29.953,40.462c0-4.797,3.904-8.701,8.703-8.701c4.797,0,8.701,3.903,8.701,8.701
		c0,1.381-1.119,2.5-2.5,2.5c-1.381,0-2.5-1.119-2.5-2.5c0-2.041-1.66-3.701-3.701-3.701c-2.043,0-3.703,1.66-3.703,3.701
		c0,1.381-1.119,2.5-2.5,2.5S29.953,41.843,29.953,40.462z M70.455,47.767c0,2.254-1.825,4.081-4.078,4.081
		c-2.252,0-4.079-1.827-4.079-4.081c0-2.252,1.827-4.08,4.079-4.08S70.455,45.515,70.455,47.767z M42.733,47.767
		c0,2.254-1.826,4.081-4.078,4.081s-4.078-1.827-4.078-4.081c0-2.252,1.826-4.08,4.078-4.08S42.733,45.515,42.733,47.767z
		 M29.241,69.848c0-1.92,1.559-3.478,3.479-3.478h38.259c1.92,0,3.479,1.558,3.479,3.478c0,1.922-1.559,3.479-3.479,3.479H32.72
		C30.799,73.326,29.241,71.77,29.241,69.848z M85.466,103.696H18.231c-10.053,0-18.23-8.179-18.23-18.229V18.23
		C0.001,8.178,8.179,0,18.231,0h67.235c10.053,0,18.229,8.178,18.229,18.23v67.235C103.696,95.518,95.519,103.696,85.466,103.696z
		 M18.231,8.579c-5.322,0-9.652,4.33-9.652,9.651v67.235c0,5.321,4.33,9.651,9.652,9.651h67.235c5.321,0,9.651-4.33,9.651-9.651
		V18.23c0-5.321-4.33-9.651-9.651-9.651H18.231z"/>
</g>
<g>
</g>
<g>
</g>
<g>
</g>
<g>
</g>
<g>
</g>
<g>
</g>
<g>
</g>
<g>
</g>
<g>
</g>
<g>
</g>
<g>
</g>
<g>
</g>
<g>
</g>
<g>
</g>
<g>
</g>
</svg>
