<?xml version="1.0" encoding="iso-8859-1"?>
<!-- Generator: Adobe Illustrator 16.0.0, SVG Export Plug-In . SVG Version: 6.00 Build 0)  -->
<!DOCTYPE svg PUBLIC "-//W3C//DTD SVG 1.1//EN" "http://www.w3.org/Graphics/SVG/1.1/DTD/svg11.dtd">
<svg version="1.1" id="Capa_1" xmlns="http://www.w3.org/2000/svg" xmlns:xlink="http://www.w3.org/1999/xlink" x="0px" y="0px"
	 width="103.695px" height="103.695px" viewBox="0 0 103.695 103.695" style="enable-background:new 0 0 103.695 103.695;"
	 xml:space="preserve">
<g>
	<path d="M37.26,42.99c3.586,0,6.5-2.913,6.5-6.5c0-3.588-2.914-6.5-6.5-6.5c-3.588,0-6.5,2.912-6.5,6.5
		C30.76,40.076,33.672,42.99,37.26,42.99z M37.26,31.99c2.48,0,4.5,2.019,4.5,4.5s-2.02,4.5-4.5,4.5c-2.482,0-4.5-2.019-4.5-4.5
		S34.777,31.99,37.26,31.99z M35.26,36.49c0-1.104,0.896-2,2-2s2,0.896,2,2s-0.896,2-2,2S35.26,37.593,35.26,36.49z M65.098,42.99
		c3.586,0,6.5-2.913,6.5-6.5c0-3.588-2.914-6.5-6.5-6.5c-3.588,0-6.5,2.912-6.5,6.5C58.598,40.076,61.51,42.99,65.098,42.99z
		 M65.098,31.99c2.48,0,4.5,2.019,4.5,4.5s-2.02,4.5-4.5,4.5c-2.481,0-4.5-2.019-4.5-4.5S62.616,31.99,65.098,31.99z M63.098,36.49
		c0-1.104,0.896-2,2-2c1.104,0,2,0.896,2,2s-0.896,2-2,2C63.994,38.49,63.098,37.593,63.098,36.49z M73.537,76.368
		c-22.713,20.021-43.377,0-43.377,0c0-11.55,9.711-20.913,21.688-20.913S73.537,64.818,73.537,76.368z M85.467,103.695H18.23
		C8.178,103.695,0,95.518,0,85.465V18.23C0,8.177,8.178,0,18.23,0h67.235c10.053,0,18.23,8.178,18.23,18.23v67.235
		C103.696,95.518,95.518,103.695,85.467,103.695z M18.23,8.577c-5.321,0-9.651,4.33-9.651,9.652v67.234
		c0,5.322,4.33,9.652,9.651,9.652h67.235c5.321,0,9.651-4.33,9.651-9.652V18.23c0-5.322-4.33-9.652-9.651-9.652L18.23,8.577
		L18.23,8.577z"/>
</g>
<g>
</g>
<g>
</g>
<g>
</g>
<g>
</g>
<g>
</g>
<g>
</g>
<g>
</g>
<g>
</g>
<g>
</g>
<g>
</g>
<g>
</g>
<g>
</g>
<g>
</g>
<g>
</g>
<g>
</g>
</svg>
