<?xml version="1.0" encoding="iso-8859-1"?>
<!-- Generator: Adobe Illustrator 16.0.0, SVG Export Plug-In . SVG Version: 6.00 Build 0)  -->
<!DOCTYPE svg PUBLIC "-//W3C//DTD SVG 1.1//EN" "http://www.w3.org/Graphics/SVG/1.1/DTD/svg11.dtd">
<svg version="1.1" id="Capa_1" xmlns="http://www.w3.org/2000/svg" xmlns:xlink="http://www.w3.org/1999/xlink" x="0px" y="0px"
	 width="103.696px" height="103.695px" viewBox="0 0 103.696 103.695" style="enable-background:new 0 0 103.696 103.695;"
	 xml:space="preserve">
<g>
	<path d="M75.078,40.488c0,1.381-1.119,2.5-2.5,2.5s-2.5-1.119-2.5-2.5c0-2.041-1.66-3.701-3.698-3.701
		c-2.044,0-3.703,1.66-3.703,3.701c0,1.381-1.119,2.5-2.5,2.5c-1.382,0-2.5-1.119-2.5-2.5c0-4.797,3.903-8.701,8.703-8.701
		C71.176,31.786,75.078,35.691,75.078,40.488z M29.953,40.461c0-4.798,3.904-8.7,8.703-8.7c4.797,0,8.701,3.902,8.701,8.7
		c0,1.381-1.119,2.5-2.5,2.5c-1.381,0-2.5-1.119-2.5-2.5c0-2.04-1.66-3.7-3.701-3.7c-2.043,0-3.703,1.66-3.703,3.7
		c0,1.381-1.119,2.5-2.5,2.5S29.953,41.842,29.953,40.461z M66.376,51.847c-2.252,0-4.079-1.827-4.079-4.081
		c0-2.253,1.827-4.079,4.079-4.079s4.078,1.826,4.078,4.079C70.455,50.02,68.628,51.847,66.376,51.847z M42.732,47.766
		c0,2.254-1.826,4.081-4.078,4.081s-4.078-1.827-4.078-4.081c0-2.253,1.826-4.079,4.078-4.079S42.732,45.513,42.732,47.766z
		 M74.457,69.848c0,1.92-1.56,3.479-3.479,3.479H32.718c-1.92,0-3.479-1.559-3.479-3.479c0-1.922,1.559-3.479,3.479-3.479h38.259
		C72.899,66.368,74.457,67.926,74.457,69.848z M21.555,47.774c0,0,0.541,3.958-3.027,4.445c0,0-3.654,0.531-4.156-3.146
		c0,0-0.229-1.674,0.732-3.64c0,0,0.857-1.729,0.918-4.51C16.021,40.924,21.09,44.37,21.555,47.774z M73.901,21.309
		c1.219,1.818,1.219,3.508,1.219,3.508c0,3.711-3.693,3.678-3.693,3.678c-3.6,0-3.6-3.994-3.6-3.994
		c0-3.436,4.555-7.535,4.555-7.535C72.819,19.712,73.901,21.309,73.901,21.309z M89.848,56.793c0,3.711-3.693,3.678-3.693,3.678
		c-3.6,0-3.6-3.994-3.6-3.994c0-3.436,4.555-7.535,4.555-7.535c0.438,2.747,1.52,4.344,1.52,4.344
		C89.848,55.104,89.848,56.793,89.848,56.793z M85.465,103.695H18.23C8.178,103.695,0,95.518,0,85.465V18.23
		C0,8.177,8.179,0,18.23,0h67.235c10.053,0,18.229,8.178,18.229,18.23v67.235C103.696,95.518,95.518,103.695,85.465,103.695z
		 M18.23,8.577c-5.322,0-9.652,4.33-9.652,9.652v67.234c0,5.322,4.33,9.652,9.652,9.652h67.235c5.321,0,9.651-4.33,9.651-9.652
		V18.23c0-5.322-4.33-9.652-9.651-9.652L18.23,8.577L18.23,8.577z"/>
</g>
<g>
</g>
<g>
</g>
<g>
</g>
<g>
</g>
<g>
</g>
<g>
</g>
<g>
</g>
<g>
</g>
<g>
</g>
<g>
</g>
<g>
</g>
<g>
</g>
<g>
</g>
<g>
</g>
<g>
</g>
</svg>
