<?xml version="1.0" encoding="iso-8859-1"?>
<!-- Generator: Adobe Illustrator 16.0.0, SVG Export Plug-In . SVG Version: 6.00 Build 0)  -->
<!DOCTYPE svg PUBLIC "-//W3C//DTD SVG 1.1//EN" "http://www.w3.org/Graphics/SVG/1.1/DTD/svg11.dtd">
<svg version="1.1" id="Capa_1" xmlns="http://www.w3.org/2000/svg" xmlns:xlink="http://www.w3.org/1999/xlink" x="0px" y="0px"
	 width="103.696px" height="103.696px" viewBox="0 0 103.696 103.696" style="enable-background:new 0 0 103.696 103.696;"
	 xml:space="preserve">
<g>
	<path d="M57.676,40.489c0-4.797,3.904-8.701,8.703-8.701c4.797,0,8.7,3.903,8.7,8.701c0,1.381-1.119,2.5-2.5,2.5
		s-2.5-1.119-2.5-2.5c0-2.041-1.66-3.701-3.7-3.701c-2.043,0-3.703,1.66-3.703,3.701c0,1.381-1.119,2.5-2.5,2.5
		S57.676,41.869,57.676,40.489z M29.954,40.462c0-4.797,3.904-8.701,8.703-8.701c4.797,0,8.701,3.903,8.701,8.701
		c0,1.381-1.119,2.5-2.5,2.5c-1.381,0-2.5-1.119-2.5-2.5c0-2.041-1.66-3.701-3.701-3.701c-2.042,0-3.703,1.66-3.703,3.701
		c0,1.381-1.119,2.5-2.5,2.5S29.954,41.843,29.954,40.462z M52.909,58.189c10.084,0,19.084,5.742,22.927,14.63
		c0.658,1.521-0.041,3.286-1.563,3.944c-1.52,0.66-3.284-0.043-3.942-1.563c-2.894-6.688-9.731-11.011-17.421-11.011
		c-7.869,0-14.747,4.318-17.523,11.004c-0.48,1.154-1.596,1.85-2.771,1.85c-0.385,0-0.773-0.074-1.15-0.23
		c-1.53-0.635-2.256-2.391-1.619-3.92C33.555,63.961,42.607,58.189,52.909,58.189z M24.023,55.619
		c0.001-3.436,4.556-7.535,4.556-7.535c0.438,2.747,1.52,4.344,1.52,4.344c1.218,1.818,1.218,3.508,1.218,3.508
		c0,3.711-3.692,3.679-3.692,3.679C24.023,59.613,24.023,55.619,24.023,55.619z M85.467,103.696H18.23
		C8.179,103.696,0,95.518,0,85.467V18.23C0,8.178,8.179,0,18.23,0h67.235c10.053,0,18.23,8.178,18.23,18.23v67.235
		C103.697,95.518,95.518,103.696,85.467,103.696z M18.23,8.579c-5.321,0-9.651,4.33-9.651,9.651v67.235
		c0,5.321,4.33,9.651,9.651,9.651h67.235c5.321,0,9.651-4.33,9.651-9.651V18.23c0-5.321-4.33-9.651-9.651-9.651H18.23z"/>
</g>
<g>
</g>
<g>
</g>
<g>
</g>
<g>
</g>
<g>
</g>
<g>
</g>
<g>
</g>
<g>
</g>
<g>
</g>
<g>
</g>
<g>
</g>
<g>
</g>
<g>
</g>
<g>
</g>
<g>
</g>
</svg>
