<?xml version="1.0" encoding="iso-8859-1"?>
<!-- Generator: Adobe Illustrator 16.0.0, SVG Export Plug-In . SVG Version: 6.00 Build 0)  -->
<!DOCTYPE svg PUBLIC "-//W3C//DTD SVG 1.1//EN" "http://www.w3.org/Graphics/SVG/1.1/DTD/svg11.dtd">
<svg version="1.1" id="Capa_1" xmlns="http://www.w3.org/2000/svg" xmlns:xlink="http://www.w3.org/1999/xlink" x="0px" y="0px"
	 width="103.696px" height="103.696px" viewBox="0 0 103.696 103.696" style="enable-background:new 0 0 103.696 103.696;"
	 xml:space="preserve">
<g>
	<path d="M24.325,37.49c0-1.738,1.409-3.147,3.146-3.147h13.373c1.738,0,3.146,1.409,3.146,3.147c0,1.738-1.408,3.147-3.146,3.147
		H27.471C25.733,40.637,24.325,39.228,24.325,37.49z M59.706,37.491c0-1.738,1.409-3.147,3.146-3.147h13.373
		c1.737,0,3.146,1.409,3.146,3.147s-1.408,3.147-3.146,3.147H62.854C61.116,40.638,59.706,39.228,59.706,37.491z M35.486,69.987
		c0,9.026,7.34,16.37,16.363,16.37c9.022,0,16.363-7.344,16.363-16.37c0-9.024-7.341-16.365-16.363-16.365
		C42.826,53.622,35.486,60.963,35.486,69.987z M51.849,59.283c5.901,0,10.703,4.803,10.703,10.705
		c0,5.904-4.802,10.709-10.703,10.709c-5.902,0-10.704-4.805-10.704-10.709C41.145,64.085,45.947,59.283,51.849,59.283z
		 M85.467,103.696H18.23C8.179,103.696,0,95.518,0,85.467V18.23C0,8.178,8.179,0,18.23,0h67.235c10.053,0,18.23,8.178,18.23,18.23
		v67.235C103.697,95.518,95.518,103.696,85.467,103.696z M18.23,8.579c-5.321,0-9.651,4.33-9.651,9.651v67.235
		c0,5.321,4.33,9.651,9.651,9.651h67.235c5.321,0,9.651-4.33,9.651-9.651V18.23c0-5.321-4.33-9.651-9.651-9.651H18.23z"/>
</g>
<g>
</g>
<g>
</g>
<g>
</g>
<g>
</g>
<g>
</g>
<g>
</g>
<g>
</g>
<g>
</g>
<g>
</g>
<g>
</g>
<g>
</g>
<g>
</g>
<g>
</g>
<g>
</g>
<g>
</g>
</svg>
