<?xml version="1.0" encoding="iso-8859-1"?>
<!-- Generator: Adobe Illustrator 16.0.0, SVG Export Plug-In . SVG Version: 6.00 Build 0)  -->
<!DOCTYPE svg PUBLIC "-//W3C//DTD SVG 1.1//EN" "http://www.w3.org/Graphics/SVG/1.1/DTD/svg11.dtd">
<svg version="1.1" id="Capa_1" xmlns="http://www.w3.org/2000/svg" xmlns:xlink="http://www.w3.org/1999/xlink" x="0px" y="0px"
	 width="103.696px" height="103.696px" viewBox="0 0 103.696 103.696" style="enable-background:new 0 0 103.696 103.696;"
	 xml:space="preserve">
<g>
	<path d="M69.53,56.152H34.168c-4.687,0-8.486,3.8-8.486,8.486v9.752c0,4.687,3.799,8.485,8.486,8.485H69.53
		c4.688,0,8.486-3.8,8.486-8.485v-9.752C78.016,59.952,74.217,56.152,69.53,56.152z M37.773,79.573h-5.322
		c-1.297-0.938-2.271-2.293-2.725-3.872v-4.176h8.047V79.573z M37.773,67.504h-8.047v-4.176c0.454-1.578,1.428-2.934,2.725-3.872
		h5.322V67.504z M49.831,79.573h-8.033v-8.046h8.033V79.573z M49.831,67.504h-8.033v-8.048h8.033V67.504z M61.901,79.573h-8.033
		v-8.046h8.033V79.573z M61.901,67.504h-8.033v-8.048h8.033V67.504z M73.971,75.701c-0.453,1.578-1.428,2.934-2.725,3.872h-5.322
		v-8.046h8.047V75.701z M73.971,67.504h-8.047v-8.048h5.322c1.297,0.938,2.271,2.294,2.725,3.872V67.504z M27.204,35.436
		c-1.229-1.229-1.229-3.222,0-4.451s3.222-1.229,4.451,0l9.456,9.455c0.014,0.014,0.023,0.031,0.038,0.046
		c1.16,1.127,1.884,2.701,1.884,4.446c0,3.426-2.777,6.203-6.2,6.203c-3.423,0-6.201-2.777-6.201-6.203
		c0-1.678,0.67-3.198,1.754-4.315L27.204,35.436z M60.664,44.933c0-1.745,0.724-3.319,1.884-4.446
		c0.014-0.015,0.023-0.032,0.038-0.046l9.456-9.455c1.229-1.229,3.223-1.229,4.451,0s1.229,3.222-0.001,4.451l-5.181,5.182
		c1.082,1.117,1.752,2.637,1.752,4.315c0,3.426-2.776,6.203-6.199,6.203C63.44,51.137,60.664,48.359,60.664,44.933z M85.467,103.696
		H18.23C8.179,103.696,0,95.518,0,85.467V18.23C0,8.178,8.179,0,18.23,0h67.235c10.053,0,18.23,8.178,18.23,18.23v67.235
		C103.697,95.518,95.518,103.696,85.467,103.696z M18.23,8.579c-5.321,0-9.651,4.33-9.651,9.651v67.235
		c0,5.321,4.33,9.651,9.651,9.651h67.235c5.321,0,9.651-4.33,9.651-9.651V18.23c0-5.321-4.33-9.651-9.651-9.651H18.23z"/>
</g>
<g>
</g>
<g>
</g>
<g>
</g>
<g>
</g>
<g>
</g>
<g>
</g>
<g>
</g>
<g>
</g>
<g>
</g>
<g>
</g>
<g>
</g>
<g>
</g>
<g>
</g>
<g>
</g>
<g>
</g>
</svg>
