<?xml version="1.0" encoding="iso-8859-1"?>
<!-- Generator: Adobe Illustrator 16.0.0, SVG Export Plug-In . SVG Version: 6.00 Build 0)  -->
<!DOCTYPE svg PUBLIC "-//W3C//DTD SVG 1.1//EN" "http://www.w3.org/Graphics/SVG/1.1/DTD/svg11.dtd">
<svg version="1.1" id="Capa_1" xmlns="http://www.w3.org/2000/svg" xmlns:xlink="http://www.w3.org/1999/xlink" x="0px" y="0px"
	 width="103.696px" height="103.695px" viewBox="0 0 103.696 103.695" style="enable-background:new 0 0 103.696 103.695;"
	 xml:space="preserve">
<g>
	<path d="M60.174,37.488c0-3.424,2.78-6.201,6.203-6.201c3.424,0,6.2,2.777,6.2,6.201c0,3.426-2.776,6.203-6.2,6.203
		C62.955,43.691,60.174,40.913,60.174,37.488z M28.843,62.812c-0.636-1.529,0.089-3.285,1.62-3.922
		c0.376-0.156,0.766-0.23,1.149-0.23c1.176,0.002,2.292,0.697,2.771,1.852c2.776,6.685,9.655,11.004,17.523,11.004
		c7.69,0,14.528-4.321,17.421-11.012c0.658-1.52,2.424-2.221,3.943-1.562c1.521,0.658,2.221,2.424,1.563,3.945
		c-3.843,8.887-12.843,14.629-22.928,14.629C41.606,77.516,32.553,71.743,28.843,62.812z M32.104,37.535
		c0-0.338,0.036-0.668,0.088-0.992c0.476,2.93,3.008,5.166,6.066,5.166c3.061,0,5.593-2.236,6.067-5.166
		c0.052,0.324,0.087,0.654,0.087,0.992c0,3.4-2.756,6.156-6.154,6.156C34.862,43.691,32.104,40.935,32.104,37.535z M85.465,103.695
		H18.23C8.178,103.695,0,95.518,0,85.465V18.23C0,8.177,8.179,0,18.23,0h67.235c10.053,0,18.229,8.178,18.229,18.23v67.235
		C103.696,95.518,95.518,103.695,85.465,103.695z M18.23,8.577c-5.322,0-9.652,4.33-9.652,9.652v67.234
		c0,5.322,4.33,9.652,9.652,9.652h67.235c5.321,0,9.651-4.33,9.651-9.652V18.23c0-5.322-4.33-9.652-9.651-9.652L18.23,8.577
		L18.23,8.577z"/>
</g>
<g>
</g>
<g>
</g>
<g>
</g>
<g>
</g>
<g>
</g>
<g>
</g>
<g>
</g>
<g>
</g>
<g>
</g>
<g>
</g>
<g>
</g>
<g>
</g>
<g>
</g>
<g>
</g>
<g>
</g>
</svg>
