<?xml version="1.0" encoding="iso-8859-1"?>
<!-- Generator: Adobe Illustrator 16.0.0, SVG Export Plug-In . SVG Version: 6.00 Build 0)  -->
<!DOCTYPE svg PUBLIC "-//W3C//DTD SVG 1.1//EN" "http://www.w3.org/Graphics/SVG/1.1/DTD/svg11.dtd">
<svg version="1.1" id="Capa_1" xmlns="http://www.w3.org/2000/svg" xmlns:xlink="http://www.w3.org/1999/xlink" x="0px" y="0px"
	 width="103.696px" height="103.696px" viewBox="0 0 103.696 103.696" style="enable-background:new 0 0 103.696 103.696;"
	 xml:space="preserve">
<g>
	<path d="M60.176,37.49c0-1.198,2.78-2.17,6.203-2.17c3.424,0,6.201,0.972,6.201,2.17c0,1.199-2.777,2.171-6.201,2.171
		C62.957,39.661,60.176,38.689,60.176,37.49z M74.836,62.887c-3.843,8.887-12.843,14.629-22.928,14.629
		c-10.301,0-19.354-5.771-23.064-14.703c-0.636-1.529,0.089-3.285,1.62-3.92c0.376-0.156,0.766-0.23,1.15-0.23
		c1.176,0,2.292,0.695,2.771,1.85c2.777,6.686,9.655,11.004,17.523,11.004c7.689,0,14.527-4.321,17.421-11.01
		c0.658-1.521,2.424-2.223,3.944-1.564S75.495,61.366,74.836,62.887z M32.06,37.489c0-3.423,2.777-6.201,6.201-6.201
		c3.423,0,6.2,2.777,6.2,6.201c0,3.426-2.777,6.203-6.2,6.203C34.836,43.692,32.06,40.915,32.06,37.489z M85.467,103.696H18.23
		C8.179,103.696,0,95.518,0,85.467V18.23C0,8.178,8.179,0,18.23,0h67.235c10.053,0,18.23,8.178,18.23,18.23v67.235
		C103.697,95.518,95.518,103.696,85.467,103.696z M18.23,8.579c-5.321,0-9.651,4.33-9.651,9.651v67.235
		c0,5.321,4.33,9.651,9.651,9.651h67.235c5.321,0,9.651-4.33,9.651-9.651V18.23c0-5.321-4.33-9.651-9.651-9.651H18.23z"/>
</g>
<g>
</g>
<g>
</g>
<g>
</g>
<g>
</g>
<g>
</g>
<g>
</g>
<g>
</g>
<g>
</g>
<g>
</g>
<g>
</g>
<g>
</g>
<g>
</g>
<g>
</g>
<g>
</g>
<g>
</g>
</svg>
