<?xml version="1.0" encoding="iso-8859-1"?>
<!-- Generator: Adobe Illustrator 16.0.0, SVG Export Plug-In . SVG Version: 6.00 Build 0)  -->
<!DOCTYPE svg PUBLIC "-//W3C//DTD SVG 1.1//EN" "http://www.w3.org/Graphics/SVG/1.1/DTD/svg11.dtd">
<svg version="1.1" id="Capa_1" xmlns="http://www.w3.org/2000/svg" xmlns:xlink="http://www.w3.org/1999/xlink" x="0px" y="0px"
	 width="103.696px" height="103.695px" viewBox="0 0 103.696 103.695" style="enable-background:new 0 0 103.696 103.695;"
	 xml:space="preserve">
<g>
	<path d="M75.835,72.818c0.656,1.521-0.043,3.287-1.563,3.945s-3.286-0.043-3.944-1.563c-2.894-6.688-9.729-11.013-17.42-11.013
		c-7.869,0-14.748,4.32-17.523,11.006c-0.48,1.152-1.596,1.85-2.771,1.852c-0.385,0-0.773-0.074-1.15-0.23
		c-1.531-0.637-2.256-2.393-1.619-3.922c3.709-8.933,12.764-14.703,23.064-14.703C62.993,58.189,71.993,63.932,75.835,72.818z
		 M36.369,42.703c-1.688-1.688-1.688-4.426,0-6.113c1.689-1.689,4.428-1.689,6.117,0c1.688,1.689,1.688,4.429,0,6.115
		C40.799,44.394,38.061,44.394,36.369,42.703z M51.866,18.221c0.541-1.596,2.271-2.452,3.869-1.911l4.117,1.394l2.248-3.72
		c0.873-1.44,2.748-1.903,4.188-1.031c1.44,0.871,1.904,2.748,1.031,4.188l-1.552,2.566l2.246,0.761
		c1.597,0.542,2.451,2.272,1.91,3.869c-0.539,1.596-2.271,2.452-3.869,1.91l-3.521-1.192l-1.924,3.181
		c-0.871,1.443-2.746,1.906-4.188,1.033c-1.441-0.871-1.904-2.747-1.031-4.189l1.227-2.028l-2.842-0.962
		C52.18,21.548,51.325,19.816,51.866,18.221z M68.28,36.519c1.688,1.688,1.688,4.426,0,6.113c-1.691,1.69-4.43,1.69-6.117,0.002
		c-1.688-1.687-1.688-4.426,0-6.115C63.852,34.829,66.59,34.829,68.28,36.519z M85.465,103.695H18.23
		C8.178,103.695,0,95.518,0,85.465V18.23C0,8.177,8.179,0,18.23,0h67.235c10.053,0,18.229,8.178,18.229,18.23v67.235
		C103.696,95.518,95.518,103.695,85.465,103.695z M18.23,8.577c-5.322,0-9.652,4.33-9.652,9.652v67.234
		c0,5.322,4.33,9.652,9.652,9.652h67.235c5.321,0,9.651-4.33,9.651-9.652V18.23c0-5.322-4.33-9.652-9.651-9.652L18.23,8.577
		L18.23,8.577z"/>
</g>
<g>
</g>
<g>
</g>
<g>
</g>
<g>
</g>
<g>
</g>
<g>
</g>
<g>
</g>
<g>
</g>
<g>
</g>
<g>
</g>
<g>
</g>
<g>
</g>
<g>
</g>
<g>
</g>
<g>
</g>
</svg>
