<?xml version="1.0" encoding="iso-8859-1"?>
<!-- Generator: Adobe Illustrator 16.0.0, SVG Export Plug-In . SVG Version: 6.00 Build 0)  -->
<!DOCTYPE svg PUBLIC "-//W3C//DTD SVG 1.1//EN" "http://www.w3.org/Graphics/SVG/1.1/DTD/svg11.dtd">
<svg version="1.1" id="Capa_1" xmlns="http://www.w3.org/2000/svg" xmlns:xlink="http://www.w3.org/1999/xlink" x="0px" y="0px"
	 width="103.696px" height="103.695px" viewBox="0 0 103.696 103.695" style="enable-background:new 0 0 103.696 103.695;"
	 xml:space="preserve">
<g>
	<path d="M45.099,71.695c0-10.014,0.823-18.139,8.001-18.139c7.177,0,9.998,8.125,9.998,18.139c0,10.02-2.821,18.143-9.998,18.143
		C45.922,89.836,45.099,81.713,45.099,71.695z M31.586,35.929c0-1.363,0.445-2.619,1.189-3.643c1.12,1.609,2.981,2.666,5.09,2.666
		c2.062,0,3.884-1.012,5.011-2.561c0.698,1.004,1.11,2.222,1.11,3.537c0,3.424-2.776,6.201-6.2,6.201
		C34.365,42.13,31.586,39.353,31.586,35.929z M59.705,35.929c0-1.363,0.444-2.619,1.188-3.643c1.121,1.609,2.981,2.666,5.091,2.666
		c2.062,0,3.884-1.012,5.011-2.561c0.698,1.004,1.109,2.222,1.109,3.537c0,3.424-2.775,6.201-6.199,6.201
		C62.483,42.13,59.705,39.353,59.705,35.929z M85.465,103.695H18.23C8.178,103.695,0,95.518,0,85.465V18.23C0,8.177,8.179,0,18.23,0
		h67.235c10.053,0,18.229,8.178,18.229,18.23v67.235C103.696,95.518,95.518,103.695,85.465,103.695z M18.23,8.577
		c-5.322,0-9.652,4.33-9.652,9.652v67.234c0,5.322,4.33,9.652,9.652,9.652h67.235c5.321,0,9.651-4.33,9.651-9.652V18.23
		c0-5.322-4.33-9.652-9.651-9.652L18.23,8.577L18.23,8.577z"/>
</g>
<g>
</g>
<g>
</g>
<g>
</g>
<g>
</g>
<g>
</g>
<g>
</g>
<g>
</g>
<g>
</g>
<g>
</g>
<g>
</g>
<g>
</g>
<g>
</g>
<g>
</g>
<g>
</g>
<g>
</g>
</svg>
